<svg width="200" height="200" viewBox="0 0 200 200" fill="none" xmlns="http://www.w3.org/2000/svg">
<circle opacity="0.05" cx="100" cy="99.9999" r="96.8" fill="#EE0088"/>
<mask id="mask0_2654_12722" style="mask-type:alpha" maskUnits="userSpaceOnUse" x="3" y="3" width="194" height="194">
<ellipse cx="100" cy="100" rx="96.8" ry="96.8" fill="#EE0088"/>
</mask>
<g mask="url(#mask0_2654_12722)">
<path d="M137.832 89.9999C137.437 89.7464 137.043 89.4999 136.648 89.2605L136.923 88.8027L138.12 89.5563L137.832 89.9999Z" fill="#263238"/>
<path d="M120.634 160.563H120.127V160.035C121.067 160.056 122.008 160.021 122.944 159.929L123 160.458C122.233 160.514 121.43 160.563 120.634 160.563ZM125.859 159.986L125.747 159.472C126.663 159.264 127.562 158.989 128.437 158.648L128.627 159.141C127.726 159.486 126.801 159.764 125.859 159.972V159.986ZM131.233 157.873L130.972 157.415C131.781 156.943 132.552 156.406 133.275 155.81L133.613 156.211C132.868 156.833 132.071 157.391 131.233 157.88V157.873ZM135.69 154.211L135.303 153.852C135.935 153.157 136.516 152.418 137.042 151.641L137.479 151.936C136.939 152.742 136.341 153.507 135.69 154.225V154.211ZM138.916 149.429L138.437 149.204C138.838 148.356 139.166 147.475 139.416 146.57L139.923 146.711C139.667 147.647 139.33 148.559 138.916 149.436V149.429ZM140.437 143.852L139.909 143.81C139.909 143.429 139.958 143.042 139.958 142.669C139.956 142.146 139.925 141.625 139.866 141.105C139.318 141.069 138.773 141 138.233 140.901L138.324 140.38C139.184 140.535 140.056 140.615 140.93 140.62H141.113V141.148H140.923H140.395C140.451 141.658 140.479 142.17 140.479 142.683C140.486 143.063 140.465 143.465 140.437 143.859V143.852ZM144.007 140.796L143.888 140.282C144.793 140.067 145.67 139.746 146.5 139.324L146.74 139.796C145.872 140.238 144.955 140.576 144.007 140.803V140.796ZM135.43 140.141C134.519 139.812 133.636 139.412 132.789 138.944L133.049 138.486C133.869 138.939 134.724 139.325 135.606 139.641L135.43 140.141ZM139.219 138.282C138.91 137.401 138.503 136.558 138.007 135.767L138.451 135.486C138.973 136.307 139.398 137.186 139.719 138.105L139.219 138.282ZM149.162 138.169L148.824 137.767C149.539 137.164 150.192 136.492 150.775 135.76L151.183 136.091C150.582 136.857 149.905 137.56 149.162 138.19V138.169ZM130.402 137.324L130.254 137.183C129.557 136.571 129.001 135.814 128.627 134.965L129.12 134.767C129.463 135.545 129.973 136.237 130.613 136.796L130.754 136.922L130.402 137.324ZM152.817 133.725L152.366 133.451C152.859 132.634 153.317 131.796 153.719 130.972L154.197 131.204C153.789 132.042 153.324 132.894 152.817 133.725ZM136.254 133.62C135.61 132.996 134.902 132.444 134.141 131.972L134.035 131.901L134.31 131.451L134.423 131.521C135.208 132.016 135.937 132.595 136.599 133.246L136.254 133.62ZM129.261 132.26L128.824 131.965C129.126 131.541 129.525 131.197 129.989 130.961C130.452 130.726 130.966 130.606 131.486 130.613V131.141C131.053 131.138 130.626 131.238 130.239 131.433C129.852 131.628 129.517 131.911 129.261 132.26ZM155.317 128.549L154.824 128.366C155.15 127.482 155.43 126.582 155.662 125.669L156.169 125.796C155.942 126.729 155.66 127.649 155.324 128.549H155.317ZM156.726 122.965L156.197 122.894C156.323 121.96 156.396 121.02 156.416 120.077H156.944C156.925 121.043 156.852 122.007 156.726 122.965ZM156.317 117.26C156.232 116.315 156.098 115.375 155.916 114.443L156.437 114.338C156.621 115.281 156.757 116.233 156.845 117.19L156.317 117.26ZM155.226 111.725C154.958 110.838 154.641 109.944 154.275 109.056L154.768 108.859C155.134 109.753 155.472 110.669 155.733 111.57L155.226 111.725ZM153.113 106.479C152.69 105.655 152.219 104.824 151.704 104.007L152.155 103.732C152.662 104.556 153.141 105.401 153.564 106.239L153.113 106.479ZM150.148 101.648C149.606 100.887 149.021 100.134 148.416 99.4012L148.824 99.0632C149.437 99.8027 150.028 100.57 150.578 101.338L150.148 101.648ZM146.542 97.2674C145.902 96.5632 145.226 95.9083 144.535 95.2604L144.895 94.8731C145.599 95.5351 146.303 96.2181 146.923 96.9083L146.542 97.2674ZM142.409 93.3731C141.704 92.7745 140.937 92.1829 140.183 91.6196L140.493 91.197C141.261 91.7604 142.021 92.359 142.747 92.9717L142.409 93.3731Z" fill="#263238"/>
<path d="M117.177 160.31C116.703 160.251 116.233 160.166 115.769 160.056L115.895 159.542C115.895 159.542 116.402 159.669 117.247 159.789L117.177 160.31Z" fill="#263238"/>
<path d="M110.071 159.261C109.74 162.077 115.494 163.655 115.931 159.965C116.367 156.275 110.402 156.423 110.071 159.261Z" fill="#263238"/>
<path d="M117.606 163.923C117.071 164.986 115.177 165.134 113.219 163.768C111.889 162.753 110.766 161.493 109.909 160.056C111.565 159.884 113.238 160.03 114.839 160.486C117.156 161.268 118.17 162.845 117.606 163.923Z" fill="#EBEBEB"/>
<path d="M109.93 160.056C111.042 160.556 112.134 161.098 113.225 161.634C114.317 162.169 115.394 162.739 116.458 163.331C115.345 162.831 114.254 162.289 113.162 161.753C112.071 161.218 110.993 160.648 109.93 160.056Z" fill="#263238"/>
<path d="M115.042 163.901C114.79 163.608 114.554 163.3 114.338 162.979C114.126 162.66 113.933 162.328 113.761 161.986C114.014 162.279 114.249 162.587 114.465 162.908C114.679 163.226 114.872 163.558 115.042 163.901Z" fill="#263238"/>
<path d="M112.677 161.43C113.064 161.329 113.457 161.249 113.853 161.19C114.252 161.134 114.654 161.098 115.057 161.084C114.277 161.279 113.48 161.394 112.677 161.43Z" fill="#263238"/>
<path d="M112.064 161.894C111.821 161.593 111.648 161.242 111.557 160.866C111.799 161.168 111.972 161.519 112.064 161.894Z" fill="#263238"/>
<path d="M118.536 156.549C118.261 155.387 116.458 154.81 114.24 155.683C112.709 156.365 111.322 157.333 110.155 158.535C111.738 159.083 113.412 159.322 115.085 159.239C117.458 159.042 118.817 157.746 118.536 156.549Z" fill="#EBEBEB"/>
<path d="M110.155 158.535C111.352 158.31 112.543 158.028 113.726 157.753C114.909 157.479 116.092 157.183 117.247 156.852C116.057 157.077 114.867 157.359 113.683 157.634C112.5 157.908 111.331 158.204 110.155 158.535Z" fill="#263238"/>
<path d="M116.022 155.972C115.715 156.19 115.421 156.425 115.141 156.676C114.862 156.939 114.596 157.216 114.346 157.507C114.655 157.293 114.949 157.058 115.226 156.803C115.507 156.541 115.773 156.264 116.022 155.972Z" fill="#263238"/>
<path d="M113.134 157.831C113.847 158.202 114.598 158.497 115.373 158.711C114.661 158.337 113.91 158.041 113.134 157.831Z" fill="#263238"/>
<path d="M112.677 157.239C112.523 157.354 112.384 157.486 112.261 157.634C112.14 157.785 112.033 157.947 111.944 158.12C112.098 158.002 112.237 157.868 112.36 157.718C112.488 157.574 112.594 157.413 112.677 157.239Z" fill="#263238"/>
<path d="M110.071 159.261C110.273 159.284 110.463 159.367 110.618 159.498C110.772 159.63 110.885 159.804 110.941 159.999C110.996 160.195 110.993 160.402 110.931 160.595C110.869 160.789 110.751 160.96 110.592 161.086C110.434 161.213 110.241 161.289 110.038 161.306C109.836 161.323 109.633 161.28 109.455 161.182C109.278 161.084 109.133 160.935 109.039 160.755C108.946 160.575 108.908 160.371 108.93 160.169C108.962 159.898 109.1 159.65 109.313 159.48C109.527 159.31 109.799 159.231 110.071 159.261Z" fill="#455A64"/>
<path d="M110.311 157.211C110.445 157.227 110.575 157.269 110.694 157.335C110.812 157.401 110.916 157.49 111 157.596C111.084 157.702 111.146 157.824 111.183 157.954C111.22 158.085 111.231 158.221 111.215 158.355C111.2 158.49 111.158 158.62 111.092 158.738C111.026 158.857 110.937 158.961 110.831 159.045C110.724 159.129 110.603 159.191 110.472 159.228C110.342 159.265 110.206 159.276 110.071 159.26C109.799 159.229 109.551 159.09 109.382 158.876C109.212 158.661 109.134 158.388 109.166 158.116C109.198 157.844 109.336 157.596 109.551 157.427C109.766 157.257 110.039 157.179 110.311 157.211Z" fill="#455A64"/>
<path d="M35.1553 246.056L71.2398 255.155C71.2398 255.155 104.874 194.458 104.12 179.028C103.085 157.746 78.0989 92.3098 78.0989 92.3098H48.1834C48.1834 92.3098 68.0356 163.049 68.3102 174.951C68.4299 181.176 35.1553 246.056 35.1553 246.056Z" fill="#455A64"/>
<path d="M70.7888 159.753C68.4085 149.768 65.8592 139.81 63.1832 129.915C60.5071 120.021 57.6409 110.035 54.493 100.218C54.1127 99.014 53.7113 97.8239 53.324 96.6267C53.3128 96.5884 53.2868 96.5562 53.2518 96.537C53.2168 96.5179 53.1757 96.5134 53.1374 96.5246C53.0991 96.5358 53.0668 96.5618 53.0477 96.5968C53.0285 96.6318 53.0241 96.6729 53.0353 96.7112C55.8522 106.493 58.6691 116.253 61.3381 126.07C64.0071 135.887 66.5493 145.732 68.9437 155.648C69.5423 158.099 70.1268 160.542 70.6972 163C71.3602 165.519 71.8728 168.075 72.2325 170.655C72.5285 173.12 72.3589 175.619 71.7325 178.021C71.0529 180.382 70.1644 182.677 69.0775 184.88C64.763 194.246 60.4508 203.615 56.1409 212.986C51.831 222.38 51.1339 224.521 46.986 233.993C46.4719 235.169 45.9578 236.345 45.4648 237.514C45.4648 237.592 45.5423 237.662 45.5846 237.577C50.3029 228.296 51.0282 226.063 55.4437 216.613C59.8592 207.162 64.2465 197.599 68.6268 188.084C70.5986 183.789 72.9156 179.408 73.2113 174.606C73.5071 169.592 71.9296 164.563 70.7888 159.753Z" fill="#263238"/>
<path d="M77.7262 92.2535C77.5924 92.8662 70.1347 122.352 69.2051 122.901C68.1488 123.528 96.3037 161.408 99.6417 180.007C101.754 191.901 106.684 261.232 106.684 261.232H70.7826C70.7826 261.232 67.2614 202.352 66.0924 182.951C65.6347 175.423 37.3952 140.62 34.7121 117.415C33.8671 110.106 39.1206 92.2253 39.1206 92.2253L77.7262 92.2535Z" fill="#455A64"/>
<path d="M69.8736 233.218C69.4511 223.465 69.0637 213.69 68.3525 203.95C67.9511 198.429 67.1623 193.084 66.613 187.584C66.613 187.296 66.3525 187.225 66.3595 187.521C66.613 197.317 67.4229 207.007 67.944 216.796C68.4652 226.584 68.9652 228.866 69.5215 238.627C69.8314 244.148 70.106 249.669 70.5356 255.183C70.5402 255.197 70.5492 255.209 70.5612 255.218C70.5732 255.227 70.5877 255.231 70.6025 255.231C70.6173 255.231 70.6318 255.227 70.6438 255.218C70.6558 255.209 70.6648 255.197 70.6694 255.183C70.6905 245.38 70.3032 243.007 69.8736 233.218Z" fill="#263238"/>
<path d="M99.6765 180.472C99.3694 177.896 98.8703 175.347 98.1835 172.845C97.444 170.42 96.4699 168.074 95.2751 165.838C92.8314 161.148 90.0497 156.613 87.3666 152.056C84.6835 147.5 81.8878 142.845 79.0568 138.296C77.4652 135.742 75.8666 133.19 74.261 130.641C72.6272 128.07 70.9019 125.549 69.2188 123.014C69.2057 122.993 69.1846 122.977 69.1602 122.971C69.1358 122.965 69.11 122.969 69.0885 122.982C69.067 122.995 69.0516 123.016 69.0457 123.041C69.0397 123.065 69.0437 123.091 69.0568 123.113C71.8033 127.718 74.5216 132.331 77.2681 136.937C80.0145 141.542 82.7188 146.162 85.423 150.782C88.1272 155.401 90.754 159.88 93.3033 164.5C94.5585 166.693 95.6393 168.982 96.5357 171.345C97.3693 173.793 97.9752 176.313 98.3455 178.873C99.3033 184.838 100.085 190.845 101.282 196.753C101.287 196.768 101.296 196.78 101.308 196.789C101.32 196.797 101.334 196.802 101.349 196.802C101.364 196.802 101.378 196.797 101.39 196.789C101.402 196.78 101.411 196.768 101.416 196.753C101.043 191.317 100.395 185.873 99.6765 180.472Z" fill="#263238"/>
<path d="M73.8878 120.887C70.2299 122.22 66.6954 123.869 63.3244 125.817C63.2954 125.83 63.2729 125.854 63.2616 125.884C63.2504 125.913 63.2514 125.946 63.2645 125.975C63.2776 126.004 63.3016 126.027 63.3314 126.038C63.3611 126.049 63.394 126.048 63.423 126.035C66.9863 124.5 70.6272 123.035 74.1061 121.31C74.1621 121.281 74.2043 121.231 74.2235 121.171C74.2426 121.111 74.2371 121.045 74.2082 120.989C74.1792 120.933 74.1292 120.891 74.0691 120.872C74.009 120.853 73.9438 120.858 73.8878 120.887Z" fill="#263238"/>
<path d="M74.9655 96.4788C74.9655 96.3591 74.7401 96.3309 74.7401 96.4788C74.7408 100.458 74.541 104.435 74.1415 108.394C73.9725 110.232 72.4936 120.366 69.3105 119.662C68.7753 119.535 68.5077 119.014 68.4232 118.204C68.4321 117.153 68.574 116.107 68.8457 115.091C69.1979 112.979 69.4795 110.866 69.6626 108.69C70.036 104.692 69.9935 100.666 69.5359 96.676C69.5299 96.6535 69.5167 96.6335 69.4982 96.6193C69.4797 96.6051 69.4571 96.5974 69.4338 96.5974C69.4105 96.5974 69.3878 96.6051 69.3693 96.6193C69.3509 96.6335 69.3376 96.6535 69.3317 96.676C69.4239 102.218 69.099 107.76 68.3598 113.253C67.9584 115.894 66.6274 119.873 69.395 120.296C72.1626 120.718 74.0288 114.049 74.3669 112.225C75.2478 107.025 75.449 101.731 74.9655 96.4788Z" fill="#263238"/>
<path d="M69.3949 119.88C69.1128 120.568 68.8775 121.273 68.6907 121.993C68.488 122.545 68.3877 123.13 68.3949 123.718C68.3983 123.742 68.409 123.765 68.4254 123.782C68.4419 123.8 68.4634 123.813 68.4871 123.818C68.5107 123.823 68.5355 123.821 68.558 123.812C68.5805 123.803 68.5998 123.788 68.6132 123.767C68.9459 123.248 69.1954 122.68 69.3526 122.084C69.5991 121.429 69.8526 120.789 70.0569 120.127C70.0895 120.039 70.086 119.942 70.0471 119.856C70.0081 119.771 69.9369 119.705 69.8491 119.672C69.7613 119.64 69.6642 119.643 69.579 119.682C69.4938 119.721 69.4276 119.792 69.3949 119.88Z" fill="#263238"/>
<path d="M70.8952 192.415C70.5571 187.401 70.5783 182.112 68.4445 177.465C67.3111 175.2 66.0069 173.024 64.5431 170.958C63.0877 168.732 61.651 166.495 60.2332 164.246C54.5994 155.253 49.1628 146.077 44.2121 136.676C41.8248 132.148 39.6276 127.472 38.4304 122.472C37.2629 117.21 37.0411 111.783 37.7755 106.443C37.9445 105.112 38.1276 103.789 38.3459 102.465C38.3466 102.447 38.3411 102.429 38.3302 102.415C38.3194 102.4 38.3039 102.39 38.2864 102.386C38.269 102.382 38.2506 102.384 38.2345 102.392C38.2183 102.4 38.2054 102.413 38.198 102.429C37.0393 107.507 36.6429 112.728 37.0219 117.922C37.5639 122.888 38.9625 127.723 41.1557 132.211C43.3388 136.936 45.9374 141.486 48.5008 146.014C51.144 150.709 53.8647 155.335 56.6628 159.894C59.4797 164.443 62.3811 168.901 65.2895 173.38C66.7731 175.493 67.9293 177.817 68.7191 180.274C69.3595 182.839 69.7277 185.464 69.8177 188.105C70.5219 199.19 73.3388 236.042 74.3388 247.07C74.4586 248.479 74.5853 249.887 74.7191 251.296C74.7151 251.31 74.7145 251.326 74.7174 251.34C74.7203 251.355 74.7266 251.369 74.7358 251.381C74.745 251.393 74.7568 251.403 74.7704 251.41C74.784 251.417 74.799 251.42 74.8142 251.42C74.8294 251.42 74.8443 251.417 74.8579 251.41C74.8715 251.403 74.8834 251.393 74.8926 251.381C74.9018 251.369 74.9081 251.355 74.911 251.34C74.9139 251.326 74.9133 251.31 74.9093 251.296C74.4867 240.225 71.6205 203.465 70.8952 192.415Z" fill="#263238"/>
<path d="M53.6627 101.972C53.6627 101.894 53.536 101.922 53.536 101.972C53.4303 105.049 53.536 108.232 52.3317 111.127C51.2472 113.796 49.0641 115.669 46.6205 117.07C45.1993 117.868 43.7346 118.585 42.2331 119.218C42.1275 119.267 42.1698 119.436 42.2895 119.401C45.1064 118.5 48.0148 117.521 50.374 115.634C52.8951 113.605 54.0008 110.669 54.1205 107.5C54.1636 105.646 54.0102 103.793 53.6627 101.972Z" fill="#263238"/>
<path d="M69.2888 51.8097C73.317 64.1759 84.1973 85.2393 88.0846 87.7816C91.5282 90.028 107.732 87.521 114.845 85.8097C117.493 85.1689 111.535 64.9858 108.711 65.7252C105.324 66.6126 95.2325 68.8872 94.5001 68.3238C93.7677 67.7604 83.5916 55.2252 76.3804 47.845C69.817 41.1619 67.7677 47.1337 69.2888 51.8097Z" fill="#FFC4C0"/>
<path d="M113.289 85.9646C114.648 85.7956 126.148 85.2604 131.423 82.3942C134.24 80.866 141.43 75.8097 140.712 73.9928C140.057 72.3378 137.747 73.2393 137.747 73.2393C137.747 73.2393 140.923 70.9364 139.993 68.6407C139.064 66.3449 135.226 68.0702 135.226 68.0702C135.226 68.0702 138.317 65.4646 137.226 63.2463C136.134 61.028 132.571 63.4012 132.571 63.4012C132.571 63.4012 135.508 61.1547 133.839 59.704C131.824 57.9576 126.874 62.7181 123.529 63.8308C122.768 64.0843 107.782 67.8731 107.782 67.8731L113.289 85.9646Z" fill="#FFC4C0"/>
<path d="M132.444 63.3378C128.796 66.8238 126.592 67.7181 121.718 68.704C121.627 68.704 121.634 68.873 121.718 68.859C126.578 68.3308 129.5 67.6054 132.606 63.5068C132.775 63.3026 132.613 63.1688 132.444 63.3378Z" fill="#263238"/>
<path d="M135.106 67.9858C131.001 71.2815 128.62 72.2675 123.592 73.6759C123.522 73.6759 123.55 73.8238 123.627 73.8097C128.67 72.8379 131.571 72.0491 135.24 68.2182C135.409 68.0491 135.296 67.8379 135.106 67.9858Z" fill="#263238"/>
<path d="M137.5 73.2955C133.275 76.197 130.733 77.4012 125.677 78.1406C125.652 78.1406 125.629 78.1503 125.612 78.1674C125.595 78.1846 125.585 78.2079 125.585 78.2322C125.585 78.2564 125.595 78.2797 125.612 78.2969C125.629 78.3141 125.652 78.3237 125.677 78.3237C130.909 78.0702 134.127 76.5984 137.557 73.4364C137.81 73.2392 137.761 73.1195 137.5 73.2955Z" fill="#263238"/>
<path d="M103.853 68.521C103.853 68.521 108.043 63.7815 110.338 62.1055C112.634 60.4294 123.507 57.3308 124.31 59.6407C125.345 62.6266 119.423 65.6477 116.331 66.7463C116.331 66.7463 118.733 73.6477 114.923 76.7322C111.113 79.8167 103.853 68.521 103.853 68.521Z" fill="#FFC4C0"/>
<path d="M124.331 60.5632C123.31 63.9646 119.155 65.1477 116.233 66.4365C116.19 66.4551 116.151 66.4836 116.121 66.5197C116.091 66.5557 116.069 66.5984 116.058 66.6442C116.047 66.69 116.047 66.7377 116.058 66.7835C116.069 66.8294 116.09 66.8721 116.12 66.9083C116.937 69.866 117.219 74.2745 115.148 76.7675C115.092 76.8379 115.184 76.9365 115.254 76.8731C117.839 74.5069 117.909 70.1477 116.81 66.9646C119.831 65.69 123.944 64.3168 124.36 60.5773C124.367 60.5632 124.338 60.5632 124.331 60.5632Z" fill="#263238"/>
<path d="M113.282 89.4364L107.972 65.2533L94.8316 67.6407C89.6485 61.7041 79.2893 49.8379 75.1133 46.2745C70.1837 42.0914 66.9583 45.2322 68.7752 51.5703C72.8809 66.0562 84.8879 87.3238 88.0287 89.3308C92.5851 92.2533 113.282 89.4364 113.282 89.4364Z" fill="#EE0088"/>
<path opacity="0.1" d="M94.5213 74.9999C95.1718 75.1413 95.8346 75.2192 96.5002 75.2323C97.9086 75.4224 98.5283 77.4999 97.2466 78.2886C96.5736 78.7032 95.8127 78.9542 95.0251 79.0215C94.2375 79.0887 93.445 78.9704 92.7114 78.676C91.303 78.1267 90.1128 76.7605 90.4156 75.1548C90.4681 74.8555 90.5971 74.5749 90.7901 74.3402C90.9832 74.1055 91.2337 73.9248 91.5173 73.8156C91.8008 73.7064 92.1079 73.6725 92.4084 73.7171C92.709 73.7618 92.9929 73.8834 93.2325 74.0703C93.6228 74.4313 94.0556 74.7435 94.5213 74.9999ZM90.8875 69.2464C90.3804 71.6408 94.0847 73.6971 95.979 72.4224C96.1317 72.3068 96.2564 72.1582 96.3438 71.9878C96.4312 71.8173 96.479 71.6293 96.4837 71.4378C96.4885 71.2464 96.45 71.0562 96.3711 70.8817C96.2923 70.7071 96.1751 70.5525 96.0283 70.4295C95.472 69.9788 95.0072 69.9084 94.5142 69.4999C94.3419 69.3653 94.1901 69.2064 94.0635 69.0281C93.7842 68.6431 93.4266 68.3215 93.0142 68.0844C92.7997 67.9927 92.5671 67.951 92.3341 67.9622C92.101 67.9734 91.8736 68.0374 91.6688 68.1492C91.4641 68.2611 91.2874 68.418 91.1521 68.608C91.0167 68.798 90.9262 69.0163 90.8875 69.2464ZM84.979 69.3731C84.2185 70.3661 84.7889 71.8591 85.4579 72.7605C85.759 73.2094 86.1739 73.5704 86.6601 73.8067C87.1463 74.043 87.6864 74.1461 88.2255 74.1055C88.4219 74.0779 88.6062 73.994 88.756 73.864C88.9058 73.7341 89.0149 73.5635 89.07 73.3729C89.1251 73.1824 89.1238 72.9799 89.0665 72.79C89.0091 72.6002 88.898 72.4309 88.7466 72.3027C88.3231 71.9806 87.9847 71.56 87.7607 71.0774C87.4297 70.3309 87.2114 69.3661 86.3523 69.0422C86.1177 68.9457 85.8586 68.9257 85.612 68.9852C85.3654 69.0446 85.1439 69.1804 84.979 69.3731ZM100.578 85.0351C99.5847 87.0422 102.606 89.3239 104.437 88.9295C105.049 88.7957 105.641 87.9929 105.099 87.4154C104.662 86.9506 104.141 86.5844 103.733 86.0915C103.233 85.4929 102.958 84.7253 102.176 84.4225C101.882 84.2994 101.552 84.2943 101.254 84.4084C100.956 84.5226 100.714 84.747 100.578 85.0351ZM72.2114 60.4225C72.0382 60.0927 71.7984 59.8026 71.5072 59.5703C71.9016 60.5797 72.3171 61.5915 72.7537 62.6055C72.7771 61.8418 72.5895 61.0865 72.2114 60.4225ZM76.134 58.3098C75.9961 56.5702 75.3163 54.9176 74.1903 53.5844C73.3452 52.4929 71.8804 50.7675 70.3311 51.1408C70.1665 51.1922 70.0227 51.2953 69.9213 51.4349C69.8198 51.5744 69.766 51.7429 69.7678 51.9154C69.6692 53.1056 71.0354 54.3802 71.6269 55.3309C72.3311 56.5281 72.8875 57.852 73.648 59.0422C73.807 59.2869 74.0409 59.4735 74.3147 59.5744C74.5886 59.6752 74.8877 59.6847 75.1673 59.6015C75.447 59.5183 75.6923 59.3469 75.8665 59.1128C76.0407 58.8787 76.1345 58.5945 76.134 58.3027V58.3098ZM75.6762 65.8802C75.9514 65.866 76.2148 65.7639 76.4277 65.589C76.6406 65.4141 76.7919 65.1756 76.8593 64.9084C76.9687 64.3616 76.9323 63.7957 76.7537 63.2675C76.6484 62.7645 76.4045 62.3011 76.0494 61.9295C75.9223 61.8119 75.7668 61.7293 75.5982 61.6898C75.4296 61.6503 75.2536 61.6553 75.0875 61.7043C74.9214 61.7533 74.7708 61.8446 74.6506 61.9692C74.5303 62.0939 74.4445 62.2476 74.4016 62.4154C74.3452 62.8266 74.3452 63.2436 74.4016 63.6548C74.4016 63.8309 74.4016 64.007 74.4016 64.1901C74.3979 64.4554 74.4263 64.7202 74.4861 64.9788C74.5618 65.2361 74.7185 65.462 74.9329 65.6232C75.1474 65.7843 75.408 65.872 75.6762 65.8731V65.8802Z" fill="#030402"/>
<path d="M108.683 87.3238C108.078 85.9153 106.571 79.6618 106.24 78.1055C105.909 76.5492 104.683 70.2534 104.324 68.6548C104.324 68.5632 104.423 68.5139 104.444 68.5984C104.824 70.1759 106.521 76.3872 106.895 77.9365C107.268 79.4858 108.669 85.7322 108.768 87.3027C108.769 87.3082 108.77 87.314 108.769 87.3196C108.768 87.3253 108.766 87.3307 108.763 87.3356C108.757 87.3455 108.747 87.3527 108.736 87.3555C108.725 87.3583 108.713 87.3565 108.703 87.3506C108.693 87.3446 108.686 87.335 108.683 87.3238Z" fill="#263238"/>
<path opacity="0.1" d="M96.4793 90.6477C92.7821 90.6477 89.5356 90.2956 88.0286 89.3308C84.8666 87.2885 72.8595 66.0913 68.7257 51.5773C67.6835 47.9435 68.3102 45.3519 69.9581 44.5984L96.4793 90.6477Z" fill="black"/>
<path d="M36.888 95.5702C36.9796 95.704 80.9232 101.338 81.3951 100.929C81.6435 99.706 81.8199 98.4691 81.9232 97.2251C81.9232 97.2251 77.8951 49.38 75.8106 46.5702C73.9866 44.1195 68.4514 42.3448 64.6838 43.9434C56.7753 47.2955 37.8387 90.042 38.043 91.8307C38.0289 91.8096 36.7753 95.4012 36.888 95.5702Z" fill="#EE0088"/>
<path opacity="0.1" d="M52.7329 89.7464C53.4107 90.0755 54.118 90.3396 54.8456 90.5352C56.3104 91.1197 56.4442 93.5633 54.8456 94.0563C53.9958 94.3259 53.0948 94.3931 52.2144 94.2525C51.334 94.1119 50.4987 93.7673 49.7752 93.2464C48.3667 92.2605 47.4583 90.4295 48.2189 88.7957C48.3584 88.4848 48.5757 88.2151 48.8496 88.0125C49.1236 87.8098 49.4451 87.6811 49.7832 87.6386C50.1214 87.5962 50.4647 87.6415 50.7803 87.7701C51.0958 87.8988 51.373 88.1065 51.5851 88.3732C51.9794 88.8309 52.2189 89.4366 52.7329 89.7464ZM50.3245 82.4718C49.1203 84.9577 52.6062 88.2042 55.0217 87.3239C55.224 87.243 55.4048 87.1163 55.5499 86.9536C55.6949 86.791 55.8003 86.5969 55.8576 86.3867C55.9149 86.1765 55.9227 85.9558 55.8803 85.7421C55.8379 85.5283 55.7465 85.3273 55.6132 85.1549C55.1344 84.514 54.6414 84.3098 54.2048 83.7464C54.0541 83.5517 53.933 83.3358 53.8456 83.1056C53.6374 82.6139 53.3334 82.1686 52.9513 81.7957C52.1132 80.9859 50.7682 81.5563 50.3245 82.4718ZM46.2541 79.8239C44.9372 80.3169 44.5991 82.0915 44.6977 83.345C44.718 83.954 44.8995 84.5466 45.2236 85.0626C45.5477 85.5785 46.003 85.9991 46.5428 86.2817C46.7465 86.3727 46.9723 86.4027 47.1927 86.3682C47.4132 86.3336 47.6189 86.2359 47.785 86.087C47.9511 85.938 48.0705 85.744 48.1288 85.5287C48.187 85.3133 48.1816 85.0856 48.1132 84.8732C47.8896 84.3101 47.8121 83.6996 47.8879 83.0985C48.0076 82.1971 48.3667 81.1408 47.7682 80.3309C47.6016 80.0975 47.3654 79.9227 47.0934 79.8316C46.8215 79.7406 46.5277 79.7379 46.2541 79.8239ZM60.6907 88.2042C60.3573 88.1756 60.0257 88.2757 59.7638 88.4839C59.5019 88.6922 59.3296 88.9927 59.2822 89.3239C59.2462 89.6797 59.3355 90.037 59.5348 90.334C59.7341 90.631 60.0308 90.8491 60.3738 90.9507C60.854 91.1092 61.3724 91.1092 61.8527 90.9507C62.0985 90.8535 62.301 90.671 62.4231 90.4366C62.5645 90.2098 62.6218 89.9407 62.5851 89.676C62.5461 89.4291 62.4329 89.1998 62.2606 89.0187C62.0883 88.8376 61.865 88.7132 61.6203 88.6619C61.5759 88.6034 61.5238 88.5513 61.4653 88.507C61.2418 88.3333 60.9727 88.2282 60.6907 88.2042ZM49.8949 71.2112C48.7118 72.4225 49.1907 75.176 50.5428 76.1056C50.7169 76.2379 50.9226 76.3224 51.1394 76.3507C51.3562 76.3789 51.5767 76.35 51.7789 76.2667C51.9811 76.1834 52.158 76.0487 52.292 75.8759C52.426 75.7031 52.5125 75.4982 52.5428 75.2816C52.5636 75.0027 52.5636 74.7226 52.5428 74.4436C52.5428 74.1408 52.5005 73.9507 52.5428 73.7394C52.6481 73.1373 52.6695 72.5234 52.6062 71.9154C52.5515 71.6271 52.4159 71.3602 52.2154 71.1459C52.0149 70.9315 51.7576 70.7786 51.4735 70.7048C51.1895 70.631 50.8903 70.6394 50.6108 70.7291C50.3313 70.8187 50.0831 70.9859 49.8949 71.2112ZM42.2541 88.7324C40.6273 90.6619 43.3104 93.9718 45.416 94.0352C46.1203 94.0352 46.9865 93.3309 46.5498 92.5563C46.1977 91.9366 45.7259 91.3873 45.416 90.7464C45.0358 89.9577 44.9442 89.0352 44.1696 88.5C43.8807 88.2876 43.5217 88.1934 43.1658 88.2366C42.8099 88.2798 42.4838 88.4571 42.2541 88.7324ZM81.1062 88.1197C80.8411 88.1594 80.5938 88.277 80.3957 88.4575C80.1975 88.6381 80.0576 88.8735 79.9935 89.1338C79.7682 89.9155 79.74 90.6126 79.1555 91.2464C78.5229 91.7441 77.9551 92.319 77.4653 92.9577C77.3836 93.1172 77.3447 93.2952 77.3524 93.4742C77.3601 93.6533 77.4141 93.8273 77.5093 93.9792C77.6044 94.1311 77.7373 94.2557 77.895 94.3408C78.0527 94.4259 78.2298 94.4686 78.409 94.4647C79.6388 94.3136 80.7646 93.6991 81.5569 92.7464C81.416 91.4084 81.2752 89.838 81.1132 88.0915L81.1062 88.1197ZM77.5851 82.3098C77.1907 83.2676 77.2611 84.3521 76.9301 85.3521C76.6396 86.2688 76.2939 87.1672 75.8949 88.0422C75.5991 88.676 76.1907 89.676 76.9583 89.338C78.2067 88.8587 79.2279 87.9255 79.8175 86.7253C80.3527 85.6197 80.9442 83.7605 80.4301 82.5845C79.916 81.4084 78.1696 80.8943 77.571 82.2816L77.5851 82.3098ZM73.571 91.9084C72.9857 92.6645 72.237 93.2785 71.3808 93.7042C71.1768 93.7675 70.9886 93.8735 70.8287 94.0151C70.6687 94.1566 70.5407 94.3306 70.4531 94.5254C70.3655 94.7202 70.3203 94.9315 70.3205 95.1451C70.3207 95.3587 70.3664 95.5698 70.4544 95.7644C70.5424 95.9591 70.6708 96.1328 70.831 96.274C70.9913 96.4153 71.1797 96.5208 71.3839 96.5837C71.588 96.6466 71.8032 96.6654 72.0151 96.6388C72.2271 96.6122 72.4309 96.5409 72.6132 96.4295C73.3419 96.1172 73.9932 95.6488 74.5213 95.0575C75.0493 94.4662 75.4413 93.7662 75.6696 93.007C76.0005 91.7887 74.3527 90.9929 73.5569 91.8802L73.571 91.9084ZM67.1344 57.4014C67.5278 57.4846 67.9382 57.4123 68.2796 57.1997C68.6209 56.987 68.8667 56.6504 68.9653 56.2605C69.3597 54.7464 68.0076 53.1901 66.9372 52.2464C65.8668 51.3028 64.3597 50.4436 62.8597 50.9295C62.66 50.9943 62.4802 51.1089 62.3372 51.2626C62.1942 51.4163 62.0929 51.604 62.0428 51.8079C61.9928 52.0117 61.9956 52.225 62.051 52.4275C62.1065 52.6299 62.2127 52.8149 62.3597 52.9647C63.0146 53.7816 63.9231 54.3732 64.6203 55.176C65.3174 55.9788 65.8949 57.169 67.1203 57.3732L67.1344 57.4014ZM72.5358 63.3802C73.1273 62.5281 72.6696 61.2676 72.247 60.4577C72.022 60.011 71.6722 59.6391 71.24 59.3873C70.9491 59.2012 70.5965 59.1374 70.2589 59.21C69.9213 59.2825 69.6259 59.4854 69.4372 59.7746C69.2451 60.175 69.2148 60.6341 69.3527 61.0563C69.4115 61.2772 69.4917 61.4918 69.5921 61.6971V61.7605V61.8169C69.718 62.4894 70.0029 63.122 70.4231 63.6619C70.5685 63.8084 70.7459 63.9192 70.9412 63.9857C71.1366 64.0522 71.3448 64.0727 71.5493 64.0454C71.7539 64.0181 71.9494 63.9439 72.1205 63.8285C72.2917 63.7131 72.4338 63.5597 72.5358 63.3802ZM76.1696 58.338C76.0317 56.5984 75.3519 54.9458 74.2259 53.6126C73.3808 52.5211 71.916 50.7957 70.3667 51.169C70.2021 51.2204 70.0584 51.3235 69.9569 51.4631C69.8554 51.6026 69.8016 51.7711 69.8034 51.9436C69.7048 53.1338 71.071 54.4084 71.6625 55.3591C72.3667 56.5563 72.9231 57.8802 73.6837 59.0704C73.8495 59.3016 74.084 59.4746 74.3538 59.5648C74.6236 59.6549 74.915 59.6577 75.1865 59.5727C75.458 59.4876 75.6958 59.3191 75.866 59.0911C76.0361 58.8631 76.1301 58.5872 76.1344 58.3028L76.1696 58.338ZM70.8527 70.3943C71.1102 70.4506 71.3768 70.4506 71.6344 70.3943C72.0247 70.2742 72.3546 70.0097 72.5569 69.6549C72.7461 69.2772 72.8404 68.859 72.8315 68.4366C72.8188 68.0364 72.7101 67.6451 72.5146 67.2957L72.2822 67.007L71.9724 66.7816C71.7786 66.6817 71.5647 66.6267 71.3467 66.6208C71.1287 66.6149 70.9121 66.6582 70.7132 66.7475C70.5142 66.8368 70.3379 66.9699 70.1975 67.1367C70.0571 67.3036 69.956 67.4999 69.902 67.7112C69.7847 68.1214 69.7023 68.5407 69.6555 68.9647L69.7189 69.3521C69.7682 69.5464 69.865 69.7255 70.0005 69.8732C70.2133 70.119 70.4999 70.2895 70.8175 70.3591L70.8527 70.3943ZM75.7118 65.9084C75.987 65.8942 76.2504 65.7921 76.4633 65.6172C76.6763 65.4423 76.8275 65.2038 76.8949 64.9366C77.0044 64.3898 76.9679 63.8239 76.7893 63.2957C76.684 62.7927 76.4401 62.3293 76.0851 61.9577C75.9579 61.8401 75.8024 61.7575 75.6338 61.718C75.4652 61.6785 75.2892 61.6836 75.1231 61.7325C74.957 61.7815 74.8064 61.8728 74.6862 61.9975C74.5659 62.1221 74.4801 62.2758 74.4372 62.4436C74.3808 62.8548 74.3808 63.2718 74.4372 63.6831C74.4372 63.8591 74.4372 64.0352 74.4372 64.2183C74.4335 64.4836 74.4619 64.7484 74.5217 65.007C74.6005 65.2534 74.754 65.4691 74.961 65.6243C75.1679 65.7795 75.418 65.8665 75.6766 65.8732L75.7118 65.9084Z" fill="#030402"/>
<path d="M73.2397 54.0704C70.5566 53.8239 67.12 48.0915 66.4651 44.4506C66.4228 44.1971 67.4932 42.0774 68.6693 39.4436C69.3735 37.845 70.1341 36.0422 70.6975 34.3521L80.4439 40.4859C79.1289 42.3991 78.0528 44.4661 77.2397 46.6408C77.1669 46.8704 77.1151 47.1061 77.0848 47.345C77.0873 47.3849 77.0873 47.4249 77.0848 47.4647C76.8383 48.8732 75.8383 54.3098 73.2397 54.0704Z" fill="#FFC4C0"/>
<path d="M77.0852 47.3591C77.0874 47.399 77.0874 47.439 77.0852 47.4788C76.7097 47.4053 76.3401 47.3041 75.9796 47.176C69.881 44.9788 70.9584 36.9788 71.388 34.7676L73.8176 36.3028L80.4725 40.5281C79.158 42.4407 78.0842 44.5079 77.2753 46.6831C77.1915 46.9022 77.1279 47.1285 77.0852 47.3591Z" fill="#263238"/>
<path d="M71.7192 23.0633C69.7051 26.69 69.353 38.3379 71.5854 41.4295C74.8108 45.9084 81.2896 47.6548 85.3953 43.5422C89.3741 39.514 89.5572 24.3238 86.9657 21.3943C83.1347 17.0422 74.691 17.7041 71.7192 23.0633Z" fill="#FFC4C0"/>
<path d="M81.0714 32.4788C81.0714 32.4788 81.008 32.4788 81.008 32.5492C81.008 33.352 80.8672 34.2675 80.1348 34.5069V34.5562C81.0291 34.4576 81.1981 33.2393 81.0714 32.4788Z" fill="#263238"/>
<path d="M80.3882 31.6196C79.0995 31.4787 78.9094 34.0562 80.0995 34.19C81.2897 34.3238 81.4657 31.7393 80.3882 31.6196Z" fill="#263238"/>
<path d="M85.6903 32.7534C85.6903 32.7534 85.7466 32.7957 85.7466 32.8309C85.6551 33.6267 85.6903 34.5562 86.3875 34.8731C86.3875 34.8731 86.3875 34.9295 86.3875 34.9224C85.5072 34.7252 85.479 33.4929 85.6903 32.7534Z" fill="#263238"/>
<path d="M86.4718 31.9788C87.7606 31.9788 87.6549 34.5633 86.4718 34.5633C85.2887 34.5633 85.3873 31.9717 86.4718 31.9788Z" fill="#263238"/>
<path d="M81.4303 31.0984C81.0711 31.1758 80.726 31.1829 80.3739 31.2251C80.0091 31.3205 79.6231 31.2933 79.2753 31.1477C79.1741 31.0809 79.0978 30.9826 79.0583 30.8679C79.0188 30.7533 79.0183 30.6288 79.057 30.5139C79.1725 30.3038 79.3414 30.1281 79.5467 30.0044C79.752 29.8807 79.9864 29.8135 80.226 29.8096C80.7125 29.7161 81.2162 29.8118 81.6345 30.0772C81.7215 30.1426 81.7882 30.2313 81.827 30.333C81.8658 30.4347 81.8751 30.5453 81.8537 30.6521C81.8324 30.7588 81.7813 30.8573 81.7064 30.9363C81.6314 31.0153 81.5357 31.0714 81.4303 31.0984Z" fill="#263238"/>
<path d="M87.6274 29.5774C87.2855 29.4814 86.9493 29.3662 86.6204 29.2323C86.2499 29.1624 85.9131 28.9717 85.6626 28.69C85.6 28.5868 85.5736 28.4657 85.5877 28.3457C85.6017 28.2258 85.6553 28.114 85.7401 28.0281C85.9325 27.881 86.1612 27.789 86.4018 27.7617C86.6424 27.7344 86.8859 27.7729 87.1063 27.8731C87.582 28.0033 87.9932 28.3042 88.2612 28.7182C88.3169 28.8165 88.343 28.9287 88.3362 29.0415C88.3294 29.1542 88.2901 29.2626 88.2231 29.3534C88.1561 29.4443 88.0641 29.5138 87.9584 29.5536C87.8527 29.5933 87.7377 29.6016 87.6274 29.5774Z" fill="#263238"/>
<path d="M80.4866 38.831C81.5235 38.5827 82.6045 38.5827 83.6415 38.831C83.733 38.831 83.8246 38.6479 83.8457 38.5634L83.9021 36.8732C84.1204 37 85.2189 37.5775 85.2189 37.2676C85.3336 34.5206 85.166 31.7691 84.719 29.0563C84.714 29.0406 84.7042 29.0268 84.6909 29.017C84.6776 29.0072 84.6615 29.002 84.645 29.002C84.6285 29.002 84.6124 29.0072 84.5991 29.017C84.5858 29.0268 84.576 29.0406 84.5711 29.0563C84.4584 31.5986 84.7823 34.1338 84.7049 36.6901C84.3162 36.4748 83.8989 36.3159 83.4654 36.2183C83.3739 36.2183 83.4654 38.0141 83.4654 38.2817C82.4961 37.9478 81.4347 38.0059 80.5077 38.4436C80.1415 38.676 79.9936 38.9859 80.4866 38.831Z" fill="#263238"/>
<path d="M78.4015 40.507C78.5776 40.7042 78.7536 40.9718 79.0353 41.0141C79.3314 41.0282 79.627 40.9778 79.9015 40.8662C79.9015 40.8662 79.9508 40.8662 79.9015 40.9084C79.7802 41.0579 79.6202 41.1712 79.4388 41.2357C79.2575 41.3003 79.0618 41.3138 78.8734 41.2746C78.7195 41.2254 78.5831 41.1328 78.4806 41.0078C78.3782 40.8829 78.314 40.731 78.2959 40.5704C78.31 40.493 78.3734 40.4789 78.4015 40.507Z" fill="#263238"/>
<path opacity="0.2" d="M75.12 19.366C75.0144 21.1758 74.5848 26.7885 73.7116 27.9293C72.8383 29.0702 70.9933 31.7251 70.0566 32.1547C70.1834 28.4153 70.7609 24.8589 71.7257 22.9998C72.5166 21.5102 73.6877 20.2565 75.12 19.366Z" fill="#263238"/>
<path d="M85.155 24.8519C84.6626 25.3531 84.05 25.7198 83.3757 25.9171C82.7014 26.1143 81.9877 26.1355 81.3029 25.9787C80.602 25.8227 79.9531 25.4887 79.419 25.0088C78.8848 24.529 78.4834 23.9195 78.2536 23.2392C78.2536 23.197 78.1761 23.2392 78.1902 23.2392C78.3692 23.9737 78.7461 24.645 79.28 25.1801C79.8139 25.7153 80.4843 26.0938 81.2184 26.2744C81.9511 26.4143 82.7079 26.3577 83.4117 26.1103C84.1155 25.8629 84.7413 25.4336 85.2254 24.866C85.2677 24.873 85.2113 24.8097 85.155 24.8519Z" fill="#263238"/>
<path d="M81.6199 14.4154C80.5376 14.3422 79.4543 14.5425 78.4698 14.9978C77.4853 15.4532 76.6311 16.1489 75.9861 17.021C75.4365 17.9086 75.2032 18.9559 75.3241 19.9928H75.4157C75.429 19.083 75.6881 18.1936 76.1653 17.4189C76.6426 16.6441 77.3203 16.0127 78.1269 15.5914C79.0086 15.0979 79.9924 14.815 81.0015 14.7649C82.0106 14.7148 83.0177 14.8989 83.9438 15.3027C84.8548 15.6783 85.6033 16.3644 86.0565 17.2393C86.0988 17.3309 86.2819 17.2886 86.2467 17.1971C85.6692 15.6619 83.803 14.521 81.6199 14.4154Z" fill="#263238"/>
<path d="M95.0713 20.5562C94.765 19.3639 94.0465 18.3186 93.0431 17.6055C91.6347 16.5984 89.9868 16.6125 88.3389 16.6689C88.2896 16.6689 88.2967 16.7393 88.3389 16.7322C89.74 16.586 91.1535 16.8476 92.4094 17.4858C93.4315 18.0992 94.2102 19.0471 94.6136 20.1689C94.9974 21.3194 94.9529 22.5699 94.4884 23.6903C94.024 24.8107 93.1707 25.7259 92.0854 26.2674C91.4537 26.5643 90.768 26.7287 90.0704 26.7505C89.3727 26.7723 88.678 26.6511 88.0291 26.3942C87.9798 26.3942 87.9375 26.4435 87.9868 26.4717C88.8649 26.8595 89.834 26.9942 90.7846 26.8603C91.7352 26.7265 92.6294 26.3295 93.3663 25.7142C94.1031 25.0989 94.6533 24.2899 94.9546 23.3784C95.2559 22.4669 95.2963 21.4894 95.0713 20.5562Z" fill="#263238"/>
<path d="M71.015 25.3519C71.015 25.3519 69.0713 20.9223 71.1488 18.5984C72.3248 17.2885 75.8601 17.7392 75.8601 17.7392C76.9161 16.3987 78.4613 15.5324 80.1558 15.3308C83.177 14.8589 86.6206 16.9012 86.6206 16.9012C86.6206 16.9012 89.5643 15.4927 92.0924 17.204C95.6136 19.5913 94.7333 25.1758 90.8882 26.697C88.184 27.7744 84.8178 25.197 84.8178 25.197C84.4798 25.197 80.8319 27.0561 78.4305 23.7463C78.4305 23.7463 76.1488 25.4857 74.3248 24.0068C73.978 24.5437 73.4743 24.9609 72.8821 25.2015C72.2899 25.4422 71.638 25.4947 71.015 25.3519Z" fill="#263238"/>
<path d="M72.1628 32.7112C72.1628 32.7112 70.3177 28.5774 68.4937 29.1901C66.6698 29.8028 67.5571 35.4225 69.3599 36.5211C69.5797 36.6739 69.8278 36.781 70.0897 36.8362C70.3516 36.8913 70.6219 36.8933 70.8845 36.8421C71.1472 36.7909 71.3969 36.6875 71.6189 36.538C71.8409 36.3885 72.0306 36.196 72.1768 35.9718L72.1628 32.7112Z" fill="#FFC4C0"/>
<path d="M68.7891 30.7815V30.8308C70.0426 31.6406 70.5144 33.0421 70.7609 34.4435C70.7079 34.2925 70.6227 34.1548 70.5113 34.0399C70.3999 33.925 70.2648 33.8357 70.1155 33.7781C69.9662 33.7205 69.8061 33.696 69.6464 33.7063C69.4867 33.7167 69.3312 33.7615 69.1905 33.8378C69.1482 33.8378 69.1905 33.9153 69.1905 33.9153C69.447 33.8856 69.7063 33.9378 69.9314 34.0642C70.1565 34.1907 70.3359 34.385 70.444 34.6195C70.6351 35.0004 70.7816 35.4022 70.8806 35.8167C70.8806 35.9505 71.1482 35.9294 71.1341 35.8167C71.4933 33.9998 70.613 31.3167 68.7891 30.7815Z" fill="#263238"/>
<path d="M169.774 40.9159L93.9551 64.1394L107.625 108.769L183.444 85.5452L169.774 40.9159Z" fill="#EE0088"/>
<path opacity="0.2" d="M169.774 40.9159L93.9551 64.1394L107.625 108.769L183.444 85.5452L169.774 40.9159Z" fill="black"/>
<path opacity="0.2" d="M169.77 40.916L144.291 48.7205L157.961 93.3498L183.441 85.5454L169.77 40.916Z" fill="black"/>
<path d="M168.55 43.1899C167.69 47.143 166.855 51.096 166.042 55.0491L163.641 66.9364L161.317 78.873C160.557 82.8449 159.815 86.8237 159.092 90.8097C159.951 86.8613 160.787 82.9082 161.599 78.9505L164 67.0632L166.324 55.1547C167.085 51.1641 167.827 47.1759 168.55 43.1899Z" fill="#EE0088"/>
<path d="M181.064 84.0492C178.247 81.1572 175.404 78.2769 172.536 75.4084L163.944 66.845L155.296 58.345C152.404 55.5281 149.498 52.7112 146.578 49.8943C149.395 52.791 152.238 55.6713 155.106 58.5351L163.698 67.0985L172.346 75.5985C175.242 78.4436 178.149 81.2605 181.064 84.0492Z" fill="#EE0088"/>
<path d="M108.517 69.8906L108.935 69.7627L107.138 63.8979L106.721 64.0257L108.517 69.8906Z" fill="#263238"/>
<path d="M107.525 70.1884L107.942 70.0605L106.146 64.1957L105.728 64.3236L107.525 70.1884Z" fill="#263238"/>
<path d="M106.524 70.5078L106.941 70.3799L105.145 64.515L104.728 64.6429L106.524 70.5078Z" fill="#263238"/>
<path d="M105.534 70.795L105.951 70.6672L104.156 64.8021L103.738 64.9299L105.534 70.795Z" fill="#263238"/>
<path d="M104.535 71.1054L104.952 70.9775L103.156 65.1127L102.738 65.2406L104.535 71.1054Z" fill="#263238"/>
<path d="M103.541 71.4038L103.958 71.2759L102.162 65.411L101.744 65.5389L103.541 71.4038Z" fill="#263238"/>
<path d="M102.535 71.7319L102.952 71.604L101.156 65.7392L100.738 65.867L102.535 71.7319Z" fill="#263238"/>
<path d="M101.54 72.0279L101.957 71.8999L100.16 66.0354L99.7421 66.1633L101.54 72.0279Z" fill="#263238"/>
<path d="M100.536 72.3439L100.953 72.2161L99.1567 66.3512L98.7392 66.4791L100.536 72.3439Z" fill="#263238"/>
<path d="M111.359 63.0914L109.627 63.1336L113.38 61.9717L111.916 62.9153L112.578 65.0703C113.768 64.866 114.571 65.859 115.176 67.8308L111.423 69.0139C110.817 67.0491 110.923 65.7745 112.021 65.2745L111.359 63.0914Z" fill="#263238"/>
<path d="M115.135 64.5914L116.114 64.2885L115.233 61.4153L117.74 60.6477L118.621 63.5209L119.607 63.2181L118.283 66.8942L115.135 64.5914Z" fill="#263238"/>
<path opacity="0.1" d="M93.958 64.1408L95.0777 67.8028L147.486 59.1549L144.289 48.7253L93.958 64.1408Z" fill="black"/>
<path d="M193.268 90.6056L167.782 98.4084L157.958 93.3521L183.444 85.5422L193.268 90.6056Z" fill="#EE0088"/>
<path opacity="0.2" d="M193.268 90.6056L167.782 98.4084L157.958 93.3521L183.444 85.5422L193.268 90.6056Z" fill="black"/>
<path d="M102.317 118.465L127.803 110.655L133.106 100.965L107.62 108.767L102.317 118.465Z" fill="#EE0088"/>
<path opacity="0.1" d="M102.317 118.465L127.803 110.655L133.106 100.965L107.62 108.767L102.317 118.465Z" fill="black"/>
<path d="M60.3739 57.2533C64.0992 69.7111 74.4584 91.0561 78.3034 93.6618C81.6908 95.9927 97.9513 93.873 105.064 92.3308C107.726 91.7603 102.247 71.4364 99.4302 72.1054C96.0217 72.9153 85.8739 74.9223 85.1555 74.366C84.4372 73.8096 74.5922 60.9857 67.5499 53.4646C61.1555 46.6195 58.9654 52.542 60.3739 57.2533Z" fill="#FFC4C0"/>
<path d="M97.9648 73.7604C97.9648 73.7604 103.352 67.69 107.169 65.3731C111.198 63.067 115.727 61.774 120.366 61.6055C125.373 61.4083 137.62 64.3801 137.373 68.0562C137.155 71.3872 124.796 67.7111 124.796 67.7111C124.796 67.7111 138.014 69.3801 137.014 73.3449C136.014 77.3097 121.908 72.2182 121.908 72.2182C121.908 72.2182 135.451 74.2322 133.803 78.1689C132.535 81.1336 119.5 77.2463 119.5 77.2463C119.5 77.2463 131.134 79.0632 129.958 82.1759C128.662 85.6055 116.401 82.7745 116.401 82.7745C112.099 90.1548 107.021 91.9294 103.268 92.7252C102.331 92.8872 97.9648 73.7604 97.9648 73.7604Z" fill="#FFC4C0"/>
<path d="M120.261 66.8379C121.818 66.9787 123.402 67.1125 124.944 67.3872C126.487 67.6618 128.015 67.9999 129.529 68.4224C131.512 68.9322 133.431 69.667 135.247 70.6125C131.902 69.1689 126.395 68.0844 124.853 67.7956C123.311 67.5069 121.782 67.1618 120.247 66.8872C120.205 66.9013 120.219 66.8379 120.261 66.8379Z" fill="#263238"/>
<path d="M119.155 72.3942C121.134 72.6548 123.12 72.8449 125.092 73.1971C127.064 73.5492 128.888 74.0562 130.824 74.5421C130.972 74.5773 130.902 74.6478 130.754 74.6125C128.796 74.2041 126.965 73.9787 125.008 73.5985C123.05 73.2182 121.106 72.7534 119.141 72.4365C119.113 72.4365 119.12 72.3872 119.155 72.3942Z" fill="#263238"/>
<path d="M117.345 76.9857C120.399 77.3172 123.411 77.9638 126.331 78.9153C126.479 78.9575 126.381 79.035 126.226 78.9998C123.254 78.2955 120.923 77.7322 117.338 77.0913C117.282 77.0843 117.282 76.9786 117.345 76.9857Z" fill="#263238"/>
<path d="M103.451 95.9364L98.7186 71.6265L85.5285 73.6969C80.4862 67.6406 70.4158 55.5279 66.3031 51.866C61.4792 47.5632 58.1764 50.6336 59.8313 57.0068C63.62 71.5772 75.113 93.0984 78.2256 95.211C82.6904 98.2392 103.451 95.9364 103.451 95.9364Z" fill="#EE0088"/>
<path opacity="0.1" d="M94.5213 74.9998C95.1719 75.1412 95.8346 75.2191 96.5002 75.2322C97.9086 75.4223 98.5284 77.4998 97.2467 78.2885C96.5736 78.7031 95.8127 78.9541 95.0251 79.0214C94.2375 79.0886 93.4451 78.9703 92.7115 78.6759C91.303 78.1266 90.1129 76.7604 90.4157 75.1547C90.4681 74.8554 90.5971 74.5748 90.7902 74.3401C90.9832 74.1054 91.2337 73.9247 91.5173 73.8155C91.8009 73.7063 92.1079 73.6724 92.4085 73.717C92.7091 73.7617 92.993 73.8833 93.2326 74.0702C93.6228 74.4312 94.0556 74.7434 94.5213 74.9998ZM93.1129 72.5069C93.5547 72.7198 94.0413 72.8234 94.5316 72.8086C95.0219 72.7939 95.5015 72.6614 95.9298 72.4223C96.0876 72.3169 96.2141 72.171 96.296 71.9998L93.1129 72.5069ZM86.2608 73.5773C86.8214 73.9869 87.5136 74.1749 88.2044 74.1054C88.4426 74.0728 88.6618 73.9576 88.8239 73.7801C88.986 73.6025 89.0808 73.3738 89.0917 73.1336L86.2608 73.5773ZM101.19 84.4294C100.912 84.5462 100.686 84.7619 100.557 85.035C99.965 86.2252 100.789 87.5069 101.965 88.2745L101.19 84.4294ZM79.9791 89.1054C79.7537 89.8871 79.7255 90.5843 79.141 91.2181C78.5116 91.7254 77.9485 92.3098 77.465 92.9576C77.3833 93.1171 77.3443 93.295 77.352 93.4741C77.3597 93.6531 77.4138 93.8271 77.5089 93.979C77.604 94.1309 77.7369 94.2555 77.8946 94.3406C78.0524 94.4258 78.2295 94.4685 78.4086 94.4646C79.6356 94.3137 80.7611 93.7072 81.562 92.7654C82.3629 91.8237 82.7807 90.6154 82.7326 89.3801C82.693 89.0635 82.5471 88.7698 82.3188 88.5469C82.0905 88.3241 81.7933 88.1854 81.4759 88.1535C81.1585 88.1216 80.8396 88.1984 80.5715 88.3713C80.3034 88.5443 80.102 88.8031 80.0002 89.1054H79.9791ZM77.5495 82.2815C77.1551 83.2392 77.2255 84.3238 76.8946 85.3238C76.6041 86.2405 76.2584 87.1389 75.8593 88.0139C75.5636 88.6477 76.1551 89.6477 76.9227 89.3097C78.1711 88.8304 79.1923 87.8972 79.7819 86.697C80.3171 85.5914 80.9086 83.7322 80.3946 82.5561C79.8805 81.3801 78.1692 80.8942 77.5706 82.2815H77.5495ZM67.0988 57.373C67.4922 57.4563 67.9027 57.384 68.244 57.1713C68.5854 56.9587 68.8311 56.6221 68.9298 56.2322C69.3241 54.7181 67.972 53.1618 66.9016 52.2181C65.8312 51.2745 64.3241 50.4153 62.8241 50.9012C62.6244 50.9659 62.4446 51.0806 62.3016 51.2343C62.1587 51.388 62.0574 51.5757 62.0073 51.7796C61.9572 51.9834 61.96 52.1967 62.0155 52.3991C62.0709 52.6016 62.1772 52.7865 62.3241 52.9364C62.9791 53.7533 63.8875 54.3449 64.5847 55.1477C65.2819 55.9505 65.8946 57.1688 67.1199 57.373H67.0988ZM72.5354 63.3801C73.127 62.528 72.6692 61.2674 72.2467 60.4576C72.0216 60.0108 71.6718 59.639 71.2396 59.3871C70.9488 59.201 70.5961 59.1373 70.2585 59.2098C69.9209 59.2824 69.6256 59.4853 69.4368 59.7745C69.2447 60.1749 69.2145 60.634 69.3523 61.0561C69.4111 61.277 69.4913 61.4917 69.5917 61.697V61.7604V61.8167C69.7176 62.4892 70.0025 63.1218 70.4227 63.6618C70.5682 63.8082 70.7455 63.919 70.9409 63.9856C71.1363 64.0521 71.3444 64.0725 71.549 64.0452C71.7536 64.018 71.9491 63.9437 72.1202 63.8283C72.2913 63.7129 72.4334 63.5595 72.5354 63.3801ZM70.8523 70.4223C71.1098 70.4786 71.3765 70.4786 71.634 70.4223C72.0244 70.3022 72.3543 70.0378 72.5565 69.6829C72.7458 69.3052 72.84 68.887 72.8312 68.4646C72.8184 68.0644 72.7097 67.6732 72.5143 67.3238L72.2819 67.035L71.972 66.8097C71.7782 66.7097 71.5643 66.6547 71.3463 66.6488C71.1283 66.6429 70.9118 66.6862 70.7128 66.7755C70.5138 66.8649 70.3376 66.9979 70.1971 67.1647C70.0567 67.3316 69.9557 67.528 69.9016 67.7392C69.7844 68.1494 69.7019 68.5687 69.6551 68.9928L69.7185 69.3801C69.7678 69.5744 69.8646 69.7535 70.0002 69.9012C70.217 70.1367 70.5031 70.297 70.8171 70.359L70.8523 70.4223ZM76.7608 63.2745L75.3523 61.69C75.1273 61.6631 74.9002 61.7201 74.7145 61.85C74.5287 61.9799 74.3973 62.1736 74.3453 62.3942C74.2889 62.8054 74.2889 63.2224 74.3453 63.6336C74.3453 63.8097 74.3453 63.9857 74.3453 64.1688C74.3416 64.4342 74.37 64.699 74.4298 64.9576C74.5068 65.2256 74.6714 65.4601 74.8974 65.6235C75.1234 65.7869 75.3976 65.8698 75.6763 65.859C75.9514 65.8447 76.2148 65.7427 76.4278 65.5678C76.6407 65.3929 76.792 65.1543 76.8593 64.8871C76.9651 64.35 76.9311 63.7947 76.7608 63.2745Z" fill="#030402"/>
<path d="M98.9016 93.7042C98.3312 92.2605 96.9932 85.9929 96.6763 84.4225C96.3594 82.852 95.3101 76.5422 94.9932 74.9295C94.9932 74.845 95.0918 74.7887 95.1129 74.8802C95.4509 76.4647 97.0072 82.7112 97.3382 84.2746C97.6692 85.838 98.9298 92.1056 98.9861 93.683C98.9889 93.6942 98.9872 93.7061 98.9812 93.716C98.9753 93.7259 98.9656 93.733 98.9544 93.7358C98.9432 93.7386 98.9314 93.7369 98.9215 93.7309C98.9116 93.725 98.9044 93.7154 98.9016 93.7042Z" fill="#263238"/>
<path d="M94.5501 96.6195C92.3881 96.7462 90.2261 96.7955 88.0642 96.7815C85.8942 96.7909 83.7258 96.6663 81.5712 96.4082C80.4672 96.2989 79.3878 96.0136 78.374 95.5631C77.4626 94.9196 76.6713 94.1211 76.036 93.204C74.7594 91.4418 73.6042 89.5948 72.5782 87.6758C70.4656 83.8801 68.6487 79.9293 66.874 75.9998C65.0994 72.0702 63.4867 68.0279 62.0078 63.9575C63.8036 67.8941 65.5782 71.8378 67.4233 75.7462C69.2684 79.6547 71.1346 83.5491 73.1487 87.3589C74.1539 89.2593 75.2635 91.1024 76.4726 92.88C77.037 93.7651 77.752 94.5444 78.5853 95.1829C79.5456 95.6257 80.57 95.9133 81.6205 96.035C85.9095 96.5546 90.2316 96.75 94.5501 96.6195Z" fill="#263238"/>
<path d="M63.3806 67.3942C63.0913 67.1021 62.8296 66.7838 62.5989 66.4435C62.3599 66.1065 62.1768 65.7332 62.0566 65.3379C62.1627 65.5128 62.2779 65.6821 62.4017 65.8449L62.7468 66.3449C62.9786 66.6819 63.1902 67.0323 63.3806 67.3942Z" fill="#263238"/>
<path d="M74.5 60.866C76.2817 62.6547 77.8803 64.6195 79.5352 66.4998C81.1901 68.3801 82.7747 70.366 84.4648 72.2392L85.0916 72.9434C85.2042 73.0491 85.3099 73.1688 85.4155 73.2674C85.5211 73.366 85.5211 73.3589 85.5704 73.4012C85.5704 73.4012 85.6197 73.4012 85.6479 73.4012C86.1831 73.4012 86.8592 73.2815 87.4648 73.204L91.2113 72.6477C93.7042 72.2815 96.2042 71.9012 98.7042 71.5632L98.8028 72.1829L98.6549 71.5702H98.6901C96.2183 72.0984 93.7606 72.5702 91.2535 73.0279C90.007 73.2533 88.7606 73.4505 87.507 73.6406C86.8662 73.7518 86.2197 73.8271 85.5704 73.866C85.519 73.8726 85.4669 73.8726 85.4155 73.866C85.3465 73.8453 85.282 73.8118 85.2254 73.7674C85.1543 73.7122 85.0862 73.6535 85.0211 73.5913L84.6761 73.2533C84.4507 73.0209 84.2394 72.7885 84.0282 72.5491C82.3733 70.6265 80.7676 68.6829 79.1901 66.711L76.831 63.7463C76.0563 62.8237 75.3521 61.8096 74.5 60.866Z" fill="#263238"/>
<path d="M75.4229 61.0774C75.6881 61.4032 75.9237 61.752 76.1271 62.1197C76.3256 62.4828 76.4658 62.8749 76.5426 63.2816C76.4581 63.0915 76.3524 62.9225 76.2538 62.7394L75.9651 62.1971C75.7643 61.8339 75.5833 61.4601 75.4229 61.0774Z" fill="#263238"/>
</g>
</svg>
