<svg width="160" height="48" viewBox="0 0 160 48" fill="none" xmlns="http://www.w3.org/2000/svg">
<g clip-path="url(#clip0_252_26396)">
<path d="M158.782 41.7693C158.782 42.3653 158.665 42.9556 158.437 43.5062C158.208 44.0569 157.874 44.5571 157.452 44.9784C157.03 45.3997 156.529 45.7337 155.978 45.9614C155.427 46.1891 154.837 46.3059 154.24 46.3053H5.60226C4.39754 46.3066 3.24165 45.8294 2.38879 44.9788C1.53592 44.1281 1.05592 42.9737 1.05435 41.7693V5.59576C1.05592 4.39081 1.53573 3.23574 2.38842 2.38416C3.24112 1.53258 4.397 1.0541 5.60226 1.05379H154.239C154.836 1.05379 155.427 1.17128 155.978 1.39955C156.529 1.62782 157.03 1.96239 157.451 2.38417C157.873 2.80595 158.208 3.30666 158.436 3.85771C158.664 4.40876 158.781 4.99935 158.781 5.59576L158.782 41.7693Z" fill="white"/>
<path d="M154.24 47.3605H5.60228C4.1182 47.3602 2.69486 46.7713 1.64457 45.7231C0.594284 44.6749 0.00283905 43.2529 1.52588e-05 41.7692L1.52588e-05 5.59689C0.00221073 4.11247 0.593265 2.68953 1.64352 1.64022C2.69377 0.590912 4.11746 0.000917211 5.60228 -0.000335693L154.239 -0.000335693C155.724 0.00154238 157.147 0.591738 158.197 1.64091C159.247 2.69009 159.839 4.11266 159.842 5.59689V41.7692C159.844 44.8533 157.327 47.3605 154.24 47.3605Z" fill="#A6A6A6"/>
<path d="M158.782 41.7693C158.782 42.3653 158.665 42.9556 158.437 43.5062C158.208 44.0569 157.874 44.5571 157.452 44.9784C157.03 45.3997 156.529 45.7337 155.978 45.9614C155.427 46.1891 154.837 46.3059 154.24 46.3053H5.60226C4.39754 46.3066 3.24165 45.8294 2.38879 44.9788C1.53592 44.1281 1.05592 42.9737 1.05435 41.7693V5.59576C1.05592 4.39081 1.53573 3.23574 2.38842 2.38416C3.24112 1.53258 4.397 1.0541 5.60226 1.05379H154.239C154.836 1.05379 155.427 1.17128 155.978 1.39955C156.529 1.62782 157.03 1.96239 157.451 2.38417C157.873 2.80595 158.208 3.30666 158.436 3.85771C158.664 4.40876 158.781 4.99935 158.781 5.59576L158.782 41.7693Z" fill="black"/>
<path d="M35.6915 23.4308C35.6571 19.6137 38.8178 17.7566 38.9623 17.6702C37.1723 15.0611 34.3978 14.7046 33.4228 14.6761C31.0926 14.431 28.8323 16.0701 27.6452 16.0701C26.4345 16.0701 24.6066 14.6998 22.6365 14.7401C20.1013 14.7792 17.7296 16.2466 16.4289 18.5253C13.7444 23.1715 15.7465 29.9992 18.3184 33.7548C19.605 35.5953 21.1083 37.6477 23.076 37.5755C25.0011 37.4973 25.7202 36.3497 28.0433 36.3497C30.3451 36.3497 31.0203 37.5755 33.0272 37.5293C35.0932 37.4973 36.394 35.6817 37.6355 33.8258C39.1222 31.7189 39.7193 29.6416 39.743 29.535C39.6956 29.5184 35.7317 28.0048 35.6915 23.4308ZM31.9005 12.2056C32.9359 10.9111 33.6444 9.14998 33.4477 7.3628C31.9491 7.42912 30.075 8.3991 28.9958 9.66517C28.0409 10.7808 27.188 12.6095 27.4083 14.3291C29.0917 14.4547 30.8201 13.48 31.9005 12.2056Z" fill="white"/>
<path d="M154.24 -0.000284195H74.6253L105.809 47.3606H154.24C155.725 47.3593 157.148 46.7696 158.198 45.7208C159.249 44.672 159.84 43.2497 159.843 41.7657V5.59694C159.84 4.11262 159.249 2.68986 158.199 1.64062C157.149 0.591377 155.725 0.00128141 154.24 -0.000284195Z" fill="url(#paint0_linear_252_26396)"/>
<path d="M63.5748 37.3114H60.8845L59.4107 32.6818H54.2883L52.8844 37.3114H50.2652L55.3414 21.5501H58.476L63.5748 37.3114ZM58.9665 30.7394L57.6337 26.6238C57.4928 26.2034 57.2274 25.2133 56.8388 23.6547H56.7914C56.6351 24.325 56.3851 25.3151 56.0427 26.6238L54.7325 30.7394H58.9665ZM76.6037 31.4891C76.6037 33.422 76.0789 34.9498 75.0281 36.0714C74.0875 37.0698 72.9182 37.5684 71.5239 37.5684C70.0182 37.5684 68.9354 37.0319 68.2779 35.9565V41.9197H65.7522V29.6818C65.7522 28.4679 65.7202 27.2231 65.6586 25.9464H67.8799L68.0208 27.7478H68.0682C68.9105 26.3905 70.1888 25.7119 71.9042 25.7119C73.2452 25.7119 74.3647 26.2413 75.2603 27.3013C76.1547 28.3636 76.6037 29.7588 76.6037 31.4891ZM74.0306 31.5815C74.0306 30.4753 73.7819 29.5634 73.2819 28.8445C72.7358 28.0972 72.0025 27.7229 71.0832 27.7229C70.4601 27.7229 69.8938 27.9314 69.3879 28.3423C68.8809 28.7568 68.5492 29.2981 68.394 29.9684C68.3247 30.2191 68.2854 30.4771 68.2767 30.7371V32.6332C68.2767 33.4587 68.5303 34.1563 69.0373 34.7271C69.5443 35.2956 70.203 35.5811 71.0133 35.5811C71.9646 35.5811 72.705 35.2127 73.2345 34.482C73.7653 33.7489 74.0306 32.7824 74.0306 31.5815ZM89.6788 31.4891C89.6788 33.422 89.154 34.9498 88.1032 36.0714C87.1614 37.0698 85.9933 37.5684 84.5978 37.5684C83.0921 37.5684 82.0093 37.0319 81.3518 35.9565V41.9197H78.8261V29.6818C78.8261 28.4679 78.7941 27.2231 78.7325 25.9464H80.9538L81.0948 27.7478H81.1422C81.9833 26.3905 83.2615 25.7119 84.9781 25.7119C86.3179 25.7119 87.4374 26.2413 88.3354 27.3013C89.2286 28.3636 89.6788 29.7588 89.6788 31.4891ZM87.1045 31.5815C87.1045 30.4753 86.8546 29.5634 86.3547 28.8445C85.8085 28.0972 85.0776 27.7229 84.1583 27.7229C83.5352 27.7229 82.9689 27.9314 82.4607 28.3423C81.9536 28.7568 81.6231 29.2981 81.4679 29.9684C81.3909 30.2811 81.3495 30.5357 81.3495 30.7371V32.6332C81.3495 33.4587 81.6042 34.1563 82.1088 34.7271C82.6159 35.2944 83.2745 35.5811 84.0872 35.5811C85.0397 35.5811 85.7801 35.2127 86.3085 34.482C86.8392 33.7489 87.1045 32.7824 87.1045 31.5815ZM104.298 32.8902C104.298 34.2321 103.828 35.3229 102.896 36.1649C101.87 37.084 100.438 37.5447 98.6017 37.5447C96.9052 37.5447 95.5453 37.2178 94.5193 36.5629L95.1034 34.4583C96.211 35.1144 97.4277 35.4413 98.7521 35.4413C99.7046 35.4413 100.445 35.2257 100.973 34.7982C101.503 34.3695 101.771 33.7962 101.771 33.0809C101.771 32.4402 101.549 31.9037 101.114 31.4666C100.677 31.0308 99.9546 30.6246 98.9393 30.2515C96.179 29.2223 94.7977 27.717 94.7977 25.7368C94.7977 24.4435 95.2858 23.3846 96.2596 22.5568C97.2334 21.7301 98.5247 21.3168 100.131 21.3168C101.566 21.3168 102.761 21.5667 103.71 22.0653L103.076 24.1237C102.183 23.6405 101.175 23.3989 100.047 23.3989C99.1561 23.3989 98.4572 23.618 97.9572 24.0538C97.5367 24.4435 97.3234 24.9184 97.3234 25.4821C97.3234 26.1039 97.5663 26.6203 98.0496 27.0253C98.469 27.3984 99.2343 27.8046 100.341 28.2405C101.698 28.7876 102.696 29.4248 103.334 30.1567C103.978 30.8887 104.298 31.8018 104.298 32.8902ZM112.67 27.8413H109.886V33.3592C109.886 34.7627 110.376 35.4626 111.359 35.4626C111.811 35.4626 112.185 35.4247 112.481 35.3454L112.551 37.2628C112.054 37.4488 111.398 37.5423 110.587 37.5423C109.589 37.5423 108.81 37.238 108.247 36.6292C107.687 36.0204 107.405 35.0007 107.405 33.5653V27.8366H105.746V25.9416H107.405V23.8608L109.886 23.1122V25.9416H112.67V27.8413ZM125.206 31.5353C125.206 33.2822 124.706 34.7165 123.708 35.8381C122.665 36.9928 121.276 37.5684 119.545 37.5684C117.875 37.5684 116.547 37.0153 115.557 35.9103C114.566 34.8029 114.071 33.4078 114.071 31.7248C114.071 29.9637 114.583 28.5212 115.603 27.3996C116.625 26.2768 118.002 25.7154 119.732 25.7154C121.4 25.7154 122.74 26.2697 123.754 27.3759C124.723 28.4489 125.206 29.8346 125.206 31.5353ZM122.587 31.5934C122.587 30.5523 122.362 29.6593 121.911 28.912C121.382 28.0095 120.623 27.5583 119.641 27.5583C118.63 27.5583 117.854 28.0095 117.325 28.912C116.873 29.6593 116.648 30.5677 116.648 31.6407C116.648 32.683 116.873 33.5783 117.325 34.3233C117.871 35.2257 118.633 35.677 119.62 35.677C120.585 35.677 121.342 35.2163 121.89 34.3008C122.354 33.5357 122.587 32.6368 122.587 31.5934ZM133.419 28.167C133.156 28.1196 132.89 28.0962 132.623 28.0972C131.734 28.0972 131.047 28.4311 130.564 29.1039C130.144 29.696 129.934 30.4445 129.934 31.3482V37.3114H127.408V29.5255C127.41 28.3324 127.386 27.1395 127.334 25.9476H129.534L129.627 28.122H129.697C129.964 27.3747 130.384 26.7719 130.959 26.3206C131.486 25.9263 132.127 25.7128 132.785 25.7119C133.018 25.7119 133.229 25.7285 133.416 25.7581L133.419 28.167ZM144.715 31.0912C144.721 31.475 144.69 31.8586 144.622 32.2365H137.045C137.074 33.3592 137.441 34.2191 138.144 34.8112C138.783 35.3394 139.609 35.6047 140.623 35.6047C141.745 35.6047 142.768 35.4271 143.689 35.0682L144.084 36.8199C143.009 37.2889 141.739 37.5222 140.273 37.5222C138.511 37.5222 137.127 37.0035 136.12 35.9683C135.115 34.932 134.612 33.5392 134.612 31.7947C134.612 30.0821 135.08 28.655 136.017 27.5168C136.998 26.3017 138.323 25.6941 139.991 25.6941C141.63 25.6941 142.87 26.3017 143.712 27.5168C144.379 28.4797 144.715 29.6735 144.715 31.0912ZM142.306 30.4362C142.324 29.6866 142.158 29.0411 141.816 28.4951C141.379 27.7916 140.706 27.441 139.804 27.441C138.978 27.441 138.306 27.7833 137.794 28.4702C137.373 29.0162 137.123 29.6723 137.046 30.4339L142.306 30.4362Z" fill="white"/>
<path d="M53.5597 15.9777C52.8572 15.9777 52.2495 15.9434 51.7436 15.8854V8.26527C52.4511 8.15601 53.1661 8.10216 53.8819 8.1042C56.7784 8.1042 58.1124 9.52897 58.1124 11.8515C58.1124 14.5305 56.5368 15.9777 53.5597 15.9777ZM53.9838 9.08129C53.5929 9.08129 53.26 9.10498 52.984 9.16182V14.9545C53.1332 14.9782 53.4199 14.9888 53.8227 14.9888C55.7205 14.9888 56.8009 13.9087 56.8009 11.8858C56.8009 10.0821 55.8236 9.08129 53.9838 9.08129ZM62.2693 16.0358C60.6369 16.0358 59.579 14.8171 59.579 13.1625C59.579 11.4381 60.6594 10.2088 62.3617 10.2088C63.9705 10.2088 65.0521 11.3694 65.0521 13.0714C65.0521 14.8171 63.9373 16.0358 62.2693 16.0358ZM62.3167 11.116C61.4199 11.116 60.8454 11.9545 60.8454 13.127C60.8454 14.277 61.4318 15.1155 62.3049 15.1155C63.178 15.1155 63.7644 14.219 63.7644 13.1033C63.7644 11.9664 63.1898 11.116 62.3167 11.116ZM74.3612 10.3237L72.6138 15.909H71.4753L70.7515 13.4835C70.5715 12.8902 70.4217 12.2882 70.3025 11.6797H70.2788C70.1876 12.2885 70.0146 12.8984 69.831 13.4835L69.061 15.909H67.9107L66.2664 10.3237H67.5423L68.1749 12.979C68.3241 13.6114 68.4497 14.2083 68.554 14.7721H68.5776C68.6689 14.3019 68.8181 13.7145 69.0373 12.9908L69.831 10.3249H70.8427L71.6021 12.934C71.7857 13.5664 71.935 14.187 72.0511 14.7733H72.0842C72.1648 14.1989 72.2916 13.5889 72.4633 12.934L73.1421 10.3249L74.3612 10.3237ZM80.7939 15.909H79.5523V12.7018C79.5523 11.7141 79.1732 11.219 78.4257 11.219C77.6901 11.219 77.1842 11.8515 77.1842 12.587V15.909H75.9427V11.9202C75.9427 11.4263 75.9308 10.8969 75.8965 10.3225H76.9887L77.0468 11.1847H77.0811C77.4152 10.5878 78.0928 10.2088 78.8522 10.2088C80.025 10.2088 80.795 11.1053 80.795 12.5645L80.7939 15.909ZM84.2175 15.909H82.9748V7.76074H84.2175V15.909ZM88.7441 16.0358C87.1129 16.0358 86.0538 14.8171 86.0538 13.1625C86.0538 11.4381 87.1342 10.2088 88.8353 10.2088C90.4453 10.2088 91.5257 11.3694 91.5257 13.0714C91.5269 14.8171 90.4109 16.0358 88.7441 16.0358ZM88.7903 11.116C87.8935 11.116 87.319 11.9545 87.319 13.127C87.319 14.277 87.9066 15.1155 88.7773 15.1155C89.6516 15.1155 90.2368 14.219 90.2368 13.1033C90.238 11.9664 89.6646 11.116 88.7903 11.116ZM96.4207 15.909L96.3307 15.2659H96.2975C95.9184 15.7835 95.3652 16.0358 94.6639 16.0358C93.6628 16.0358 92.952 15.3346 92.952 14.3919C92.952 13.0133 94.1474 12.3003 96.217 12.3003V12.1973C96.217 11.4618 95.8272 11.0935 95.0572 11.0935C94.5063 11.0935 94.023 11.2321 93.5977 11.508L93.3453 10.692C93.8619 10.3699 94.5063 10.2088 95.2633 10.2088C96.7228 10.2088 97.4597 10.9786 97.4597 12.5194V14.5767C97.4597 15.1404 97.4846 15.5774 97.5402 15.9102L96.4207 15.909ZM96.2501 13.127C94.8712 13.127 94.1794 13.461 94.1794 14.2533C94.1794 14.8396 94.5359 15.1262 95.0311 15.1262C95.6625 15.1262 96.2501 14.6442 96.2501 13.9892V13.127ZM103.488 15.909L103.43 15.0125H103.396C103.039 15.6899 102.44 16.0358 101.602 16.0358C100.255 16.0358 99.258 14.8514 99.258 13.1851C99.258 11.4381 100.292 10.2076 101.704 10.2076C102.452 10.2076 102.981 10.4599 103.28 10.9668H103.305V7.76074H104.548V14.4037C104.548 14.9438 104.561 15.4495 104.594 15.909H103.488ZM103.305 12.6225C103.305 11.8408 102.787 11.174 101.997 11.174C101.076 11.174 100.514 11.99 100.514 13.1389C100.514 14.2652 101.098 15.0362 101.972 15.0362C102.753 15.0362 103.305 14.3576 103.305 13.5534V12.6225ZM112.427 16.0358C110.795 16.0358 109.738 14.8171 109.738 13.1625C109.738 11.4381 110.818 10.2088 112.519 10.2088C114.129 10.2088 115.209 11.3694 115.209 13.0714C115.211 14.8171 114.096 16.0358 112.427 16.0358ZM112.473 11.116C111.577 11.116 111.003 11.9545 111.003 13.127C111.003 14.277 111.589 15.1155 112.461 15.1155C113.335 15.1155 113.921 14.219 113.921 13.1033C113.923 11.9664 113.348 11.116 112.473 11.116ZM121.886 15.909H120.643V12.7018C120.643 11.7141 120.264 11.219 119.517 11.219C118.781 11.219 118.277 11.8515 118.277 12.587V15.909H117.034V11.9202C117.034 11.4263 117.022 10.8969 116.988 10.3225H118.08L118.138 11.1847H118.172C118.505 10.5878 119.184 10.2076 119.942 10.2076C121.115 10.2076 121.886 11.1042 121.886 12.5633V15.909ZM130.239 11.2546H128.873V13.9667C128.873 14.6572 129.113 15.0018 129.596 15.0018C129.815 15.0018 129.999 14.9782 130.147 14.9438L130.181 15.8865C129.941 15.9789 129.618 16.0251 129.218 16.0251C128.24 16.0251 127.654 15.4851 127.654 14.0709V11.2546H126.839V10.3237H127.654V9.30039L128.873 8.93206V10.3225H130.239V11.2546ZM136.812 15.909H135.571V12.7255C135.571 11.7259 135.193 11.2202 134.445 11.2202C133.802 11.2202 133.202 11.6572 133.202 12.542V15.909H131.962V7.76074H133.202V11.116H133.227C133.618 10.5072 134.184 10.2076 134.907 10.2076C136.089 10.2076 136.812 11.1267 136.812 12.587V15.909ZM143.545 13.4148H139.82C139.843 14.4724 140.543 15.0693 141.58 15.0693C142.131 15.0693 142.638 14.977 143.086 14.8052L143.279 15.6674C142.75 15.8972 142.128 16.0121 141.405 16.0121C139.657 16.0121 138.623 14.9083 138.623 13.1969C138.623 11.4843 139.682 10.1969 141.265 10.1969C142.692 10.1969 143.588 11.2546 143.588 12.8522C143.596 13.0408 143.582 13.2296 143.545 13.4148ZM142.407 12.5301C142.407 11.6679 141.972 11.0591 141.178 11.0591C140.465 11.0591 139.901 11.6797 139.821 12.5301H142.407Z" fill="white"/>
</g>
<defs>
<linearGradient id="paint0_linear_252_26396" x1="117.233" y1="47.4863" x2="117.233" y2="-123.32" gradientUnits="userSpaceOnUse">
<stop stop-color="#1A1A1A" stop-opacity="0.1"/>
<stop offset="0.123" stop-color="#212121" stop-opacity="0.151"/>
<stop offset="0.308" stop-color="#353535" stop-opacity="0.227"/>
<stop offset="0.532" stop-color="#575757" stop-opacity="0.318"/>
<stop offset="0.783" stop-color="#858585" stop-opacity="0.421"/>
<stop offset="1" stop-color="#B3B3B3" stop-opacity="0.51"/>
</linearGradient>
<clipPath id="clip0_252_26396">
<rect width="160" height="47.5406" fill="white" transform="translate(0 -0.000274658)"/>
</clipPath>
</defs>
</svg>
