<svg width="110" height="32" viewBox="0 0 110 32" fill="none" xmlns="http://www.w3.org/2000/svg">
<path d="M12.6463 16.3951C12.6257 14.1632 14.5207 13.0773 14.6073 13.0268C13.5341 11.5012 11.8707 11.2928 11.2862 11.2762C9.88912 11.1328 8.53396 12.0912 7.82229 12.0912C7.09641 12.0912 6.00049 11.29 4.81934 11.3136C3.2994 11.3364 1.87747 12.1944 1.09761 13.5268C-0.51182 16.2434 0.688508 20.2357 2.23047 22.4316C3.0018 23.507 3.90311 24.7078 5.08284 24.6656C6.237 24.6192 6.66813 23.9482 8.06093 23.9482C9.44096 23.9482 9.8458 24.6656 11.049 24.6386C12.2876 24.6192 13.0675 23.5583 13.8119 22.4731C14.7032 21.2405 15.0612 20.0266 15.0754 19.9642C15.0463 19.9545 12.6698 19.0702 12.6463 16.3951Z" fill="#EE0088"/>
<path d="M10.3735 9.83162C10.9943 9.07472 11.419 8.04498 11.3011 7C10.4026 7.03878 9.27902 7.60593 8.63198 8.34621C8.05951 8.99854 7.54813 10.0678 7.68024 11.0733C8.68951 11.1467 9.72577 10.5767 10.3735 9.83162Z" fill="#EE0088"/>
<path d="M27.94 4.03C28.7 4.03 29.3567 4.17333 29.91 4.46C30.47 4.74 30.8967 5.14333 31.19 5.67C31.49 6.19667 31.64 6.81667 31.64 7.53C31.64 8.24333 31.49 8.86333 31.19 9.39C30.8967 9.91 30.47 10.31 29.91 10.59C29.3567 10.8633 28.7 11 27.94 11H25.77V4.03H27.94ZM27.94 10.25C28.84 10.25 29.5267 10.0133 30 9.54C30.4733 9.06 30.71 8.39 30.71 7.53C30.71 6.66333 30.47 5.98667 29.99 5.5C29.5167 5.01333 28.8333 4.77 27.94 4.77H26.68V10.25H27.94ZM35.2303 11.09C34.717 11.09 34.2503 10.9733 33.8303 10.74C33.417 10.5067 33.0903 10.1767 32.8503 9.75C32.617 9.31667 32.5003 8.81667 32.5003 8.25C32.5003 7.69 32.6203 7.19667 32.8603 6.77C33.107 6.33667 33.4403 6.00667 33.8603 5.78C34.2803 5.54667 34.7503 5.43 35.2703 5.43C35.7903 5.43 36.2603 5.54667 36.6803 5.78C37.1003 6.00667 37.4303 6.33333 37.6703 6.76C37.917 7.18667 38.0403 7.68333 38.0403 8.25C38.0403 8.81667 37.9136 9.31667 37.6603 9.75C37.4136 10.1767 37.077 10.5067 36.6503 10.74C36.2236 10.9733 35.7503 11.09 35.2303 11.09ZM35.2303 10.29C35.557 10.29 35.8636 10.2133 36.1503 10.06C36.437 9.90667 36.667 9.67667 36.8403 9.37C37.0203 9.06333 37.1103 8.69 37.1103 8.25C37.1103 7.81 37.0236 7.43667 36.8503 7.13C36.677 6.82333 36.4503 6.59667 36.1703 6.45C35.8903 6.29667 35.587 6.22 35.2603 6.22C34.927 6.22 34.6203 6.29667 34.3403 6.45C34.067 6.59667 33.847 6.82333 33.6803 7.13C33.5136 7.43667 33.4303 7.81 33.4303 8.25C33.4303 8.69667 33.5103 9.07333 33.6703 9.38C33.837 9.68667 34.057 9.91667 34.3303 10.07C34.6036 10.2167 34.9036 10.29 35.2303 10.29ZM46.5368 5.52L44.8268 11H43.8868L42.5668 6.65L41.2468 11H40.3068L38.5868 5.52H39.5168L40.7768 10.12L42.1368 5.52H43.0668L44.3968 10.13L45.6368 5.52H46.5368ZM50.1099 5.42C50.7766 5.42 51.3166 5.62333 51.7299 6.03C52.1433 6.43 52.3499 7.01 52.3499 7.77V11H51.4499V7.9C51.4499 7.35333 51.3133 6.93667 51.0399 6.65C50.7666 6.35667 50.3933 6.21 49.9199 6.21C49.4399 6.21 49.0566 6.36 48.7699 6.66C48.4899 6.96 48.3499 7.39667 48.3499 7.97V11H47.4399V5.52H48.3499V6.3C48.5299 6.02 48.7733 5.80333 49.0799 5.65C49.3933 5.49667 49.7366 5.42 50.1099 5.42ZM54.7464 3.6V11H53.8364V3.6H54.7464ZM58.6873 11.09C58.174 11.09 57.7073 10.9733 57.2873 10.74C56.874 10.5067 56.5473 10.1767 56.3073 9.75C56.074 9.31667 55.9573 8.81667 55.9573 8.25C55.9573 7.69 56.0773 7.19667 56.3173 6.77C56.564 6.33667 56.8973 6.00667 57.3173 5.78C57.7373 5.54667 58.2073 5.43 58.7273 5.43C59.2473 5.43 59.7173 5.54667 60.1373 5.78C60.5573 6.00667 60.8873 6.33333 61.1273 6.76C61.374 7.18667 61.4973 7.68333 61.4973 8.25C61.4973 8.81667 61.3707 9.31667 61.1173 9.75C60.8707 10.1767 60.534 10.5067 60.1073 10.74C59.6807 10.9733 59.2073 11.09 58.6873 11.09ZM58.6873 10.29C59.014 10.29 59.3207 10.2133 59.6073 10.06C59.894 9.90667 60.124 9.67667 60.2973 9.37C60.4773 9.06333 60.5673 8.69 60.5673 8.25C60.5673 7.81 60.4807 7.43667 60.3073 7.13C60.134 6.82333 59.9073 6.59667 59.6273 6.45C59.3473 6.29667 59.044 6.22 58.7173 6.22C58.384 6.22 58.0773 6.29667 57.7973 6.45C57.524 6.59667 57.304 6.82333 57.1373 7.13C56.9707 7.43667 56.8873 7.81 56.8873 8.25C56.8873 8.69667 56.9673 9.07333 57.1273 9.38C57.294 9.68667 57.514 9.91667 57.7873 10.07C58.0607 10.2167 58.3607 10.29 58.6873 10.29ZM62.3538 8.24C62.3538 7.68 62.4672 7.19 62.6938 6.77C62.9205 6.34333 63.2305 6.01333 63.6238 5.78C64.0238 5.54667 64.4672 5.43 64.9538 5.43C65.4338 5.43 65.8505 5.53333 66.2038 5.74C66.5572 5.94667 66.8205 6.20667 66.9938 6.52V5.52H67.9138V11H66.9938V9.98C66.8138 10.3 66.5438 10.5667 66.1838 10.78C65.8305 10.9867 65.4172 11.09 64.9438 11.09C64.4572 11.09 64.0172 10.97 63.6238 10.73C63.2305 10.49 62.9205 10.1533 62.6938 9.72C62.4672 9.28667 62.3538 8.79333 62.3538 8.24ZM66.9938 8.25C66.9938 7.83667 66.9105 7.47667 66.7438 7.17C66.5772 6.86333 66.3505 6.63 66.0638 6.47C65.7838 6.30333 65.4738 6.22 65.1338 6.22C64.7938 6.22 64.4838 6.3 64.2038 6.46C63.9238 6.62 63.7005 6.85333 63.5338 7.16C63.3672 7.46667 63.2838 7.82667 63.2838 8.24C63.2838 8.66 63.3672 9.02667 63.5338 9.34C63.7005 9.64667 63.9238 9.88333 64.2038 10.05C64.4838 10.21 64.7938 10.29 65.1338 10.29C65.4738 10.29 65.7838 10.21 66.0638 10.05C66.3505 9.88333 66.5772 9.64667 66.7438 9.34C66.9105 9.02667 66.9938 8.66333 66.9938 8.25ZM69.1116 8.24C69.1116 7.68 69.225 7.19 69.4516 6.77C69.6783 6.34333 69.9883 6.01333 70.3816 5.78C70.7816 5.54667 71.2283 5.43 71.7216 5.43C72.1483 5.43 72.545 5.53 72.9116 5.73C73.2783 5.92333 73.5583 6.18 73.7516 6.5V3.6H74.6716V11H73.7516V9.97C73.5716 10.2967 73.305 10.5667 72.9516 10.78C72.5983 10.9867 72.185 11.09 71.7116 11.09C71.225 11.09 70.7816 10.97 70.3816 10.73C69.9883 10.49 69.6783 10.1533 69.4516 9.72C69.225 9.28667 69.1116 8.79333 69.1116 8.24ZM73.7516 8.25C73.7516 7.83667 73.6683 7.47667 73.5016 7.17C73.335 6.86333 73.1083 6.63 72.8216 6.47C72.5416 6.30333 72.2316 6.22 71.8916 6.22C71.5516 6.22 71.2416 6.3 70.9616 6.46C70.6816 6.62 70.4583 6.85333 70.2916 7.16C70.125 7.46667 70.0416 7.82667 70.0416 8.24C70.0416 8.66 70.125 9.02667 70.2916 9.34C70.4583 9.64667 70.6816 9.88333 70.9616 10.05C71.2416 10.21 71.5516 10.29 71.8916 10.29C72.2316 10.29 72.5416 10.21 72.8216 10.05C73.1083 9.88333 73.335 9.64667 73.5016 9.34C73.6683 9.02667 73.7516 8.66333 73.7516 8.25ZM81.2655 11.09C80.7521 11.09 80.2855 10.9733 79.8655 10.74C79.4521 10.5067 79.1255 10.1767 78.8855 9.75C78.6521 9.31667 78.5355 8.81667 78.5355 8.25C78.5355 7.69 78.6555 7.19667 78.8955 6.77C79.1421 6.33667 79.4755 6.00667 79.8955 5.78C80.3155 5.54667 80.7855 5.43 81.3055 5.43C81.8255 5.43 82.2955 5.54667 82.7155 5.78C83.1355 6.00667 83.4655 6.33333 83.7055 6.76C83.9521 7.18667 84.0755 7.68333 84.0755 8.25C84.0755 8.81667 83.9488 9.31667 83.6955 9.75C83.4488 10.1767 83.1121 10.5067 82.6855 10.74C82.2588 10.9733 81.7855 11.09 81.2655 11.09ZM81.2655 10.29C81.5921 10.29 81.8988 10.2133 82.1855 10.06C82.4721 9.90667 82.7021 9.67667 82.8755 9.37C83.0555 9.06333 83.1455 8.69 83.1455 8.25C83.1455 7.81 83.0588 7.43667 82.8855 7.13C82.7121 6.82333 82.4855 6.59667 82.2055 6.45C81.9255 6.29667 81.6221 6.22 81.2955 6.22C80.9621 6.22 80.6555 6.29667 80.3755 6.45C80.1021 6.59667 79.8821 6.82333 79.7155 7.13C79.5488 7.43667 79.4655 7.81 79.4655 8.25C79.4655 8.69667 79.5455 9.07333 79.7055 9.38C79.8721 9.68667 80.0921 9.91667 80.3655 10.07C80.6388 10.2167 80.9388 10.29 81.2655 10.29ZM87.942 5.42C88.6086 5.42 89.1486 5.62333 89.562 6.03C89.9753 6.43 90.182 7.01 90.182 7.77V11H89.282V7.9C89.282 7.35333 89.1453 6.93667 88.872 6.65C88.5986 6.35667 88.2253 6.21 87.752 6.21C87.272 6.21 86.8886 6.36 86.602 6.66C86.322 6.96 86.182 7.39667 86.182 7.97V11H85.272V5.52H86.182V6.3C86.362 6.02 86.6053 5.80333 86.912 5.65C87.2253 5.49667 87.5686 5.42 87.942 5.42ZM95.4445 6.27V9.5C95.4445 9.76667 95.5011 9.95667 95.6145 10.07C95.7278 10.1767 95.9245 10.23 96.2045 10.23H96.8745V11H96.0545C95.5478 11 95.1678 10.8833 94.9145 10.65C94.6611 10.4167 94.5345 10.0333 94.5345 9.5V6.27H93.8245V5.52H94.5345V4.14H95.4445V5.52H96.8745V6.27H95.4445ZM100.697 5.42C101.11 5.42 101.484 5.51 101.817 5.69C102.15 5.86333 102.41 6.12667 102.597 6.48C102.79 6.83333 102.887 7.26333 102.887 7.77V11H101.987V7.9C101.987 7.35333 101.85 6.93667 101.577 6.65C101.304 6.35667 100.93 6.21 100.457 6.21C99.977 6.21 99.5937 6.36 99.307 6.66C99.027 6.96 98.887 7.39667 98.887 7.97V11H97.977V3.6H98.887V6.3C99.067 6.02 99.3137 5.80333 99.627 5.65C99.947 5.49667 100.304 5.42 100.697 5.42ZM109.374 8.05C109.374 8.22333 109.364 8.40667 109.344 8.6H104.964C104.997 9.14 105.18 9.56333 105.514 9.87C105.854 10.17 106.264 10.32 106.744 10.32C107.137 10.32 107.464 10.23 107.724 10.05C107.99 9.86333 108.177 9.61667 108.284 9.31H109.264C109.117 9.83667 108.824 10.2667 108.384 10.6C107.944 10.9267 107.397 11.09 106.744 11.09C106.224 11.09 105.757 10.9733 105.344 10.74C104.937 10.5067 104.617 10.1767 104.384 9.75C104.15 9.31667 104.034 8.81667 104.034 8.25C104.034 7.68333 104.147 7.18667 104.374 6.76C104.6 6.33333 104.917 6.00667 105.324 5.78C105.737 5.54667 106.21 5.43 106.744 5.43C107.264 5.43 107.724 5.54333 108.124 5.77C108.524 5.99667 108.83 6.31 109.044 6.71C109.264 7.10333 109.374 7.55 109.374 8.05ZM108.434 7.86C108.434 7.51333 108.357 7.21667 108.204 6.97C108.05 6.71667 107.84 6.52667 107.574 6.4C107.314 6.26667 107.024 6.2 106.704 6.2C106.244 6.2 105.85 6.34667 105.524 6.64C105.204 6.93333 105.02 7.34 104.974 7.86H108.434Z" fill="#1A1F2E"/>
<path d="M31.846 25.83H27.59L26.806 28H25.462L28.99 18.298H30.46L33.974 28H32.63L31.846 25.83ZM31.482 24.794L29.718 19.866L27.954 24.794H31.482ZM36.7856 21.742C37.0376 21.3033 37.4109 20.9393 37.9056 20.65C38.4096 20.3513 38.9929 20.202 39.6556 20.202C40.3369 20.202 40.9529 20.3653 41.5036 20.692C42.0636 21.0187 42.5023 21.4807 42.8196 22.078C43.1369 22.666 43.2956 23.352 43.2956 24.136C43.2956 24.9107 43.1369 25.6013 42.8196 26.208C42.5023 26.8147 42.0636 27.286 41.5036 27.622C40.9529 27.958 40.3369 28.126 39.6556 28.126C39.0023 28.126 38.4236 27.9813 37.9196 27.692C37.4249 27.3933 37.0469 27.0247 36.7856 26.586V31.64H35.5116V20.328H36.7856V21.742ZM41.9936 24.136C41.9936 23.5573 41.8769 23.0533 41.6436 22.624C41.4103 22.1947 41.0929 21.868 40.6916 21.644C40.2996 21.42 39.8656 21.308 39.3896 21.308C38.9229 21.308 38.4889 21.4247 38.0876 21.658C37.6956 21.882 37.3783 22.2133 37.1356 22.652C36.9023 23.0813 36.7856 23.5807 36.7856 24.15C36.7856 24.7287 36.9023 25.2373 37.1356 25.676C37.3783 26.1053 37.6956 26.4367 38.0876 26.67C38.4889 26.894 38.9229 27.006 39.3896 27.006C39.8656 27.006 40.2996 26.894 40.6916 26.67C41.0929 26.4367 41.4103 26.1053 41.6436 25.676C41.8769 25.2373 41.9936 24.724 41.9936 24.136ZM46.2465 21.742C46.4985 21.3033 46.8719 20.9393 47.3665 20.65C47.8705 20.3513 48.4539 20.202 49.1165 20.202C49.7979 20.202 50.4139 20.3653 50.9645 20.692C51.5245 21.0187 51.9632 21.4807 52.2805 22.078C52.5979 22.666 52.7565 23.352 52.7565 24.136C52.7565 24.9107 52.5979 25.6013 52.2805 26.208C51.9632 26.8147 51.5245 27.286 50.9645 27.622C50.4139 27.958 49.7979 28.126 49.1165 28.126C48.4632 28.126 47.8845 27.9813 47.3805 27.692C46.8859 27.3933 46.5079 27.0247 46.2465 26.586V31.64H44.9725V20.328H46.2465V21.742ZM51.4545 24.136C51.4545 23.5573 51.3379 23.0533 51.1045 22.624C50.8712 22.1947 50.5539 21.868 50.1525 21.644C49.7605 21.42 49.3265 21.308 48.8505 21.308C48.3839 21.308 47.9499 21.4247 47.5485 21.658C47.1565 21.882 46.8392 22.2133 46.5965 22.652C46.3632 23.0813 46.2465 23.5807 46.2465 24.15C46.2465 24.7287 46.3632 25.2373 46.5965 25.676C46.8392 26.1053 47.1565 26.4367 47.5485 26.67C47.9499 26.894 48.3839 27.006 48.8505 27.006C49.3265 27.006 49.7605 26.894 50.1525 26.67C50.5539 26.4367 50.8712 26.1053 51.1045 25.676C51.3379 25.2373 51.4545 24.724 51.4545 24.136ZM61.2599 28.098C60.6159 28.098 60.0372 27.986 59.5239 27.762C59.0199 27.5287 58.6232 27.2113 58.3339 26.81C58.0446 26.3993 57.8952 25.928 57.8859 25.396H59.2439C59.2906 25.8533 59.4772 26.2407 59.8039 26.558C60.1399 26.866 60.6252 27.02 61.2599 27.02C61.8666 27.02 62.3426 26.8707 62.6879 26.572C63.0426 26.264 63.2199 25.872 63.2199 25.396C63.2199 25.0227 63.1172 24.7193 62.9119 24.486C62.7066 24.2527 62.4499 24.0753 62.1419 23.954C61.8339 23.8327 61.4186 23.702 60.8959 23.562C60.2519 23.394 59.7339 23.226 59.3419 23.058C58.9592 22.89 58.6279 22.6287 58.3479 22.274C58.0772 21.91 57.9419 21.4247 57.9419 20.818C57.9419 20.286 58.0772 19.8147 58.3479 19.404C58.6186 18.9933 58.9966 18.676 59.4819 18.452C59.9766 18.228 60.5412 18.116 61.1759 18.116C62.0906 18.116 62.8372 18.3447 63.4159 18.802C64.0039 19.2593 64.3352 19.866 64.4099 20.622H63.0099C62.9632 20.2487 62.7672 19.922 62.4219 19.642C62.0766 19.3527 61.6192 19.208 61.0499 19.208C60.5179 19.208 60.0839 19.348 59.7479 19.628C59.4119 19.8987 59.2439 20.2813 59.2439 20.776C59.2439 21.1307 59.3419 21.42 59.5379 21.644C59.7432 21.868 59.9906 22.0407 60.2799 22.162C60.5786 22.274 60.9939 22.4047 61.5259 22.554C62.1699 22.7313 62.6879 22.9087 63.0799 23.086C63.4719 23.254 63.8079 23.52 64.0879 23.884C64.3679 24.2387 64.5079 24.724 64.5079 25.34C64.5079 25.816 64.3819 26.264 64.1299 26.684C63.8779 27.104 63.5046 27.4447 63.0099 27.706C62.5152 27.9673 61.9319 28.098 61.2599 28.098ZM67.9367 21.378V25.9C67.9367 26.2733 68.016 26.5393 68.1747 26.698C68.3334 26.8473 68.6087 26.922 69.0007 26.922H69.9387V28H68.7907C68.0814 28 67.5494 27.8367 67.1947 27.51C66.84 27.1833 66.6627 26.6467 66.6627 25.9V21.378H65.6687V20.328H66.6627V18.396H67.9367V20.328H69.9387V21.378H67.9367ZM74.8283 28.126C74.1096 28.126 73.4563 27.9627 72.8683 27.636C72.2896 27.3093 71.8323 26.8473 71.4963 26.25C71.1696 25.6433 71.0063 24.9433 71.0063 24.15C71.0063 23.366 71.1743 22.6753 71.5103 22.078C71.8556 21.4713 72.3223 21.0093 72.9103 20.692C73.4983 20.3653 74.1563 20.202 74.8843 20.202C75.6123 20.202 76.2703 20.3653 76.8583 20.692C77.4463 21.0093 77.9083 21.4667 78.2443 22.064C78.5896 22.6613 78.7623 23.3567 78.7623 24.15C78.7623 24.9433 78.585 25.6433 78.2303 26.25C77.885 26.8473 77.4136 27.3093 76.8163 27.636C76.219 27.9627 75.5563 28.126 74.8283 28.126ZM74.8283 27.006C75.2856 27.006 75.715 26.8987 76.1163 26.684C76.5176 26.4693 76.8396 26.1473 77.0823 25.718C77.3343 25.2887 77.4603 24.766 77.4603 24.15C77.4603 23.534 77.339 23.0113 77.0963 22.582C76.8536 22.1527 76.5363 21.8353 76.1443 21.63C75.7523 21.4153 75.3276 21.308 74.8703 21.308C74.4036 21.308 73.9743 21.4153 73.5823 21.63C73.1996 21.8353 72.8916 22.1527 72.6583 22.582C72.425 23.0113 72.3083 23.534 72.3083 24.15C72.3083 24.7753 72.4203 25.3027 72.6443 25.732C72.8776 26.1613 73.1856 26.4833 73.5683 26.698C73.951 26.9033 74.371 27.006 74.8283 27.006ZM81.7114 21.574C81.9354 21.1353 82.2527 20.7947 82.6634 20.552C83.0834 20.3093 83.592 20.188 84.1894 20.188V21.504H83.8534C82.4254 21.504 81.7114 22.2787 81.7114 23.828V28H80.4374V20.328H81.7114V21.574ZM92.66 23.87C92.66 24.1127 92.646 24.3693 92.618 24.64H86.486C86.5327 25.396 86.7894 25.9887 87.256 26.418C87.732 26.838 88.306 27.048 88.978 27.048C89.5287 27.048 89.986 26.922 90.35 26.67C90.7234 26.4087 90.9847 26.0633 91.134 25.634H92.506C92.3007 26.3713 91.89 26.9733 91.274 27.44C90.658 27.8973 89.8927 28.126 88.978 28.126C88.25 28.126 87.5967 27.9627 87.018 27.636C86.4487 27.3093 86.0007 26.8473 85.674 26.25C85.3474 25.6433 85.184 24.9433 85.184 24.15C85.184 23.3567 85.3427 22.6613 85.66 22.064C85.9774 21.4667 86.4207 21.0093 86.99 20.692C87.5687 20.3653 88.2314 20.202 88.978 20.202C89.706 20.202 90.35 20.3607 90.91 20.678C91.47 20.9953 91.8994 21.434 92.198 21.994C92.506 22.5447 92.66 23.17 92.66 23.87ZM91.344 23.604C91.344 23.1187 91.2367 22.7033 91.022 22.358C90.8074 22.0033 90.5134 21.7373 90.14 21.56C89.776 21.3733 89.37 21.28 88.922 21.28C88.278 21.28 87.7274 21.4853 87.27 21.896C86.822 22.3067 86.5654 22.876 86.5 23.604H91.344Z" fill="#1A1F2E"/>
</svg>
