<svg width="160" height="48" viewBox="0 0 160 48" fill="none" xmlns="http://www.w3.org/2000/svg">
<g clip-path="url(#clip0_252_26407)">
<path d="M154.074 47.5034H5.92593C2.60741 47.5034 1.90735e-06 44.896 1.90735e-06 41.5775V6.02195C1.90735e-06 2.70343 2.60741 0.0960207 5.92593 0.0960207H154.074C157.393 0.0960207 160 2.70343 160 6.02195V41.5775C160 44.896 157.393 47.5034 154.074 47.5034Z" fill="black"/>
<path d="M154.074 1.04417C156.8 1.04417 159.052 3.29602 159.052 6.02195V41.5775C159.052 44.3034 156.8 46.5553 154.074 46.5553H5.92593C3.2 46.5553 0.94815 44.3034 0.94815 41.5775V6.02195C0.94815 3.29602 3.2 1.04417 5.92593 1.04417H154.074ZM154.074 0.0960207H5.92593C2.60741 0.0960207 1.90735e-06 2.82195 1.90735e-06 6.02195V41.5775C1.90735e-06 44.896 2.60741 47.5034 5.92593 47.5034H154.074C157.393 47.5034 160 44.896 160 41.5775V6.02195C160 2.82195 157.393 0.0960207 154.074 0.0960207Z" fill="#A6A6A6"/>
<path d="M56.1778 12.1849C56.1778 13.1331 55.9407 13.9627 55.3482 14.5553C54.637 15.2664 53.8074 15.6219 52.7407 15.6219C51.6741 15.6219 50.8444 15.2664 50.1333 14.5553C49.4222 13.8442 49.0667 13.0145 49.0667 11.9479C49.0667 10.8812 49.4222 10.0516 50.1333 9.34046C50.8444 8.62935 51.6741 8.2738 52.7407 8.2738C53.2148 8.2738 53.6889 8.39232 54.163 8.62935C54.637 8.86639 54.9926 9.10343 55.2296 9.45898L54.637 10.0516C54.163 9.45898 53.5704 9.22194 52.7407 9.22194C52.0296 9.22194 51.3185 9.45898 50.8444 10.0516C50.2519 10.5256 50.0148 11.2368 50.0148 12.0664C50.0148 12.896 50.2519 13.6071 50.8444 14.0812C51.437 14.5553 52.0296 14.9108 52.7407 14.9108C53.5704 14.9108 54.163 14.6738 54.7556 14.0812C55.1111 13.7256 55.3482 13.2516 55.3482 12.659H52.7407V11.7108H56.1778V12.1849ZM61.6296 9.22194H58.4296V11.4738H61.3926V12.3034H58.4296V14.5553H61.6296V15.5034H57.4815V8.39232H61.6296V9.22194ZM65.5407 15.5034H64.5926V9.22194H62.5778V8.39232H67.5556V9.22194H65.5407V15.5034ZM70.9926 15.5034V8.39232H71.9407V15.5034H70.9926ZM75.9704 15.5034H75.0222V9.22194H73.0074V8.39232H77.8667V9.22194H75.8519V15.5034H75.9704ZM87.2296 14.5553C86.5185 15.2664 85.6889 15.6219 84.6222 15.6219C83.5556 15.6219 82.7259 15.2664 82.0148 14.5553C81.3037 13.8442 80.9482 13.0145 80.9482 11.9479C80.9482 10.8812 81.3037 10.0516 82.0148 9.34046C82.7259 8.62935 83.5556 8.2738 84.6222 8.2738C85.6889 8.2738 86.5185 8.62935 87.2296 9.34046C87.9407 10.0516 88.2963 10.8812 88.2963 11.9479C88.2963 13.0145 87.9407 13.8442 87.2296 14.5553ZM82.7259 13.9627C83.2 14.4368 83.9111 14.7923 84.6222 14.7923C85.3333 14.7923 86.0444 14.5553 86.5185 13.9627C86.9926 13.4886 87.3481 12.7775 87.3481 11.9479C87.3481 11.1182 87.1111 10.4071 86.5185 9.93306C86.0444 9.45898 85.3333 9.10343 84.6222 9.10343C83.9111 9.10343 83.2 9.34046 82.7259 9.93306C82.2519 10.4071 81.8963 11.1182 81.8963 11.9479C81.8963 12.7775 82.1333 13.4886 82.7259 13.9627ZM89.6 15.5034V8.39232H90.6667L94.1037 13.9627V8.39232H95.0518V15.5034H94.1037L90.4296 9.69602V15.5034H89.6Z" fill="white" stroke="white" stroke-width="1.18519" stroke-miterlimit="10"/>
<path d="M80.7111 25.9331C77.8667 25.9331 75.6148 28.0664 75.6148 31.0294C75.6148 33.8738 77.8667 36.1256 80.7111 36.1256C83.5556 36.1256 85.8074 33.9923 85.8074 31.0294C85.8074 27.9479 83.5556 25.9331 80.7111 25.9331ZM80.7111 33.9923C79.1704 33.9923 77.8667 32.6886 77.8667 30.9108C77.8667 29.1331 79.1704 27.8294 80.7111 27.8294C82.2519 27.8294 83.5556 29.0145 83.5556 30.9108C83.5556 32.6886 82.2519 33.9923 80.7111 33.9923ZM69.6889 25.9331C66.8444 25.9331 64.5926 28.0664 64.5926 31.0294C64.5926 33.8738 66.8444 36.1256 69.6889 36.1256C72.5333 36.1256 74.7852 33.9923 74.7852 31.0294C74.7852 27.9479 72.5333 25.9331 69.6889 25.9331ZM69.6889 33.9923C68.1481 33.9923 66.8444 32.6886 66.8444 30.9108C66.8444 29.1331 68.1481 27.8294 69.6889 27.8294C71.2296 27.8294 72.5333 29.0145 72.5333 30.9108C72.5333 32.6886 71.2296 33.9923 69.6889 33.9923ZM56.5333 27.4738V29.6071H61.6296C61.5111 30.7923 61.037 31.7405 60.4444 32.3331C59.7333 33.0442 58.5482 33.8738 56.5333 33.8738C53.3333 33.8738 50.963 31.3849 50.963 28.1849C50.963 24.9849 53.4519 22.496 56.5333 22.496C58.1926 22.496 59.4963 23.2071 60.4444 24.0368L61.9852 22.496C60.6815 21.3108 59.0222 20.3627 56.6519 20.3627C52.3852 20.3627 48.7111 23.9182 48.7111 28.1849C48.7111 32.4516 52.3852 36.0071 56.6519 36.0071C59.0222 36.0071 60.6815 35.296 62.1037 33.7553C63.5259 32.3331 64 30.3182 64 28.7775C64 28.3034 64 27.8294 63.8815 27.4738H56.5333ZM110.341 29.1331C109.867 27.9479 108.681 25.9331 106.074 25.9331C103.467 25.9331 101.333 27.9479 101.333 31.0294C101.333 33.8738 103.467 36.1256 106.311 36.1256C108.563 36.1256 109.985 34.7034 110.459 33.8738L108.8 32.6886C108.207 33.5182 107.496 34.1108 106.311 34.1108C105.126 34.1108 104.415 33.6368 103.822 32.5701L110.578 29.7256L110.341 29.1331ZM103.467 30.7923C103.467 28.896 105.007 27.8294 106.074 27.8294C106.904 27.8294 107.733 28.3034 107.97 28.896L103.467 30.7923ZM97.8963 35.6516H100.148V20.8368H97.8963V35.6516ZM94.3407 26.9997C93.7481 26.4071 92.8 25.8145 91.6148 25.8145C89.1259 25.8145 86.7556 28.0664 86.7556 30.9108C86.7556 33.7553 89.0074 35.8886 91.6148 35.8886C92.8 35.8886 93.7481 35.296 94.2222 34.7034H94.3407V35.4145C94.3407 37.3108 93.2741 38.3775 91.6148 38.3775C90.3111 38.3775 89.363 37.4294 89.1259 36.5997L87.2296 37.4294C87.8222 38.7331 89.2444 40.3923 91.7333 40.3923C94.3407 40.3923 96.4741 38.8516 96.4741 35.1775V26.1701H94.3407V26.9997ZM91.7333 33.9923C90.1926 33.9923 88.8889 32.6886 88.8889 30.9108C88.8889 29.1331 90.1926 27.8294 91.7333 27.8294C93.2741 27.8294 94.4593 29.1331 94.4593 30.9108C94.4593 32.6886 93.2741 33.9923 91.7333 33.9923ZM120.652 20.8368H115.319V35.6516H117.57V30.0812H120.652C123.141 30.0812 125.511 28.3034 125.511 25.459C125.511 22.6145 123.141 20.8368 120.652 20.8368ZM120.77 27.9479H117.57V22.8516H120.77C122.43 22.8516 123.378 24.2738 123.378 25.3405C123.259 26.6442 122.311 27.9479 120.77 27.9479ZM134.4 25.8145C132.741 25.8145 131.081 26.5257 130.489 28.0664L132.504 28.896C132.978 28.0664 133.689 27.8294 134.519 27.8294C135.704 27.8294 136.77 28.5405 136.889 29.7256V29.8442C136.533 29.6071 135.585 29.2516 134.637 29.2516C132.504 29.2516 130.37 30.4368 130.37 32.5701C130.37 34.5849 132.148 35.8886 134.044 35.8886C135.585 35.8886 136.296 35.1775 136.889 34.4664H137.007V35.6516H139.141V29.9627C138.904 27.3553 136.889 25.8145 134.4 25.8145ZM134.163 33.9923C133.452 33.9923 132.385 33.6368 132.385 32.6886C132.385 31.5034 133.689 31.1479 134.756 31.1479C135.704 31.1479 136.178 31.3849 136.77 31.6219C136.533 33.0442 135.348 33.9923 134.163 33.9923ZM146.607 26.1701L144.119 32.5701H144L141.393 26.1701H139.022L142.933 35.1775L140.681 40.1553H142.933L148.978 26.1701H146.607ZM126.696 35.6516H128.948V20.8368H126.696V35.6516Z" fill="white"/>
<path d="M12.3259 8.98491C11.9704 9.34047 11.8519 9.93306 11.8519 10.6442V36.8368C11.8519 37.5479 12.0889 38.1405 12.4444 38.496L12.563 38.6145L27.2593 23.9182V23.6812L12.3259 8.98491Z" fill="url(#paint0_linear_252_26407)"/>
<path d="M32 28.896L27.1407 24.0368V23.6812L32 18.8219L32.1185 18.9405L37.9259 22.259C39.5852 23.2071 39.5852 24.7479 37.9259 25.696L32 28.896Z" fill="url(#paint1_linear_252_26407)"/>
<path d="M32.1185 28.7775L27.1407 23.7997L12.3259 38.6145C12.9185 39.2071 13.7482 39.2071 14.8148 38.7331L32.1185 28.7775Z" fill="url(#paint2_linear_252_26407)"/>
<path d="M32.1185 18.8219L14.8148 8.98491C13.7482 8.39232 12.9185 8.51084 12.3259 9.10343L27.1407 23.7997L32.1185 18.8219Z" fill="url(#paint3_linear_252_26407)"/>
<path opacity="0.2" d="M32 28.659L14.8148 38.3775C13.8667 38.9701 13.037 38.8516 12.4444 38.3775L12.3259 38.496L12.4444 38.6145C13.037 39.0886 13.8667 39.2071 14.8148 38.6145L32 28.659Z" fill="black"/>
<path opacity="0.12" d="M12.3259 38.3775C11.9704 38.0219 11.8519 37.4294 11.8519 36.7182V36.8368C11.8519 37.5479 12.0889 38.1405 12.4444 38.496V38.3775H12.3259ZM37.9259 25.3405L32 28.659L32.1185 28.7775L37.9259 25.459C38.7556 24.9849 39.1111 24.3923 39.1111 23.7997C39.1111 24.3923 38.637 24.8664 37.9259 25.3405Z" fill="black"/>
<path opacity="0.25" d="M14.8148 9.10343L37.9259 22.259C38.637 22.7331 39.1111 23.2071 39.1111 23.7997C39.1111 23.2071 38.7556 22.6145 37.9259 22.1405L14.8148 8.98491C13.1556 8.03676 11.8519 8.74787 11.8519 10.6442V10.7627C11.8519 8.98491 13.1556 8.15528 14.8148 9.10343Z" fill="white"/>
</g>
<defs>
<linearGradient id="paint0_linear_252_26407" x1="25.837" y1="10.419" x2="5.94608" y2="30.3088" gradientUnits="userSpaceOnUse">
<stop stop-color="#00A0FF"/>
<stop offset="0.007" stop-color="#00A1FF"/>
<stop offset="0.26" stop-color="#00BEFF"/>
<stop offset="0.512" stop-color="#00D2FF"/>
<stop offset="0.76" stop-color="#00DFFF"/>
<stop offset="1" stop-color="#00E3FF"/>
</linearGradient>
<linearGradient id="paint1_linear_252_26407" x1="40.0996" y1="23.8009" x2="11.4216" y2="23.8009" gradientUnits="userSpaceOnUse">
<stop stop-color="#FFE000"/>
<stop offset="0.409" stop-color="#FFBD00"/>
<stop offset="0.775" stop-color="#FFA500"/>
<stop offset="1" stop-color="#FF9C00"/>
</linearGradient>
<linearGradient id="paint2_linear_252_26407" x1="29.4246" y1="26.5209" x2="2.45215" y2="53.4934" gradientUnits="userSpaceOnUse">
<stop stop-color="#FF3A44"/>
<stop offset="1" stop-color="#C31162"/>
</linearGradient>
<linearGradient id="paint3_linear_252_26407" x1="8.6483" y1="0.304616" x2="20.6933" y2="12.3497" gradientUnits="userSpaceOnUse">
<stop stop-color="#32A071"/>
<stop offset="0.069" stop-color="#2DA771"/>
<stop offset="0.476" stop-color="#15CF74"/>
<stop offset="0.801" stop-color="#06E775"/>
<stop offset="1" stop-color="#00F076"/>
</linearGradient>
<clipPath id="clip0_252_26407">
<rect width="160" height="47.6" fill="white" transform="translate(0 -0.000274658)"/>
</clipPath>
</defs>
</svg>
