<svg width="111" height="32" viewBox="0 0 111 32" fill="none" xmlns="http://www.w3.org/2000/svg">
<path d="M0.361492 24.7222C0.132514 24.507 0 24.172 0 23.7381V8.26155C0 7.82766 0.132514 7.49263 0.361492 7.27743L0.418006 7.23019L10.0779 15.8992V16.1039L0.418006 24.773L0.361492 24.7222Z" fill="#FF5AB8"/>
<path d="M13.294 13.0077L10.0776 15.8988V16.1035L13.2979 18.9947L13.37 18.957L17.1837 17.0089C18.2721 16.4561 18.2721 15.5463 17.1837 14.9899L13.37 13.0453L13.294 13.0077Z" fill="#FF5AB8"/>
<path d="M13.371 13.0456L10.0786 16.0015L0.362122 7.27736C0.723614 6.93619 1.31311 6.89508 1.98348 7.23624L13.371 13.0456Z" fill="#EE0088"/>
<path d="M13.371 18.9573L1.98348 24.7667C1.31311 25.1044 0.723614 25.0633 0.362122 24.7221L10.0786 16.0015L13.371 18.9573Z" fill="#EE0088"/>
<path d="M28.94 4.03C29.7 4.03 30.3567 4.17333 30.91 4.46C31.47 4.74 31.8967 5.14333 32.19 5.67C32.49 6.19667 32.64 6.81667 32.64 7.53C32.64 8.24333 32.49 8.86333 32.19 9.39C31.8967 9.91 31.47 10.31 30.91 10.59C30.3567 10.8633 29.7 11 28.94 11H26.77V4.03H28.94ZM28.94 10.25C29.84 10.25 30.5267 10.0133 31 9.54C31.4733 9.06 31.71 8.39 31.71 7.53C31.71 6.66333 31.47 5.98667 30.99 5.5C30.5167 5.01333 29.8333 4.77 28.94 4.77H27.68V10.25H28.94ZM36.2303 11.09C35.717 11.09 35.2503 10.9733 34.8303 10.74C34.417 10.5067 34.0903 10.1767 33.8503 9.75C33.617 9.31667 33.5003 8.81667 33.5003 8.25C33.5003 7.69 33.6203 7.19667 33.8603 6.77C34.107 6.33667 34.4403 6.00667 34.8603 5.78C35.2803 5.54667 35.7503 5.43 36.2703 5.43C36.7903 5.43 37.2603 5.54667 37.6803 5.78C38.1003 6.00667 38.4303 6.33333 38.6703 6.76C38.917 7.18667 39.0403 7.68333 39.0403 8.25C39.0403 8.81667 38.9136 9.31667 38.6603 9.75C38.4136 10.1767 38.077 10.5067 37.6503 10.74C37.2236 10.9733 36.7503 11.09 36.2303 11.09ZM36.2303 10.29C36.557 10.29 36.8636 10.2133 37.1503 10.06C37.437 9.90667 37.667 9.67667 37.8403 9.37C38.0203 9.06333 38.1103 8.69 38.1103 8.25C38.1103 7.81 38.0236 7.43667 37.8503 7.13C37.677 6.82333 37.4503 6.59667 37.1703 6.45C36.8903 6.29667 36.587 6.22 36.2603 6.22C35.927 6.22 35.6203 6.29667 35.3403 6.45C35.067 6.59667 34.847 6.82333 34.6803 7.13C34.5136 7.43667 34.4303 7.81 34.4303 8.25C34.4303 8.69667 34.5103 9.07333 34.6703 9.38C34.837 9.68667 35.057 9.91667 35.3303 10.07C35.6036 10.2167 35.9036 10.29 36.2303 10.29ZM47.5368 5.52L45.8268 11H44.8868L43.5668 6.65L42.2468 11H41.3068L39.5868 5.52H40.5168L41.7768 10.12L43.1368 5.52H44.0668L45.3968 10.13L46.6368 5.52H47.5368ZM51.1099 5.42C51.7766 5.42 52.3166 5.62333 52.7299 6.03C53.1433 6.43 53.3499 7.01 53.3499 7.77V11H52.4499V7.9C52.4499 7.35333 52.3133 6.93667 52.0399 6.65C51.7666 6.35667 51.3933 6.21 50.9199 6.21C50.4399 6.21 50.0566 6.36 49.7699 6.66C49.4899 6.96 49.3499 7.39667 49.3499 7.97V11H48.4399V5.52H49.3499V6.3C49.5299 6.02 49.7733 5.80333 50.0799 5.65C50.3933 5.49667 50.7366 5.42 51.1099 5.42ZM55.7464 3.6V11H54.8364V3.6H55.7464ZM59.6873 11.09C59.174 11.09 58.7073 10.9733 58.2873 10.74C57.874 10.5067 57.5473 10.1767 57.3073 9.75C57.074 9.31667 56.9573 8.81667 56.9573 8.25C56.9573 7.69 57.0773 7.19667 57.3173 6.77C57.564 6.33667 57.8973 6.00667 58.3173 5.78C58.7373 5.54667 59.2073 5.43 59.7273 5.43C60.2473 5.43 60.7173 5.54667 61.1373 5.78C61.5573 6.00667 61.8873 6.33333 62.1273 6.76C62.374 7.18667 62.4973 7.68333 62.4973 8.25C62.4973 8.81667 62.3707 9.31667 62.1173 9.75C61.8707 10.1767 61.534 10.5067 61.1073 10.74C60.6807 10.9733 60.2073 11.09 59.6873 11.09ZM59.6873 10.29C60.014 10.29 60.3207 10.2133 60.6073 10.06C60.894 9.90667 61.124 9.67667 61.2973 9.37C61.4773 9.06333 61.5673 8.69 61.5673 8.25C61.5673 7.81 61.4807 7.43667 61.3073 7.13C61.134 6.82333 60.9073 6.59667 60.6273 6.45C60.3473 6.29667 60.044 6.22 59.7173 6.22C59.384 6.22 59.0773 6.29667 58.7973 6.45C58.524 6.59667 58.304 6.82333 58.1373 7.13C57.9707 7.43667 57.8873 7.81 57.8873 8.25C57.8873 8.69667 57.9673 9.07333 58.1273 9.38C58.294 9.68667 58.514 9.91667 58.7873 10.07C59.0607 10.2167 59.3607 10.29 59.6873 10.29ZM63.3538 8.24C63.3538 7.68 63.4672 7.19 63.6938 6.77C63.9205 6.34333 64.2305 6.01333 64.6238 5.78C65.0238 5.54667 65.4672 5.43 65.9538 5.43C66.4338 5.43 66.8505 5.53333 67.2038 5.74C67.5572 5.94667 67.8205 6.20667 67.9938 6.52V5.52H68.9138V11H67.9938V9.98C67.8138 10.3 67.5438 10.5667 67.1838 10.78C66.8305 10.9867 66.4172 11.09 65.9438 11.09C65.4572 11.09 65.0172 10.97 64.6238 10.73C64.2305 10.49 63.9205 10.1533 63.6938 9.72C63.4672 9.28667 63.3538 8.79333 63.3538 8.24ZM67.9938 8.25C67.9938 7.83667 67.9105 7.47667 67.7438 7.17C67.5772 6.86333 67.3505 6.63 67.0638 6.47C66.7838 6.30333 66.4738 6.22 66.1338 6.22C65.7938 6.22 65.4838 6.3 65.2038 6.46C64.9238 6.62 64.7005 6.85333 64.5338 7.16C64.3672 7.46667 64.2838 7.82667 64.2838 8.24C64.2838 8.66 64.3672 9.02667 64.5338 9.34C64.7005 9.64667 64.9238 9.88333 65.2038 10.05C65.4838 10.21 65.7938 10.29 66.1338 10.29C66.4738 10.29 66.7838 10.21 67.0638 10.05C67.3505 9.88333 67.5772 9.64667 67.7438 9.34C67.9105 9.02667 67.9938 8.66333 67.9938 8.25ZM70.1116 8.24C70.1116 7.68 70.225 7.19 70.4516 6.77C70.6783 6.34333 70.9883 6.01333 71.3816 5.78C71.7816 5.54667 72.2283 5.43 72.7216 5.43C73.1483 5.43 73.545 5.53 73.9116 5.73C74.2783 5.92333 74.5583 6.18 74.7516 6.5V3.6H75.6716V11H74.7516V9.97C74.5716 10.2967 74.305 10.5667 73.9516 10.78C73.5983 10.9867 73.185 11.09 72.7116 11.09C72.225 11.09 71.7816 10.97 71.3816 10.73C70.9883 10.49 70.6783 10.1533 70.4516 9.72C70.225 9.28667 70.1116 8.79333 70.1116 8.24ZM74.7516 8.25C74.7516 7.83667 74.6683 7.47667 74.5016 7.17C74.335 6.86333 74.1083 6.63 73.8216 6.47C73.5416 6.30333 73.2316 6.22 72.8916 6.22C72.5516 6.22 72.2416 6.3 71.9616 6.46C71.6816 6.62 71.4583 6.85333 71.2916 7.16C71.125 7.46667 71.0416 7.82667 71.0416 8.24C71.0416 8.66 71.125 9.02667 71.2916 9.34C71.4583 9.64667 71.6816 9.88333 71.9616 10.05C72.2416 10.21 72.5516 10.29 72.8916 10.29C73.2316 10.29 73.5416 10.21 73.8216 10.05C74.1083 9.88333 74.335 9.64667 74.5016 9.34C74.6683 9.02667 74.7516 8.66333 74.7516 8.25ZM82.2655 11.09C81.7521 11.09 81.2855 10.9733 80.8655 10.74C80.4521 10.5067 80.1255 10.1767 79.8855 9.75C79.6521 9.31667 79.5355 8.81667 79.5355 8.25C79.5355 7.69 79.6555 7.19667 79.8955 6.77C80.1421 6.33667 80.4755 6.00667 80.8955 5.78C81.3155 5.54667 81.7855 5.43 82.3055 5.43C82.8255 5.43 83.2955 5.54667 83.7155 5.78C84.1355 6.00667 84.4655 6.33333 84.7055 6.76C84.9521 7.18667 85.0755 7.68333 85.0755 8.25C85.0755 8.81667 84.9488 9.31667 84.6955 9.75C84.4488 10.1767 84.1121 10.5067 83.6855 10.74C83.2588 10.9733 82.7855 11.09 82.2655 11.09ZM82.2655 10.29C82.5921 10.29 82.8988 10.2133 83.1855 10.06C83.4721 9.90667 83.7021 9.67667 83.8755 9.37C84.0555 9.06333 84.1455 8.69 84.1455 8.25C84.1455 7.81 84.0588 7.43667 83.8855 7.13C83.7121 6.82333 83.4855 6.59667 83.2055 6.45C82.9255 6.29667 82.6221 6.22 82.2955 6.22C81.9621 6.22 81.6555 6.29667 81.3755 6.45C81.1021 6.59667 80.8821 6.82333 80.7155 7.13C80.5488 7.43667 80.4655 7.81 80.4655 8.25C80.4655 8.69667 80.5455 9.07333 80.7055 9.38C80.8721 9.68667 81.0921 9.91667 81.3655 10.07C81.6388 10.2167 81.9388 10.29 82.2655 10.29ZM88.942 5.42C89.6086 5.42 90.1486 5.62333 90.562 6.03C90.9753 6.43 91.182 7.01 91.182 7.77V11H90.282V7.9C90.282 7.35333 90.1453 6.93667 89.872 6.65C89.5986 6.35667 89.2253 6.21 88.752 6.21C88.272 6.21 87.8886 6.36 87.602 6.66C87.322 6.96 87.182 7.39667 87.182 7.97V11H86.272V5.52H87.182V6.3C87.362 6.02 87.6053 5.80333 87.912 5.65C88.2253 5.49667 88.5686 5.42 88.942 5.42ZM96.4445 6.27V9.5C96.4445 9.76667 96.5011 9.95667 96.6145 10.07C96.7278 10.1767 96.9245 10.23 97.2045 10.23H97.8745V11H97.0545C96.5478 11 96.1678 10.8833 95.9145 10.65C95.6611 10.4167 95.5345 10.0333 95.5345 9.5V6.27H94.8245V5.52H95.5345V4.14H96.4445V5.52H97.8745V6.27H96.4445ZM101.697 5.42C102.11 5.42 102.484 5.51 102.817 5.69C103.15 5.86333 103.41 6.12667 103.597 6.48C103.79 6.83333 103.887 7.26333 103.887 7.77V11H102.987V7.9C102.987 7.35333 102.85 6.93667 102.577 6.65C102.304 6.35667 101.93 6.21 101.457 6.21C100.977 6.21 100.594 6.36 100.307 6.66C100.027 6.96 99.887 7.39667 99.887 7.97V11H98.977V3.6H99.887V6.3C100.067 6.02 100.314 5.80333 100.627 5.65C100.947 5.49667 101.304 5.42 101.697 5.42ZM110.374 8.05C110.374 8.22333 110.364 8.40667 110.344 8.6H105.964C105.997 9.14 106.18 9.56333 106.514 9.87C106.854 10.17 107.264 10.32 107.744 10.32C108.137 10.32 108.464 10.23 108.724 10.05C108.99 9.86333 109.177 9.61667 109.284 9.31H110.264C110.117 9.83667 109.824 10.2667 109.384 10.6C108.944 10.9267 108.397 11.09 107.744 11.09C107.224 11.09 106.757 10.9733 106.344 10.74C105.937 10.5067 105.617 10.1767 105.384 9.75C105.15 9.31667 105.034 8.81667 105.034 8.25C105.034 7.68333 105.147 7.18667 105.374 6.76C105.6 6.33333 105.917 6.00667 106.324 5.78C106.737 5.54667 107.21 5.43 107.744 5.43C108.264 5.43 108.724 5.54333 109.124 5.77C109.524 5.99667 109.83 6.31 110.044 6.71C110.264 7.10333 110.374 7.55 110.374 8.05ZM109.434 7.86C109.434 7.51333 109.357 7.21667 109.204 6.97C109.05 6.71667 108.84 6.52667 108.574 6.4C108.314 6.26667 108.024 6.2 107.704 6.2C107.244 6.2 106.85 6.34667 106.524 6.64C106.204 6.93333 106.02 7.34 105.974 7.86H109.434Z" fill="#1A1F2E"/>
<path d="M34.47 21.07C34.1993 20.5007 33.8073 20.062 33.294 19.754C32.7807 19.4367 32.1833 19.278 31.502 19.278C30.8207 19.278 30.2047 19.4367 29.654 19.754C29.1127 20.062 28.6833 20.51 28.366 21.098C28.058 21.6767 27.904 22.3487 27.904 23.114C27.904 23.8793 28.058 24.5513 28.366 25.13C28.6833 25.7087 29.1127 26.1567 29.654 26.474C30.2047 26.782 30.8207 26.936 31.502 26.936C32.454 26.936 33.238 26.6513 33.854 26.082C34.47 25.5127 34.8293 24.7427 34.932 23.772H31.04V22.736H36.29V23.716C36.2153 24.5187 35.9633 25.256 35.534 25.928C35.1047 26.5907 34.54 27.118 33.84 27.51C33.14 27.8927 32.3607 28.084 31.502 28.084C30.5967 28.084 29.7707 27.874 29.024 27.454C28.2773 27.0247 27.6847 26.432 27.246 25.676C26.8167 24.92 26.602 24.066 26.602 23.114C26.602 22.162 26.8167 21.308 27.246 20.552C27.6847 19.7867 28.2773 19.194 29.024 18.774C29.7707 18.3447 30.5967 18.13 31.502 18.13C32.538 18.13 33.4527 18.3867 34.246 18.9C35.0487 19.4133 35.632 20.1367 35.996 21.07H34.47ZM41.3205 28.126C40.6018 28.126 39.9485 27.9627 39.3605 27.636C38.7818 27.3093 38.3245 26.8473 37.9885 26.25C37.6618 25.6433 37.4985 24.9433 37.4985 24.15C37.4985 23.366 37.6665 22.6753 38.0025 22.078C38.3478 21.4713 38.8145 21.0093 39.4025 20.692C39.9905 20.3653 40.6485 20.202 41.3765 20.202C42.1045 20.202 42.7625 20.3653 43.3505 20.692C43.9385 21.0093 44.4005 21.4667 44.7365 22.064C45.0818 22.6613 45.2545 23.3567 45.2545 24.15C45.2545 24.9433 45.0772 25.6433 44.7225 26.25C44.3772 26.8473 43.9058 27.3093 43.3085 27.636C42.7112 27.9627 42.0485 28.126 41.3205 28.126ZM41.3205 27.006C41.7778 27.006 42.2072 26.8987 42.6085 26.684C43.0098 26.4693 43.3318 26.1473 43.5745 25.718C43.8265 25.2887 43.9525 24.766 43.9525 24.15C43.9525 23.534 43.8312 23.0113 43.5885 22.582C43.3458 22.1527 43.0285 21.8353 42.6365 21.63C42.2445 21.4153 41.8198 21.308 41.3625 21.308C40.8958 21.308 40.4665 21.4153 40.0745 21.63C39.6918 21.8353 39.3838 22.1527 39.1505 22.582C38.9172 23.0113 38.8005 23.534 38.8005 24.15C38.8005 24.7753 38.9125 25.3027 39.1365 25.732C39.3698 26.1613 39.6778 26.4833 40.0605 26.698C40.4432 26.9033 40.8632 27.006 41.3205 27.006ZM50.2756 28.126C49.5569 28.126 48.9036 27.9627 48.3156 27.636C47.7369 27.3093 47.2796 26.8473 46.9436 26.25C46.6169 25.6433 46.4536 24.9433 46.4536 24.15C46.4536 23.366 46.6216 22.6753 46.9576 22.078C47.3029 21.4713 47.7696 21.0093 48.3576 20.692C48.9456 20.3653 49.6036 20.202 50.3316 20.202C51.0596 20.202 51.7176 20.3653 52.3056 20.692C52.8936 21.0093 53.3556 21.4667 53.6916 22.064C54.0369 22.6613 54.2096 23.3567 54.2096 24.15C54.2096 24.9433 54.0322 25.6433 53.6776 26.25C53.3322 26.8473 52.8609 27.3093 52.2636 27.636C51.6662 27.9627 51.0036 28.126 50.2756 28.126ZM50.2756 27.006C50.7329 27.006 51.1622 26.8987 51.5636 26.684C51.9649 26.4693 52.2869 26.1473 52.5296 25.718C52.7816 25.2887 52.9076 24.766 52.9076 24.15C52.9076 23.534 52.7862 23.0113 52.5436 22.582C52.3009 22.1527 51.9836 21.8353 51.5916 21.63C51.1996 21.4153 50.7749 21.308 50.3176 21.308C49.8509 21.308 49.4216 21.4153 49.0296 21.63C48.6469 21.8353 48.3389 22.1527 48.1056 22.582C47.8722 23.0113 47.7556 23.534 47.7556 24.15C47.7556 24.7753 47.8676 25.3027 48.0916 25.732C48.3249 26.1613 48.6329 26.4833 49.0156 26.698C49.3982 26.9033 49.8182 27.006 50.2756 27.006ZM59.0486 20.202C59.7113 20.202 60.29 20.3467 60.7846 20.636C61.2886 20.9253 61.662 21.2893 61.9046 21.728V20.328H63.1926V28.168C63.1926 28.868 63.0433 29.4887 62.7446 30.03C62.446 30.5807 62.0166 31.01 61.4566 31.318C60.906 31.626 60.262 31.78 59.5246 31.78C58.5166 31.78 57.6766 31.542 57.0046 31.066C56.3326 30.59 55.936 29.9413 55.8146 29.12H57.0746C57.2146 29.5867 57.504 29.96 57.9426 30.24C58.3813 30.5293 58.9086 30.674 59.5246 30.674C60.2246 30.674 60.794 30.4547 61.2326 30.016C61.6806 29.5773 61.9046 28.9613 61.9046 28.168V26.558C61.6526 27.006 61.2793 27.3793 60.7846 27.678C60.29 27.9767 59.7113 28.126 59.0486 28.126C58.3673 28.126 57.7466 27.958 57.1866 27.622C56.636 27.286 56.202 26.8147 55.8846 26.208C55.5673 25.6013 55.4086 24.9107 55.4086 24.136C55.4086 23.352 55.5673 22.666 55.8846 22.078C56.202 21.4807 56.636 21.0187 57.1866 20.692C57.7466 20.3653 58.3673 20.202 59.0486 20.202ZM61.9046 24.15C61.9046 23.5713 61.788 23.0673 61.5546 22.638C61.3213 22.2087 61.004 21.882 60.6026 21.658C60.2106 21.4247 59.7766 21.308 59.3006 21.308C58.8246 21.308 58.3906 21.42 57.9986 21.644C57.6066 21.868 57.294 22.1947 57.0606 22.624C56.8273 23.0533 56.7106 23.5573 56.7106 24.136C56.7106 24.724 56.8273 25.2373 57.0606 25.676C57.294 26.1053 57.6066 26.4367 57.9986 26.67C58.3906 26.894 58.8246 27.006 59.3006 27.006C59.7766 27.006 60.2106 26.894 60.6026 26.67C61.004 26.4367 61.3213 26.1053 61.5546 25.676C61.788 25.2373 61.9046 24.7287 61.9046 24.15ZM66.6196 17.64V28H65.3456V17.64H66.6196ZM75.7909 23.87C75.7909 24.1127 75.7769 24.3693 75.7489 24.64H69.6169C69.6636 25.396 69.9202 25.9887 70.3869 26.418C70.8629 26.838 71.4369 27.048 72.1089 27.048C72.6596 27.048 73.1169 26.922 73.4809 26.67C73.8542 26.4087 74.1156 26.0633 74.2649 25.634H75.6369C75.4316 26.3713 75.0209 26.9733 74.4049 27.44C73.7889 27.8973 73.0236 28.126 72.1089 28.126C71.3809 28.126 70.7276 27.9627 70.1489 27.636C69.5796 27.3093 69.1316 26.8473 68.8049 26.25C68.4782 25.6433 68.3149 24.9433 68.3149 24.15C68.3149 23.3567 68.4736 22.6613 68.7909 22.064C69.1082 21.4667 69.5516 21.0093 70.1209 20.692C70.6996 20.3653 71.3622 20.202 72.1089 20.202C72.8369 20.202 73.4809 20.3607 74.0409 20.678C74.6009 20.9953 75.0302 21.434 75.3289 21.994C75.6369 22.5447 75.7909 23.17 75.7909 23.87ZM74.4749 23.604C74.4749 23.1187 74.3676 22.7033 74.1529 22.358C73.9382 22.0033 73.6442 21.7373 73.2709 21.56C72.9069 21.3733 72.5009 21.28 72.0529 21.28C71.4089 21.28 70.8582 21.4853 70.4009 21.896C69.9529 22.3067 69.6962 22.876 69.6309 23.604H74.4749ZM87.729 21.098C87.729 21.91 87.449 22.5867 86.889 23.128C86.3383 23.66 85.4936 23.926 84.355 23.926H82.479V28H81.205V18.242H84.355C85.4563 18.242 86.2916 18.508 86.861 19.04C87.4396 19.572 87.729 20.258 87.729 21.098ZM84.355 22.876C85.0643 22.876 85.587 22.722 85.923 22.414C86.259 22.106 86.427 21.6673 86.427 21.098C86.427 19.894 85.7363 19.292 84.355 19.292H82.479V22.876H84.355ZM90.5864 17.64V28H89.3124V17.64H90.5864ZM92.2817 24.136C92.2817 23.352 92.4404 22.666 92.7577 22.078C93.075 21.4807 93.509 21.0187 94.0597 20.692C94.6197 20.3653 95.2404 20.202 95.9217 20.202C96.5937 20.202 97.177 20.3467 97.6717 20.636C98.1664 20.9253 98.535 21.2893 98.7777 21.728V20.328H100.066V28H98.7777V26.572C98.5257 27.02 98.1477 27.3933 97.6437 27.692C97.149 27.9813 96.5704 28.126 95.9077 28.126C95.2264 28.126 94.6104 27.958 94.0597 27.622C93.509 27.286 93.075 26.8147 92.7577 26.208C92.4404 25.6013 92.2817 24.9107 92.2817 24.136ZM98.7777 24.15C98.7777 23.5713 98.661 23.0673 98.4277 22.638C98.1944 22.2087 97.877 21.882 97.4757 21.658C97.0837 21.4247 96.6497 21.308 96.1737 21.308C95.6977 21.308 95.2637 21.42 94.8717 21.644C94.4797 21.868 94.167 22.1947 93.9337 22.624C93.7004 23.0533 93.5837 23.5573 93.5837 24.136C93.5837 24.724 93.7004 25.2373 93.9337 25.676C94.167 26.1053 94.4797 26.4367 94.8717 26.67C95.2637 26.894 95.6977 27.006 96.1737 27.006C96.6497 27.006 97.0837 26.894 97.4757 26.67C97.877 26.4367 98.1944 26.1053 98.4277 25.676C98.661 25.2373 98.7777 24.7287 98.7777 24.15ZM108.827 20.328L104.207 31.612H102.891L104.403 27.916L101.309 20.328H102.723L105.131 26.544L107.511 20.328H108.827Z" fill="#1A1F2E"/>
</svg>
