<svg width="160" height="48" viewBox="0 0 160 48" fill="none" xmlns="http://www.w3.org/2000/svg">
<path d="M148.713 -0.000274658H9.99636C9.63511 -0.000274658 9.27386 -0.000274658 8.90885 0.0147773C8.1131 0.0248661 7.3193 0.0959438 6.53441 0.227386C5.74848 0.358162 4.98712 0.608143 4.27663 0.968692C3.56811 1.33126 2.9206 1.80229 2.35751 2.36476C1.79579 2.92703 1.32765 3.57556 0.970849 4.28576C0.610354 4.99627 0.360375 5.75763 0.229542 6.54355C0.0978942 7.32651 0.0268141 8.11845 0.0169334 8.91234C0 9.27547 0 9.6386 0 10.0017V38.0058C0 38.3821 0 38.7302 0.0169334 39.099C0.0267025 39.8935 0.097783 40.6861 0.229542 41.4696C0.360261 42.2556 0.610245 43.017 0.970849 43.7274C1.32911 44.4358 1.79996 45.0814 2.36503 45.639C2.9255 46.2051 3.57351 46.6771 4.28415 47.037C4.9948 47.3995 5.75589 47.6532 6.54194 47.7896C7.32519 47.9106 8.11632 47.9735 8.90885 47.9777C9.27386 47.9777 9.63511 47.9909 9.99636 47.9909H149.996C150.357 47.9909 150.728 47.9909 151.089 47.9777C151.883 47.9675 152.675 47.8977 153.458 47.7689C154.244 47.6307 155.004 47.3771 155.716 47.0163C156.425 46.6569 157.072 46.1855 157.631 45.6202C158.196 45.0608 158.668 44.4156 159.031 43.7086C159.389 42.9978 159.637 42.2364 159.765 41.4508C159.896 40.6671 159.97 39.8747 159.985 39.0801C159.985 38.7038 159.985 38.3558 159.985 37.987C159.985 37.558 159.985 37.129 159.985 36.6925V11.2887C159.985 10.854 159.985 10.4232 159.985 9.9942C159.985 9.63107 159.985 9.26794 159.985 8.90482C159.97 8.10963 159.896 7.31663 159.765 6.53226C159.637 5.74669 159.389 4.98532 159.031 4.27447C158.299 2.85376 157.14 1.69782 155.718 0.968692C155.007 0.609807 154.245 0.35991 153.46 0.227386C152.674 0.0956979 151.88 0.0252436 151.084 0.0166587C150.722 0.0166587 150.352 0.00348832 149.99 0.00160683L148.713 -0.000274658Z" fill="#C0C1C1"/>
<path d="M10.0039 46.9636C9.64263 46.9636 9.28891 46.9636 8.93143 46.9504C8.18964 46.9422 7.44947 46.8793 6.71692 46.7623C6.03441 46.6436 5.37315 46.4249 4.75452 46.1132C4.14258 45.8025 3.58425 45.396 3.10069 44.909C2.60993 44.4267 2.20128 43.8674 1.8909 43.2533C1.57801 42.6358 1.36163 41.974 1.24931 41.2909C1.13012 40.5567 1.06722 39.8145 1.06116 39.0707C1.06116 38.8205 1.04234 37.9889 1.04234 37.9889V10.0017C1.04234 10.0017 1.05363 9.18328 1.06116 8.94244C1.06745 8.19994 1.13035 7.45899 1.24931 6.72605C1.362 6.04042 1.57901 5.37608 1.89278 4.75613C2.20193 4.14319 2.6079 3.58411 3.09505 3.10042C3.58148 2.61024 4.14136 2.1989 4.75452 1.88121C5.37183 1.57226 6.03209 1.35788 6.71315 1.24527C7.44806 1.12683 8.19084 1.06394 8.93519 1.05712L10.0039 1.04207H149.987L151.069 1.05712C151.806 1.06464 152.542 1.12753 153.27 1.24527C153.958 1.36271 154.625 1.58146 155.249 1.89439C156.478 2.52864 157.478 3.53119 158.109 4.76178C158.418 5.37677 158.632 6.03533 158.743 6.71476C158.866 7.45387 158.935 8.20089 158.95 8.94997V10.0036V11.2981V36.7057V37.9795V39.0801C158.936 39.8159 158.868 40.5497 158.749 41.2758C158.637 41.9637 158.422 42.6305 158.109 43.2533C157.796 43.8604 157.39 44.4147 156.905 44.8958C156.421 45.3857 155.861 45.7942 155.247 46.1056C154.625 46.4206 153.959 46.6407 153.272 46.7585C152.539 46.8762 151.799 46.9391 151.057 46.9467C150.711 46.9467 150.348 46.9598 149.994 46.9598H10.0039V46.9636Z" fill="black"/>
<path d="M59.3403 32.4404H53.788L52.4296 36.1563H49.9837L55.4193 22.2841H57.7279L63.2896 36.1563H60.7288L59.3403 32.4404ZM54.4879 30.5589H58.6272L57.1427 26.5852C56.9395 26.0383 56.7388 25.4324 56.5406 24.7677C56.3613 25.3547 56.1669 25.9542 55.9574 26.5664L54.4879 30.5589Z" fill="white"/>
<path d="M64.3959 28.3538C64.3959 27.5886 64.3708 26.7457 64.3206 25.8251H66.5408C66.6238 26.2604 66.6816 26.7001 66.7139 27.1421C67.632 26.1386 68.685 25.6369 69.8729 25.6369C70.5814 25.6256 71.2772 25.8257 71.8714 26.2118C72.4656 26.5979 72.9313 27.1524 73.2088 27.8044C73.57 28.557 73.7506 29.5096 73.7506 30.6624C73.7798 31.7263 73.5682 32.783 73.1316 33.7536C72.7643 34.5604 72.1624 35.2377 71.4044 35.6972C70.6255 36.1482 69.738 36.3773 68.8381 36.3595C68.1331 36.3577 67.4335 36.2375 66.7684 36.0039V40.2636L64.4034 40.4649L64.3959 28.3538ZM70.6142 33.6332C71.0959 32.986 71.3367 32.0396 71.3367 30.7941C71.3367 29.6388 71.1373 28.8016 70.7384 28.2823C70.5561 28.0325 70.3158 27.8309 70.0381 27.6949C69.7604 27.5588 69.4538 27.4924 69.1448 27.5015C68.6992 27.4982 68.2604 27.6103 67.871 27.827C67.4601 28.0611 67.0861 28.3547 66.7609 28.6981V34.2315C67.0237 34.3552 67.3004 34.4468 67.585 34.5044C67.8897 34.5707 68.2007 34.6041 68.5126 34.6041C69.4333 34.6041 70.1338 34.2805 70.6142 33.6332Z" fill="white"/>
<path d="M75.2596 28.3538C75.2596 27.5886 75.2339 26.7457 75.1824 25.8251H77.4045C77.4878 26.2602 77.545 26.7001 77.5757 27.1421C78.4964 26.1386 79.5494 25.6369 80.7347 25.6369C81.4436 25.6252 82.1398 25.8252 82.7344 26.2113C83.3289 26.5974 83.7948 27.1521 84.0725 27.8044C84.4312 28.557 84.6112 29.5096 84.6125 30.6624C84.6422 31.7261 84.4312 32.7828 83.9953 33.7536C83.6273 34.5605 83.0248 35.2378 82.2663 35.6972C81.4881 36.1484 80.6011 36.3775 79.7018 36.3595C78.9969 36.3577 78.2972 36.2375 77.6321 36.0039V40.2636L75.2596 40.4725V28.3538ZM81.4779 33.6332C81.9596 32.986 82.2004 32.0396 82.2004 30.7941C82.2004 29.6388 82.001 28.8016 81.6021 28.2823C81.4198 28.0325 81.1795 27.8309 80.9018 27.6949C80.6241 27.5588 80.3175 27.4924 80.0085 27.5015C79.5629 27.498 79.124 27.6102 78.7347 27.827C78.3235 28.0607 77.9494 28.3543 77.6246 28.6981V34.2315C77.8868 34.355 78.1629 34.4465 78.4468 34.5044C78.7522 34.5707 79.0638 34.6041 79.3763 34.6041C80.2995 34.6041 81.0013 34.2805 81.4817 33.6332H81.4779Z" fill="white"/>
<path d="M89.0773 35.4997C88.066 34.9457 87.2452 34.0999 86.7216 33.0725C86.1735 32.0189 85.8994 30.7746 85.8994 29.3397C85.8994 27.7818 86.213 26.4591 86.8402 25.3716C87.4379 24.3181 88.3359 23.4666 89.4197 22.9257C90.5587 22.3684 91.8132 22.088 93.0811 22.1072C93.8502 22.1043 94.6169 22.1927 95.3652 22.3706C96.0644 22.5368 96.7432 22.7791 97.3897 23.0931L96.7857 24.9125C95.6685 24.3468 94.4384 24.0395 93.1864 24.0132C92.3027 23.993 91.4293 24.2059 90.6539 24.6303C89.9198 25.0506 89.3296 25.6828 88.9606 26.4441C88.5365 27.3477 88.3303 28.3381 88.3585 29.3359C88.3422 30.2355 88.4993 31.1298 88.8214 31.97C89.1123 32.7121 89.6239 33.3471 90.287 33.7894C90.9531 34.2347 91.7935 34.4579 92.8082 34.4592C93.2703 34.4594 93.7317 34.421 94.1874 34.3444C94.6277 34.273 95.0604 34.1609 95.48 34.0095V31.1967H92.2814V29.351H97.7848V35.1836C96.9866 35.5559 96.1509 35.8416 95.2918 36.0359C94.4388 36.2312 93.5666 36.3302 92.6916 36.3313C91.4356 36.3668 90.1914 36.0805 89.0773 35.4997Z" fill="white"/>
<path d="M106.304 36.1563C106.215 35.7046 106.161 35.2466 106.142 34.7866C105.746 35.2458 105.263 35.6218 104.72 35.8929C104.107 36.2022 103.429 36.3579 102.743 36.3463C102.183 36.3533 101.628 36.2343 101.121 35.9983C100.637 35.7699 100.233 35.4032 99.9579 34.9446C99.6581 34.4231 99.5102 33.8281 99.5308 33.2268C99.5132 32.7705 99.6017 32.3163 99.7894 31.9001C99.9772 31.4838 100.259 31.1168 100.613 30.8279C101.334 30.2321 102.537 29.9336 104.221 29.9323C104.851 29.9318 105.48 29.977 106.103 30.0678V29.8665C106.103 28.9533 105.908 28.3099 105.52 27.9361C105.131 27.5623 104.572 27.3741 103.843 27.3716C103.297 27.3775 102.753 27.4514 102.225 27.5918C101.708 27.7196 101.204 27.896 100.72 28.1186L100.344 26.3951C100.881 26.1661 101.439 25.9897 102.011 25.8683C102.727 25.7056 103.459 25.6254 104.193 25.6294C104.972 25.6083 105.746 25.7466 106.47 26.0358C107.106 26.3169 107.625 26.8113 107.935 27.4337C108.287 28.0935 108.462 28.9822 108.462 30.0998V34.2071C108.462 34.6342 108.487 35.2814 108.539 36.1507L106.304 36.1563ZM104.893 34.2428C105.35 34.0324 105.76 33.733 106.099 33.3623V31.4451C105.575 31.3828 105.048 31.3477 104.521 31.3397C103.545 31.3397 102.87 31.4977 102.496 31.8138C102.311 31.9695 102.163 32.1656 102.065 32.387C101.968 32.6085 101.922 32.8494 101.932 33.0914C101.932 33.6031 102.067 33.9794 102.338 34.2203C102.645 34.4823 103.041 34.6169 103.444 34.5966C103.948 34.5896 104.443 34.4687 104.893 34.2428Z" fill="white"/>
<path d="M110.522 33.6784V21.4694L112.878 21.2813V33.2569C112.878 33.6972 112.953 34.0108 113.102 34.1977C113.193 34.2945 113.304 34.3693 113.428 34.4166C113.552 34.4639 113.685 34.4823 113.817 34.4705C114.027 34.46 114.236 34.4246 114.438 34.3651L114.716 36.0585C114.452 36.1577 114.177 36.2296 113.898 36.273C113.596 36.3255 113.29 36.3526 112.983 36.3539C111.343 36.3489 110.522 35.457 110.522 33.6784Z" fill="white"/>
<path d="M116.412 33.6784V21.4694L118.765 21.2813V33.2569C118.765 33.6972 118.841 34.0108 118.991 34.1977C119.081 34.2945 119.192 34.3695 119.316 34.4168C119.44 34.4641 119.572 34.4824 119.704 34.4705C119.915 34.4599 120.124 34.4245 120.327 34.3651L120.603 36.0585C120.339 36.158 120.065 36.2299 119.785 36.273C119.483 36.3255 119.177 36.3526 118.871 36.3539C117.23 36.3489 116.41 35.457 116.412 33.6784Z" fill="white"/>
<path d="M130.408 31.2927H123.648C123.757 33.4564 124.788 34.5382 126.741 34.5382C127.242 34.5357 127.741 34.4764 128.229 34.3614C128.729 34.2457 129.217 34.0871 129.689 33.8872L130.207 35.5053C128.989 36.0798 127.656 36.3675 126.31 36.3463C125.213 36.3463 124.287 36.1394 123.533 35.7255C122.794 35.3213 122.202 34.6945 121.84 33.9343C121.438 33.049 121.245 32.0835 121.275 31.112C121.248 30.0962 121.454 29.0876 121.877 28.1637C122.241 27.3856 122.825 26.7313 123.557 26.2823C124.309 25.8391 125.169 25.6137 126.041 25.6313C127.017 25.6313 127.832 25.8595 128.487 26.3161C129.139 26.7696 129.644 27.4031 129.941 28.1393C130.264 28.9426 130.423 29.8024 130.408 30.668V31.2927ZM128.099 29.7875C128.056 28.9634 127.847 28.3462 127.478 27.9342C127.291 27.7293 127.061 27.5679 126.805 27.4613C126.548 27.3547 126.271 27.3055 125.994 27.3171C125.713 27.3086 125.434 27.3598 125.175 27.4671C124.915 27.5745 124.681 27.7356 124.489 27.9398C124.09 28.3538 123.83 28.9696 123.708 29.7875H128.099Z" fill="white"/>
<path d="M132.312 28.4196C132.312 27.8514 132.287 26.9866 132.237 25.8251H134.448C134.487 26.1129 134.523 26.4554 134.559 26.8542C134.594 27.2531 134.617 27.5786 134.63 27.827C134.867 27.4238 135.138 27.0412 135.439 26.683C135.699 26.3772 136.014 26.1221 136.367 25.9304C136.739 25.7309 137.156 25.6305 137.578 25.6388C137.896 25.6324 138.212 25.6711 138.519 25.7536L138.222 27.8025C137.973 27.729 137.715 27.6935 137.456 27.6971C136.938 27.6858 136.43 27.8342 136 28.1224C135.482 28.5135 135.033 28.987 134.67 29.5241V36.1601H132.312V28.4196Z" fill="white"/>
<path d="M139.934 40.3821C139.646 40.3352 139.361 40.2666 139.083 40.1771L139.512 38.4536C139.672 38.4969 139.874 38.5402 140.116 38.5815C140.344 38.6222 140.574 38.6436 140.805 38.6455C141.851 38.6455 142.636 37.9719 143.161 36.6248L143.313 36.2485L139.503 25.8326H142.041L143.955 31.6539C144.204 32.403 144.406 33.1672 144.559 33.9418C144.737 33.1892 144.947 32.4423 145.191 31.7009L147.132 25.8251H149.514L145.716 36.2899C145.431 37.1328 145.041 37.9368 144.557 38.6832C144.186 39.2478 143.681 39.7114 143.087 40.0322C142.451 40.3414 141.749 40.4924 141.042 40.4724C140.671 40.4742 140.3 40.444 139.934 40.3821Z" fill="white"/>
<path d="M49.9761 8.79004H54.2415L54.1211 9.81922H51.2254V11.8136H53.9555V12.7788H51.2254V14.9896H54.2753L54.17 16.0281H49.9761V8.79004Z" fill="white"/>
<path d="M57.1804 12.3348L54.9395 8.79004H56.36L57.884 11.394L59.4889 8.79004H60.87L58.6385 12.2896L61.0543 16.0281H59.6056L57.8803 13.1796L56.1248 16.0281H54.7514L57.1804 12.3348Z" fill="white"/>
<path d="M61.965 8.79004H63.9142C64.8311 8.79004 65.5329 8.97819 66.0196 9.35449C66.5063 9.73079 66.749 10.2708 66.7477 10.9745C66.7563 11.4154 66.6417 11.8501 66.4166 12.2294C66.1979 12.5861 65.8811 12.8722 65.5041 13.0535C65.0837 13.2514 64.6233 13.3492 64.1588 13.3395C63.8429 13.3343 63.5281 13.3009 63.2181 13.2398V16.0281H61.9687L61.965 8.79004ZM65.0995 12.0224C65.2361 11.8913 65.3426 11.7319 65.4114 11.5555C65.4803 11.3791 65.51 11.1898 65.4984 11.0008C65.4984 10.553 65.3629 10.2313 65.092 10.0356C64.8211 9.83803 64.4203 9.7402 63.8935 9.7402H63.2181V12.3103C63.4562 12.3524 63.697 12.3775 63.9387 12.3856C64.3572 12.4125 64.7709 12.2831 65.0995 12.0224Z" fill="white"/>
<path d="M67.9839 8.79004H69.2388V14.9594H72.2342L72.1288 16.0281H67.9895L67.9839 8.79004Z" fill="white"/>
<path d="M74.1307 15.6744C73.6078 15.3791 73.1852 14.9342 72.9171 14.3969C72.6258 13.8025 72.4813 13.147 72.4957 12.4853C72.4802 11.7915 72.6339 11.1044 72.9435 10.4834C73.2331 9.92571 73.6825 9.46713 74.2342 9.16634C74.8456 8.84331 75.5297 8.68264 76.221 8.69973C76.877 8.682 77.526 8.83777 78.1025 9.15129C78.6226 9.44611 79.0426 9.8897 79.3086 10.4251C79.5952 11.0161 79.7371 11.6668 79.7225 12.3235C79.7398 13.0251 79.5847 13.7202 79.2709 14.348C78.9818 14.9053 78.5331 15.3638 77.9821 15.665C77.3763 15.9866 76.6979 16.1467 76.0122 16.1297C75.3559 16.1457 74.707 15.9887 74.1307 15.6744ZM77.3706 14.7864C77.7226 14.5484 77.9957 14.2111 78.1552 13.8174C78.3353 13.3685 78.4236 12.888 78.4148 12.4044C78.4231 11.9308 78.3454 11.4597 78.1853 11.014C78.0435 10.6241 77.7879 10.2859 77.4515 10.0431C77.0676 9.78737 76.6123 9.66022 76.1514 9.67999C75.6936 9.66561 75.2425 9.79382 74.8607 10.0469C74.5075 10.2931 74.232 10.6352 74.0667 11.0328C73.886 11.4639 73.7958 11.9275 73.8014 12.395C73.7932 12.8746 73.8782 13.3513 74.0517 13.7986C74.2032 14.194 74.4691 14.5353 74.8156 14.7788C75.1927 15.0293 75.6387 15.1556 76.0912 15.1401C76.5423 15.1532 76.9869 15.0299 77.3669 14.7864H77.3706Z" fill="white"/>
<path d="M81.1167 8.79004H83.3745C84.1998 8.79004 84.827 8.95499 85.2559 9.28488C85.4674 9.45279 85.6355 9.66882 85.7465 9.91494C85.8574 10.1611 85.9079 10.4302 85.8938 10.6998C85.901 11.0508 85.8222 11.3984 85.6642 11.712C85.5258 11.9852 85.3339 12.2277 85.0998 12.4251C84.8895 12.5978 84.6533 12.7362 84.3999 12.8352L86.6238 16.0338H85.175L83.2936 13.1645H82.3735V16.0281H81.1242L81.1167 8.79004ZM83.0753 12.2144C83.354 12.2204 83.6301 12.1597 83.8806 12.0375C84.1066 11.9263 84.2959 11.7526 84.4262 11.537C84.5577 11.3085 84.6229 11.0479 84.6144 10.7844C84.6268 10.6334 84.6019 10.4817 84.5418 10.3425C84.4818 10.2034 84.3885 10.0812 84.27 9.98667C83.9697 9.79975 83.6183 9.71158 83.2653 9.73455H82.3603V12.2144H83.0753Z" fill="white"/>
<path d="M87.6116 8.79004H91.875L91.7546 9.81922H88.8609V11.8136H91.589V12.7788H88.8609V14.9896H91.9108L91.8054 16.0281H87.6116V8.79004Z" fill="white"/>
<path d="M96.5204 8.79004H97.7716V16.0281H96.5204V8.79004Z" fill="white"/>
<path d="M101.068 9.83427H98.8234L98.9344 8.79004H104.568L104.453 9.83427H102.317V16.0281H101.068V9.83427Z" fill="white"/>
<path d="M109.99 15.6744C109.468 15.378 109.046 14.9334 108.776 14.3969C108.486 13.8024 108.342 13.1469 108.357 12.4853C108.34 11.7914 108.494 11.1041 108.805 10.4834C109.093 9.92543 109.542 9.46668 110.093 9.16634C110.705 8.8437 111.389 8.68307 112.08 8.69973C112.736 8.68253 113.385 8.83827 113.962 9.15129C114.481 9.44622 114.901 9.88983 115.166 10.4251C115.453 11.0159 115.596 11.6666 115.582 12.3235C115.599 13.0253 115.444 13.7207 115.128 14.348C114.84 14.9057 114.391 15.3644 113.84 15.665C113.235 15.9872 112.557 16.1479 111.872 16.1316C111.215 16.147 110.566 15.9893 109.99 15.6744ZM113.23 14.7864C113.583 14.5488 113.858 14.2115 114.018 13.8174C114.198 13.3685 114.287 12.888 114.278 12.4044C114.286 11.9307 114.207 11.4596 114.047 11.014C113.906 10.6234 113.65 10.2848 113.313 10.0431C112.929 9.78689 112.474 9.65969 112.013 9.67999C111.555 9.66586 111.104 9.79404 110.722 10.0469C110.369 10.2931 110.093 10.6352 109.928 11.0328C109.747 11.4639 109.657 11.9275 109.663 12.395C109.654 12.8746 109.739 13.3513 109.913 13.7986C110.065 14.1941 110.332 14.5354 110.679 14.7788C111.054 15.0289 111.498 15.1552 111.949 15.1401C112.402 15.1546 112.848 15.0312 113.23 14.7864Z" fill="white"/>
<path d="M116.98 8.79004H118.415L121.99 14.3988C121.96 13.8657 121.945 13.374 121.945 12.9237V8.7844H123.106V16.0281H121.715L118.086 10.3291C118.121 10.9763 118.139 11.5496 118.141 12.0488V16.0281H116.98V8.79004Z" fill="white"/>
<path fill-rule="evenodd" clip-rule="evenodd" d="M32.4275 8.73172H19.0689C12.7772 8.73172 10.478 11.0328 10.478 17.3226V30.6812C10.478 36.971 12.7772 39.2721 19.0689 39.2721H32.4275C38.7173 39.2721 41.0221 36.971 41.0221 30.6812V17.3226C41.0165 11.0328 38.7173 8.73172 32.4275 8.73172Z" fill="#C8102E"/>
<path d="M16.5289 24.0019H17.3398V27.9944H16.5289V26.3726H14.7001V27.9944H13.891V24.0019H14.7001V25.6124H16.5289V24.0019ZM21.0934 26.2879C21.0934 26.937 20.7698 27.2832 20.1846 27.2832C19.5995 27.2832 19.2721 26.9276 19.2721 26.2597V24.0019H18.4631V26.286C18.4631 27.4149 19.0858 28.0527 20.1752 28.0527C21.2646 28.0527 21.9024 27.3961 21.9024 26.2521V23.9944H21.0934V26.2879ZM30.4538 26.747L29.5488 24.0019H28.8865L27.9796 26.747L27.0935 24.0038H26.2298L27.6221 27.9944H28.292L29.2007 25.3735L30.1076 27.9944H30.7849L32.1735 24.0038H31.3343L30.4538 26.747ZM33.6297 26.2766H35.103V25.5504H33.6297V24.7319H35.769V24.0057H32.8301V27.9925H35.8405V27.2644H33.6297V26.2766ZM36.8113 27.9888H37.611V24.0019H36.8113V27.9888ZM23.5036 27.1609L23.1423 27.9925H22.3145L24.0737 24.0019H24.7886L26.5403 27.9925H25.6917L25.3324 27.1609H23.5036ZM23.8046 26.4422H25.0238L24.4086 25.0122L23.8046 26.4422Z" fill="white"/>
<path d="M25.7501 18.92C24.4028 18.92 23.1106 18.3848 22.1579 17.4321C21.2053 16.4794 20.67 15.1873 20.67 13.84H21.3888C21.3767 14.4207 21.4807 14.998 21.6946 15.538C21.9085 16.0781 22.228 16.57 22.6345 16.9849C23.0409 17.3999 23.5261 17.7296 24.0615 17.9546C24.597 18.1797 25.172 18.2956 25.7529 18.2956C26.3337 18.2956 26.9088 18.1797 27.4442 17.9546C27.9797 17.7296 28.4649 17.3999 28.8713 16.9849C29.2778 16.57 29.5973 16.0781 29.8112 15.538C30.0251 14.998 30.1291 14.4207 30.117 13.84H30.8357C30.8357 14.5076 30.7041 15.1686 30.4485 15.7853C30.1929 16.402 29.8182 16.9623 29.3458 17.4341C28.8735 17.9059 28.3128 18.2799 27.6958 18.5349C27.0788 18.7899 26.4177 18.9207 25.7501 18.92Z" fill="white"/>
</svg>
