<svg width="100" height="100" viewBox="0 0 100 100" fill="none" xmlns="http://www.w3.org/2000/svg">
<g clip-path="url(#clip0_305_82339)">
<g clip-path="url(#clip1_305_82339)">
<path d="M100 0H0V100H100V0Z" fill="white"/>
<g clip-path="url(#clip2_305_82339)">
<path d="M43.6 13.2C44.4837 13.2 45.2 12.4837 45.2 11.6C45.2 10.7163 44.4837 10 43.6 10C42.7163 10 42 10.7163 42 11.6C42 12.4837 42.7163 13.2 43.6 13.2Z" fill="#6C7284"/>
</g>
<g clip-path="url(#clip3_305_82339)">
<path d="M50 13.2C50.8837 13.2 51.6 12.4837 51.6 11.6C51.6 10.7163 50.8837 10 50 10C49.1164 10 48.4 10.7163 48.4 11.6C48.4 12.4837 49.1164 13.2 50 13.2Z" fill="#6C7284"/>
</g>
<g clip-path="url(#clip4_305_82339)">
<path d="M56.4 13.2C57.2837 13.2 58 12.4837 58 11.6C58 10.7163 57.2837 10 56.4 10C55.5164 10 54.8 10.7163 54.8 11.6C54.8 12.4837 55.5164 13.2 56.4 13.2Z" fill="#6C7284"/>
</g>
<g clip-path="url(#clip5_305_82339)">
<path d="M59.6 13.2C60.4837 13.2 61.2 12.4837 61.2 11.6C61.2 10.7163 60.4837 10 59.6 10C58.7163 10 58 10.7163 58 11.6C58 12.4837 58.7163 13.2 59.6 13.2Z" fill="#6C7284"/>
</g>
<g clip-path="url(#clip6_305_82339)">
<path d="M62.8 13.2C63.6836 13.2 64.4 12.4837 64.4 11.6C64.4 10.7163 63.6836 10 62.8 10C61.9163 10 61.2 10.7163 61.2 11.6C61.2 12.4837 61.9163 13.2 62.8 13.2Z" fill="#6C7284"/>
</g>
<g clip-path="url(#clip7_305_82339)">
<path d="M37.2 16.4C38.0836 16.4 38.8 15.6837 38.8 14.8C38.8 13.9164 38.0836 13.2 37.2 13.2C36.3163 13.2 35.6 13.9164 35.6 14.8C35.6 15.6837 36.3163 16.4 37.2 16.4Z" fill="#6C7284"/>
</g>
<g clip-path="url(#clip8_305_82339)">
<path d="M43.6 16.4C44.4837 16.4 45.2 15.6837 45.2 14.8C45.2 13.9164 44.4837 13.2 43.6 13.2C42.7163 13.2 42 13.9164 42 14.8C42 15.6837 42.7163 16.4 43.6 16.4Z" fill="#6C7284"/>
</g>
<g clip-path="url(#clip9_305_82339)">
<path d="M53.2 16.4C54.0836 16.4 54.8 15.6837 54.8 14.8C54.8 13.9164 54.0836 13.2 53.2 13.2C52.3163 13.2 51.6 13.9164 51.6 14.8C51.6 15.6837 52.3163 16.4 53.2 16.4Z" fill="#6C7284"/>
</g>
<g clip-path="url(#clip10_305_82339)">
<path d="M59.6 16.4C60.4837 16.4 61.2 15.6837 61.2 14.8C61.2 13.9164 60.4837 13.2 59.6 13.2C58.7163 13.2 58 13.9164 58 14.8C58 15.6837 58.7163 16.4 59.6 16.4Z" fill="#6C7284"/>
</g>
<g clip-path="url(#clip11_305_82339)">
<path d="M50 19.6C50.8837 19.6 51.6 18.8837 51.6 18C51.6 17.1164 50.8837 16.4 50 16.4C49.1164 16.4 48.4 17.1164 48.4 18C48.4 18.8837 49.1164 19.6 50 19.6Z" fill="#6C7284"/>
</g>
<g clip-path="url(#clip12_305_82339)">
<path d="M53.2 19.6C54.0836 19.6 54.8 18.8837 54.8 18C54.8 17.1164 54.0836 16.4 53.2 16.4C52.3163 16.4 51.6 17.1164 51.6 18C51.6 18.8837 52.3163 19.6 53.2 19.6Z" fill="#6C7284"/>
</g>
<g clip-path="url(#clip13_305_82339)">
<path d="M62.8 19.6C63.6836 19.6 64.4 18.8837 64.4 18C64.4 17.1164 63.6836 16.4 62.8 16.4C61.9163 16.4 61.2 17.1164 61.2 18C61.2 18.8837 61.9163 19.6 62.8 19.6Z" fill="#6C7284"/>
</g>
<g clip-path="url(#clip14_305_82339)">
<path d="M37.2 22.8C38.0836 22.8 38.8 22.0836 38.8 21.2C38.8 20.3163 38.0836 19.6 37.2 19.6C36.3163 19.6 35.6 20.3163 35.6 21.2C35.6 22.0836 36.3163 22.8 37.2 22.8Z" fill="#6C7284"/>
</g>
<g clip-path="url(#clip15_305_82339)">
<path d="M40.4 22.8C41.2837 22.8 42 22.0836 42 21.2C42 20.3163 41.2837 19.6 40.4 19.6C39.5164 19.6 38.8 20.3163 38.8 21.2C38.8 22.0836 39.5164 22.8 40.4 22.8Z" fill="#6C7284"/>
</g>
<g clip-path="url(#clip16_305_82339)">
<path d="M43.6 22.8C44.4837 22.8 45.2 22.0836 45.2 21.2C45.2 20.3163 44.4837 19.6 43.6 19.6C42.7163 19.6 42 20.3163 42 21.2C42 22.0836 42.7163 22.8 43.6 22.8Z" fill="#6C7284"/>
</g>
<g clip-path="url(#clip17_305_82339)">
<path d="M50 22.8C50.8837 22.8 51.6 22.0836 51.6 21.2C51.6 20.3163 50.8837 19.6 50 19.6C49.1164 19.6 48.4 20.3163 48.4 21.2C48.4 22.0836 49.1164 22.8 50 22.8Z" fill="#6C7284"/>
</g>
<g clip-path="url(#clip18_305_82339)">
<path d="M53.2 22.8C54.0836 22.8 54.8 22.0836 54.8 21.2C54.8 20.3163 54.0836 19.6 53.2 19.6C52.3163 19.6 51.6 20.3163 51.6 21.2C51.6 22.0836 52.3163 22.8 53.2 22.8Z" fill="#6C7284"/>
</g>
<g clip-path="url(#clip19_305_82339)">
<path d="M56.4 22.8C57.2837 22.8 58 22.0836 58 21.2C58 20.3163 57.2837 19.6 56.4 19.6C55.5164 19.6 54.8 20.3163 54.8 21.2C54.8 22.0836 55.5164 22.8 56.4 22.8Z" fill="#6C7284"/>
</g>
<g clip-path="url(#clip20_305_82339)">
<path d="M59.6 22.8C60.4837 22.8 61.2 22.0836 61.2 21.2C61.2 20.3163 60.4837 19.6 59.6 19.6C58.7163 19.6 58 20.3163 58 21.2C58 22.0836 58.7163 22.8 59.6 22.8Z" fill="#6C7284"/>
</g>
<g clip-path="url(#clip21_305_82339)">
<path d="M62.8 22.8C63.6836 22.8 64.4 22.0836 64.4 21.2C64.4 20.3163 63.6836 19.6 62.8 19.6C61.9163 19.6 61.2 20.3163 61.2 21.2C61.2 22.0836 61.9163 22.8 62.8 22.8Z" fill="#6C7284"/>
</g>
<g clip-path="url(#clip22_305_82339)">
<path d="M40.4 26C41.2837 26 42 25.2836 42 24.4C42 23.5163 41.2837 22.8 40.4 22.8C39.5164 22.8 38.8 23.5163 38.8 24.4C38.8 25.2836 39.5164 26 40.4 26Z" fill="#6C7284"/>
</g>
<g clip-path="url(#clip23_305_82339)">
<path d="M56.4 26C57.2837 26 58 25.2836 58 24.4C58 23.5163 57.2837 22.8 56.4 22.8C55.5164 22.8 54.8 23.5163 54.8 24.4C54.8 25.2836 55.5164 26 56.4 26Z" fill="#6C7284"/>
</g>
<g clip-path="url(#clip24_305_82339)">
<path d="M59.6 26C60.4837 26 61.2 25.2836 61.2 24.4C61.2 23.5163 60.4837 22.8 59.6 22.8C58.7163 22.8 58 23.5163 58 24.4C58 25.2836 58.7163 26 59.6 26Z" fill="#6C7284"/>
</g>
<g clip-path="url(#clip25_305_82339)">
<path d="M62.8 26C63.6836 26 64.4 25.2836 64.4 24.4C64.4 23.5163 63.6836 22.8 62.8 22.8C61.9163 22.8 61.2 23.5163 61.2 24.4C61.2 25.2836 61.9163 26 62.8 26Z" fill="#6C7284"/>
</g>
<g clip-path="url(#clip26_305_82339)">
<path d="M37.2 29.2C38.0836 29.2 38.8 28.4837 38.8 27.6C38.8 26.7163 38.0836 26 37.2 26C36.3163 26 35.6 26.7163 35.6 27.6C35.6 28.4837 36.3163 29.2 37.2 29.2Z" fill="#6C7284"/>
</g>
<g clip-path="url(#clip27_305_82339)">
<path d="M40.4 29.2C41.2837 29.2 42 28.4837 42 27.6C42 26.7163 41.2837 26 40.4 26C39.5164 26 38.8 26.7163 38.8 27.6C38.8 28.4837 39.5164 29.2 40.4 29.2Z" fill="#6C7284"/>
</g>
<g clip-path="url(#clip28_305_82339)">
<path d="M46.8 29.2C47.6836 29.2 48.4 28.4837 48.4 27.6C48.4 26.7163 47.6836 26 46.8 26C45.9163 26 45.2 26.7163 45.2 27.6C45.2 28.4837 45.9163 29.2 46.8 29.2Z" fill="#6C7284"/>
</g>
<g clip-path="url(#clip29_305_82339)">
<path d="M50 29.2C50.8837 29.2 51.6 28.4837 51.6 27.6C51.6 26.7163 50.8837 26 50 26C49.1164 26 48.4 26.7163 48.4 27.6C48.4 28.4837 49.1164 29.2 50 29.2Z" fill="#6C7284"/>
</g>
<g clip-path="url(#clip30_305_82339)">
<path d="M53.2 29.2C54.0836 29.2 54.8 28.4837 54.8 27.6C54.8 26.7163 54.0836 26 53.2 26C52.3163 26 51.6 26.7163 51.6 27.6C51.6 28.4837 52.3163 29.2 53.2 29.2Z" fill="#6C7284"/>
</g>
<g clip-path="url(#clip31_305_82339)">
<path d="M56.4 29.2C57.2837 29.2 58 28.4837 58 27.6C58 26.7163 57.2837 26 56.4 26C55.5164 26 54.8 26.7163 54.8 27.6C54.8 28.4837 55.5164 29.2 56.4 29.2Z" fill="#6C7284"/>
</g>
<g clip-path="url(#clip32_305_82339)">
<path d="M37.2 32.4C38.0836 32.4 38.8 31.6837 38.8 30.8C38.8 29.9164 38.0836 29.2 37.2 29.2C36.3163 29.2 35.6 29.9164 35.6 30.8C35.6 31.6837 36.3163 32.4 37.2 32.4Z" fill="#6C7284"/>
</g>
<g clip-path="url(#clip33_305_82339)">
<path d="M43.6 32.4C44.4837 32.4 45.2 31.6837 45.2 30.8C45.2 29.9164 44.4837 29.2 43.6 29.2C42.7163 29.2 42 29.9164 42 30.8C42 31.6837 42.7163 32.4 43.6 32.4Z" fill="#6C7284"/>
</g>
<g clip-path="url(#clip34_305_82339)">
<path d="M50 32.4C50.8837 32.4 51.6 31.6837 51.6 30.8C51.6 29.9164 50.8837 29.2 50 29.2C49.1164 29.2 48.4 29.9164 48.4 30.8C48.4 31.6837 49.1164 32.4 50 32.4Z" fill="#6C7284"/>
</g>
<g clip-path="url(#clip35_305_82339)">
<path d="M56.4 32.4C57.2837 32.4 58 31.6837 58 30.8C58 29.9164 57.2837 29.2 56.4 29.2C55.5164 29.2 54.8 29.9164 54.8 30.8C54.8 31.6837 55.5164 32.4 56.4 32.4Z" fill="#6C7284"/>
</g>
<g clip-path="url(#clip36_305_82339)">
<path d="M62.8 32.4C63.6836 32.4 64.4 31.6837 64.4 30.8C64.4 29.9164 63.6836 29.2 62.8 29.2C61.9163 29.2 61.2 29.9164 61.2 30.8C61.2 31.6837 61.9163 32.4 62.8 32.4Z" fill="#6C7284"/>
</g>
<g clip-path="url(#clip37_305_82339)">
<path d="M40.4 35.6C41.2837 35.6 42 34.8837 42 34C42 33.1164 41.2837 32.4 40.4 32.4C39.5164 32.4 38.8 33.1164 38.8 34C38.8 34.8837 39.5164 35.6 40.4 35.6Z" fill="#6C7284"/>
</g>
<g clip-path="url(#clip38_305_82339)">
<path d="M43.6 35.6C44.4837 35.6 45.2 34.8837 45.2 34C45.2 33.1164 44.4837 32.4 43.6 32.4C42.7163 32.4 42 33.1164 42 34C42 34.8837 42.7163 35.6 43.6 35.6Z" fill="#6C7284"/>
</g>
<g clip-path="url(#clip39_305_82339)">
<path d="M46.8 35.6C47.6836 35.6 48.4 34.8837 48.4 34C48.4 33.1164 47.6836 32.4 46.8 32.4C45.9163 32.4 45.2 33.1164 45.2 34C45.2 34.8837 45.9163 35.6 46.8 35.6Z" fill="#6C7284"/>
</g>
<g clip-path="url(#clip40_305_82339)">
<path d="M62.8 35.6C63.6836 35.6 64.4 34.8837 64.4 34C64.4 33.1164 63.6836 32.4 62.8 32.4C61.9163 32.4 61.2 33.1164 61.2 34C61.2 34.8837 61.9163 35.6 62.8 35.6Z" fill="#6C7284"/>
</g>
<g clip-path="url(#clip41_305_82339)">
<path d="M11.6 38.8C12.4837 38.8 13.2 38.0836 13.2 37.2C13.2 36.3163 12.4837 35.6 11.6 35.6C10.7163 35.6 10 36.3163 10 37.2C10 38.0836 10.7163 38.8 11.6 38.8Z" fill="#6C7284"/>
</g>
<g clip-path="url(#clip42_305_82339)">
<path d="M14.8 38.8C15.6836 38.8 16.4 38.0836 16.4 37.2C16.4 36.3163 15.6836 35.6 14.8 35.6C13.9163 35.6 13.2 36.3163 13.2 37.2C13.2 38.0836 13.9163 38.8 14.8 38.8Z" fill="#6C7284"/>
</g>
<g clip-path="url(#clip43_305_82339)">
<path d="M18 38.8C18.8837 38.8 19.6 38.0836 19.6 37.2C19.6 36.3163 18.8837 35.6 18 35.6C17.1164 35.6 16.4 36.3163 16.4 37.2C16.4 38.0836 17.1164 38.8 18 38.8Z" fill="#6C7284"/>
</g>
<g clip-path="url(#clip44_305_82339)">
<path d="M21.2 38.8C22.0836 38.8 22.8 38.0836 22.8 37.2C22.8 36.3163 22.0836 35.6 21.2 35.6C20.3163 35.6 19.6 36.3163 19.6 37.2C19.6 38.0836 20.3163 38.8 21.2 38.8Z" fill="#6C7284"/>
</g>
<g clip-path="url(#clip45_305_82339)">
<path d="M24.4 38.8C25.2837 38.8 26 38.0836 26 37.2C26 36.3163 25.2837 35.6 24.4 35.6C23.5164 35.6 22.8 36.3163 22.8 37.2C22.8 38.0836 23.5164 38.8 24.4 38.8Z" fill="#6C7284"/>
</g>
<g clip-path="url(#clip46_305_82339)">
<path d="M30.8 38.8C31.6836 38.8 32.4 38.0836 32.4 37.2C32.4 36.3163 31.6836 35.6 30.8 35.6C29.9163 35.6 29.2 36.3163 29.2 37.2C29.2 38.0836 29.9163 38.8 30.8 38.8Z" fill="#6C7284"/>
</g>
<g clip-path="url(#clip47_305_82339)">
<path d="M34 38.8C34.8837 38.8 35.6 38.0836 35.6 37.2C35.6 36.3163 34.8837 35.6 34 35.6C33.1164 35.6 32.4 36.3163 32.4 37.2C32.4 38.0836 33.1164 38.8 34 38.8Z" fill="#6C7284"/>
</g>
<g clip-path="url(#clip48_305_82339)">
<path d="M37.2 38.8C38.0836 38.8 38.8 38.0836 38.8 37.2C38.8 36.3163 38.0836 35.6 37.2 35.6C36.3163 35.6 35.6 36.3163 35.6 37.2C35.6 38.0836 36.3163 38.8 37.2 38.8Z" fill="#6C7284"/>
</g>
<g clip-path="url(#clip49_305_82339)">
<path d="M40.4 38.8C41.2837 38.8 42 38.0836 42 37.2C42 36.3163 41.2837 35.6 40.4 35.6C39.5164 35.6 38.8 36.3163 38.8 37.2C38.8 38.0836 39.5164 38.8 40.4 38.8Z" fill="#6C7284"/>
</g>
<g clip-path="url(#clip50_305_82339)">
<path d="M46.8 38.8C47.6836 38.8 48.4 38.0836 48.4 37.2C48.4 36.3163 47.6836 35.6 46.8 35.6C45.9163 35.6 45.2 36.3163 45.2 37.2C45.2 38.0836 45.9163 38.8 46.8 38.8Z" fill="#6C7284"/>
</g>
<g clip-path="url(#clip51_305_82339)">
<path d="M53.2 38.8C54.0836 38.8 54.8 38.0836 54.8 37.2C54.8 36.3163 54.0836 35.6 53.2 35.6C52.3163 35.6 51.6 36.3163 51.6 37.2C51.6 38.0836 52.3163 38.8 53.2 38.8Z" fill="#6C7284"/>
</g>
<g clip-path="url(#clip52_305_82339)">
<path d="M59.6 38.8C60.4837 38.8 61.2 38.0836 61.2 37.2C61.2 36.3163 60.4837 35.6 59.6 35.6C58.7163 35.6 58 36.3163 58 37.2C58 38.0836 58.7163 38.8 59.6 38.8Z" fill="#6C7284"/>
</g>
<g clip-path="url(#clip53_305_82339)">
<path d="M66 38.8C66.8837 38.8 67.6 38.0836 67.6 37.2C67.6 36.3163 66.8837 35.6 66 35.6C65.1164 35.6 64.4 36.3163 64.4 37.2C64.4 38.0836 65.1164 38.8 66 38.8Z" fill="#6C7284"/>
</g>
<g clip-path="url(#clip54_305_82339)">
<path d="M72.4 38.8C73.2837 38.8 74 38.0836 74 37.2C74 36.3163 73.2837 35.6 72.4 35.6C71.5164 35.6 70.8 36.3163 70.8 37.2C70.8 38.0836 71.5164 38.8 72.4 38.8Z" fill="#6C7284"/>
</g>
<g clip-path="url(#clip55_305_82339)">
<path d="M78.8 38.8C79.6836 38.8 80.4 38.0836 80.4 37.2C80.4 36.3163 79.6836 35.6 78.8 35.6C77.9163 35.6 77.2 36.3163 77.2 37.2C77.2 38.0836 77.9163 38.8 78.8 38.8Z" fill="#6C7284"/>
</g>
<g clip-path="url(#clip56_305_82339)">
<path d="M85.2 38.8C86.0836 38.8 86.8 38.0836 86.8 37.2C86.8 36.3163 86.0836 35.6 85.2 35.6C84.3163 35.6 83.6 36.3163 83.6 37.2C83.6 38.0836 84.3163 38.8 85.2 38.8Z" fill="#6C7284"/>
</g>
<g clip-path="url(#clip57_305_82339)">
<path d="M11.6 42C12.4837 42 13.2 41.2836 13.2 40.4C13.2 39.5163 12.4837 38.8 11.6 38.8C10.7163 38.8 10 39.5163 10 40.4C10 41.2836 10.7163 42 11.6 42Z" fill="#6C7284"/>
</g>
<g clip-path="url(#clip58_305_82339)">
<path d="M14.8 42C15.6836 42 16.4 41.2836 16.4 40.4C16.4 39.5163 15.6836 38.8 14.8 38.8C13.9163 38.8 13.2 39.5163 13.2 40.4C13.2 41.2836 13.9163 42 14.8 42Z" fill="#6C7284"/>
</g>
<g clip-path="url(#clip59_305_82339)">
<path d="M21.2 42C22.0836 42 22.8 41.2836 22.8 40.4C22.8 39.5163 22.0836 38.8 21.2 38.8C20.3163 38.8 19.6 39.5163 19.6 40.4C19.6 41.2836 20.3163 42 21.2 42Z" fill="#6C7284"/>
</g>
<g clip-path="url(#clip60_305_82339)">
<path d="M27.6 42C28.4837 42 29.2 41.2836 29.2 40.4C29.2 39.5163 28.4837 38.8 27.6 38.8C26.7163 38.8 26 39.5163 26 40.4C26 41.2836 26.7163 42 27.6 42Z" fill="#6C7284"/>
</g>
<g clip-path="url(#clip61_305_82339)">
<path d="M34 42C34.8837 42 35.6 41.2836 35.6 40.4C35.6 39.5163 34.8837 38.8 34 38.8C33.1164 38.8 32.4 39.5163 32.4 40.4C32.4 41.2836 33.1164 42 34 42Z" fill="#6C7284"/>
</g>
<g clip-path="url(#clip62_305_82339)">
<path d="M37.2 42C38.0836 42 38.8 41.2836 38.8 40.4C38.8 39.5163 38.0836 38.8 37.2 38.8C36.3163 38.8 35.6 39.5163 35.6 40.4C35.6 41.2836 36.3163 42 37.2 42Z" fill="#6C7284"/>
</g>
<g clip-path="url(#clip63_305_82339)">
<path d="M43.6 42C44.4837 42 45.2 41.2836 45.2 40.4C45.2 39.5163 44.4837 38.8 43.6 38.8C42.7163 38.8 42 39.5163 42 40.4C42 41.2836 42.7163 42 43.6 42Z" fill="#6C7284"/>
</g>
<g clip-path="url(#clip64_305_82339)">
<path d="M50 42C50.8837 42 51.6 41.2836 51.6 40.4C51.6 39.5163 50.8837 38.8 50 38.8C49.1164 38.8 48.4 39.5163 48.4 40.4C48.4 41.2836 49.1164 42 50 42Z" fill="#6C7284"/>
</g>
<g clip-path="url(#clip65_305_82339)">
<path d="M62.8 42C63.6836 42 64.4 41.2836 64.4 40.4C64.4 39.5163 63.6836 38.8 62.8 38.8C61.9163 38.8 61.2 39.5163 61.2 40.4C61.2 41.2836 61.9163 42 62.8 42Z" fill="#6C7284"/>
</g>
<g clip-path="url(#clip66_305_82339)">
<path d="M66 42C66.8837 42 67.6 41.2836 67.6 40.4C67.6 39.5163 66.8837 38.8 66 38.8C65.1164 38.8 64.4 39.5163 64.4 40.4C64.4 41.2836 65.1164 42 66 42Z" fill="#6C7284"/>
</g>
<g clip-path="url(#clip67_305_82339)">
<path d="M72.4 42C73.2837 42 74 41.2836 74 40.4C74 39.5163 73.2837 38.8 72.4 38.8C71.5164 38.8 70.8 39.5163 70.8 40.4C70.8 41.2836 71.5164 42 72.4 42Z" fill="#6C7284"/>
</g>
<g clip-path="url(#clip68_305_82339)">
<path d="M75.6 42C76.4837 42 77.2 41.2836 77.2 40.4C77.2 39.5163 76.4837 38.8 75.6 38.8C74.7163 38.8 74 39.5163 74 40.4C74 41.2836 74.7163 42 75.6 42Z" fill="#6C7284"/>
</g>
<g clip-path="url(#clip69_305_82339)">
<path d="M88.4 42C89.2837 42 90 41.2836 90 40.4C90 39.5163 89.2837 38.8 88.4 38.8C87.5164 38.8 86.8 39.5163 86.8 40.4C86.8 41.2836 87.5164 42 88.4 42Z" fill="#6C7284"/>
</g>
<g clip-path="url(#clip70_305_82339)">
<path d="M11.6 45.2C12.4837 45.2 13.2 44.4837 13.2 43.6C13.2 42.7163 12.4837 42 11.6 42C10.7163 42 10 42.7163 10 43.6C10 44.4837 10.7163 45.2 11.6 45.2Z" fill="#6C7284"/>
</g>
<g clip-path="url(#clip71_305_82339)">
<path d="M14.8 45.2C15.6836 45.2 16.4 44.4837 16.4 43.6C16.4 42.7163 15.6836 42 14.8 42C13.9163 42 13.2 42.7163 13.2 43.6C13.2 44.4837 13.9163 45.2 14.8 45.2Z" fill="#6C7284"/>
</g>
<g clip-path="url(#clip72_305_82339)">
<path d="M18 45.2C18.8837 45.2 19.6 44.4837 19.6 43.6C19.6 42.7163 18.8837 42 18 42C17.1164 42 16.4 42.7163 16.4 43.6C16.4 44.4837 17.1164 45.2 18 45.2Z" fill="#6C7284"/>
</g>
<g clip-path="url(#clip73_305_82339)">
<path d="M30.8 45.2C31.6836 45.2 32.4 44.4837 32.4 43.6C32.4 42.7163 31.6836 42 30.8 42C29.9163 42 29.2 42.7163 29.2 43.6C29.2 44.4837 29.9163 45.2 30.8 45.2Z" fill="#6C7284"/>
</g>
<g clip-path="url(#clip74_305_82339)">
<path d="M37.2 45.2C38.0836 45.2 38.8 44.4837 38.8 43.6C38.8 42.7163 38.0836 42 37.2 42C36.3163 42 35.6 42.7163 35.6 43.6C35.6 44.4837 36.3163 45.2 37.2 45.2Z" fill="#6C7284"/>
</g>
<g clip-path="url(#clip75_305_82339)">
<path d="M43.6 45.2C44.4837 45.2 45.2 44.4837 45.2 43.6C45.2 42.7163 44.4837 42 43.6 42C42.7163 42 42 42.7163 42 43.6C42 44.4837 42.7163 45.2 43.6 45.2Z" fill="#6C7284"/>
</g>
<g clip-path="url(#clip76_305_82339)">
<path d="M53.2 45.2C54.0836 45.2 54.8 44.4837 54.8 43.6C54.8 42.7163 54.0836 42 53.2 42C52.3163 42 51.6 42.7163 51.6 43.6C51.6 44.4837 52.3163 45.2 53.2 45.2Z" fill="#6C7284"/>
</g>
<g clip-path="url(#clip77_305_82339)">
<path d="M56.4 45.2C57.2837 45.2 58 44.4837 58 43.6C58 42.7163 57.2837 42 56.4 42C55.5164 42 54.8 42.7163 54.8 43.6C54.8 44.4837 55.5164 45.2 56.4 45.2Z" fill="#6C7284"/>
</g>
<g clip-path="url(#clip78_305_82339)">
<path d="M66 45.2C66.8837 45.2 67.6 44.4837 67.6 43.6C67.6 42.7163 66.8837 42 66 42C65.1164 42 64.4 42.7163 64.4 43.6C64.4 44.4837 65.1164 45.2 66 45.2Z" fill="#6C7284"/>
</g>
<g clip-path="url(#clip79_305_82339)">
<path d="M69.2 45.2C70.0836 45.2 70.8 44.4837 70.8 43.6C70.8 42.7163 70.0836 42 69.2 42C68.3163 42 67.6 42.7163 67.6 43.6C67.6 44.4837 68.3163 45.2 69.2 45.2Z" fill="#6C7284"/>
</g>
<g clip-path="url(#clip80_305_82339)">
<path d="M75.6 45.2C76.4837 45.2 77.2 44.4837 77.2 43.6C77.2 42.7163 76.4837 42 75.6 42C74.7163 42 74 42.7163 74 43.6C74 44.4837 74.7163 45.2 75.6 45.2Z" fill="#6C7284"/>
</g>
<g clip-path="url(#clip81_305_82339)">
<path d="M82 45.2C82.8837 45.2 83.6 44.4837 83.6 43.6C83.6 42.7163 82.8837 42 82 42C81.1164 42 80.4 42.7163 80.4 43.6C80.4 44.4837 81.1164 45.2 82 45.2Z" fill="#6C7284"/>
</g>
<g clip-path="url(#clip82_305_82339)">
<path d="M11.6 48.4C12.4837 48.4 13.2 47.6837 13.2 46.8C13.2 45.9164 12.4837 45.2 11.6 45.2C10.7163 45.2 10 45.9164 10 46.8C10 47.6837 10.7163 48.4 11.6 48.4Z" fill="#6C7284"/>
</g>
<g clip-path="url(#clip83_305_82339)">
<path d="M14.8 48.4C15.6836 48.4 16.4 47.6837 16.4 46.8C16.4 45.9164 15.6836 45.2 14.8 45.2C13.9163 45.2 13.2 45.9164 13.2 46.8C13.2 47.6837 13.9163 48.4 14.8 48.4Z" fill="#6C7284"/>
</g>
<g clip-path="url(#clip84_305_82339)">
<path d="M18 48.4C18.8837 48.4 19.6 47.6837 19.6 46.8C19.6 45.9164 18.8837 45.2 18 45.2C17.1164 45.2 16.4 45.9164 16.4 46.8C16.4 47.6837 17.1164 48.4 18 48.4Z" fill="#6C7284"/>
</g>
<g clip-path="url(#clip85_305_82339)">
<path d="M21.2 48.4C22.0836 48.4 22.8 47.6837 22.8 46.8C22.8 45.9164 22.0836 45.2 21.2 45.2C20.3163 45.2 19.6 45.9164 19.6 46.8C19.6 47.6837 20.3163 48.4 21.2 48.4Z" fill="#6C7284"/>
</g>
<g clip-path="url(#clip86_305_82339)">
<path d="M37.2 48.4C38.0836 48.4 38.8 47.6837 38.8 46.8C38.8 45.9164 38.0836 45.2 37.2 45.2C36.3163 45.2 35.6 45.9164 35.6 46.8C35.6 47.6837 36.3163 48.4 37.2 48.4Z" fill="#6C7284"/>
</g>
<g clip-path="url(#clip87_305_82339)">
<path d="M50 48.4C50.8837 48.4 51.6 47.6837 51.6 46.8C51.6 45.9164 50.8837 45.2 50 45.2C49.1164 45.2 48.4 45.9164 48.4 46.8C48.4 47.6837 49.1164 48.4 50 48.4Z" fill="#6C7284"/>
</g>
<g clip-path="url(#clip88_305_82339)">
<path d="M21.2 51.6C22.0836 51.6 22.8 50.8837 22.8 50C22.8 49.1164 22.0836 48.4 21.2 48.4C20.3163 48.4 19.6 49.1164 19.6 50C19.6 50.8837 20.3163 51.6 21.2 51.6Z" fill="#6C7284"/>
</g>
<g clip-path="url(#clip89_305_82339)">
<path d="M24.4 51.6C25.2837 51.6 26 50.8837 26 50C26 49.1164 25.2837 48.4 24.4 48.4C23.5164 48.4 22.8 49.1164 22.8 50C22.8 50.8837 23.5164 51.6 24.4 51.6Z" fill="#6C7284"/>
</g>
<g clip-path="url(#clip90_305_82339)">
<path d="M27.6 51.6C28.4837 51.6 29.2 50.8837 29.2 50C29.2 49.1164 28.4837 48.4 27.6 48.4C26.7163 48.4 26 49.1164 26 50C26 50.8837 26.7163 51.6 27.6 51.6Z" fill="#6C7284"/>
</g>
<g clip-path="url(#clip91_305_82339)">
<path d="M30.8 51.6C31.6836 51.6 32.4 50.8837 32.4 50C32.4 49.1164 31.6836 48.4 30.8 48.4C29.9163 48.4 29.2 49.1164 29.2 50C29.2 50.8837 29.9163 51.6 30.8 51.6Z" fill="#6C7284"/>
</g>
<g clip-path="url(#clip92_305_82339)">
<path d="M40.4 51.6C41.2837 51.6 42 50.8837 42 50C42 49.1164 41.2837 48.4 40.4 48.4C39.5164 48.4 38.8 49.1164 38.8 50C38.8 50.8837 39.5164 51.6 40.4 51.6Z" fill="#6C7284"/>
</g>
<g clip-path="url(#clip93_305_82339)">
<path d="M43.6 51.6C44.4837 51.6 45.2 50.8837 45.2 50C45.2 49.1164 44.4837 48.4 43.6 48.4C42.7163 48.4 42 49.1164 42 50C42 50.8837 42.7163 51.6 43.6 51.6Z" fill="#6C7284"/>
</g>
<g clip-path="url(#clip94_305_82339)">
<path d="M50 51.6C50.8837 51.6 51.6 50.8837 51.6 50C51.6 49.1164 50.8837 48.4 50 48.4C49.1164 48.4 48.4 49.1164 48.4 50C48.4 50.8837 49.1164 51.6 50 51.6Z" fill="#6C7284"/>
</g>
<g clip-path="url(#clip95_305_82339)">
<path d="M56.4 51.6C57.2837 51.6 58 50.8837 58 50C58 49.1164 57.2837 48.4 56.4 48.4C55.5164 48.4 54.8 49.1164 54.8 50C54.8 50.8837 55.5164 51.6 56.4 51.6Z" fill="#6C7284"/>
</g>
<g clip-path="url(#clip96_305_82339)">
<path d="M59.6 51.6C60.4837 51.6 61.2 50.8837 61.2 50C61.2 49.1164 60.4837 48.4 59.6 48.4C58.7163 48.4 58 49.1164 58 50C58 50.8837 58.7163 51.6 59.6 51.6Z" fill="#6C7284"/>
</g>
<g clip-path="url(#clip97_305_82339)">
<path d="M66 51.6C66.8837 51.6 67.6 50.8837 67.6 50C67.6 49.1164 66.8837 48.4 66 48.4C65.1164 48.4 64.4 49.1164 64.4 50C64.4 50.8837 65.1164 51.6 66 51.6Z" fill="#6C7284"/>
</g>
<g clip-path="url(#clip98_305_82339)">
<path d="M72.4 51.6C73.2837 51.6 74 50.8837 74 50C74 49.1164 73.2837 48.4 72.4 48.4C71.5164 48.4 70.8 49.1164 70.8 50C70.8 50.8837 71.5164 51.6 72.4 51.6Z" fill="#6C7284"/>
</g>
<g clip-path="url(#clip99_305_82339)">
<path d="M75.6 51.6C76.4837 51.6 77.2 50.8837 77.2 50C77.2 49.1164 76.4837 48.4 75.6 48.4C74.7163 48.4 74 49.1164 74 50C74 50.8837 74.7163 51.6 75.6 51.6Z" fill="#6C7284"/>
</g>
<g clip-path="url(#clip100_305_82339)">
<path d="M78.8 51.6C79.6836 51.6 80.4 50.8837 80.4 50C80.4 49.1164 79.6836 48.4 78.8 48.4C77.9163 48.4 77.2 49.1164 77.2 50C77.2 50.8837 77.9163 51.6 78.8 51.6Z" fill="#6C7284"/>
</g>
<g clip-path="url(#clip101_305_82339)">
<path d="M85.2 51.6C86.0836 51.6 86.8 50.8837 86.8 50C86.8 49.1164 86.0836 48.4 85.2 48.4C84.3163 48.4 83.6 49.1164 83.6 50C83.6 50.8837 84.3163 51.6 85.2 51.6Z" fill="#6C7284"/>
</g>
<g clip-path="url(#clip102_305_82339)">
<path d="M88.4 51.6C89.2837 51.6 90 50.8837 90 50C90 49.1164 89.2837 48.4 88.4 48.4C87.5164 48.4 86.8 49.1164 86.8 50C86.8 50.8837 87.5164 51.6 88.4 51.6Z" fill="#6C7284"/>
</g>
<g clip-path="url(#clip103_305_82339)">
<path d="M11.6 54.8C12.4837 54.8 13.2 54.0836 13.2 53.2C13.2 52.3163 12.4837 51.6 11.6 51.6C10.7163 51.6 10 52.3163 10 53.2C10 54.0836 10.7163 54.8 11.6 54.8Z" fill="#6C7284"/>
</g>
<g clip-path="url(#clip104_305_82339)">
<path d="M21.2 54.8C22.0836 54.8 22.8 54.0836 22.8 53.2C22.8 52.3163 22.0836 51.6 21.2 51.6C20.3163 51.6 19.6 52.3163 19.6 53.2C19.6 54.0836 20.3163 54.8 21.2 54.8Z" fill="#6C7284"/>
</g>
<g clip-path="url(#clip105_305_82339)">
<path d="M24.4 54.8C25.2837 54.8 26 54.0836 26 53.2C26 52.3163 25.2837 51.6 24.4 51.6C23.5164 51.6 22.8 52.3163 22.8 53.2C22.8 54.0836 23.5164 54.8 24.4 54.8Z" fill="#6C7284"/>
</g>
<g clip-path="url(#clip106_305_82339)">
<path d="M27.6 54.8C28.4837 54.8 29.2 54.0836 29.2 53.2C29.2 52.3163 28.4837 51.6 27.6 51.6C26.7163 51.6 26 52.3163 26 53.2C26 54.0836 26.7163 54.8 27.6 54.8Z" fill="#6C7284"/>
</g>
<g clip-path="url(#clip107_305_82339)">
<path d="M40.4 54.8C41.2837 54.8 42 54.0836 42 53.2C42 52.3163 41.2837 51.6 40.4 51.6C39.5164 51.6 38.8 52.3163 38.8 53.2C38.8 54.0836 39.5164 54.8 40.4 54.8Z" fill="#6C7284"/>
</g>
<g clip-path="url(#clip108_305_82339)">
<path d="M56.4 54.8C57.2837 54.8 58 54.0836 58 53.2C58 52.3163 57.2837 51.6 56.4 51.6C55.5164 51.6 54.8 52.3163 54.8 53.2C54.8 54.0836 55.5164 54.8 56.4 54.8Z" fill="#6C7284"/>
</g>
<g clip-path="url(#clip109_305_82339)">
<path d="M59.6 54.8C60.4837 54.8 61.2 54.0836 61.2 53.2C61.2 52.3163 60.4837 51.6 59.6 51.6C58.7163 51.6 58 52.3163 58 53.2C58 54.0836 58.7163 54.8 59.6 54.8Z" fill="#6C7284"/>
</g>
<g clip-path="url(#clip110_305_82339)">
<path d="M62.8 54.8C63.6836 54.8 64.4 54.0836 64.4 53.2C64.4 52.3163 63.6836 51.6 62.8 51.6C61.9163 51.6 61.2 52.3163 61.2 53.2C61.2 54.0836 61.9163 54.8 62.8 54.8Z" fill="#6C7284"/>
</g>
<g clip-path="url(#clip111_305_82339)">
<path d="M69.2 54.8C70.0836 54.8 70.8 54.0836 70.8 53.2C70.8 52.3163 70.0836 51.6 69.2 51.6C68.3163 51.6 67.6 52.3163 67.6 53.2C67.6 54.0836 68.3163 54.8 69.2 54.8Z" fill="#6C7284"/>
</g>
<g clip-path="url(#clip112_305_82339)">
<path d="M72.4 54.8C73.2837 54.8 74 54.0836 74 53.2C74 52.3163 73.2837 51.6 72.4 51.6C71.5164 51.6 70.8 52.3163 70.8 53.2C70.8 54.0836 71.5164 54.8 72.4 54.8Z" fill="#6C7284"/>
</g>
<g clip-path="url(#clip113_305_82339)">
<path d="M75.6 54.8C76.4837 54.8 77.2 54.0836 77.2 53.2C77.2 52.3163 76.4837 51.6 75.6 51.6C74.7163 51.6 74 52.3163 74 53.2C74 54.0836 74.7163 54.8 75.6 54.8Z" fill="#6C7284"/>
</g>
<g clip-path="url(#clip114_305_82339)">
<path d="M85.2 54.8C86.0836 54.8 86.8 54.0836 86.8 53.2C86.8 52.3163 86.0836 51.6 85.2 51.6C84.3163 51.6 83.6 52.3163 83.6 53.2C83.6 54.0836 84.3163 54.8 85.2 54.8Z" fill="#6C7284"/>
</g>
<g clip-path="url(#clip115_305_82339)">
<path d="M11.6 58C12.4837 58 13.2 57.2836 13.2 56.4C13.2 55.5163 12.4837 54.8 11.6 54.8C10.7163 54.8 10 55.5163 10 56.4C10 57.2836 10.7163 58 11.6 58Z" fill="#6C7284"/>
</g>
<g clip-path="url(#clip116_305_82339)">
<path d="M21.2 58C22.0836 58 22.8 57.2836 22.8 56.4C22.8 55.5163 22.0836 54.8 21.2 54.8C20.3163 54.8 19.6 55.5163 19.6 56.4C19.6 57.2836 20.3163 58 21.2 58Z" fill="#6C7284"/>
</g>
<g clip-path="url(#clip117_305_82339)">
<path d="M24.4 58C25.2837 58 26 57.2836 26 56.4C26 55.5163 25.2837 54.8 24.4 54.8C23.5164 54.8 22.8 55.5163 22.8 56.4C22.8 57.2836 23.5164 58 24.4 58Z" fill="#6C7284"/>
</g>
<g clip-path="url(#clip118_305_82339)">
<path d="M30.8 58C31.6836 58 32.4 57.2836 32.4 56.4C32.4 55.5163 31.6836 54.8 30.8 54.8C29.9163 54.8 29.2 55.5163 29.2 56.4C29.2 57.2836 29.9163 58 30.8 58Z" fill="#6C7284"/>
</g>
<g clip-path="url(#clip119_305_82339)">
<path d="M37.2 58C38.0836 58 38.8 57.2836 38.8 56.4C38.8 55.5163 38.0836 54.8 37.2 54.8C36.3163 54.8 35.6 55.5163 35.6 56.4C35.6 57.2836 36.3163 58 37.2 58Z" fill="#6C7284"/>
</g>
<g clip-path="url(#clip120_305_82339)">
<path d="M46.8 58C47.6836 58 48.4 57.2836 48.4 56.4C48.4 55.5163 47.6836 54.8 46.8 54.8C45.9163 54.8 45.2 55.5163 45.2 56.4C45.2 57.2836 45.9163 58 46.8 58Z" fill="#6C7284"/>
</g>
<g clip-path="url(#clip121_305_82339)">
<path d="M50 58C50.8837 58 51.6 57.2836 51.6 56.4C51.6 55.5163 50.8837 54.8 50 54.8C49.1164 54.8 48.4 55.5163 48.4 56.4C48.4 57.2836 49.1164 58 50 58Z" fill="#6C7284"/>
</g>
<g clip-path="url(#clip122_305_82339)">
<path d="M56.4 58C57.2837 58 58 57.2836 58 56.4C58 55.5163 57.2837 54.8 56.4 54.8C55.5164 54.8 54.8 55.5163 54.8 56.4C54.8 57.2836 55.5164 58 56.4 58Z" fill="#6C7284"/>
</g>
<g clip-path="url(#clip123_305_82339)">
<path d="M59.6 58C60.4837 58 61.2 57.2836 61.2 56.4C61.2 55.5163 60.4837 54.8 59.6 54.8C58.7163 54.8 58 55.5163 58 56.4C58 57.2836 58.7163 58 59.6 58Z" fill="#6C7284"/>
</g>
<g clip-path="url(#clip124_305_82339)">
<path d="M69.2 58C70.0836 58 70.8 57.2836 70.8 56.4C70.8 55.5163 70.0836 54.8 69.2 54.8C68.3163 54.8 67.6 55.5163 67.6 56.4C67.6 57.2836 68.3163 58 69.2 58Z" fill="#6C7284"/>
</g>
<g clip-path="url(#clip125_305_82339)">
<path d="M75.6 58C76.4837 58 77.2 57.2836 77.2 56.4C77.2 55.5163 76.4837 54.8 75.6 54.8C74.7163 54.8 74 55.5163 74 56.4C74 57.2836 74.7163 58 75.6 58Z" fill="#6C7284"/>
</g>
<g clip-path="url(#clip126_305_82339)">
<path d="M82 58C82.8837 58 83.6 57.2836 83.6 56.4C83.6 55.5163 82.8837 54.8 82 54.8C81.1164 54.8 80.4 55.5163 80.4 56.4C80.4 57.2836 81.1164 58 82 58Z" fill="#6C7284"/>
</g>
<g clip-path="url(#clip127_305_82339)">
<path d="M85.2 58C86.0836 58 86.8 57.2836 86.8 56.4C86.8 55.5163 86.0836 54.8 85.2 54.8C84.3163 54.8 83.6 55.5163 83.6 56.4C83.6 57.2836 84.3163 58 85.2 58Z" fill="#6C7284"/>
</g>
<g clip-path="url(#clip128_305_82339)">
<path d="M88.4 58C89.2837 58 90 57.2836 90 56.4C90 55.5163 89.2837 54.8 88.4 54.8C87.5164 54.8 86.8 55.5163 86.8 56.4C86.8 57.2836 87.5164 58 88.4 58Z" fill="#6C7284"/>
</g>
<g clip-path="url(#clip129_305_82339)">
<path d="M11.6 61.2C12.4837 61.2 13.2 60.4837 13.2 59.6C13.2 58.7163 12.4837 58 11.6 58C10.7163 58 10 58.7163 10 59.6C10 60.4837 10.7163 61.2 11.6 61.2Z" fill="#6C7284"/>
</g>
<g clip-path="url(#clip130_305_82339)">
<path d="M18 61.2C18.8837 61.2 19.6 60.4837 19.6 59.6C19.6 58.7163 18.8837 58 18 58C17.1164 58 16.4 58.7163 16.4 59.6C16.4 60.4837 17.1164 61.2 18 61.2Z" fill="#6C7284"/>
</g>
<g clip-path="url(#clip131_305_82339)">
<path d="M24.4 61.2C25.2837 61.2 26 60.4837 26 59.6C26 58.7163 25.2837 58 24.4 58C23.5164 58 22.8 58.7163 22.8 59.6C22.8 60.4837 23.5164 61.2 24.4 61.2Z" fill="#6C7284"/>
</g>
<g clip-path="url(#clip132_305_82339)">
<path d="M27.6 61.2C28.4837 61.2 29.2 60.4837 29.2 59.6C29.2 58.7163 28.4837 58 27.6 58C26.7163 58 26 58.7163 26 59.6C26 60.4837 26.7163 61.2 27.6 61.2Z" fill="#6C7284"/>
</g>
<g clip-path="url(#clip133_305_82339)">
<path d="M37.2 61.2C38.0836 61.2 38.8 60.4837 38.8 59.6C38.8 58.7163 38.0836 58 37.2 58C36.3163 58 35.6 58.7163 35.6 59.6C35.6 60.4837 36.3163 61.2 37.2 61.2Z" fill="#6C7284"/>
</g>
<g clip-path="url(#clip134_305_82339)">
<path d="M40.4 61.2C41.2837 61.2 42 60.4837 42 59.6C42 58.7163 41.2837 58 40.4 58C39.5164 58 38.8 58.7163 38.8 59.6C38.8 60.4837 39.5164 61.2 40.4 61.2Z" fill="#6C7284"/>
</g>
<g clip-path="url(#clip135_305_82339)">
<path d="M46.8 61.2C47.6836 61.2 48.4 60.4837 48.4 59.6C48.4 58.7163 47.6836 58 46.8 58C45.9163 58 45.2 58.7163 45.2 59.6C45.2 60.4837 45.9163 61.2 46.8 61.2Z" fill="#6C7284"/>
</g>
<g clip-path="url(#clip136_305_82339)">
<path d="M53.2 61.2C54.0836 61.2 54.8 60.4837 54.8 59.6C54.8 58.7163 54.0836 58 53.2 58C52.3163 58 51.6 58.7163 51.6 59.6C51.6 60.4837 52.3163 61.2 53.2 61.2Z" fill="#6C7284"/>
</g>
<g clip-path="url(#clip137_305_82339)">
<path d="M62.8 61.2C63.6836 61.2 64.4 60.4837 64.4 59.6C64.4 58.7163 63.6836 58 62.8 58C61.9163 58 61.2 58.7163 61.2 59.6C61.2 60.4837 61.9163 61.2 62.8 61.2Z" fill="#6C7284"/>
</g>
<g clip-path="url(#clip138_305_82339)">
<path d="M85.2 61.2C86.0836 61.2 86.8 60.4837 86.8 59.6C86.8 58.7163 86.0836 58 85.2 58C84.3163 58 83.6 58.7163 83.6 59.6C83.6 60.4837 84.3163 61.2 85.2 61.2Z" fill="#6C7284"/>
</g>
<g clip-path="url(#clip139_305_82339)">
<path d="M88.4 61.2C89.2837 61.2 90 60.4837 90 59.6C90 58.7163 89.2837 58 88.4 58C87.5164 58 86.8 58.7163 86.8 59.6C86.8 60.4837 87.5164 61.2 88.4 61.2Z" fill="#6C7284"/>
</g>
<g clip-path="url(#clip140_305_82339)">
<path d="M11.6 64.4C12.4837 64.4 13.2 63.6837 13.2 62.8C13.2 61.9164 12.4837 61.2 11.6 61.2C10.7163 61.2 10 61.9164 10 62.8C10 63.6837 10.7163 64.4 11.6 64.4Z" fill="#6C7284"/>
</g>
<g clip-path="url(#clip141_305_82339)">
<path d="M18 64.4C18.8837 64.4 19.6 63.6837 19.6 62.8C19.6 61.9164 18.8837 61.2 18 61.2C17.1164 61.2 16.4 61.9164 16.4 62.8C16.4 63.6837 17.1164 64.4 18 64.4Z" fill="#6C7284"/>
</g>
<g clip-path="url(#clip142_305_82339)">
<path d="M27.6 64.4C28.4837 64.4 29.2 63.6837 29.2 62.8C29.2 61.9164 28.4837 61.2 27.6 61.2C26.7163 61.2 26 61.9164 26 62.8C26 63.6837 26.7163 64.4 27.6 64.4Z" fill="#6C7284"/>
</g>
<g clip-path="url(#clip143_305_82339)">
<path d="M30.8 64.4C31.6836 64.4 32.4 63.6837 32.4 62.8C32.4 61.9164 31.6836 61.2 30.8 61.2C29.9163 61.2 29.2 61.9164 29.2 62.8C29.2 63.6837 29.9163 64.4 30.8 64.4Z" fill="#6C7284"/>
</g>
<g clip-path="url(#clip144_305_82339)">
<path d="M46.8 64.4C47.6836 64.4 48.4 63.6837 48.4 62.8C48.4 61.9164 47.6836 61.2 46.8 61.2C45.9163 61.2 45.2 61.9164 45.2 62.8C45.2 63.6837 45.9163 64.4 46.8 64.4Z" fill="#6C7284"/>
</g>
<g clip-path="url(#clip145_305_82339)">
<path d="M50 64.4C50.8837 64.4 51.6 63.6837 51.6 62.8C51.6 61.9164 50.8837 61.2 50 61.2C49.1164 61.2 48.4 61.9164 48.4 62.8C48.4 63.6837 49.1164 64.4 50 64.4Z" fill="#6C7284"/>
</g>
<g clip-path="url(#clip146_305_82339)">
<path d="M56.4 64.4C57.2837 64.4 58 63.6837 58 62.8C58 61.9164 57.2837 61.2 56.4 61.2C55.5164 61.2 54.8 61.9164 54.8 62.8C54.8 63.6837 55.5164 64.4 56.4 64.4Z" fill="#6C7284"/>
</g>
<g clip-path="url(#clip147_305_82339)">
<path d="M59.6 64.4C60.4837 64.4 61.2 63.6837 61.2 62.8C61.2 61.9164 60.4837 61.2 59.6 61.2C58.7163 61.2 58 61.9164 58 62.8C58 63.6837 58.7163 64.4 59.6 64.4Z" fill="#6C7284"/>
</g>
<g clip-path="url(#clip148_305_82339)">
<path d="M62.8 64.4C63.6836 64.4 64.4 63.6837 64.4 62.8C64.4 61.9164 63.6836 61.2 62.8 61.2C61.9163 61.2 61.2 61.9164 61.2 62.8C61.2 63.6837 61.9163 64.4 62.8 64.4Z" fill="#6C7284"/>
</g>
<g clip-path="url(#clip149_305_82339)">
<path d="M66 64.4C66.8837 64.4 67.6 63.6837 67.6 62.8C67.6 61.9164 66.8837 61.2 66 61.2C65.1164 61.2 64.4 61.9164 64.4 62.8C64.4 63.6837 65.1164 64.4 66 64.4Z" fill="#6C7284"/>
</g>
<g clip-path="url(#clip150_305_82339)">
<path d="M69.2 64.4C70.0836 64.4 70.8 63.6837 70.8 62.8C70.8 61.9164 70.0836 61.2 69.2 61.2C68.3163 61.2 67.6 61.9164 67.6 62.8C67.6 63.6837 68.3163 64.4 69.2 64.4Z" fill="#6C7284"/>
</g>
<g clip-path="url(#clip151_305_82339)">
<path d="M72.4 64.4C73.2837 64.4 74 63.6837 74 62.8C74 61.9164 73.2837 61.2 72.4 61.2C71.5164 61.2 70.8 61.9164 70.8 62.8C70.8 63.6837 71.5164 64.4 72.4 64.4Z" fill="#6C7284"/>
</g>
<g clip-path="url(#clip152_305_82339)">
<path d="M75.6 64.4C76.4837 64.4 77.2 63.6837 77.2 62.8C77.2 61.9164 76.4837 61.2 75.6 61.2C74.7163 61.2 74 61.9164 74 62.8C74 63.6837 74.7163 64.4 75.6 64.4Z" fill="#6C7284"/>
</g>
<g clip-path="url(#clip153_305_82339)">
<path d="M78.8 64.4C79.6836 64.4 80.4 63.6837 80.4 62.8C80.4 61.9164 79.6836 61.2 78.8 61.2C77.9163 61.2 77.2 61.9164 77.2 62.8C77.2 63.6837 77.9163 64.4 78.8 64.4Z" fill="#6C7284"/>
</g>
<g clip-path="url(#clip154_305_82339)">
<path d="M88.4 64.4C89.2837 64.4 90 63.6837 90 62.8C90 61.9164 89.2837 61.2 88.4 61.2C87.5164 61.2 86.8 61.9164 86.8 62.8C86.8 63.6837 87.5164 64.4 88.4 64.4Z" fill="#6C7284"/>
</g>
<g clip-path="url(#clip155_305_82339)">
<path d="M37.2 67.6C38.0836 67.6 38.8 66.8837 38.8 66C38.8 65.1164 38.0836 64.4 37.2 64.4C36.3163 64.4 35.6 65.1164 35.6 66C35.6 66.8837 36.3163 67.6 37.2 67.6Z" fill="#6C7284"/>
</g>
<g clip-path="url(#clip156_305_82339)">
<path d="M40.4 67.6C41.2837 67.6 42 66.8837 42 66C42 65.1164 41.2837 64.4 40.4 64.4C39.5164 64.4 38.8 65.1164 38.8 66C38.8 66.8837 39.5164 67.6 40.4 67.6Z" fill="#6C7284"/>
</g>
<g clip-path="url(#clip157_305_82339)">
<path d="M50 67.6C50.8837 67.6 51.6 66.8837 51.6 66C51.6 65.1164 50.8837 64.4 50 64.4C49.1164 64.4 48.4 65.1164 48.4 66C48.4 66.8837 49.1164 67.6 50 67.6Z" fill="#6C7284"/>
</g>
<g clip-path="url(#clip158_305_82339)">
<path d="M62.8 67.6C63.6836 67.6 64.4 66.8837 64.4 66C64.4 65.1164 63.6836 64.4 62.8 64.4C61.9163 64.4 61.2 65.1164 61.2 66C61.2 66.8837 61.9163 67.6 62.8 67.6Z" fill="#6C7284"/>
</g>
<g clip-path="url(#clip159_305_82339)">
<path d="M75.6 67.6C76.4837 67.6 77.2 66.8837 77.2 66C77.2 65.1164 76.4837 64.4 75.6 64.4C74.7163 64.4 74 65.1164 74 66C74 66.8837 74.7163 67.6 75.6 67.6Z" fill="#6C7284"/>
</g>
<g clip-path="url(#clip160_305_82339)">
<path d="M88.4 67.6C89.2837 67.6 90 66.8837 90 66C90 65.1164 89.2837 64.4 88.4 64.4C87.5164 64.4 86.8 65.1164 86.8 66C86.8 66.8837 87.5164 67.6 88.4 67.6Z" fill="#6C7284"/>
</g>
<g clip-path="url(#clip161_305_82339)">
<path d="M37.2 70.8C38.0836 70.8 38.8 70.0836 38.8 69.2C38.8 68.3163 38.0836 67.6 37.2 67.6C36.3163 67.6 35.6 68.3163 35.6 69.2C35.6 70.0836 36.3163 70.8 37.2 70.8Z" fill="#6C7284"/>
</g>
<g clip-path="url(#clip162_305_82339)">
<path d="M40.4 70.8C41.2837 70.8 42 70.0836 42 69.2C42 68.3163 41.2837 67.6 40.4 67.6C39.5164 67.6 38.8 68.3163 38.8 69.2C38.8 70.0836 39.5164 70.8 40.4 70.8Z" fill="#6C7284"/>
</g>
<g clip-path="url(#clip163_305_82339)">
<path d="M43.6 70.8C44.4837 70.8 45.2 70.0836 45.2 69.2C45.2 68.3163 44.4837 67.6 43.6 67.6C42.7163 67.6 42 68.3163 42 69.2C42 70.0836 42.7163 70.8 43.6 70.8Z" fill="#6C7284"/>
</g>
<g clip-path="url(#clip164_305_82339)">
<path d="M50 70.8C50.8837 70.8 51.6 70.0836 51.6 69.2C51.6 68.3163 50.8837 67.6 50 67.6C49.1164 67.6 48.4 68.3163 48.4 69.2C48.4 70.0836 49.1164 70.8 50 70.8Z" fill="#6C7284"/>
</g>
<g clip-path="url(#clip165_305_82339)">
<path d="M56.4 70.8C57.2837 70.8 58 70.0836 58 69.2C58 68.3163 57.2837 67.6 56.4 67.6C55.5164 67.6 54.8 68.3163 54.8 69.2C54.8 70.0836 55.5164 70.8 56.4 70.8Z" fill="#6C7284"/>
</g>
<g clip-path="url(#clip166_305_82339)">
<path d="M59.6 70.8C60.4837 70.8 61.2 70.0836 61.2 69.2C61.2 68.3163 60.4837 67.6 59.6 67.6C58.7163 67.6 58 68.3163 58 69.2C58 70.0836 58.7163 70.8 59.6 70.8Z" fill="#6C7284"/>
</g>
<g clip-path="url(#clip167_305_82339)">
<path d="M62.8 70.8C63.6836 70.8 64.4 70.0836 64.4 69.2C64.4 68.3163 63.6836 67.6 62.8 67.6C61.9163 67.6 61.2 68.3163 61.2 69.2C61.2 70.0836 61.9163 70.8 62.8 70.8Z" fill="#6C7284"/>
</g>
<g clip-path="url(#clip168_305_82339)">
<path d="M69.2 70.8C70.0836 70.8 70.8 70.0836 70.8 69.2C70.8 68.3163 70.0836 67.6 69.2 67.6C68.3163 67.6 67.6 68.3163 67.6 69.2C67.6 70.0836 68.3163 70.8 69.2 70.8Z" fill="#6C7284"/>
</g>
<g clip-path="url(#clip169_305_82339)">
<path d="M75.6 70.8C76.4837 70.8 77.2 70.0836 77.2 69.2C77.2 68.3163 76.4837 67.6 75.6 67.6C74.7163 67.6 74 68.3163 74 69.2C74 70.0836 74.7163 70.8 75.6 70.8Z" fill="#6C7284"/>
</g>
<g clip-path="url(#clip170_305_82339)">
<path d="M82 70.8C82.8837 70.8 83.6 70.0836 83.6 69.2C83.6 68.3163 82.8837 67.6 82 67.6C81.1164 67.6 80.4 68.3163 80.4 69.2C80.4 70.0836 81.1164 70.8 82 70.8Z" fill="#6C7284"/>
</g>
<g clip-path="url(#clip171_305_82339)">
<path d="M85.2 70.8C86.0836 70.8 86.8 70.0836 86.8 69.2C86.8 68.3163 86.0836 67.6 85.2 67.6C84.3163 67.6 83.6 68.3163 83.6 69.2C83.6 70.0836 84.3163 70.8 85.2 70.8Z" fill="#6C7284"/>
</g>
<g clip-path="url(#clip172_305_82339)">
<path d="M88.4 70.8C89.2837 70.8 90 70.0836 90 69.2C90 68.3163 89.2837 67.6 88.4 67.6C87.5164 67.6 86.8 68.3163 86.8 69.2C86.8 70.0836 87.5164 70.8 88.4 70.8Z" fill="#6C7284"/>
</g>
<g clip-path="url(#clip173_305_82339)">
<path d="M43.6 74C44.4837 74 45.2 73.2836 45.2 72.4C45.2 71.5163 44.4837 70.8 43.6 70.8C42.7163 70.8 42 71.5163 42 72.4C42 73.2836 42.7163 74 43.6 74Z" fill="#6C7284"/>
</g>
<g clip-path="url(#clip174_305_82339)">
<path d="M50 74C50.8837 74 51.6 73.2836 51.6 72.4C51.6 71.5163 50.8837 70.8 50 70.8C49.1164 70.8 48.4 71.5163 48.4 72.4C48.4 73.2836 49.1164 74 50 74Z" fill="#6C7284"/>
</g>
<g clip-path="url(#clip175_305_82339)">
<path d="M56.4 74C57.2837 74 58 73.2836 58 72.4C58 71.5163 57.2837 70.8 56.4 70.8C55.5164 70.8 54.8 71.5163 54.8 72.4C54.8 73.2836 55.5164 74 56.4 74Z" fill="#6C7284"/>
</g>
<g clip-path="url(#clip176_305_82339)">
<path d="M59.6 74C60.4837 74 61.2 73.2836 61.2 72.4C61.2 71.5163 60.4837 70.8 59.6 70.8C58.7163 70.8 58 71.5163 58 72.4C58 73.2836 58.7163 74 59.6 74Z" fill="#6C7284"/>
</g>
<g clip-path="url(#clip177_305_82339)">
<path d="M62.8 74C63.6836 74 64.4 73.2836 64.4 72.4C64.4 71.5163 63.6836 70.8 62.8 70.8C61.9163 70.8 61.2 71.5163 61.2 72.4C61.2 73.2836 61.9163 74 62.8 74Z" fill="#6C7284"/>
</g>
<g clip-path="url(#clip178_305_82339)">
<path d="M75.6 74C76.4837 74 77.2 73.2836 77.2 72.4C77.2 71.5163 76.4837 70.8 75.6 70.8C74.7163 70.8 74 71.5163 74 72.4C74 73.2836 74.7163 74 75.6 74Z" fill="#6C7284"/>
</g>
<g clip-path="url(#clip179_305_82339)">
<path d="M78.8 74C79.6836 74 80.4 73.2836 80.4 72.4C80.4 71.5163 79.6836 70.8 78.8 70.8C77.9163 70.8 77.2 71.5163 77.2 72.4C77.2 73.2836 77.9163 74 78.8 74Z" fill="#6C7284"/>
</g>
<g clip-path="url(#clip180_305_82339)">
<path d="M37.2 77.2C38.0836 77.2 38.8 76.4837 38.8 75.6C38.8 74.7163 38.0836 74 37.2 74C36.3163 74 35.6 74.7163 35.6 75.6C35.6 76.4837 36.3163 77.2 37.2 77.2Z" fill="#6C7284"/>
</g>
<g clip-path="url(#clip181_305_82339)">
<path d="M40.4 77.2C41.2837 77.2 42 76.4837 42 75.6C42 74.7163 41.2837 74 40.4 74C39.5164 74 38.8 74.7163 38.8 75.6C38.8 76.4837 39.5164 77.2 40.4 77.2Z" fill="#6C7284"/>
</g>
<g clip-path="url(#clip182_305_82339)">
<path d="M50 77.2C50.8837 77.2 51.6 76.4837 51.6 75.6C51.6 74.7163 50.8837 74 50 74C49.1164 74 48.4 74.7163 48.4 75.6C48.4 76.4837 49.1164 77.2 50 77.2Z" fill="#6C7284"/>
</g>
<g clip-path="url(#clip183_305_82339)">
<path d="M53.2 77.2C54.0836 77.2 54.8 76.4837 54.8 75.6C54.8 74.7163 54.0836 74 53.2 74C52.3163 74 51.6 74.7163 51.6 75.6C51.6 76.4837 52.3163 77.2 53.2 77.2Z" fill="#6C7284"/>
</g>
<g clip-path="url(#clip184_305_82339)">
<path d="M59.6 77.2C60.4837 77.2 61.2 76.4837 61.2 75.6C61.2 74.7163 60.4837 74 59.6 74C58.7163 74 58 74.7163 58 75.6C58 76.4837 58.7163 77.2 59.6 77.2Z" fill="#6C7284"/>
</g>
<g clip-path="url(#clip185_305_82339)">
<path d="M62.8 77.2C63.6836 77.2 64.4 76.4837 64.4 75.6C64.4 74.7163 63.6836 74 62.8 74C61.9163 74 61.2 74.7163 61.2 75.6C61.2 76.4837 61.9163 77.2 62.8 77.2Z" fill="#6C7284"/>
</g>
<g clip-path="url(#clip186_305_82339)">
<path d="M66 77.2C66.8837 77.2 67.6 76.4837 67.6 75.6C67.6 74.7163 66.8837 74 66 74C65.1164 74 64.4 74.7163 64.4 75.6C64.4 76.4837 65.1164 77.2 66 77.2Z" fill="#6C7284"/>
</g>
<g clip-path="url(#clip187_305_82339)">
<path d="M69.2 77.2C70.0836 77.2 70.8 76.4837 70.8 75.6C70.8 74.7163 70.0836 74 69.2 74C68.3163 74 67.6 74.7163 67.6 75.6C67.6 76.4837 68.3163 77.2 69.2 77.2Z" fill="#6C7284"/>
</g>
<g clip-path="url(#clip188_305_82339)">
<path d="M72.4 77.2C73.2837 77.2 74 76.4837 74 75.6C74 74.7163 73.2837 74 72.4 74C71.5164 74 70.8 74.7163 70.8 75.6C70.8 76.4837 71.5164 77.2 72.4 77.2Z" fill="#6C7284"/>
</g>
<g clip-path="url(#clip189_305_82339)">
<path d="M75.6 77.2C76.4837 77.2 77.2 76.4837 77.2 75.6C77.2 74.7163 76.4837 74 75.6 74C74.7163 74 74 74.7163 74 75.6C74 76.4837 74.7163 77.2 75.6 77.2Z" fill="#6C7284"/>
</g>
<g clip-path="url(#clip190_305_82339)">
<path d="M78.8 77.2C79.6836 77.2 80.4 76.4837 80.4 75.6C80.4 74.7163 79.6836 74 78.8 74C77.9163 74 77.2 74.7163 77.2 75.6C77.2 76.4837 77.9163 77.2 78.8 77.2Z" fill="#6C7284"/>
</g>
<g clip-path="url(#clip191_305_82339)">
<path d="M37.2 80.4C38.0836 80.4 38.8 79.6837 38.8 78.8C38.8 77.9164 38.0836 77.2 37.2 77.2C36.3163 77.2 35.6 77.9164 35.6 78.8C35.6 79.6837 36.3163 80.4 37.2 80.4Z" fill="#6C7284"/>
</g>
<g clip-path="url(#clip192_305_82339)">
<path d="M43.6 80.4C44.4837 80.4 45.2 79.6837 45.2 78.8C45.2 77.9164 44.4837 77.2 43.6 77.2C42.7163 77.2 42 77.9164 42 78.8C42 79.6837 42.7163 80.4 43.6 80.4Z" fill="#6C7284"/>
</g>
<g clip-path="url(#clip193_305_82339)">
<path d="M50 80.4C50.8837 80.4 51.6 79.6837 51.6 78.8C51.6 77.9164 50.8837 77.2 50 77.2C49.1164 77.2 48.4 77.9164 48.4 78.8C48.4 79.6837 49.1164 80.4 50 80.4Z" fill="#6C7284"/>
</g>
<g clip-path="url(#clip194_305_82339)">
<path d="M59.6 80.4C60.4837 80.4 61.2 79.6837 61.2 78.8C61.2 77.9164 60.4837 77.2 59.6 77.2C58.7163 77.2 58 77.9164 58 78.8C58 79.6837 58.7163 80.4 59.6 80.4Z" fill="#6C7284"/>
</g>
<g clip-path="url(#clip195_305_82339)">
<path d="M62.8 80.4C63.6836 80.4 64.4 79.6837 64.4 78.8C64.4 77.9164 63.6836 77.2 62.8 77.2C61.9163 77.2 61.2 77.9164 61.2 78.8C61.2 79.6837 61.9163 80.4 62.8 80.4Z" fill="#6C7284"/>
</g>
<g clip-path="url(#clip196_305_82339)">
<path d="M66 80.4C66.8837 80.4 67.6 79.6837 67.6 78.8C67.6 77.9164 66.8837 77.2 66 77.2C65.1164 77.2 64.4 77.9164 64.4 78.8C64.4 79.6837 65.1164 80.4 66 80.4Z" fill="#6C7284"/>
</g>
<g clip-path="url(#clip197_305_82339)">
<path d="M75.6 80.4C76.4837 80.4 77.2 79.6837 77.2 78.8C77.2 77.9164 76.4837 77.2 75.6 77.2C74.7163 77.2 74 77.9164 74 78.8C74 79.6837 74.7163 80.4 75.6 80.4Z" fill="#6C7284"/>
</g>
<g clip-path="url(#clip198_305_82339)">
<path d="M85.2 80.4C86.0836 80.4 86.8 79.6837 86.8 78.8C86.8 77.9164 86.0836 77.2 85.2 77.2C84.3163 77.2 83.6 77.9164 83.6 78.8C83.6 79.6837 84.3163 80.4 85.2 80.4Z" fill="#6C7284"/>
</g>
<g clip-path="url(#clip199_305_82339)">
<path d="M88.4 80.4C89.2837 80.4 90 79.6837 90 78.8C90 77.9164 89.2837 77.2 88.4 77.2C87.5164 77.2 86.8 77.9164 86.8 78.8C86.8 79.6837 87.5164 80.4 88.4 80.4Z" fill="#6C7284"/>
</g>
<g clip-path="url(#clip200_305_82339)">
<path d="M37.2 83.6C38.0836 83.6 38.8 82.8837 38.8 82C38.8 81.1164 38.0836 80.4 37.2 80.4C36.3163 80.4 35.6 81.1164 35.6 82C35.6 82.8837 36.3163 83.6 37.2 83.6Z" fill="#6C7284"/>
</g>
<g clip-path="url(#clip201_305_82339)">
<path d="M40.4 83.6C41.2837 83.6 42 82.8837 42 82C42 81.1164 41.2837 80.4 40.4 80.4C39.5164 80.4 38.8 81.1164 38.8 82C38.8 82.8837 39.5164 83.6 40.4 83.6Z" fill="#6C7284"/>
</g>
<g clip-path="url(#clip202_305_82339)">
<path d="M56.4 83.6C57.2837 83.6 58 82.8837 58 82C58 81.1164 57.2837 80.4 56.4 80.4C55.5164 80.4 54.8 81.1164 54.8 82C54.8 82.8837 55.5164 83.6 56.4 83.6Z" fill="#6C7284"/>
</g>
<g clip-path="url(#clip203_305_82339)">
<path d="M75.6 83.6C76.4837 83.6 77.2 82.8837 77.2 82C77.2 81.1164 76.4837 80.4 75.6 80.4C74.7163 80.4 74 81.1164 74 82C74 82.8837 74.7163 83.6 75.6 83.6Z" fill="#6C7284"/>
</g>
<g clip-path="url(#clip204_305_82339)">
<path d="M82 83.6C82.8837 83.6 83.6 82.8837 83.6 82C83.6 81.1164 82.8837 80.4 82 80.4C81.1164 80.4 80.4 81.1164 80.4 82C80.4 82.8837 81.1164 83.6 82 83.6Z" fill="#6C7284"/>
</g>
<g clip-path="url(#clip205_305_82339)">
<path d="M88.4 83.6C89.2837 83.6 90 82.8837 90 82C90 81.1164 89.2837 80.4 88.4 80.4C87.5164 80.4 86.8 81.1164 86.8 82C86.8 82.8837 87.5164 83.6 88.4 83.6Z" fill="#6C7284"/>
</g>
<g clip-path="url(#clip206_305_82339)">
<path d="M37.2 86.8C38.0836 86.8 38.8 86.0836 38.8 85.2C38.8 84.3163 38.0836 83.6 37.2 83.6C36.3163 83.6 35.6 84.3163 35.6 85.2C35.6 86.0836 36.3163 86.8 37.2 86.8Z" fill="#6C7284"/>
</g>
<g clip-path="url(#clip207_305_82339)">
<path d="M43.6 86.8C44.4837 86.8 45.2 86.0836 45.2 85.2C45.2 84.3163 44.4837 83.6 43.6 83.6C42.7163 83.6 42 84.3163 42 85.2C42 86.0836 42.7163 86.8 43.6 86.8Z" fill="#6C7284"/>
</g>
<g clip-path="url(#clip208_305_82339)">
<path d="M46.8 86.8C47.6836 86.8 48.4 86.0836 48.4 85.2C48.4 84.3163 47.6836 83.6 46.8 83.6C45.9163 83.6 45.2 84.3163 45.2 85.2C45.2 86.0836 45.9163 86.8 46.8 86.8Z" fill="#6C7284"/>
</g>
<g clip-path="url(#clip209_305_82339)">
<path d="M50 86.8C50.8837 86.8 51.6 86.0836 51.6 85.2C51.6 84.3163 50.8837 83.6 50 83.6C49.1164 83.6 48.4 84.3163 48.4 85.2C48.4 86.0836 49.1164 86.8 50 86.8Z" fill="#6C7284"/>
</g>
<g clip-path="url(#clip210_305_82339)">
<path d="M56.4 86.8C57.2837 86.8 58 86.0836 58 85.2C58 84.3163 57.2837 83.6 56.4 83.6C55.5164 83.6 54.8 84.3163 54.8 85.2C54.8 86.0836 55.5164 86.8 56.4 86.8Z" fill="#6C7284"/>
</g>
<g clip-path="url(#clip211_305_82339)">
<path d="M66 86.8C66.8837 86.8 67.6 86.0836 67.6 85.2C67.6 84.3163 66.8837 83.6 66 83.6C65.1164 83.6 64.4 84.3163 64.4 85.2C64.4 86.0836 65.1164 86.8 66 86.8Z" fill="#6C7284"/>
</g>
<g clip-path="url(#clip212_305_82339)">
<path d="M69.2 86.8C70.0836 86.8 70.8 86.0836 70.8 85.2C70.8 84.3163 70.0836 83.6 69.2 83.6C68.3163 83.6 67.6 84.3163 67.6 85.2C67.6 86.0836 68.3163 86.8 69.2 86.8Z" fill="#6C7284"/>
</g>
<g clip-path="url(#clip213_305_82339)">
<path d="M72.4 86.8C73.2837 86.8 74 86.0836 74 85.2C74 84.3163 73.2837 83.6 72.4 83.6C71.5164 83.6 70.8 84.3163 70.8 85.2C70.8 86.0836 71.5164 86.8 72.4 86.8Z" fill="#6C7284"/>
</g>
<g clip-path="url(#clip214_305_82339)">
<path d="M75.6 86.8C76.4837 86.8 77.2 86.0836 77.2 85.2C77.2 84.3163 76.4837 83.6 75.6 83.6C74.7163 83.6 74 84.3163 74 85.2C74 86.0836 74.7163 86.8 75.6 86.8Z" fill="#6C7284"/>
</g>
<g clip-path="url(#clip215_305_82339)">
<path d="M78.8 86.8C79.6836 86.8 80.4 86.0836 80.4 85.2C80.4 84.3163 79.6836 83.6 78.8 83.6C77.9163 83.6 77.2 84.3163 77.2 85.2C77.2 86.0836 77.9163 86.8 78.8 86.8Z" fill="#6C7284"/>
</g>
<g clip-path="url(#clip216_305_82339)">
<path d="M85.2 86.8C86.0836 86.8 86.8 86.0836 86.8 85.2C86.8 84.3163 86.0836 83.6 85.2 83.6C84.3163 83.6 83.6 84.3163 83.6 85.2C83.6 86.0836 84.3163 86.8 85.2 86.8Z" fill="#6C7284"/>
</g>
<g clip-path="url(#clip217_305_82339)">
<path d="M37.2 90C38.0836 90 38.8 89.2836 38.8 88.4C38.8 87.5163 38.0836 86.8 37.2 86.8C36.3163 86.8 35.6 87.5163 35.6 88.4C35.6 89.2836 36.3163 90 37.2 90Z" fill="#6C7284"/>
</g>
<g clip-path="url(#clip218_305_82339)">
<path d="M40.4 90C41.2837 90 42 89.2836 42 88.4C42 87.5163 41.2837 86.8 40.4 86.8C39.5164 86.8 38.8 87.5163 38.8 88.4C38.8 89.2836 39.5164 90 40.4 90Z" fill="#6C7284"/>
</g>
<g clip-path="url(#clip219_305_82339)">
<path d="M43.6 90C44.4837 90 45.2 89.2836 45.2 88.4C45.2 87.5163 44.4837 86.8 43.6 86.8C42.7163 86.8 42 87.5163 42 88.4C42 89.2836 42.7163 90 43.6 90Z" fill="#6C7284"/>
</g>
<g clip-path="url(#clip220_305_82339)">
<path d="M82 90C82.8837 90 83.6 89.2836 83.6 88.4C83.6 87.5163 82.8837 86.8 82 86.8C81.1164 86.8 80.4 87.5163 80.4 88.4C80.4 89.2836 81.1164 90 82 90Z" fill="#6C7284"/>
</g>
<g clip-path="url(#clip221_305_82339)">
<path d="M85.2 90C86.0836 90 86.8 89.2836 86.8 88.4C86.8 87.5163 86.0836 86.8 85.2 86.8C84.3163 86.8 83.6 87.5163 83.6 88.4C83.6 89.2836 84.3163 90 85.2 90Z" fill="#6C7284"/>
</g>
<g clip-path="url(#clip222_305_82339)">
<path d="M88.4 90C89.2837 90 90 89.2836 90 88.4C90 87.5163 89.2837 86.8 88.4 86.8C87.5164 86.8 86.8 87.5163 86.8 88.4C86.8 89.2836 87.5164 90 88.4 90Z" fill="#6C7284"/>
</g>
<g clip-path="url(#clip223_305_82339)">
<path d="M10.6784 9.99683C10.304 9.99683 9.99683 10.304 9.99683 10.6784V13.2V16.4V19.6V22.8V26V29.2V31.7216C9.99683 32.096 10.3008 32.4032 10.6784 32.4032H31.7216C32.096 32.4032 32.4032 32.0992 32.4032 31.7216V29.2V26V22.8V19.6V16.4V13.2V10.6784C32.4032 10.304 32.0992 9.99683 31.7216 9.99683H10.6784ZM29.2 16.4V19.6V22.8V26V28.8096C29.2 29.0272 29.024 29.2 28.8096 29.2H13.5904C13.3728 29.2 13.2 29.024 13.2 28.8096V26V22.8V19.6V16.4V13.5904C13.2 13.3728 13.376 13.2 13.5904 13.2H28.8096C29.0272 13.2 29.2 13.376 29.2 13.5904V16.4Z" fill="#6C7284"/>
</g>
<path d="M26.0001 22.8V19.6V17.0784C26.0001 16.704 25.6961 16.3968 25.3185 16.3968H17.0785C16.7041 16.3968 16.3969 16.7008 16.3969 17.0784V19.6V22.8V25.3216C16.3969 25.696 16.7009 26.0032 17.0785 26.0032H25.3185C25.6929 26.0032 26.0001 25.6992 26.0001 25.3216V22.8Z" fill="#6C7284"/>
<g clip-path="url(#clip224_305_82339)">
<path d="M68.2784 9.99683C67.904 9.99683 67.5968 10.304 67.5968 10.6784V13.2V16.4V19.6V22.8V26V29.2V31.7216C67.5968 32.096 67.9008 32.4032 68.2784 32.4032H89.3216C89.696 32.4032 90.0032 32.0992 90.0032 31.7216V29.2V26V22.8V19.6V16.4V13.2V10.6784C90.0032 10.304 89.6992 9.99683 89.3216 9.99683H68.2784ZM86.8 16.4V19.6V22.8V26V28.8096C86.8 29.0272 86.624 29.2 86.4096 29.2H71.1904C70.9728 29.2 70.8 29.024 70.8 28.8096V26V22.8V19.6V16.4V13.5904C70.8 13.3728 70.976 13.2 71.1904 13.2H86.4096C86.6272 13.2 86.8 13.376 86.8 13.5904V16.4Z" fill="#6C7284"/>
</g>
<path d="M83.6 22.8V19.6V17.0784C83.6 16.704 83.296 16.3968 82.9184 16.3968H74.6784C74.304 16.3968 73.9968 16.7008 73.9968 17.0784V19.6V22.8V25.3216C73.9968 25.696 74.3008 26.0032 74.6784 26.0032H82.9184C83.2928 26.0032 83.6 25.6992 83.6 25.3216V22.8Z" fill="#6C7284"/>
<g clip-path="url(#clip225_305_82339)">
<path d="M10.6784 67.5968C10.304 67.5968 9.99683 67.904 9.99683 68.2784V70.8V74V77.2V80.4V83.6V86.8V89.3216C9.99683 89.696 10.3008 90.0032 10.6784 90.0032H31.7216C32.096 90.0032 32.4032 89.6992 32.4032 89.3216V86.8V83.6V80.4V77.2V74V70.8V68.2784C32.4032 67.904 32.0992 67.5968 31.7216 67.5968H10.6784ZM29.2 74V77.2V80.4V83.6V86.4096C29.2 86.6272 29.024 86.8 28.8096 86.8H13.5904C13.3728 86.8 13.2 86.624 13.2 86.4096V83.6V80.4V77.2V74V71.1904C13.2 70.9728 13.376 70.8 13.5904 70.8H28.8096C29.0272 70.8 29.2 70.976 29.2 71.1904V74Z" fill="#6C7284"/>
</g>
<path d="M26.0001 80.4V77.2V74.6784C26.0001 74.304 25.6961 73.9968 25.3185 73.9968H17.0785C16.7041 73.9968 16.3969 74.3008 16.3969 74.6784V77.2V80.4V82.9216C16.3969 83.296 16.7009 83.6032 17.0785 83.6032H25.3185C25.6929 83.6032 26.0001 83.2992 26.0001 82.9216V80.4Z" fill="#6C7284"/>
</g>
</g>
<rect x="1" y="1" width="98" height="98" rx="3" stroke="#A6AAB3" stroke-width="2"/>
<defs>
<clipPath id="clip0_305_82339">
<rect width="100" height="100" rx="4" fill="white"/>
</clipPath>
<clipPath id="clip1_305_82339">
<rect width="100" height="100" fill="white"/>
</clipPath>
<clipPath id="clip2_305_82339">
<rect width="3.2" height="3.2" fill="white" transform="translate(42 10)"/>
</clipPath>
<clipPath id="clip3_305_82339">
<rect width="3.2" height="3.2" fill="white" transform="translate(48.4 10)"/>
</clipPath>
<clipPath id="clip4_305_82339">
<rect width="3.2" height="3.2" fill="white" transform="translate(54.8 10)"/>
</clipPath>
<clipPath id="clip5_305_82339">
<rect width="3.2" height="3.2" fill="white" transform="translate(58 10)"/>
</clipPath>
<clipPath id="clip6_305_82339">
<rect width="3.2" height="3.2" fill="white" transform="translate(61.2 10)"/>
</clipPath>
<clipPath id="clip7_305_82339">
<rect width="3.2" height="3.2" fill="white" transform="translate(35.6 13.2)"/>
</clipPath>
<clipPath id="clip8_305_82339">
<rect width="3.2" height="3.2" fill="white" transform="translate(42 13.2)"/>
</clipPath>
<clipPath id="clip9_305_82339">
<rect width="3.2" height="3.2" fill="white" transform="translate(51.6 13.2)"/>
</clipPath>
<clipPath id="clip10_305_82339">
<rect width="3.2" height="3.2" fill="white" transform="translate(58 13.2)"/>
</clipPath>
<clipPath id="clip11_305_82339">
<rect width="3.2" height="3.2" fill="white" transform="translate(48.4 16.4)"/>
</clipPath>
<clipPath id="clip12_305_82339">
<rect width="3.2" height="3.2" fill="white" transform="translate(51.6 16.4)"/>
</clipPath>
<clipPath id="clip13_305_82339">
<rect width="3.2" height="3.2" fill="white" transform="translate(61.2 16.4)"/>
</clipPath>
<clipPath id="clip14_305_82339">
<rect width="3.2" height="3.2" fill="white" transform="translate(35.6 19.6)"/>
</clipPath>
<clipPath id="clip15_305_82339">
<rect width="3.2" height="3.2" fill="white" transform="translate(38.8 19.6)"/>
</clipPath>
<clipPath id="clip16_305_82339">
<rect width="3.2" height="3.2" fill="white" transform="translate(42 19.6)"/>
</clipPath>
<clipPath id="clip17_305_82339">
<rect width="3.2" height="3.2" fill="white" transform="translate(48.4 19.6)"/>
</clipPath>
<clipPath id="clip18_305_82339">
<rect width="3.2" height="3.2" fill="white" transform="translate(51.6 19.6)"/>
</clipPath>
<clipPath id="clip19_305_82339">
<rect width="3.2" height="3.2" fill="white" transform="translate(54.8 19.6)"/>
</clipPath>
<clipPath id="clip20_305_82339">
<rect width="3.2" height="3.2" fill="white" transform="translate(58 19.6)"/>
</clipPath>
<clipPath id="clip21_305_82339">
<rect width="3.2" height="3.2" fill="white" transform="translate(61.2 19.6)"/>
</clipPath>
<clipPath id="clip22_305_82339">
<rect width="3.2" height="3.2" fill="white" transform="translate(38.8 22.8)"/>
</clipPath>
<clipPath id="clip23_305_82339">
<rect width="3.2" height="3.2" fill="white" transform="translate(54.8 22.8)"/>
</clipPath>
<clipPath id="clip24_305_82339">
<rect width="3.2" height="3.2" fill="white" transform="translate(58 22.8)"/>
</clipPath>
<clipPath id="clip25_305_82339">
<rect width="3.2" height="3.2" fill="white" transform="translate(61.2 22.8)"/>
</clipPath>
<clipPath id="clip26_305_82339">
<rect width="3.2" height="3.2" fill="white" transform="translate(35.6 26)"/>
</clipPath>
<clipPath id="clip27_305_82339">
<rect width="3.2" height="3.2" fill="white" transform="translate(38.8 26)"/>
</clipPath>
<clipPath id="clip28_305_82339">
<rect width="3.2" height="3.2" fill="white" transform="translate(45.2 26)"/>
</clipPath>
<clipPath id="clip29_305_82339">
<rect width="3.2" height="3.2" fill="white" transform="translate(48.4 26)"/>
</clipPath>
<clipPath id="clip30_305_82339">
<rect width="3.2" height="3.2" fill="white" transform="translate(51.6 26)"/>
</clipPath>
<clipPath id="clip31_305_82339">
<rect width="3.2" height="3.2" fill="white" transform="translate(54.8 26)"/>
</clipPath>
<clipPath id="clip32_305_82339">
<rect width="3.2" height="3.2" fill="white" transform="translate(35.6 29.2)"/>
</clipPath>
<clipPath id="clip33_305_82339">
<rect width="3.2" height="3.2" fill="white" transform="translate(42 29.2)"/>
</clipPath>
<clipPath id="clip34_305_82339">
<rect width="3.2" height="3.2" fill="white" transform="translate(48.4 29.2)"/>
</clipPath>
<clipPath id="clip35_305_82339">
<rect width="3.2" height="3.2" fill="white" transform="translate(54.8 29.2)"/>
</clipPath>
<clipPath id="clip36_305_82339">
<rect width="3.2" height="3.2" fill="white" transform="translate(61.2 29.2)"/>
</clipPath>
<clipPath id="clip37_305_82339">
<rect width="3.2" height="3.2" fill="white" transform="translate(38.8 32.4)"/>
</clipPath>
<clipPath id="clip38_305_82339">
<rect width="3.2" height="3.2" fill="white" transform="translate(42 32.4)"/>
</clipPath>
<clipPath id="clip39_305_82339">
<rect width="3.2" height="3.2" fill="white" transform="translate(45.2 32.4)"/>
</clipPath>
<clipPath id="clip40_305_82339">
<rect width="3.2" height="3.2" fill="white" transform="translate(61.2 32.4)"/>
</clipPath>
<clipPath id="clip41_305_82339">
<rect width="3.2" height="3.2" fill="white" transform="translate(10 35.6)"/>
</clipPath>
<clipPath id="clip42_305_82339">
<rect width="3.2" height="3.2" fill="white" transform="translate(13.2 35.6)"/>
</clipPath>
<clipPath id="clip43_305_82339">
<rect width="3.2" height="3.2" fill="white" transform="translate(16.4 35.6)"/>
</clipPath>
<clipPath id="clip44_305_82339">
<rect width="3.2" height="3.2" fill="white" transform="translate(19.6 35.6)"/>
</clipPath>
<clipPath id="clip45_305_82339">
<rect width="3.2" height="3.2" fill="white" transform="translate(22.8 35.6)"/>
</clipPath>
<clipPath id="clip46_305_82339">
<rect width="3.2" height="3.2" fill="white" transform="translate(29.2 35.6)"/>
</clipPath>
<clipPath id="clip47_305_82339">
<rect width="3.2" height="3.2" fill="white" transform="translate(32.4 35.6)"/>
</clipPath>
<clipPath id="clip48_305_82339">
<rect width="3.2" height="3.2" fill="white" transform="translate(35.6 35.6)"/>
</clipPath>
<clipPath id="clip49_305_82339">
<rect width="3.2" height="3.2" fill="white" transform="translate(38.8 35.6)"/>
</clipPath>
<clipPath id="clip50_305_82339">
<rect width="3.2" height="3.2" fill="white" transform="translate(45.2 35.6)"/>
</clipPath>
<clipPath id="clip51_305_82339">
<rect width="3.2" height="3.2" fill="white" transform="translate(51.6 35.6)"/>
</clipPath>
<clipPath id="clip52_305_82339">
<rect width="3.2" height="3.2" fill="white" transform="translate(58 35.6)"/>
</clipPath>
<clipPath id="clip53_305_82339">
<rect width="3.2" height="3.2" fill="white" transform="translate(64.4 35.6)"/>
</clipPath>
<clipPath id="clip54_305_82339">
<rect width="3.2" height="3.2" fill="white" transform="translate(70.8 35.6)"/>
</clipPath>
<clipPath id="clip55_305_82339">
<rect width="3.2" height="3.2" fill="white" transform="translate(77.2 35.6)"/>
</clipPath>
<clipPath id="clip56_305_82339">
<rect width="3.2" height="3.2" fill="white" transform="translate(83.6 35.6)"/>
</clipPath>
<clipPath id="clip57_305_82339">
<rect width="3.2" height="3.2" fill="white" transform="translate(10 38.8)"/>
</clipPath>
<clipPath id="clip58_305_82339">
<rect width="3.2" height="3.2" fill="white" transform="translate(13.2 38.8)"/>
</clipPath>
<clipPath id="clip59_305_82339">
<rect width="3.2" height="3.2" fill="white" transform="translate(19.6 38.8)"/>
</clipPath>
<clipPath id="clip60_305_82339">
<rect width="3.2" height="3.2" fill="white" transform="translate(26 38.8)"/>
</clipPath>
<clipPath id="clip61_305_82339">
<rect width="3.2" height="3.2" fill="white" transform="translate(32.4 38.8)"/>
</clipPath>
<clipPath id="clip62_305_82339">
<rect width="3.2" height="3.2" fill="white" transform="translate(35.6 38.8)"/>
</clipPath>
<clipPath id="clip63_305_82339">
<rect width="3.2" height="3.2" fill="white" transform="translate(42 38.8)"/>
</clipPath>
<clipPath id="clip64_305_82339">
<rect width="3.2" height="3.2" fill="white" transform="translate(48.4 38.8)"/>
</clipPath>
<clipPath id="clip65_305_82339">
<rect width="3.2" height="3.2" fill="white" transform="translate(61.2 38.8)"/>
</clipPath>
<clipPath id="clip66_305_82339">
<rect width="3.2" height="3.2" fill="white" transform="translate(64.4 38.8)"/>
</clipPath>
<clipPath id="clip67_305_82339">
<rect width="3.2" height="3.2" fill="white" transform="translate(70.8 38.8)"/>
</clipPath>
<clipPath id="clip68_305_82339">
<rect width="3.2" height="3.2" fill="white" transform="translate(74 38.8)"/>
</clipPath>
<clipPath id="clip69_305_82339">
<rect width="3.2" height="3.2" fill="white" transform="translate(86.8 38.8)"/>
</clipPath>
<clipPath id="clip70_305_82339">
<rect width="3.2" height="3.2" fill="white" transform="translate(10 42)"/>
</clipPath>
<clipPath id="clip71_305_82339">
<rect width="3.2" height="3.2" fill="white" transform="translate(13.2 42)"/>
</clipPath>
<clipPath id="clip72_305_82339">
<rect width="3.2" height="3.2" fill="white" transform="translate(16.4 42)"/>
</clipPath>
<clipPath id="clip73_305_82339">
<rect width="3.2" height="3.2" fill="white" transform="translate(29.2 42)"/>
</clipPath>
<clipPath id="clip74_305_82339">
<rect width="3.2" height="3.2" fill="white" transform="translate(35.6 42)"/>
</clipPath>
<clipPath id="clip75_305_82339">
<rect width="3.2" height="3.2" fill="white" transform="translate(42 42)"/>
</clipPath>
<clipPath id="clip76_305_82339">
<rect width="3.2" height="3.2" fill="white" transform="translate(51.6 42)"/>
</clipPath>
<clipPath id="clip77_305_82339">
<rect width="3.2" height="3.2" fill="white" transform="translate(54.8 42)"/>
</clipPath>
<clipPath id="clip78_305_82339">
<rect width="3.2" height="3.2" fill="white" transform="translate(64.4 42)"/>
</clipPath>
<clipPath id="clip79_305_82339">
<rect width="3.2" height="3.2" fill="white" transform="translate(67.6 42)"/>
</clipPath>
<clipPath id="clip80_305_82339">
<rect width="3.2" height="3.2" fill="white" transform="translate(74 42)"/>
</clipPath>
<clipPath id="clip81_305_82339">
<rect width="3.2" height="3.2" fill="white" transform="translate(80.4 42)"/>
</clipPath>
<clipPath id="clip82_305_82339">
<rect width="3.2" height="3.2" fill="white" transform="translate(10 45.2)"/>
</clipPath>
<clipPath id="clip83_305_82339">
<rect width="3.2" height="3.2" fill="white" transform="translate(13.2 45.2)"/>
</clipPath>
<clipPath id="clip84_305_82339">
<rect width="3.2" height="3.2" fill="white" transform="translate(16.4 45.2)"/>
</clipPath>
<clipPath id="clip85_305_82339">
<rect width="3.2" height="3.2" fill="white" transform="translate(19.6 45.2)"/>
</clipPath>
<clipPath id="clip86_305_82339">
<rect width="3.2" height="3.2" fill="white" transform="translate(35.6 45.2)"/>
</clipPath>
<clipPath id="clip87_305_82339">
<rect width="3.2" height="3.2" fill="white" transform="translate(48.4 45.2)"/>
</clipPath>
<clipPath id="clip88_305_82339">
<rect width="3.2" height="3.2" fill="white" transform="translate(19.6 48.4)"/>
</clipPath>
<clipPath id="clip89_305_82339">
<rect width="3.2" height="3.2" fill="white" transform="translate(22.8 48.4)"/>
</clipPath>
<clipPath id="clip90_305_82339">
<rect width="3.2" height="3.2" fill="white" transform="translate(26 48.4)"/>
</clipPath>
<clipPath id="clip91_305_82339">
<rect width="3.2" height="3.2" fill="white" transform="translate(29.2 48.4)"/>
</clipPath>
<clipPath id="clip92_305_82339">
<rect width="3.2" height="3.2" fill="white" transform="translate(38.8 48.4)"/>
</clipPath>
<clipPath id="clip93_305_82339">
<rect width="3.2" height="3.2" fill="white" transform="translate(42 48.4)"/>
</clipPath>
<clipPath id="clip94_305_82339">
<rect width="3.2" height="3.2" fill="white" transform="translate(48.4 48.4)"/>
</clipPath>
<clipPath id="clip95_305_82339">
<rect width="3.2" height="3.2" fill="white" transform="translate(54.8 48.4)"/>
</clipPath>
<clipPath id="clip96_305_82339">
<rect width="3.2" height="3.2" fill="white" transform="translate(58 48.4)"/>
</clipPath>
<clipPath id="clip97_305_82339">
<rect width="3.2" height="3.2" fill="white" transform="translate(64.4 48.4)"/>
</clipPath>
<clipPath id="clip98_305_82339">
<rect width="3.2" height="3.2" fill="white" transform="translate(70.8 48.4)"/>
</clipPath>
<clipPath id="clip99_305_82339">
<rect width="3.2" height="3.2" fill="white" transform="translate(74 48.4)"/>
</clipPath>
<clipPath id="clip100_305_82339">
<rect width="3.2" height="3.2" fill="white" transform="translate(77.2 48.4)"/>
</clipPath>
<clipPath id="clip101_305_82339">
<rect width="3.2" height="3.2" fill="white" transform="translate(83.6 48.4)"/>
</clipPath>
<clipPath id="clip102_305_82339">
<rect width="3.2" height="3.2" fill="white" transform="translate(86.8 48.4)"/>
</clipPath>
<clipPath id="clip103_305_82339">
<rect width="3.2" height="3.2" fill="white" transform="translate(10 51.6)"/>
</clipPath>
<clipPath id="clip104_305_82339">
<rect width="3.2" height="3.2" fill="white" transform="translate(19.6 51.6)"/>
</clipPath>
<clipPath id="clip105_305_82339">
<rect width="3.2" height="3.2" fill="white" transform="translate(22.8 51.6)"/>
</clipPath>
<clipPath id="clip106_305_82339">
<rect width="3.2" height="3.2" fill="white" transform="translate(26 51.6)"/>
</clipPath>
<clipPath id="clip107_305_82339">
<rect width="3.2" height="3.2" fill="white" transform="translate(38.8 51.6)"/>
</clipPath>
<clipPath id="clip108_305_82339">
<rect width="3.2" height="3.2" fill="white" transform="translate(54.8 51.6)"/>
</clipPath>
<clipPath id="clip109_305_82339">
<rect width="3.2" height="3.2" fill="white" transform="translate(58 51.6)"/>
</clipPath>
<clipPath id="clip110_305_82339">
<rect width="3.2" height="3.2" fill="white" transform="translate(61.2 51.6)"/>
</clipPath>
<clipPath id="clip111_305_82339">
<rect width="3.2" height="3.2" fill="white" transform="translate(67.6 51.6)"/>
</clipPath>
<clipPath id="clip112_305_82339">
<rect width="3.2" height="3.2" fill="white" transform="translate(70.8 51.6)"/>
</clipPath>
<clipPath id="clip113_305_82339">
<rect width="3.2" height="3.2" fill="white" transform="translate(74 51.6)"/>
</clipPath>
<clipPath id="clip114_305_82339">
<rect width="3.2" height="3.2" fill="white" transform="translate(83.6 51.6)"/>
</clipPath>
<clipPath id="clip115_305_82339">
<rect width="3.2" height="3.2" fill="white" transform="translate(10 54.8)"/>
</clipPath>
<clipPath id="clip116_305_82339">
<rect width="3.2" height="3.2" fill="white" transform="translate(19.6 54.8)"/>
</clipPath>
<clipPath id="clip117_305_82339">
<rect width="3.2" height="3.2" fill="white" transform="translate(22.8 54.8)"/>
</clipPath>
<clipPath id="clip118_305_82339">
<rect width="3.2" height="3.2" fill="white" transform="translate(29.2 54.8)"/>
</clipPath>
<clipPath id="clip119_305_82339">
<rect width="3.2" height="3.2" fill="white" transform="translate(35.6 54.8)"/>
</clipPath>
<clipPath id="clip120_305_82339">
<rect width="3.2" height="3.2" fill="white" transform="translate(45.2 54.8)"/>
</clipPath>
<clipPath id="clip121_305_82339">
<rect width="3.2" height="3.2" fill="white" transform="translate(48.4 54.8)"/>
</clipPath>
<clipPath id="clip122_305_82339">
<rect width="3.2" height="3.2" fill="white" transform="translate(54.8 54.8)"/>
</clipPath>
<clipPath id="clip123_305_82339">
<rect width="3.2" height="3.2" fill="white" transform="translate(58 54.8)"/>
</clipPath>
<clipPath id="clip124_305_82339">
<rect width="3.2" height="3.2" fill="white" transform="translate(67.6 54.8)"/>
</clipPath>
<clipPath id="clip125_305_82339">
<rect width="3.2" height="3.2" fill="white" transform="translate(74 54.8)"/>
</clipPath>
<clipPath id="clip126_305_82339">
<rect width="3.2" height="3.2" fill="white" transform="translate(80.4 54.8)"/>
</clipPath>
<clipPath id="clip127_305_82339">
<rect width="3.2" height="3.2" fill="white" transform="translate(83.6 54.8)"/>
</clipPath>
<clipPath id="clip128_305_82339">
<rect width="3.2" height="3.2" fill="white" transform="translate(86.8 54.8)"/>
</clipPath>
<clipPath id="clip129_305_82339">
<rect width="3.2" height="3.2" fill="white" transform="translate(10 58)"/>
</clipPath>
<clipPath id="clip130_305_82339">
<rect width="3.2" height="3.2" fill="white" transform="translate(16.4 58)"/>
</clipPath>
<clipPath id="clip131_305_82339">
<rect width="3.2" height="3.2" fill="white" transform="translate(22.8 58)"/>
</clipPath>
<clipPath id="clip132_305_82339">
<rect width="3.2" height="3.2" fill="white" transform="translate(26 58)"/>
</clipPath>
<clipPath id="clip133_305_82339">
<rect width="3.2" height="3.2" fill="white" transform="translate(35.6 58)"/>
</clipPath>
<clipPath id="clip134_305_82339">
<rect width="3.2" height="3.2" fill="white" transform="translate(38.8 58)"/>
</clipPath>
<clipPath id="clip135_305_82339">
<rect width="3.2" height="3.2" fill="white" transform="translate(45.2 58)"/>
</clipPath>
<clipPath id="clip136_305_82339">
<rect width="3.2" height="3.2" fill="white" transform="translate(51.6 58)"/>
</clipPath>
<clipPath id="clip137_305_82339">
<rect width="3.2" height="3.2" fill="white" transform="translate(61.2 58)"/>
</clipPath>
<clipPath id="clip138_305_82339">
<rect width="3.2" height="3.2" fill="white" transform="translate(83.6 58)"/>
</clipPath>
<clipPath id="clip139_305_82339">
<rect width="3.2" height="3.2" fill="white" transform="translate(86.8 58)"/>
</clipPath>
<clipPath id="clip140_305_82339">
<rect width="3.2" height="3.2" fill="white" transform="translate(10 61.2)"/>
</clipPath>
<clipPath id="clip141_305_82339">
<rect width="3.2" height="3.2" fill="white" transform="translate(16.4 61.2)"/>
</clipPath>
<clipPath id="clip142_305_82339">
<rect width="3.2" height="3.2" fill="white" transform="translate(26 61.2)"/>
</clipPath>
<clipPath id="clip143_305_82339">
<rect width="3.2" height="3.2" fill="white" transform="translate(29.2 61.2)"/>
</clipPath>
<clipPath id="clip144_305_82339">
<rect width="3.2" height="3.2" fill="white" transform="translate(45.2 61.2)"/>
</clipPath>
<clipPath id="clip145_305_82339">
<rect width="3.2" height="3.2" fill="white" transform="translate(48.4 61.2)"/>
</clipPath>
<clipPath id="clip146_305_82339">
<rect width="3.2" height="3.2" fill="white" transform="translate(54.8 61.2)"/>
</clipPath>
<clipPath id="clip147_305_82339">
<rect width="3.2" height="3.2" fill="white" transform="translate(58 61.2)"/>
</clipPath>
<clipPath id="clip148_305_82339">
<rect width="3.2" height="3.2" fill="white" transform="translate(61.2 61.2)"/>
</clipPath>
<clipPath id="clip149_305_82339">
<rect width="3.2" height="3.2" fill="white" transform="translate(64.4 61.2)"/>
</clipPath>
<clipPath id="clip150_305_82339">
<rect width="3.2" height="3.2" fill="white" transform="translate(67.6 61.2)"/>
</clipPath>
<clipPath id="clip151_305_82339">
<rect width="3.2" height="3.2" fill="white" transform="translate(70.8 61.2)"/>
</clipPath>
<clipPath id="clip152_305_82339">
<rect width="3.2" height="3.2" fill="white" transform="translate(74 61.2)"/>
</clipPath>
<clipPath id="clip153_305_82339">
<rect width="3.2" height="3.2" fill="white" transform="translate(77.2 61.2)"/>
</clipPath>
<clipPath id="clip154_305_82339">
<rect width="3.2" height="3.2" fill="white" transform="translate(86.8 61.2)"/>
</clipPath>
<clipPath id="clip155_305_82339">
<rect width="3.2" height="3.2" fill="white" transform="translate(35.6 64.4)"/>
</clipPath>
<clipPath id="clip156_305_82339">
<rect width="3.2" height="3.2" fill="white" transform="translate(38.8 64.4)"/>
</clipPath>
<clipPath id="clip157_305_82339">
<rect width="3.2" height="3.2" fill="white" transform="translate(48.4 64.4)"/>
</clipPath>
<clipPath id="clip158_305_82339">
<rect width="3.2" height="3.2" fill="white" transform="translate(61.2 64.4)"/>
</clipPath>
<clipPath id="clip159_305_82339">
<rect width="3.2" height="3.2" fill="white" transform="translate(74 64.4)"/>
</clipPath>
<clipPath id="clip160_305_82339">
<rect width="3.2" height="3.2" fill="white" transform="translate(86.8 64.4)"/>
</clipPath>
<clipPath id="clip161_305_82339">
<rect width="3.2" height="3.2" fill="white" transform="translate(35.6 67.6)"/>
</clipPath>
<clipPath id="clip162_305_82339">
<rect width="3.2" height="3.2" fill="white" transform="translate(38.8 67.6)"/>
</clipPath>
<clipPath id="clip163_305_82339">
<rect width="3.2" height="3.2" fill="white" transform="translate(42 67.6)"/>
</clipPath>
<clipPath id="clip164_305_82339">
<rect width="3.2" height="3.2" fill="white" transform="translate(48.4 67.6)"/>
</clipPath>
<clipPath id="clip165_305_82339">
<rect width="3.2" height="3.2" fill="white" transform="translate(54.8 67.6)"/>
</clipPath>
<clipPath id="clip166_305_82339">
<rect width="3.2" height="3.2" fill="white" transform="translate(58 67.6)"/>
</clipPath>
<clipPath id="clip167_305_82339">
<rect width="3.2" height="3.2" fill="white" transform="translate(61.2 67.6)"/>
</clipPath>
<clipPath id="clip168_305_82339">
<rect width="3.2" height="3.2" fill="white" transform="translate(67.6 67.6)"/>
</clipPath>
<clipPath id="clip169_305_82339">
<rect width="3.2" height="3.2" fill="white" transform="translate(74 67.6)"/>
</clipPath>
<clipPath id="clip170_305_82339">
<rect width="3.2" height="3.2" fill="white" transform="translate(80.4 67.6)"/>
</clipPath>
<clipPath id="clip171_305_82339">
<rect width="3.2" height="3.2" fill="white" transform="translate(83.6 67.6)"/>
</clipPath>
<clipPath id="clip172_305_82339">
<rect width="3.2" height="3.2" fill="white" transform="translate(86.8 67.6)"/>
</clipPath>
<clipPath id="clip173_305_82339">
<rect width="3.2" height="3.2" fill="white" transform="translate(42 70.8)"/>
</clipPath>
<clipPath id="clip174_305_82339">
<rect width="3.2" height="3.2" fill="white" transform="translate(48.4 70.8)"/>
</clipPath>
<clipPath id="clip175_305_82339">
<rect width="3.2" height="3.2" fill="white" transform="translate(54.8 70.8)"/>
</clipPath>
<clipPath id="clip176_305_82339">
<rect width="3.2" height="3.2" fill="white" transform="translate(58 70.8)"/>
</clipPath>
<clipPath id="clip177_305_82339">
<rect width="3.2" height="3.2" fill="white" transform="translate(61.2 70.8)"/>
</clipPath>
<clipPath id="clip178_305_82339">
<rect width="3.2" height="3.2" fill="white" transform="translate(74 70.8)"/>
</clipPath>
<clipPath id="clip179_305_82339">
<rect width="3.2" height="3.2" fill="white" transform="translate(77.2 70.8)"/>
</clipPath>
<clipPath id="clip180_305_82339">
<rect width="3.2" height="3.2" fill="white" transform="translate(35.6 74)"/>
</clipPath>
<clipPath id="clip181_305_82339">
<rect width="3.2" height="3.2" fill="white" transform="translate(38.8 74)"/>
</clipPath>
<clipPath id="clip182_305_82339">
<rect width="3.2" height="3.2" fill="white" transform="translate(48.4 74)"/>
</clipPath>
<clipPath id="clip183_305_82339">
<rect width="3.2" height="3.2" fill="white" transform="translate(51.6 74)"/>
</clipPath>
<clipPath id="clip184_305_82339">
<rect width="3.2" height="3.2" fill="white" transform="translate(58 74)"/>
</clipPath>
<clipPath id="clip185_305_82339">
<rect width="3.2" height="3.2" fill="white" transform="translate(61.2 74)"/>
</clipPath>
<clipPath id="clip186_305_82339">
<rect width="3.2" height="3.2" fill="white" transform="translate(64.4 74)"/>
</clipPath>
<clipPath id="clip187_305_82339">
<rect width="3.2" height="3.2" fill="white" transform="translate(67.6 74)"/>
</clipPath>
<clipPath id="clip188_305_82339">
<rect width="3.2" height="3.2" fill="white" transform="translate(70.8 74)"/>
</clipPath>
<clipPath id="clip189_305_82339">
<rect width="3.2" height="3.2" fill="white" transform="translate(74 74)"/>
</clipPath>
<clipPath id="clip190_305_82339">
<rect width="3.2" height="3.2" fill="white" transform="translate(77.2 74)"/>
</clipPath>
<clipPath id="clip191_305_82339">
<rect width="3.2" height="3.2" fill="white" transform="translate(35.6 77.2)"/>
</clipPath>
<clipPath id="clip192_305_82339">
<rect width="3.2" height="3.2" fill="white" transform="translate(42 77.2)"/>
</clipPath>
<clipPath id="clip193_305_82339">
<rect width="3.2" height="3.2" fill="white" transform="translate(48.4 77.2)"/>
</clipPath>
<clipPath id="clip194_305_82339">
<rect width="3.2" height="3.2" fill="white" transform="translate(58 77.2)"/>
</clipPath>
<clipPath id="clip195_305_82339">
<rect width="3.2" height="3.2" fill="white" transform="translate(61.2 77.2)"/>
</clipPath>
<clipPath id="clip196_305_82339">
<rect width="3.2" height="3.2" fill="white" transform="translate(64.4 77.2)"/>
</clipPath>
<clipPath id="clip197_305_82339">
<rect width="3.2" height="3.2" fill="white" transform="translate(74 77.2)"/>
</clipPath>
<clipPath id="clip198_305_82339">
<rect width="3.2" height="3.2" fill="white" transform="translate(83.6 77.2)"/>
</clipPath>
<clipPath id="clip199_305_82339">
<rect width="3.2" height="3.2" fill="white" transform="translate(86.8 77.2)"/>
</clipPath>
<clipPath id="clip200_305_82339">
<rect width="3.2" height="3.2" fill="white" transform="translate(35.6 80.4)"/>
</clipPath>
<clipPath id="clip201_305_82339">
<rect width="3.2" height="3.2" fill="white" transform="translate(38.8 80.4)"/>
</clipPath>
<clipPath id="clip202_305_82339">
<rect width="3.2" height="3.2" fill="white" transform="translate(54.8 80.4)"/>
</clipPath>
<clipPath id="clip203_305_82339">
<rect width="3.2" height="3.2" fill="white" transform="translate(74 80.4)"/>
</clipPath>
<clipPath id="clip204_305_82339">
<rect width="3.2" height="3.2" fill="white" transform="translate(80.4 80.4)"/>
</clipPath>
<clipPath id="clip205_305_82339">
<rect width="3.2" height="3.2" fill="white" transform="translate(86.8 80.4)"/>
</clipPath>
<clipPath id="clip206_305_82339">
<rect width="3.2" height="3.2" fill="white" transform="translate(35.6 83.6)"/>
</clipPath>
<clipPath id="clip207_305_82339">
<rect width="3.2" height="3.2" fill="white" transform="translate(42 83.6)"/>
</clipPath>
<clipPath id="clip208_305_82339">
<rect width="3.2" height="3.2" fill="white" transform="translate(45.2 83.6)"/>
</clipPath>
<clipPath id="clip209_305_82339">
<rect width="3.2" height="3.2" fill="white" transform="translate(48.4 83.6)"/>
</clipPath>
<clipPath id="clip210_305_82339">
<rect width="3.2" height="3.2" fill="white" transform="translate(54.8 83.6)"/>
</clipPath>
<clipPath id="clip211_305_82339">
<rect width="3.2" height="3.2" fill="white" transform="translate(64.4 83.6)"/>
</clipPath>
<clipPath id="clip212_305_82339">
<rect width="3.2" height="3.2" fill="white" transform="translate(67.6 83.6)"/>
</clipPath>
<clipPath id="clip213_305_82339">
<rect width="3.2" height="3.2" fill="white" transform="translate(70.8 83.6)"/>
</clipPath>
<clipPath id="clip214_305_82339">
<rect width="3.2" height="3.2" fill="white" transform="translate(74 83.6)"/>
</clipPath>
<clipPath id="clip215_305_82339">
<rect width="3.2" height="3.2" fill="white" transform="translate(77.2 83.6)"/>
</clipPath>
<clipPath id="clip216_305_82339">
<rect width="3.2" height="3.2" fill="white" transform="translate(83.6 83.6)"/>
</clipPath>
<clipPath id="clip217_305_82339">
<rect width="3.2" height="3.2" fill="white" transform="translate(35.6 86.8)"/>
</clipPath>
<clipPath id="clip218_305_82339">
<rect width="3.2" height="3.2" fill="white" transform="translate(38.8 86.8)"/>
</clipPath>
<clipPath id="clip219_305_82339">
<rect width="3.2" height="3.2" fill="white" transform="translate(42 86.8)"/>
</clipPath>
<clipPath id="clip220_305_82339">
<rect width="3.2" height="3.2" fill="white" transform="translate(80.4 86.8)"/>
</clipPath>
<clipPath id="clip221_305_82339">
<rect width="3.2" height="3.2" fill="white" transform="translate(83.6 86.8)"/>
</clipPath>
<clipPath id="clip222_305_82339">
<rect width="3.2" height="3.2" fill="white" transform="translate(86.8 86.8)"/>
</clipPath>
<clipPath id="clip223_305_82339">
<rect width="22.4" height="22.4" fill="white" transform="translate(10 10)"/>
</clipPath>
<clipPath id="clip224_305_82339">
<rect width="22.4" height="22.4" fill="white" transform="translate(67.6 10)"/>
</clipPath>
<clipPath id="clip225_305_82339">
<rect width="22.4" height="22.4" fill="white" transform="translate(10 67.6)"/>
</clipPath>
</defs>
</svg>
