<svg width="20" height="20" viewBox="0 0 20 20" fill="none" xmlns="http://www.w3.org/2000/svg">
<path d="M10.425 8.32502C10.425 6.95002 9.29996 5.82502 7.92496 5.82502C6.54996 5.82502 5.42496 6.95002 5.42496 8.32502C5.42496 9.70002 6.54996 10.825 7.92496 10.825C9.29996 10.825 10.425 9.70002 10.425 8.32502ZM7.92496 9.15835C7.46663 9.15835 7.09163 8.78335 7.09163 8.32502C7.09163 7.86669 7.46663 7.49169 7.92496 7.49169C8.38329 7.49169 8.75829 7.86669 8.75829 8.32502C8.75829 8.78335 8.38329 9.15835 7.92496 9.15835ZM13.3416 10.825C14.2666 10.825 15.0083 10.0834 15.0083 9.15835C15.0083 8.23335 14.2666 7.49169 13.3416 7.49169C12.4166 7.49169 11.6666 8.23335 11.675 9.15835C11.675 10.0834 12.4166 10.825 13.3416 10.825ZM9.99996 1.66669C5.39996 1.66669 1.66663 5.40002 1.66663 10C1.66663 14.6 5.39996 18.3334 9.99996 18.3334C14.6 18.3334 18.3333 14.6 18.3333 10C18.3333 5.40002 14.6 1.66669 9.99996 1.66669ZM4.87496 14.2584C5.44163 13.8084 6.76663 13.3334 7.92496 13.3334C7.98329 13.3334 8.04996 13.3417 8.11663 13.3417C8.31663 12.8084 8.67496 12.2667 9.19996 11.7917C8.73329 11.7084 8.29163 11.6584 7.92496 11.6584C6.84163 11.6584 5.09996 12.0334 3.98329 12.85C3.56663 11.9834 3.33329 11.0167 3.33329 9.99169C3.33329 6.31669 6.32496 3.32502 9.99996 3.32502C13.675 3.32502 16.6666 6.31669 16.6666 9.99169C16.6666 10.9917 16.4416 11.9417 16.0416 12.8C15.2083 12.3084 14.075 12.075 13.3416 12.075C12.075 12.075 9.59163 12.75 9.59163 14.325V16.6417C7.69996 16.5334 6.01663 15.6334 4.87496 14.2584Z" fill="#6C7284"/>
</svg>
