<svg width="100" height="100" viewBox="0 0 100 100" fill="none" xmlns="http://www.w3.org/2000/svg">
<ellipse opacity="0.05" cx="50" cy="50" rx="50" ry="50" fill="#EE0088"/>
<path d="M82.4644 83C82.4644 85.7614 80.2259 88 77.4644 88H22.1428C19.3814 88 17.1428 85.7614 17.1428 83V35.4842C17.1428 33.7729 18.018 32.1806 19.4625 31.2633L47.1186 13.7017C48.7542 12.6631 50.8427 12.6629 52.4785 13.7013L80.1441 31.2633C81.589 32.1806 82.4644 33.7732 82.4644 35.4846V83Z" fill="#E34FA4"/>
<path opacity="0.2" d="M82.4644 83C82.4644 85.7614 80.2259 88 77.4644 88H22.1428C19.3814 88 17.1428 85.7614 17.1428 83V35.4842C17.1428 33.7729 18.018 32.1806 19.4625 31.2633L47.1186 13.7017C48.7542 12.6631 50.8427 12.6629 52.4785 13.7013L80.1441 31.2633C81.589 32.1806 82.4644 33.7732 82.4644 35.4846V83Z" fill="black"/>
<path d="M75.7779 26.2031H23.8237C22.1669 26.2031 20.8237 27.5462 20.8237 29.2031V82.8466C20.8237 84.5034 22.1669 85.8466 23.8237 85.8466H75.7779C77.4347 85.8466 78.7779 84.5035 78.7779 82.8466V29.2031C78.7779 27.5462 77.4347 26.2031 75.7779 26.2031Z" fill="#FCFCFC"/>
<path d="M28.0021 36.0003L72.1639 36.0003C73.0065 36.0003 73.6896 35.3172 73.6896 34.4746C73.6896 33.632 73.0065 32.9489 72.1639 32.9489L28.0021 32.9489C27.1594 32.9489 26.4764 33.632 26.4764 34.4746C26.4764 35.3172 27.1594 36.0003 28.0021 36.0003Z" fill="#DBDBDB"/>
<path d="M28.0021 40.8181L72.1639 40.8181C73.0065 40.8181 73.6896 40.135 73.6896 39.2923C73.6896 38.4497 73.0065 37.7666 72.1639 37.7666L28.0021 37.7666C27.1594 37.7666 26.4764 38.4497 26.4764 39.2923C26.4764 40.135 27.1594 40.8181 28.0021 40.8181Z" fill="#DBDBDB"/>
<path d="M28.0021 45.6411L72.1639 45.6411C73.0065 45.6411 73.6896 44.958 73.6896 44.1154C73.6896 43.2727 73.0065 42.5897 72.1639 42.5897L28.0021 42.5897C27.1594 42.5897 26.4764 43.2727 26.4764 44.1154C26.4764 44.958 27.1594 45.6411 28.0021 45.6411Z" fill="#DBDBDB"/>
<path d="M28.0021 50.4641L72.1639 50.4641C73.0065 50.4641 73.6896 49.781 73.6896 48.9383C73.6896 48.0957 73.0065 47.4126 72.1639 47.4126L28.0021 47.4126C27.1594 47.4126 26.4764 48.0957 26.4764 48.9383C26.4764 49.781 27.1594 50.4641 28.0021 50.4641Z" fill="#DBDBDB"/>
<path d="M26.4764 69.7508H73.6896V67.8424H26.4764V69.7508Z" fill="#DBDBDB"/>
<path d="M26.4764 74.5739H73.6896V72.6655H26.4764V74.5739Z" fill="#DBDBDB"/>
<path d="M26.4764 79.3968H73.6896V77.4885H26.4764V79.3968Z" fill="#DBDBDB"/>
<path d="M82.4644 46.5692V88H17.1428V46.5692C19.948 48.1594 22.7062 49.8279 25.4853 51.4547C28.2644 53.0815 31.0174 54.7709 33.7652 56.4602C36.8102 58.3234 39.8657 60.2126 42.9315 62.1279L43.0306 62.0705C42.9993 62.0705 42.9784 62.1174 42.9524 62.1383L49.8036 66.4242C52.0769 64.9956 54.3659 63.5513 56.6497 62.1383C56.6236 62.1383 56.6027 62.0914 56.5715 62.0705C56.6012 62.0924 56.6348 62.1083 56.6705 62.1175C59.719 60.2126 62.7762 58.3233 65.842 56.4498C68.5916 54.7708 71.3481 53.1058 74.1115 51.4547C76.9167 49.8279 79.6593 48.1594 82.4644 46.5692Z" fill="#E34FA4"/>
<g opacity="0.2">
<path d="M43.0248 62.0706C42.9936 62.0706 42.9727 62.1175 42.9466 62.1384L41.9038 63.0143C40.2666 64.3961 38.5877 65.7204 36.8827 67.0031C34.7971 68.5673 32.675 70.1315 30.5372 71.6279C28.3994 73.1244 26.2304 74.5791 24.0196 75.9921C21.8089 77.4051 19.5877 78.7868 17.2831 80.0538C19.2644 78.3176 21.324 76.696 23.4044 75.1161C25.4848 73.5363 27.6225 71.9877 29.7499 70.4965C31.8772 69.0053 34.0671 67.5349 36.2726 66.1219C38.0298 64.9957 39.8182 63.8851 41.6379 62.8475C42.0602 62.6024 42.4826 62.3626 42.9153 62.1279L43.0248 62.0706Z" fill="black"/>
<path d="M82.3078 80.0538C80.0031 78.7868 77.7663 77.4051 75.5712 75.9921C73.3761 74.5791 71.2018 73.1087 69.0432 71.6279C66.8846 70.1471 64.7781 68.5934 62.6977 67.0031C61.0032 65.7204 59.3242 64.396 57.6974 63.0195C57.3429 62.7275 56.9988 62.4356 56.6546 62.1384C56.6286 62.1384 56.6077 62.0914 56.5764 62.0706C56.6061 62.0925 56.6398 62.1084 56.6755 62.1175L57.9529 62.8475C59.7726 63.8903 61.5506 64.9957 63.3182 66.1219C65.5237 67.5349 67.6823 69.0053 69.8305 70.4965C71.9787 71.9877 74.0956 73.5311 76.176 75.1161C78.2564 76.7012 80.3264 78.3176 82.3078 80.0538Z" fill="black"/>
</g>
</svg>
