<svg width="102" height="102" viewBox="0 0 102 102" fill="none" xmlns="http://www.w3.org/2000/svg">
<ellipse opacity="0.05" cx="51.7143" cy="51.1429" rx="50" ry="50" fill="#EE0088"/>
<path d="M88.1492 30.4287C88.1492 27.6672 85.9106 25.4287 83.1492 25.4287H20.6142C17.8528 25.4287 15.6142 27.6672 15.6142 30.4287V51.3689C15.6142 53.0801 16.4894 54.6725 17.934 55.5898L49.1961 75.4412C50.8317 76.4798 52.9202 76.48 54.556 75.4416L85.8288 55.5897C87.2738 54.6724 88.1492 53.0799 88.1492 51.3684V30.4287Z" fill="#E34FA4"/>
<path opacity="0.2" d="M88.1492 30.4287C88.1492 27.6672 85.9106 25.4287 83.1492 25.4287H20.6142C17.8528 25.4287 15.6142 27.6672 15.6142 30.4287V51.3689C15.6142 53.0801 16.4894 54.6725 17.934 55.5898L49.1961 75.4412C50.8317 76.4798 52.9202 76.48 54.556 75.4416L85.8288 55.5897C87.2738 54.6724 88.1492 53.0799 88.1492 51.3684V30.4287Z" fill="black"/>
<path d="M25.9786 56.8785L78.4055 56.8785V54.7594L25.9786 54.7594V56.8785Z" fill="#DBDBDB"/>
<path d="M25.9786 62.234L78.4055 62.234V60.115L25.9786 60.115V62.234Z" fill="#DBDBDB"/>
<path d="M25.9786 67.5896H78.4055V65.4705H25.9786V67.5896Z" fill="#DBDBDB"/>
<path d="M88.1492 31.137V77.1429H15.6142V31.137C18.7292 32.9029 21.792 34.7556 24.8779 36.562C27.9639 38.3685 31.021 40.2444 34.0722 42.1203C37.4535 44.1892 40.8463 46.287 44.2507 48.4138L44.3607 48.3501C44.326 48.3501 44.3028 48.4022 44.2739 48.4254L51.8817 53.1846C54.4061 51.5982 56.9478 49.9944 59.4837 48.4254C59.4548 48.4254 59.4316 48.3733 59.3969 48.3501C59.4299 48.3744 59.4672 48.3921 59.5069 48.4022C62.892 46.287 66.2868 44.1892 69.6912 42.1087C72.7444 40.2443 75.8053 38.3955 78.8739 36.562C81.9888 34.7556 85.0342 32.9029 88.1492 31.137Z" fill="#E34FA4"/>
<g opacity="0.2">
<path d="M44.3543 48.3501C44.3196 48.3501 44.2964 48.4022 44.2675 48.4253L43.1095 49.398C41.2915 50.9323 39.4272 52.4029 37.5339 53.8272C35.218 55.5642 32.8615 57.3011 30.4877 58.9628C28.1138 60.6245 25.7053 62.2399 23.2504 63.8089C20.7955 65.3779 18.329 66.9122 15.7699 68.3192C17.9701 66.3912 20.257 64.5905 22.5672 62.8362C24.8773 61.0819 27.2511 59.3623 29.6134 57.7064C31.9756 56.0505 34.4074 54.4178 36.8565 52.8488C38.8076 51.5982 40.7936 50.3649 42.8142 49.2127C43.2832 48.9406 43.7522 48.6743 44.2327 48.4137L44.3543 48.3501Z" fill="black"/>
<path d="M87.9754 68.3192C85.4163 66.9122 82.9325 65.3779 80.4949 63.8089C78.0574 62.2398 75.6431 60.6071 73.2461 58.9628C70.8491 57.3185 68.51 55.5931 66.1999 53.8272C64.3182 52.4029 62.4538 50.9323 60.6474 49.4038C60.2537 49.0796 59.8716 48.7553 59.4894 48.4253C59.4605 48.4253 59.4373 48.3732 59.4026 48.3501C59.4356 48.3743 59.4729 48.392 59.5126 48.4022L60.9311 49.2127C62.9518 50.3707 64.9261 51.5982 66.8888 52.8488C69.3379 54.4178 71.7349 56.0505 74.1203 57.7064C76.5057 59.3623 78.8564 61.0761 81.1665 62.8362C83.4767 64.5963 85.7752 66.3912 87.9754 68.3192Z" fill="black"/>
</g>
</svg>
