<svg width="80" height="80" viewBox="0 0 80 80" fill="none" xmlns="http://www.w3.org/2000/svg">
<ellipse opacity="0.05" cx="40" cy="40" rx="40" ry="40" fill="#EE0088"/>
<path d="M65.9715 65.4C65.9715 68.1614 63.7329 70.4 60.9715 70.4H18.7142C15.9528 70.4 13.7142 68.1614 13.7142 65.4V28.9369C13.7142 27.2257 14.5894 25.6333 16.034 24.716L37.1589 11.3017C38.7945 10.2631 40.883 10.2629 42.5188 11.3013L63.6512 24.7161C65.0961 25.6333 65.9715 27.2259 65.9715 28.9374V65.4Z" fill="#E34FA4"/>
<path opacity="0.2" d="M65.9715 65.4C65.9715 68.1614 63.7329 70.4 60.9715 70.4H18.7142C15.9528 70.4 13.7142 68.1614 13.7142 65.4V28.9369C13.7142 27.2257 14.5894 25.6333 16.034 24.716L37.1589 11.3017C38.7945 10.2631 40.883 10.2629 42.5188 11.3013L63.6512 24.7161C65.0961 25.6333 65.9715 27.2259 65.9715 28.9374V65.4Z" fill="black"/>
<path d="M60.0223 20.9625H19.6589C18.0021 20.9625 16.6589 22.3056 16.6589 23.9625V65.6773C16.6589 67.3341 18.0021 68.6773 19.6589 68.6773H60.0223C61.6791 68.6773 63.0223 67.3341 63.0223 65.6773V23.9625C63.0223 22.3056 61.6791 20.9625 60.0223 20.9625Z" fill="#FCFCFC"/>
<path d="M22.4017 28.8002L57.7311 28.8002C58.4052 28.8002 58.9517 28.2538 58.9517 27.5797C58.9517 26.9056 58.4052 26.3591 57.7311 26.3591L22.4017 26.3591C21.7276 26.3591 21.1811 26.9056 21.1811 27.5797C21.1811 28.2538 21.7276 28.8002 22.4017 28.8002Z" fill="#DBDBDB"/>
<path d="M22.4017 32.6544L57.7311 32.6544C58.4052 32.6544 58.9517 32.108 58.9517 31.4339C58.9517 30.7598 58.4052 30.2133 57.7311 30.2133L22.4017 30.2133C21.7276 30.2133 21.1811 30.7598 21.1811 31.4339C21.1811 32.108 21.7276 32.6544 22.4017 32.6544Z" fill="#DBDBDB"/>
<path d="M22.4017 36.5129L57.7311 36.5129C58.4052 36.5129 58.9517 35.9664 58.9517 35.2923C58.9517 34.6182 58.4052 34.0717 57.7311 34.0717L22.4017 34.0717C21.7276 34.0717 21.1811 34.6182 21.1811 35.2923C21.1811 35.9664 21.7276 36.5129 22.4017 36.5129Z" fill="#DBDBDB"/>
<path d="M22.4017 40.3712L57.7311 40.3712C58.4052 40.3712 58.9517 39.8248 58.9517 39.1507C58.9517 38.4766 58.4052 37.9301 57.7311 37.9301L22.4017 37.9301C21.7276 37.9301 21.1811 38.4766 21.1811 39.1507C21.1811 39.8248 21.7276 40.3712 22.4017 40.3712Z" fill="#DBDBDB"/>
<path d="M21.1811 55.8006L58.9517 55.8006V54.274L21.1811 54.274V55.8006Z" fill="#DBDBDB"/>
<path d="M21.1811 59.6591L58.9517 59.6591V58.1324L21.1811 58.1324V59.6591Z" fill="#DBDBDB"/>
<path d="M21.1811 63.5174L58.9517 63.5174V61.9908L21.1811 61.9908V63.5174Z" fill="#DBDBDB"/>
<path d="M60.0459 40.7228C62.6912 39.1744 65.9715 41.0558 65.9715 44.1211V66.4C65.9715 68.6091 64.1807 70.4 61.9715 70.4H17.7142C15.5051 70.4 13.7142 68.6091 13.7142 66.4V44.1211C13.7142 41.0558 16.9981 39.1683 19.6393 40.7239C19.8887 40.8709 20.1384 41.0175 20.3882 41.1638C22.6115 42.4652 24.8139 43.8167 27.0121 45.1682C29.4446 46.6565 31.8853 48.1656 34.3344 49.6956C34.341 49.6997 34.3494 49.6998 34.3562 49.6959L34.3711 49.6873C34.3858 49.6788 34.3891 49.6803 34.3784 49.6934C34.3711 49.7022 34.372 49.717 34.3816 49.723L39.014 52.6209C39.5209 52.938 40.1644 52.9373 40.6706 52.619C42.1927 51.6618 43.7217 50.6999 45.248 49.755C45.2685 49.7423 45.2772 49.6698 45.2571 49.6564C45.3025 49.6898 45.3634 49.6771 45.4112 49.6472C47.8252 48.1392 50.246 46.6434 52.6736 45.1598C54.8732 43.8167 57.0784 42.4847 59.2892 41.1638C59.542 41.0172 59.7942 40.8701 60.0459 40.7228Z" fill="#E34FA4"/>
<g opacity="0.2">
<path d="M34.4198 49.6565C34.3948 49.6565 34.3781 49.694 34.3573 49.7107L33.523 50.4115C32.2132 51.5168 30.8701 52.5763 29.5061 53.6025C27.8376 54.8538 26.1399 56.1052 24.4297 57.3023C22.7195 58.4995 20.9843 59.6633 19.2157 60.7937C17.4471 61.9241 15.6701 63.0294 13.8264 64.0431C15.4115 62.654 17.0591 61.3568 18.7234 60.0929C20.3878 58.829 22.098 57.5901 23.7998 56.3972C25.5017 55.2042 27.2536 54.0279 29.0181 52.8975C30.4238 51.9965 31.8545 51.1081 33.3103 50.278C33.6481 50.0819 33.986 49.89 34.3322 49.7023L34.4198 49.6565Z" fill="black"/>
<path d="M65.8462 64.0431C64.0025 63.0294 62.213 61.9241 60.4569 60.7937C58.7009 59.6633 56.9614 58.487 55.2345 57.3023C53.5077 56.1177 51.8225 54.8747 50.1582 53.6025C48.8025 52.5763 47.4594 51.5168 46.1579 50.4156C45.8743 50.182 45.599 49.9484 45.3237 49.7107C45.3028 49.7107 45.2861 49.6731 45.2611 49.6565C45.2849 49.674 45.3118 49.6867 45.3404 49.694L46.3623 50.278C47.8181 51.1122 49.2405 51.9965 50.6545 52.8975C52.419 54.0279 54.1459 55.2042 55.8644 56.3972C57.583 57.5901 59.2765 58.8248 60.9408 60.0929C62.6051 61.361 64.2611 62.654 65.8462 64.0431Z" fill="black"/>
</g>
<path d="M62.9778 41.7529C63.3773 38.4319 61.009 35.4157 57.6879 35.0162C54.3669 34.6167 51.3507 36.985 50.9512 40.3061C50.5517 43.6271 52.92 46.6432 56.2411 47.0428C59.5621 47.4423 62.5782 45.074 62.9778 41.7529Z" fill="#455A64"/>
<path d="M57.779 37.6891V44.1963C57.7785 44.2768 57.7621 44.3564 57.7307 44.4306C57.6994 44.5048 57.6538 44.5721 57.5965 44.6286C57.5391 44.6852 57.4713 44.7299 57.3966 44.7602C57.322 44.7905 57.2422 44.8058 57.1617 44.8053C57.0816 44.8064 57.0021 44.7914 56.9279 44.7611C56.8537 44.7309 56.7864 44.686 56.73 44.6292C56.6735 44.5723 56.6291 44.5047 56.5994 44.4303C56.5696 44.3559 56.5552 44.2763 56.5568 44.1963V38.7736L56.1147 39.0281C56.0221 39.0857 55.9151 39.1161 55.806 39.1157C55.6996 39.1146 55.5954 39.0855 55.5039 39.0314C55.4123 38.9772 55.3367 38.8998 55.2846 38.807C55.241 38.7397 55.2116 38.6642 55.1981 38.5851C55.1845 38.506 55.1872 38.425 55.2059 38.347C55.2247 38.269 55.259 38.1956 55.307 38.1312C55.3549 38.0669 55.4154 38.013 55.4848 37.9728L56.8447 37.1677C56.8447 37.1677 56.8739 37.1677 56.8864 37.1677C56.8989 37.1677 56.9197 37.1469 56.9406 37.1343C56.9615 37.1218 56.9865 37.1343 57.0073 37.1343C57.0224 37.1305 57.0382 37.1305 57.0532 37.1343C57.0779 37.1283 57.1036 37.1283 57.1283 37.1343H57.2493C57.264 37.1402 57.2804 37.1402 57.2952 37.1343C57.3168 37.127 57.3402 37.127 57.3619 37.1343C57.3619 37.1343 57.3953 37.1343 57.4036 37.1343C57.412 37.1343 57.4495 37.1677 57.4704 37.1677C57.4844 37.1793 57.4998 37.1891 57.5162 37.1969L57.5579 37.2303C57.583 37.2303 57.5913 37.2637 57.6038 37.2762C57.6178 37.2891 57.6292 37.3047 57.6372 37.3221L57.6831 37.3638C57.6831 37.3638 57.6831 37.3888 57.6831 37.3971C57.6954 37.4143 57.7026 37.4345 57.7039 37.4555C57.7039 37.4764 57.7039 37.4972 57.729 37.5098C57.754 37.5223 57.729 37.5515 57.729 37.564C57.7185 37.5894 57.7185 37.6178 57.729 37.6432L57.779 37.6891Z" fill="white"/>
</svg>
