<svg width="15" height="15" viewBox="0 0 15 15" fill="none" xmlns="http://www.w3.org/2000/svg">
<path d="M7.5 13.125C8.99184 13.125 10.4226 12.5324 11.4775 11.4775C12.5324 10.4226 13.125 8.99184 13.125 7.5C13.125 6.00816 12.5324 4.57742 11.4775 3.52252C10.4226 2.46763 8.99184 1.875 7.5 1.875C6.00816 1.875 4.57742 2.46763 3.52252 3.52252C2.46763 4.57742 1.875 6.00816 1.875 7.5C1.875 8.99184 2.46763 10.4226 3.52252 11.4775C4.57742 12.5324 6.00816 13.125 7.5 13.125ZM5.60596 5.50708C5.77954 5.01709 6.24536 4.6875 6.76611 4.6875H8.04712C8.81396 4.6875 9.43359 5.30933 9.43359 6.07397C9.43359 6.57056 9.16772 7.02979 8.73706 7.27808L8.02734 7.68457C8.02295 7.97021 7.78784 8.20312 7.5 8.20312C7.20776 8.20312 6.97266 7.96802 6.97266 7.67578V7.37915C6.97266 7.19019 7.07373 7.0166 7.23853 6.92212L8.21191 6.36401C8.31519 6.30469 8.37891 6.19482 8.37891 6.07617C8.37891 5.8916 8.22949 5.74439 8.04712 5.74439H6.76611C6.69141 5.74439 6.62549 5.79053 6.60132 5.86084L6.59253 5.88721C6.49585 6.16187 6.19263 6.30469 5.92017 6.20801C5.64771 6.11133 5.50269 5.80811 5.59937 5.53564L5.60815 5.50928L5.60596 5.50708ZM6.79688 9.60938C6.79688 9.42289 6.87095 9.24405 7.00282 9.11219C7.13468 8.98033 7.31352 8.90625 7.5 8.90625C7.68648 8.90625 7.86532 8.98033 7.99718 9.11219C8.12905 9.24405 8.20312 9.42289 8.20312 9.60938C8.20312 9.79586 8.12905 9.9747 7.99718 10.1066C7.86532 10.2384 7.68648 10.3125 7.5 10.3125C7.31352 10.3125 7.13468 10.2384 7.00282 10.1066C6.87095 9.9747 6.79688 9.79586 6.79688 9.60938Z" fill="#EE0088"/>
</svg>
