<svg width="23" height="23" viewBox="0 0 23 23" fill="none" xmlns="http://www.w3.org/2000/svg">
<path d="M12.2985 19.7374C14.0269 17.5688 17.9688 12.3128 17.9688 9.36053C17.9688 5.77998 15.0713 2.875 11.5 2.875C7.92871 2.875 5.03125 5.77998 5.03125 9.36053C5.03125 12.3128 8.97314 17.5688 10.7015 19.7374C11.1159 20.2542 11.8841 20.2542 12.2985 19.7374ZM11.5 11.5224C10.3107 11.5224 9.34375 10.5529 9.34375 9.36053C9.34375 8.16814 10.3107 7.19869 11.5 7.19869C12.6893 7.19869 13.6562 8.16814 13.6562 9.36053C13.6562 10.5529 12.6893 11.5224 11.5 11.5224Z" fill="#D1D5DB"/>
</svg>
