<svg width="115" height="30" viewBox="0 0 115 30" fill="none" xmlns="http://www.w3.org/2000/svg">
<g id="Logo">
<path d="M14.886 3.22476V7.6873H5.57003V12.5081H12.5407V16.8404H5.57003V26.0912H0V3.22476H14.886Z" fill="#1A1F2E"/>
<path d="M20.6148 6.02606C19.6376 6.02606 18.8341 5.74376 18.2044 5.17915C17.5964 4.59283 17.2923 3.87622 17.2923 3.02932C17.2923 2.1607 17.5964 1.44408 18.2044 0.879479C18.8341 0.29316 19.6376 0 20.6148 0C21.5703 0 22.3521 0.29316 22.9601 0.879479C23.5898 1.44408 23.9047 2.1607 23.9047 3.02932C23.9047 3.87622 23.5898 4.59283 22.9601 5.17915C22.3521 5.74376 21.5703 6.02606 20.6148 6.02606ZM23.3835 7.91531V26.0912H17.8135V7.91531H23.3835Z" fill="#1A1F2E"/>
<path d="M38.495 7.71987C40.6231 7.71987 42.3169 8.41477 43.5764 9.80456C44.8577 11.1726 45.4983 13.0619 45.4983 15.4723V26.0912H39.9608V16.2215C39.9608 15.0054 39.6459 14.0608 39.0162 13.3876C38.3864 12.7144 37.5395 12.3779 36.4755 12.3779C35.4114 12.3779 34.5645 12.7144 33.9347 13.3876C33.305 14.0608 32.9901 15.0054 32.9901 16.2215V26.0912H27.4201V7.91531H32.9901V10.3257C33.5547 9.52226 34.3148 8.89251 35.2703 8.43648C36.2257 7.95874 37.3007 7.71987 38.495 7.71987Z" fill="#1A1F2E"/>
<path d="M48.2614 16.9707C48.2614 15.1031 48.6088 13.4636 49.3037 12.0521C50.0204 10.6406 50.9867 9.55483 52.2028 8.79479C53.4188 8.03475 54.7761 7.65472 56.2744 7.65472C57.4688 7.65472 58.5546 7.90445 59.5318 8.40391C60.5307 8.90337 61.3124 9.57655 61.877 10.4235V1.98697H67.4471V26.0912H61.877V23.4853C61.3559 24.354 60.6067 25.0489 59.6295 25.57C58.674 26.0912 57.5556 26.3518 56.2744 26.3518C54.7761 26.3518 53.4188 25.9718 52.2028 25.2117C50.9867 24.43 50.0204 23.3333 49.3037 21.9218C48.6088 20.4886 48.2614 18.8382 48.2614 16.9707ZM61.877 17.0033C61.877 15.6135 61.4862 14.5168 60.7044 13.7134C59.9444 12.9099 59.0106 12.5081 57.9031 12.5081C56.7956 12.5081 55.851 12.9099 55.0692 13.7134C54.3092 14.4951 53.9291 15.5809 53.9291 16.9707C53.9291 18.3605 54.3092 19.468 55.0692 20.2932C55.851 21.0966 56.7956 21.4984 57.9031 21.4984C59.0106 21.4984 59.9444 21.0966 60.7044 20.2932C61.4862 19.4897 61.877 18.3931 61.877 17.0033Z" fill="#1A1F2E"/>
<path d="M87.7634 30L84.8318 26.0586C83.9632 26.2324 83.1163 26.3192 82.2911 26.3192C80.1412 26.3192 78.1651 25.8198 76.3627 24.8208C74.5821 23.8219 73.1597 22.4321 72.0956 20.6515C71.0533 18.8491 70.5321 16.8295 70.5321 14.5928C70.5321 12.3561 71.0533 10.3474 72.0956 8.56678C73.1597 6.7861 74.5821 5.39631 76.3627 4.3974C78.1651 3.39848 80.1412 2.89902 82.2911 2.89902C84.4409 2.89902 86.4062 3.39848 88.1868 4.3974C89.9892 5.39631 91.4007 6.7861 92.4214 8.56678C93.4637 10.3474 93.9849 12.3561 93.9849 14.5928C93.9849 16.5472 93.5831 18.3388 92.7797 19.9674C91.9979 21.5744 90.9013 22.9099 89.4898 23.9739L94.5061 30H87.7634ZM76.2324 14.5928C76.2324 16.6124 76.7753 18.2302 77.8611 19.4463C78.9686 20.6406 80.4453 21.2378 82.2911 21.2378C84.1152 21.2378 85.5701 20.6298 86.6559 19.4137C87.7634 18.1976 88.3171 16.5907 88.3171 14.5928C88.3171 12.5733 87.7634 10.9663 86.6559 9.77199C85.5701 8.55592 84.1152 7.94788 82.2911 7.94788C80.4453 7.94788 78.9686 8.54506 77.8611 9.73941C76.7753 10.9338 76.2324 12.5516 76.2324 14.5928Z" fill="#1A1F2E"/>
<path d="M105.421 26.3518C103.64 26.3518 102.033 25.9718 100.6 25.2117C99.1885 24.4517 98.0702 23.3659 97.245 21.9544C96.4415 20.5429 96.0398 18.8925 96.0398 17.0033C96.0398 15.1357 96.4524 13.4962 97.2776 12.0847C98.1028 10.6515 99.232 9.55483 100.665 8.79479C102.098 8.03475 103.705 7.65472 105.486 7.65472C107.267 7.65472 108.874 8.03475 110.307 8.79479C111.74 9.55483 112.869 10.6515 113.695 12.0847C114.52 13.4962 114.932 15.1357 114.932 17.0033C114.932 18.8708 114.509 20.5212 113.662 21.9544C112.837 23.3659 111.697 24.4517 110.242 25.2117C108.809 25.9718 107.202 26.3518 105.421 26.3518ZM105.421 21.5309C106.485 21.5309 107.386 21.1401 108.124 20.3583C108.885 19.5765 109.265 18.4582 109.265 17.0033C109.265 15.5483 108.895 14.43 108.157 13.6482C107.44 12.8665 106.55 12.4756 105.486 12.4756C104.4 12.4756 103.499 12.8665 102.782 13.6482C102.066 14.4083 101.708 15.5266 101.708 17.0033C101.708 18.4582 102.055 19.5765 102.75 20.3583C103.466 21.1401 104.357 21.5309 105.421 21.5309Z" fill="#1A1F2E"/>
</g>
</svg>
