<svg width="82" height="81" viewBox="0 0 82 81" fill="none" xmlns="http://www.w3.org/2000/svg">
<ellipse opacity="0.05" cx="41.3714" cy="40.9143" rx="40" ry="40" fill="#EE0088"/>
<path d="M70.5193 25.3429C70.5193 22.5815 68.2807 20.3429 65.5193 20.3429H17.4913C14.7299 20.3429 12.4913 22.5815 12.4913 25.3429V40.5455C12.4913 42.2567 13.3665 43.8491 14.8111 44.7664L38.8208 60.0126C40.4565 61.0512 42.545 61.0514 44.1808 60.0129L68.1989 44.7663C69.6439 43.8491 70.5193 42.2565 70.5193 40.545V25.3429Z" fill="#E34FA4"/>
<path opacity="0.2" d="M70.5193 25.3429C70.5193 22.5815 68.2807 20.3429 65.5193 20.3429H17.4913C14.7299 20.3429 12.4913 22.5815 12.4913 25.3429V40.5455C12.4913 42.2567 13.3665 43.8491 14.8111 44.7664L38.8208 60.0126C40.4565 61.0512 42.545 61.0514 44.1808 60.0129L68.1989 44.7663C69.6439 43.8491 70.5193 42.2565 70.5193 40.545V25.3429Z" fill="black"/>
<path d="M20.7829 45.5028L62.7244 45.5028V43.8075L20.7829 43.8075V45.5028Z" fill="#DBDBDB"/>
<path d="M20.7829 49.7872L62.7244 49.7872V48.0919L20.7829 48.0919V49.7872Z" fill="#DBDBDB"/>
<path d="M20.7829 54.0717L62.7244 54.0717V52.3764L20.7829 52.3764V54.0717Z" fill="#DBDBDB"/>
<path d="M70.5193 24.9095V61.7143H12.4913V24.9095C14.9833 26.3222 17.4335 27.8044 19.9023 29.2496C22.3711 30.6947 24.8167 32.1954 27.2577 33.6962C29.9627 35.3513 32.677 37.0296 35.4005 38.731L35.4885 38.6801C35.4607 38.6801 35.4422 38.7217 35.419 38.7403L41.5053 42.5476C43.5248 41.2785 45.5582 39.9955 47.5869 38.7403C47.5638 38.7403 47.5453 38.6986 47.5175 38.6801C47.5438 38.6995 47.5737 38.7136 47.6055 38.7217C50.3136 37.0296 53.0294 35.3513 55.7529 33.6869C58.1954 32.1954 60.6442 30.7163 63.099 29.2496C65.591 27.8044 68.0273 26.3222 70.5193 24.9095Z" fill="#E34FA4"/>
<g opacity="0.2">
<path d="M35.4834 38.68C35.4556 38.68 35.4371 38.7217 35.4139 38.7402L34.4876 39.5184C33.0331 40.7458 31.5417 41.9223 30.0271 43.0618C28.1743 44.4513 26.2892 45.8409 24.3901 47.1702C22.491 48.4996 20.5642 49.7918 18.6003 51.0471C16.6364 52.3023 14.6632 53.5298 12.6159 54.6553C14.376 53.1129 16.2056 51.6724 18.0537 50.2689C19.9018 48.8655 21.8009 47.4898 23.6907 46.1651C25.5805 44.8404 27.5259 43.5342 29.4851 42.279C31.0461 41.2785 32.6348 40.2919 34.2513 39.3702C34.6265 39.1525 35.0017 38.9394 35.3861 38.731L35.4834 38.68Z" fill="black"/>
<path d="M70.3803 54.6553C68.333 53.5298 66.3459 52.3023 64.3959 51.0471C62.4459 49.7918 60.5144 48.4857 58.5968 47.1702C56.6792 45.8548 54.808 44.4745 52.9598 43.0618C51.4545 41.9223 49.963 40.7458 48.5179 39.523C48.2029 39.2636 47.8972 39.0042 47.5915 38.7402C47.5684 38.7402 47.5498 38.6986 47.522 38.68C47.5484 38.6994 47.5783 38.7136 47.61 38.7217L48.7449 39.3702C50.3614 40.2965 51.9408 41.2785 53.511 42.279C55.4703 43.5342 57.3879 44.8404 59.2962 46.1651C61.2046 47.4898 63.0851 48.8608 64.9332 50.2689C66.7813 51.677 68.6202 53.1129 70.3803 54.6553Z" fill="black"/>
</g>
</svg>
