<svg width="17" height="16" viewBox="0 0 17 16" fill="none" xmlns="http://www.w3.org/2000/svg">
<path d="M5.58334 12C5.95153 12 6.25001 11.7015 6.25001 11.3333C6.25001 10.9651 5.95153 10.6667 5.58334 10.6667C5.21515 10.6667 4.91668 10.9651 4.91668 11.3333C4.91668 11.7015 5.21515 12 5.58334 12Z" fill="#A6AAB3"/>
<path d="M8.25001 12C8.6182 12 8.91668 11.7015 8.91668 11.3333C8.91668 10.9651 8.6182 10.6667 8.25001 10.6667C7.88182 10.6667 7.58334 10.9651 7.58334 11.3333C7.58334 11.7015 7.88182 12 8.25001 12Z" fill="#A6AAB3"/>
<path d="M10.9167 12C11.2849 12 11.5833 11.7015 11.5833 11.3333C11.5833 10.9651 11.2849 10.6667 10.9167 10.6667C10.5485 10.6667 10.25 10.9651 10.25 11.3333C10.25 11.7015 10.5485 12 10.9167 12Z" fill="#A6AAB3"/>
<path d="M8.91668 3.38667V2H7.58334V3.38667C5.32334 3.71333 3.58334 5.64667 3.58334 8V9.33333H12.9167V8C12.9167 5.64667 11.1767 3.71333 8.91668 3.38667Z" fill="#A6AAB3"/>
<path d="M5.58334 14C5.95153 14 6.25001 13.7015 6.25001 13.3333C6.25001 12.9651 5.95153 12.6667 5.58334 12.6667C5.21515 12.6667 4.91668 12.9651 4.91668 13.3333C4.91668 13.7015 5.21515 14 5.58334 14Z" fill="#A6AAB3"/>
<path d="M8.25001 14C8.6182 14 8.91668 13.7015 8.91668 13.3333C8.91668 12.9651 8.6182 12.6667 8.25001 12.6667C7.88182 12.6667 7.58334 12.9651 7.58334 13.3333C7.58334 13.7015 7.88182 14 8.25001 14Z" fill="#A6AAB3"/>
<path d="M10.9167 14C11.2849 14 11.5833 13.7015 11.5833 13.3333C11.5833 12.9651 11.2849 12.6667 10.9167 12.6667C10.5485 12.6667 10.25 12.9651 10.25 13.3333C10.25 13.7015 10.5485 14 10.9167 14Z" fill="#A6AAB3"/>
</svg>
