<svg width="16" height="16" viewBox="0 0 16 16" fill="none" xmlns="http://www.w3.org/2000/svg">
<path d="M13.9999 7.18659V5.33325C13.9999 4.23325 13.0999 3.33325 11.9999 3.33325H9.33325C8.81992 3.33325 8.35325 3.53325 7.99992 3.85325C7.64659 3.53325 7.17992 3.33325 6.66659 3.33325H3.99992C2.89992 3.33325 1.99992 4.23325 1.99992 5.33325V7.18659C1.59325 7.55325 1.33325 8.07992 1.33325 8.66659V12.6666H2.66659V11.3333H13.3333V12.6666H14.6666V8.66659C14.6666 8.07992 14.4066 7.55325 13.9999 7.18659ZM9.33325 4.66659H11.9999C12.3666 4.66659 12.6666 4.96659 12.6666 5.33325V6.66659H8.66659V5.33325C8.66659 4.96659 8.96659 4.66659 9.33325 4.66659ZM3.33325 5.33325C3.33325 4.96659 3.63325 4.66659 3.99992 4.66659H6.66659C7.03325 4.66659 7.33325 4.96659 7.33325 5.33325V6.66659H3.33325V5.33325Z" fill="#A6AAB3"/>
</svg>
