<svg width="17" height="16" viewBox="0 0 17 16" fill="none" xmlns="http://www.w3.org/2000/svg">
<path d="M14.25 7.18683V5.3335C14.25 4.2335 13.35 3.3335 12.25 3.3335H9.58334C9.07001 3.3335 8.60334 3.5335 8.25001 3.8535C7.89668 3.5335 7.43001 3.3335 6.91668 3.3335H4.25001C3.15001 3.3335 2.25001 4.2335 2.25001 5.3335V7.18683C1.84334 7.5535 1.58334 8.08016 1.58334 8.66683V12.6668H2.91668V11.3335H13.5833V12.6668H14.9167V8.66683C14.9167 8.08016 14.6567 7.5535 14.25 7.18683ZM9.58334 4.66683H12.25C12.6167 4.66683 12.9167 4.96683 12.9167 5.3335V6.66683H8.91668V5.3335C8.91668 4.96683 9.21668 4.66683 9.58334 4.66683ZM3.58334 5.3335C3.58334 4.96683 3.88334 4.66683 4.25001 4.66683H6.91668C7.28334 4.66683 7.58334 4.96683 7.58334 5.3335V6.66683H3.58334V5.3335Z" fill="#A6AAB3"/>
</svg>
