<svg width="24" height="23" viewBox="0 0 24 23" fill="none" xmlns="http://www.w3.org/2000/svg">
<path d="M20.875 11.5C20.875 11.5303 20.875 11.5606 20.875 11.591C20.8615 12.8207 19.743 13.6562 18.5132 13.6562H15.2148C14.322 13.6562 13.5977 14.3806 13.5977 15.2734C13.5977 15.388 13.6111 15.4992 13.6313 15.607C13.7021 15.9506 13.8503 16.2808 13.9952 16.6144C14.2007 17.0793 14.4029 17.5409 14.4029 18.0294C14.4029 19.1008 13.6751 20.0745 12.6038 20.1183C12.4858 20.1216 12.3679 20.125 12.2466 20.125C7.48603 20.125 3.625 16.264 3.625 11.5C3.625 6.73604 7.48604 2.875 12.25 2.875C17.014 2.875 20.875 6.73604 20.875 11.5ZM7.9375 12.5781C7.9375 11.9818 7.45571 11.5 6.85938 11.5C6.26304 11.5 5.78125 11.9818 5.78125 12.5781C5.78125 13.1745 6.26304 13.6562 6.85938 13.6562C7.45571 13.6562 7.9375 13.1745 7.9375 12.5781ZM7.9375 9.34375C8.53384 9.34375 9.01562 8.86196 9.01562 8.26562C9.01562 7.66929 8.53384 7.1875 7.9375 7.1875C7.34116 7.1875 6.85938 7.66929 6.85938 8.26562C6.85938 8.86196 7.34116 9.34375 7.9375 9.34375ZM13.3281 6.10938C13.3281 5.51304 12.8463 5.03125 12.25 5.03125C11.6537 5.03125 11.1719 5.51304 11.1719 6.10938C11.1719 6.70571 11.6537 7.1875 12.25 7.1875C12.8463 7.1875 13.3281 6.70571 13.3281 6.10938ZM16.5625 9.34375C17.1588 9.34375 17.6406 8.86196 17.6406 8.26562C17.6406 7.66929 17.1588 7.1875 16.5625 7.1875C15.9662 7.1875 15.4844 7.66929 15.4844 8.26562C15.4844 8.86196 15.9662 9.34375 16.5625 9.34375Z" fill="#6C7284"/>
</svg>
