<svg width="23" height="23" viewBox="0 0 23 23" fill="none" xmlns="http://www.w3.org/2000/svg">
<path d="M3.83335 8.62508C3.83335 6.50776 5.54937 4.79175 7.66669 4.79175H15.3334C17.4507 4.79175 19.1667 6.50776 19.1667 8.62508V9.63133C18.0736 9.85295 17.25 10.8203 17.25 11.9792V13.4167H5.75002V11.9792C5.75002 10.8203 4.92645 9.85295 3.83335 9.63133V8.62508ZM18.2084 11.9792C18.2084 11.3533 18.6097 10.8203 19.1667 10.6226C19.3164 10.5687 19.4781 10.5417 19.6459 10.5417C20.4395 10.5417 21.0834 11.1856 21.0834 11.9792V17.2501C21.0834 17.7802 20.6551 18.2084 20.125 18.2084H19.1667C18.6366 18.2084 18.2084 17.7802 18.2084 17.2501H4.79169C4.79169 17.7802 4.36343 18.2084 3.83335 18.2084H2.87502C2.34494 18.2084 1.91669 17.7802 1.91669 17.2501V11.9792C1.91669 11.1856 2.56057 10.5417 3.35419 10.5417C3.5219 10.5417 3.68361 10.5717 3.83335 10.6226C4.39039 10.8203 4.79169 11.3533 4.79169 11.9792V13.4167V14.3751H5.75002H17.25H18.2084V13.4167V11.9792Z" fill="#6C7284"/>
</svg>
