<svg width="24" height="23" viewBox="0 0 24 23" fill="none" xmlns="http://www.w3.org/2000/svg">
<path d="M20.4584 11.5C20.4584 16.264 16.5973 20.125 11.8334 20.125C7.06941 20.125 3.20837 16.264 3.20837 11.5C3.20837 6.73604 7.06941 2.875 11.8334 2.875C16.5973 2.875 20.4584 6.73604 20.4584 11.5ZM13.9896 14.7344C13.9896 13.8281 13.4337 13.0532 12.642 12.7365V5.83984C12.642 5.39175 12.2815 5.03125 11.8334 5.03125C11.3853 5.03125 11.0248 5.39175 11.0248 5.83984V12.7365C10.233 13.0565 9.67712 13.8314 9.67712 14.7344C9.67712 15.9237 10.6441 16.8906 11.8334 16.8906C13.0227 16.8906 13.9896 15.9237 13.9896 14.7344ZM8.05994 8.80469C8.65627 8.80469 9.13806 8.3229 9.13806 7.72656C9.13806 7.13022 8.65627 6.64844 8.05994 6.64844C7.4636 6.64844 6.98181 7.13022 6.98181 7.72656C6.98181 8.3229 7.4636 8.80469 8.05994 8.80469ZM7.52087 11.5C7.52087 10.9037 7.03909 10.4219 6.44275 10.4219C5.84641 10.4219 5.36462 10.9037 5.36462 11.5C5.36462 12.0963 5.84641 12.5781 6.44275 12.5781C7.03909 12.5781 7.52087 12.0963 7.52087 11.5ZM17.224 12.5781C17.8203 12.5781 18.3021 12.0963 18.3021 11.5C18.3021 10.9037 17.8203 10.4219 17.224 10.4219C16.6277 10.4219 16.1459 10.9037 16.1459 11.5C16.1459 12.0963 16.6277 12.5781 17.224 12.5781ZM16.6849 7.72656C16.6849 7.13022 16.2031 6.64844 15.6068 6.64844C15.0105 6.64844 14.5287 7.13022 14.5287 7.72656C14.5287 8.3229 15.0105 8.80469 15.6068 8.80469C16.2031 8.80469 16.6849 8.3229 16.6849 7.72656Z" fill="#6C7284"/>
</svg>
