<svg width="23" height="23" viewBox="0 0 23 23" fill="none" xmlns="http://www.w3.org/2000/svg">
<path d="M4.81899 9.37744L5.13569 9.92998C5.41533 10.4185 5.87354 10.779 6.41597 10.934L8.3667 11.4899C8.94619 11.655 9.34375 12.1839 9.34375 12.787V14.1313C9.34375 14.5019 9.55264 14.8388 9.88281 15.0039C10.213 15.169 10.4219 15.5059 10.4219 15.8765V17.1905C10.4219 17.7161 10.9239 18.0968 11.4292 17.9519C11.9717 17.7969 12.3928 17.3623 12.531 16.8131L12.6253 16.4358C12.7668 15.8664 13.1374 15.3779 13.6461 15.0881L13.919 14.9332C14.4244 14.6468 14.7344 14.1077 14.7344 13.5282V13.2486C14.7344 12.8207 14.5625 12.4097 14.2593 12.1064L14.1279 11.975C13.8247 11.6718 13.4137 11.5 12.9858 11.5H11.5337C11.1597 11.5 10.7891 11.4023 10.4623 11.217L9.29995 10.5533C9.15508 10.469 9.0439 10.3343 8.98999 10.1759C8.88218 9.85249 9.02705 9.5021 9.33364 9.35049L9.53242 9.24941C9.75479 9.13823 10.0142 9.11802 10.25 9.19888L11.0317 9.4583C11.308 9.54927 11.6112 9.44482 11.7695 9.20562C11.9279 8.96978 11.911 8.65645 11.7291 8.43745L11.2709 7.88828C10.934 7.48398 10.9374 6.89438 11.281 6.49683L11.81 5.88027C12.1064 5.53325 12.1536 5.03799 11.9279 4.6438L11.847 4.50229C11.7291 4.49556 11.6146 4.49219 11.4966 4.49219C8.37007 4.49219 5.71855 6.54399 4.81899 9.37744ZM18.5078 11.5C18.5078 10.2602 18.1844 9.09443 17.6184 8.08032L16.7559 8.42734C16.2269 8.6396 15.954 9.2292 16.1326 9.76826L16.702 11.4764C16.8199 11.8268 17.1062 12.093 17.4634 12.1806L18.4438 12.4265C18.4842 12.1233 18.5044 11.8133 18.5044 11.5H18.5078ZM2.875 11.5C2.875 9.21251 3.7837 7.01871 5.4012 5.4012C7.01871 3.7837 9.21251 2.875 11.5 2.875C13.7875 2.875 15.9813 3.7837 17.5988 5.4012C19.2163 7.01871 20.125 9.21251 20.125 11.5C20.125 13.7875 19.2163 15.9813 17.5988 17.5988C15.9813 19.2163 13.7875 20.125 11.5 20.125C9.21251 20.125 7.01871 19.2163 5.4012 17.5988C3.7837 15.9813 2.875 13.7875 2.875 11.5Z" fill="#6C7284"/>
</svg>
