<svg width="16" height="16" viewBox="0 0 16 16" fill="none" xmlns="http://www.w3.org/2000/svg">
<path d="M5.33337 12C5.70156 12 6.00004 11.7015 6.00004 11.3333C6.00004 10.9651 5.70156 10.6667 5.33337 10.6667C4.96518 10.6667 4.66671 10.9651 4.66671 11.3333C4.66671 11.7015 4.96518 12 5.33337 12Z" fill="#A6AAB3"/>
<path d="M8.00004 12C8.36823 12 8.66671 11.7015 8.66671 11.3333C8.66671 10.9651 8.36823 10.6667 8.00004 10.6667C7.63185 10.6667 7.33337 10.9651 7.33337 11.3333C7.33337 11.7015 7.63185 12 8.00004 12Z" fill="#A6AAB3"/>
<path d="M10.6667 12C11.0349 12 11.3334 11.7015 11.3334 11.3333C11.3334 10.9651 11.0349 10.6667 10.6667 10.6667C10.2985 10.6667 10 10.9651 10 11.3333C10 11.7015 10.2985 12 10.6667 12Z" fill="#A6AAB3"/>
<path d="M8.66671 3.38667V2H7.33337V3.38667C5.07337 3.71333 3.33337 5.64667 3.33337 8V9.33333H12.6667V8C12.6667 5.64667 10.9267 3.71333 8.66671 3.38667Z" fill="#A6AAB3"/>
<path d="M5.33337 14C5.70156 14 6.00004 13.7015 6.00004 13.3333C6.00004 12.9651 5.70156 12.6667 5.33337 12.6667C4.96518 12.6667 4.66671 12.9651 4.66671 13.3333C4.66671 13.7015 4.96518 14 5.33337 14Z" fill="#A6AAB3"/>
<path d="M8.00004 14C8.36823 14 8.66671 13.7015 8.66671 13.3333C8.66671 12.9651 8.36823 12.6667 8.00004 12.6667C7.63185 12.6667 7.33337 12.9651 7.33337 13.3333C7.33337 13.7015 7.63185 14 8.00004 14Z" fill="#A6AAB3"/>
<path d="M10.6667 14C11.0349 14 11.3334 13.7015 11.3334 13.3333C11.3334 12.9651 11.0349 12.6667 10.6667 12.6667C10.2985 12.6667 10 12.9651 10 13.3333C10 13.7015 10.2985 14 10.6667 14Z" fill="#A6AAB3"/>
</svg>
