<svg width="17" height="16" viewBox="0 0 17 16" fill="none" xmlns="http://www.w3.org/2000/svg">
<path d="M2.25 3.33333H3.58333V2C2.85 2 2.25 2.6 2.25 3.33333ZM2.25 8.66667H3.58333V7.33333H2.25V8.66667ZM4.91667 14H6.25V12.6667H4.91667V14ZM2.25 6H3.58333V4.66667H2.25V6ZM8.91667 2H7.58333V3.33333H8.91667V2ZM12.9167 2V3.33333H14.25C14.25 2.6 13.65 2 12.9167 2ZM3.58333 14V12.6667H2.25C2.25 13.4 2.85 14 3.58333 14ZM2.25 11.3333H3.58333V10H2.25V11.3333ZM6.25 2H4.91667V3.33333H6.25V2ZM7.58333 14H8.91667V12.6667H7.58333V14ZM12.9167 8.66667H14.25V7.33333H12.9167V8.66667ZM12.9167 14C13.65 14 14.25 13.4 14.25 12.6667H12.9167V14ZM12.9167 6H14.25V4.66667H12.9167V6ZM12.9167 11.3333H14.25V10H12.9167V11.3333ZM10.25 14H11.5833V12.6667H10.25V14ZM10.25 3.33333H11.5833V2H10.25V3.33333ZM4.91667 11.3333H11.5833V4.66667H4.91667V11.3333ZM6.25 6H10.25V10H6.25V6Z" fill="#A6AAB3"/>
</svg>
