<svg width="24" height="23" viewBox="0 0 24 23" fill="none" xmlns="http://www.w3.org/2000/svg">
<path d="M11.5549 3.05945C11.9255 2.81352 12.4106 2.81352 12.7812 3.05945L13.3809 3.45361C13.583 3.585 13.8188 3.64901 14.058 3.63553L14.7756 3.59174C15.2203 3.56479 15.638 3.80735 15.8368 4.20488L16.1602 4.84834C16.268 5.06395 16.4432 5.23577 16.6555 5.34357L17.3057 5.67036C17.7032 5.86912 17.9458 6.28687 17.9188 6.73157L17.875 7.44915C17.8615 7.68834 17.9255 7.92753 18.0569 8.1263L18.4545 8.72597C18.7004 9.09655 18.7004 9.58167 18.4545 9.95225L18.0569 10.5553C17.9255 10.7574 17.8615 10.9932 17.875 11.2324L17.9188 11.95C17.9458 12.3947 17.7032 12.8125 17.3057 13.0112L16.6622 13.3346C16.4466 13.4424 16.2748 13.6176 16.167 13.8299L15.8402 14.4801C15.6414 14.8776 15.2237 15.1202 14.779 15.0932L14.0614 15.0494C13.8222 15.0359 13.583 15.1 13.3842 15.2313L12.7846 15.6289C12.414 15.8748 11.9289 15.8748 11.5583 15.6289L10.9553 15.2313C10.7531 15.1 10.5173 15.0359 10.2781 15.0494L9.56052 15.0932C9.11582 15.1202 8.69808 14.8776 8.49931 14.4801L8.17589 13.8366C8.06809 13.621 7.8929 13.4492 7.68066 13.3414L7.03046 13.0146C6.63293 12.8158 6.39037 12.3981 6.41732 11.9534L6.46112 11.2358C6.47459 10.9966 6.41058 10.7574 6.27919 10.5587L5.88503 9.95562C5.6391 9.58504 5.6391 9.09992 5.88503 8.72933L6.27919 8.12967C6.41058 7.92753 6.47459 7.69171 6.46112 7.45252L6.41732 6.73494C6.39037 6.29024 6.63293 5.87249 7.03046 5.67373L7.67393 5.35031C7.88954 5.23914 8.06472 5.06395 8.17253 4.84834L8.49594 4.20488C8.69471 3.80735 9.11245 3.56479 9.55715 3.59174L10.2747 3.63553C10.5139 3.64901 10.7531 3.585 10.9519 3.45361L11.5549 3.05945ZM14.8632 9.34248C14.8632 8.62768 14.5792 7.94217 14.0738 7.43673C13.5684 6.93129 12.8829 6.64734 12.1681 6.64734C11.4533 6.64734 10.7677 6.93129 10.2623 7.43673C9.75688 7.94217 9.47293 8.62768 9.47293 9.34248C9.47293 10.0573 9.75688 10.7428 10.2623 11.2482C10.7677 11.7537 11.4533 12.0376 12.1681 12.0376C12.8829 12.0376 13.5684 11.7537 14.0738 11.2482C14.5792 10.7428 14.8632 10.0573 14.8632 9.34248ZM5.74354 17.758L7.19554 14.3049C7.20228 14.3083 7.20565 14.3116 7.20902 14.3184L7.53243 14.9618C7.92659 15.7434 8.74524 16.2184 9.62116 16.1679L10.3387 16.1241C10.3455 16.1241 10.3556 16.1241 10.3623 16.1308L10.962 16.5284C11.1338 16.6396 11.3157 16.7271 11.5044 16.7878L10.2377 19.7962C10.1602 19.9815 9.98837 20.1062 9.78961 20.123C9.59084 20.1399 9.39881 20.0489 9.29101 19.8804L8.20621 18.2196L6.31625 18.4992C6.12422 18.5261 5.9322 18.4487 5.81091 18.2971C5.68963 18.1455 5.66605 17.9366 5.74017 17.758H5.74354ZM14.0984 19.7929L12.8317 16.7878C13.0204 16.7271 13.2023 16.6429 13.3741 16.5284L13.9738 16.1308C13.9805 16.1275 13.9873 16.1241 13.9974 16.1241L14.715 16.1679C15.5909 16.2184 16.4095 15.7434 16.8037 14.9618L17.1271 14.3184C17.1305 14.3116 17.1338 14.3083 17.1406 14.3049L18.596 17.758C18.6701 17.9366 18.6431 18.1421 18.5252 18.2971C18.4073 18.452 18.2119 18.5295 18.0199 18.4992L16.1299 18.2196L15.0451 19.8771C14.9373 20.0455 14.7453 20.1365 14.5465 20.1196C14.3477 20.1028 14.1759 19.9748 14.0984 19.7929Z" fill="#6C7284"/>
</svg>
