<svg width="24" height="23" viewBox="0 0 24 23" fill="none" xmlns="http://www.w3.org/2000/svg">
<path d="M7.34493 3.95312V5.03125H5.71415C4.81383 5.03125 4.08337 5.75562 4.08337 6.64844V8.26562H19.304V6.64844C19.304 5.75562 18.5735 5.03125 17.6732 5.03125H16.0424V3.95312C16.0424 3.35679 15.5566 2.875 14.9552 2.875C14.3539 2.875 13.868 3.35679 13.868 3.95312V5.03125H9.5193V3.95312C9.5193 3.35679 9.03346 2.875 8.43211 2.875C7.83076 2.875 7.34493 3.35679 7.34493 3.95312ZM19.304 9.34375H4.08337V18.5078C4.08337 19.4006 4.81383 20.125 5.71415 20.125H17.6732C18.5735 20.125 19.304 19.4006 19.304 18.5078V9.34375Z" fill="#6C7284"/>
</svg>
