<svg width="200" height="200" viewBox="0 0 200 200" fill="none" xmlns="http://www.w3.org/2000/svg">
<ellipse opacity="0.05" cx="100.084" cy="99.6314" rx="97.3444" ry="96.8917" fill="#B6005B"/>
<mask id="mask0_49_22469" style="mask-type:alpha" maskUnits="userSpaceOnUse" x="2" y="2" width="196" height="195">
<ellipse cx="100.084" cy="99.6314" rx="97.3444" ry="96.8917" fill="#EE0088"/>
</mask>
<g mask="url(#mask0_49_22469)">
<path d="M52.5865 158.331C55.3262 160.617 58.3044 162.602 61.4696 164.251C57.0919 156.262 59.4355 139.233 59.8335 141.724C61.7251 153.629 68.8493 167.091 71.9495 167.985C71.9674 167.982 71.9857 167.982 72.0036 167.985C80.3905 169.67 88.2762 168.299 95.0025 165.671C95.006 165.658 95.006 165.644 95.0025 165.632C89.2442 156.522 91.1112 139.169 91.4551 140.265C95.199 152.022 104.519 159.475 106.254 159.603C113.132 154.759 116.994 149.673 116.134 149.054C109.89 144.529 105.207 133.823 101.124 122.592C97.0857 111.512 95.5724 95.3771 89.3915 85.2755C83.7315 76.0239 70.9816 73.2872 63.2629 77.1245C43.0155 87.1671 48.7689 155.157 52.5865 158.331Z" fill="#263238"/>
<path d="M64.6338 76.525C62.9509 77.1105 61.407 78.0371 60.0988 79.247C58.8189 80.3945 57.6494 81.6595 56.6055 83.0252C54.6395 85.7435 52.991 88.6777 51.6923 91.7708C49.0146 97.8681 47.5553 110.141 46.8085 116.637C46.1773 123.156 46.1773 129.721 46.8085 136.241C46.9363 137.872 47.177 139.493 47.3588 141.119L48.0761 145.984L49.0097 150.818L50.0955 155.623L49.3339 150.779L48.6903 145.92L48.1449 141.06C48.0221 139.434 47.8403 137.818 47.7666 136.191C47.2864 129.717 47.3768 123.213 48.0368 116.755C48.6657 110.308 50.1446 98.1433 52.5619 92.0607C53.7475 88.9818 55.2735 86.0451 57.1116 83.3053C58.067 81.9175 59.151 80.6229 60.3494 79.4386C60.9632 78.8425 61.6201 78.2923 62.3147 77.7926C63.0228 77.2608 63.8038 76.8338 64.6338 76.525Z" fill="#263238"/>
<path d="M117.063 147.354C115.269 145.019 113.598 142.592 112.056 140.083C110.489 137.626 109.025 135.091 107.703 132.516C106.382 129.942 105.144 127.338 104.097 124.655C103.05 121.973 102.097 119.275 101.09 116.583C99.0167 111.213 97.0367 100.05 94.6095 94.7777C93.3812 92.1442 92.0988 89.5304 90.62 86.9951C89.8708 85.7202 89.0507 84.4883 88.1633 83.3053C87.2909 82.0525 86.1705 80.9923 84.8715 80.1903C86.0782 81.0749 87.1025 82.1843 87.8882 83.4576C88.6896 84.6703 89.4229 85.9268 90.0844 87.2212C91.4405 89.7859 92.6147 92.4194 93.73 95.0823C95.9656 100.389 97.9456 111.532 99.9306 116.922C100.972 119.609 101.95 122.297 103.05 124.984C104.153 127.682 105.425 130.308 106.858 132.846C109.724 138.037 113.146 142.902 117.063 147.354Z" fill="#263238"/>
<path d="M68.3825 143.095C73.6692 154.97 94.3539 193.21 107.119 195.509C115.471 197.012 148.955 192.561 154.453 184.4C156.85 180.848 151.721 156.886 147.279 157.982C142.838 159.077 116.036 163.627 112.695 162.787C109.354 161.947 83.5448 134.29 74.0328 127.549C57.6127 115.91 65.5378 136.702 68.3825 143.095Z" fill="#FFC5BF"/>
<path d="M137.055 156.611L139.069 192.851C139.069 192.851 112.631 198.663 101.09 194.679C87.0824 189.839 66.5794 146.445 63.7494 139.311C59.1408 127.603 60.4182 120.518 66.9479 122.248C69.4831 122.901 72.8438 124.901 76.912 128.502C81.1914 132.256 105.772 156.611 113.53 161.21C117.888 163.784 137.055 156.611 137.055 156.611Z" fill="#EE0088"/>
<path d="M122.88 186.675C122.169 186.93 121.498 187.284 120.885 187.726C121.637 187.667 122.376 187.502 123.082 187.235C123.793 186.984 124.465 186.631 125.076 186.189C124.325 186.243 123.585 186.407 122.88 186.675ZM102.962 158.208C102.252 158.459 101.581 158.811 100.972 159.254C102.48 159.113 103.923 158.577 105.158 157.702C104.406 157.763 103.666 157.934 102.962 158.208ZM82.8668 141.011C82.1556 141.266 81.4841 141.62 80.872 142.063C82.3807 141.921 83.8258 141.385 85.063 140.51C84.3111 140.571 83.5716 140.738 82.8668 141.006V141.011ZM97.4739 179.973C96.7624 180.225 96.0907 180.578 95.4791 181.02C96.9865 180.879 98.4302 180.343 99.6652 179.467C98.9143 179.527 98.1761 179.696 97.4739 179.968V179.973ZM120.851 166.005C120.139 166.259 119.468 166.613 118.856 167.056C119.608 166.997 120.347 166.832 121.053 166.565C121.764 166.314 122.436 165.961 123.047 165.519C122.296 165.572 121.556 165.734 120.851 166V166.005ZM85.746 159.667C85.0449 159.924 84.3834 160.278 83.7807 160.718C84.5322 160.659 85.2716 160.494 85.9769 160.227C86.6788 159.972 87.3406 159.618 87.9422 159.176C87.1908 159.233 86.4514 159.397 85.746 159.662V159.667ZM138.318 179.679C138.234 179.344 138.126 179.015 138.013 178.696C137.758 177.985 137.404 177.313 136.962 176.701C137.019 177.453 137.184 178.193 137.453 178.897C137.68 179.532 137.983 180.135 138.357 180.696L138.318 179.679ZM110.543 181.698C110.29 180.987 109.938 180.315 109.497 179.703C109.556 180.455 109.721 181.194 109.988 181.899C110.241 182.611 110.595 183.283 111.039 183.894C110.988 183.141 110.827 182.4 110.563 181.693L110.543 181.698ZM92.9881 150.661C92.7333 149.951 92.3793 149.281 91.9366 148.671C91.996 149.423 92.1615 150.162 92.428 150.867C92.6805 151.578 93.0347 152.248 93.4794 152.857C93.4225 152.105 93.257 151.365 92.9881 150.661ZM73.6348 131.607C73.3829 130.896 73.0305 130.224 72.5883 129.613C72.7296 131.12 73.265 132.564 74.1409 133.799C74.0718 133.046 73.893 132.308 73.6103 131.607H73.6348ZM101.021 190.837C100.346 190.505 99.6259 190.273 98.884 190.149C99.4589 190.636 100.101 191.038 100.79 191.343C101.472 191.666 102.197 191.891 102.942 192.011C102.361 191.53 101.714 191.135 101.021 190.837ZM125.131 175.925C124.449 175.602 123.724 175.378 122.979 175.262C124.15 176.222 125.549 176.864 127.042 177.124C126.465 176.63 125.821 176.22 125.131 175.905V175.925ZM117.191 195.828C116.51 195.502 115.785 195.277 115.039 195.16C115.403 195.479 115.802 195.756 116.228 195.986L117.387 195.922L117.191 195.828ZM97.695 167.553C97.0139 167.227 96.2889 167.002 95.543 166.884C96.7116 167.846 98.1101 168.488 99.6013 168.747C99.0276 168.252 98.3855 167.844 97.695 167.533V167.553ZM68.2155 141.969C67.5344 141.643 66.8095 141.418 66.0635 141.301C66.6384 141.788 67.2805 142.191 67.9699 142.495C68.6518 142.819 69.3764 143.044 70.1219 143.163C69.5505 142.671 68.912 142.262 68.2253 141.95L68.2155 141.969ZM86.4928 173.532C86.1671 174.213 85.9436 174.938 85.8295 175.684C86.316 175.107 86.718 174.463 87.0234 173.773C87.345 173.09 87.5699 172.366 87.6916 171.621C87.2086 172.193 86.8084 172.829 86.5026 173.512L86.4928 173.532ZM76.6663 153.27C76.3406 153.951 76.1171 154.676 76.003 155.422C76.4895 154.845 76.8915 154.201 77.1969 153.511C77.5185 152.828 77.7434 152.103 77.8651 151.359C77.3855 151.932 76.9871 152.568 76.681 153.25L76.6663 153.27ZM107.939 169.543C107.622 170.219 107.402 170.937 107.286 171.675C107.776 171.101 108.18 170.459 108.484 169.769C108.806 169.086 109.031 168.361 109.153 167.617C108.663 168.191 108.259 168.833 107.954 169.523L107.939 169.543ZM61.4058 131.524C61.4549 131.794 61.5089 132.064 61.5728 132.344C61.8081 131.794 61.9731 131.216 62.0641 130.625C61.8233 130.898 61.6078 131.192 61.4205 131.504L61.4058 131.524Z" fill="white"/>
<path d="M132.456 192.31C131.994 186.965 130.918 165.017 131.007 160.256C131.007 159.927 131.223 159.854 131.262 160.198C133.021 176.185 132.481 187.019 132.662 192.286C132.667 192.404 132.466 192.433 132.456 192.31Z" fill="#263238"/>
<path opacity="0.1" d="M63.769 139.306C66.5696 146.44 87.0824 189.839 101.11 194.674C104.549 195.868 109.364 196.182 114.375 196.049L66.1028 122.051C64.7124 121.84 63.5971 122.076 62.7864 122.724C60.1824 124.783 60.4329 130.846 63.769 139.306Z" fill="black"/>
<path d="M15.6881 196.433L88.2764 196.241L84.2622 171.282C84.2622 171.282 90.0009 164.315 88.9151 156.758C87.7261 148.479 72.7947 127.49 71.5418 126.296C66.4861 121.55 61.1356 120.7 55.9963 122.41C32.2507 137.366 15.6881 196.433 15.6881 196.433Z" fill="#EE0088"/>
<path d="M21.358 182.061C20.9378 182.22 20.529 182.407 20.1346 182.622L19.9872 183.039C20.5228 182.941 21.0488 182.796 21.5594 182.607C22.2719 182.355 22.9439 182.001 23.5542 181.555C22.8015 181.617 22.0618 181.788 21.358 182.061ZM47.5849 134.403C46.8838 134.66 46.2223 135.014 45.6196 135.454C46.3696 135.395 47.1073 135.23 47.8109 134.963C48.5234 134.711 49.1954 134.357 49.8057 133.912C49.0462 133.966 48.2984 134.128 47.5849 134.393V134.403ZM81.8351 141.458C81.4908 141.629 81.162 141.83 80.8524 142.058C81.2593 142.033 81.6626 141.967 82.0562 141.861C81.9972 141.729 81.9137 141.596 81.8351 141.458ZM63.1353 152.322C62.4243 152.575 61.7527 152.927 61.1405 153.368C62.6492 153.226 64.0943 152.691 65.3315 151.816C64.5788 151.877 63.8391 152.048 63.1353 152.322ZM53.8001 180.745C53.0887 180.997 52.4169 181.349 51.8053 181.791C52.5569 181.732 53.2963 181.566 54.0016 181.3C54.7035 181.045 55.3653 180.691 55.9669 180.248C55.2295 180.31 54.5048 180.477 53.8149 180.745H53.8001ZM85.7362 159.662C85.0352 159.919 84.3736 160.273 83.7709 160.713C84.5225 160.654 85.2619 160.489 85.9671 160.222C86.669 159.967 87.3308 159.613 87.9324 159.171C87.1842 159.231 86.4481 159.396 85.746 159.662H85.7362ZM38.1072 160.93C37.4064 161.185 36.7448 161.537 36.1419 161.976C37.6493 161.835 39.093 161.299 40.328 160.424C39.5703 160.484 38.8255 160.654 38.117 160.93H38.1072ZM73.91 179.968C73.1986 180.22 72.5268 180.573 71.9152 181.015C72.6668 180.956 73.4062 180.79 74.1115 180.524C74.8215 180.27 75.4916 179.916 76.1013 179.472C75.354 179.531 74.6192 179.698 73.9198 179.968H73.91ZM54.6648 123.805L54.5174 123.442C54.3553 123.555 54.1981 123.672 54.0261 123.79C54.0556 123.864 54.0802 123.933 54.1047 124.007C54.3592 124.712 54.7133 125.377 55.1562 125.982C55.095 125.237 54.9296 124.504 54.6648 123.805ZM36.5448 181.457C36.2919 180.746 35.9395 180.075 35.4983 179.462C35.6405 180.971 36.1759 182.416 37.0509 183.653C36.9896 182.901 36.8192 182.161 36.5448 181.457ZM62.644 170.093C62.3889 169.392 62.0366 168.73 61.5974 168.127C61.7387 169.635 62.2742 171.079 63.15 172.314C63.0906 171.553 62.9201 170.804 62.644 170.093ZM53.412 145.595C53.1572 144.886 52.8032 144.216 52.3605 143.606C52.51 145.111 53.0447 146.553 53.9131 147.792C53.8506 147.04 53.6819 146.3 53.412 145.595ZM85.4856 187.265C85.2357 186.552 84.8832 185.88 84.4391 185.27C84.4984 186.021 84.6638 186.761 84.9304 187.466C85.1841 188.176 85.5382 188.846 85.9819 189.456C85.9238 188.705 85.7566 187.967 85.4856 187.265ZM73.6103 131.607C73.3584 130.896 73.006 130.224 72.5638 129.613C72.7051 131.12 73.2405 132.564 74.1164 133.799C74.0552 133.048 73.8847 132.309 73.6103 131.607ZM45.7768 172.024C45.095 171.7 44.3702 171.477 43.6248 171.36C44.7959 172.321 46.1957 172.963 47.688 173.223C47.1096 172.736 46.4664 172.333 45.7768 172.024ZM71.5566 195.71C71.807 195.928 72.0749 196.126 72.3574 196.3H73.5268C72.9008 196.012 72.2376 195.814 71.5566 195.71ZM28.9686 191.505C28.2866 191.181 27.562 190.956 26.8166 190.837C27.3917 191.327 28.0356 191.731 28.7278 192.035C29.4087 192.358 30.1315 192.582 30.8749 192.704C30.3015 192.213 29.6592 191.809 28.9686 191.505ZM72.9372 166.01C72.2572 165.685 71.5341 165.46 70.7901 165.342C71.3635 165.832 72.0058 166.236 72.6964 166.541C73.3786 166.863 74.1033 167.086 74.8484 167.204C74.2712 166.717 73.6276 166.315 72.9372 166.01ZM68.2254 141.935C67.5443 141.609 66.8193 141.384 66.0734 141.267C66.6483 141.754 67.2903 142.156 67.9797 142.461C68.6617 142.785 69.3863 143.01 70.1317 143.129C69.5552 142.648 68.9134 142.251 68.2254 141.95V141.935ZM39.9546 148.597C39.6286 149.278 39.4036 150.003 39.2864 150.749C39.7741 150.173 40.1762 149.529 40.4803 148.838C40.8069 148.159 41.0321 147.436 41.1485 146.691C40.66 147.27 40.2579 147.918 39.9546 148.612V148.597ZM62.7324 188.095C62.4102 188.777 62.1869 189.502 62.0691 190.247C62.5532 189.684 62.9552 189.055 63.263 188.38C63.5868 187.698 63.8118 186.973 63.9312 186.228C63.4469 186.797 63.0435 187.43 62.7324 188.11V188.095ZM76.6811 153.235C76.3554 153.916 76.1319 154.641 76.0178 155.387C76.5043 154.81 76.9063 154.167 77.2117 153.476C77.5333 152.793 77.7582 152.069 77.8799 151.324C77.3924 151.907 76.9889 152.555 76.6811 153.25V153.235ZM45.5066 190.124C45.1796 190.817 44.9546 191.553 44.8384 192.31C45.329 191.737 45.7329 191.095 46.0372 190.404C46.3593 189.722 46.5827 188.997 46.7005 188.252C46.2156 188.822 45.8137 189.457 45.5066 190.139V190.124ZM29.7449 172.073C29.4205 172.755 29.1954 173.479 29.0767 174.225C30.0425 173.057 30.6847 171.656 30.9388 170.162C30.4523 170.739 30.0503 171.382 29.7449 172.073ZM51.9429 160.374C51.6163 161.054 51.3912 161.777 51.2747 162.521C51.762 161.947 52.1641 161.305 52.4686 160.615C52.7924 159.933 53.0174 159.209 53.1368 158.463C52.6503 159.04 52.2483 159.684 51.9429 160.374ZM60.8801 132.502C60.5535 133.181 60.3283 133.904 60.2119 134.649C60.6992 134.074 61.1013 133.432 61.4058 132.742C61.7296 132.06 61.9546 131.336 62.074 130.59C61.5863 131.172 61.1842 131.821 60.8801 132.516V132.502Z" fill="white"/>
<path d="M79.4177 136.408C80.8229 138.746 82.3656 141.002 83.8396 143.286C83.2451 141.655 82.6654 140.024 82.0168 138.417C82.0148 138.411 82.015 138.404 82.0174 138.398C82.0198 138.392 82.0241 138.386 82.0298 138.383C82.0355 138.38 82.0421 138.378 82.0487 138.379C82.0552 138.38 82.0613 138.383 82.0659 138.388C83.0977 140.326 83.9385 142.36 84.5766 144.46C85.6786 146.194 86.6634 148 87.5246 149.865C88.5815 152.103 89.2463 154.506 89.4898 156.97C89.648 159.451 89.2968 161.939 88.4581 164.28C87.4699 166.967 86.2398 169.559 84.783 172.024C84.5963 172.353 84.1393 172.048 84.2916 171.719C86.3503 167.327 88.6251 162.708 88.4188 157.731C88.2124 152.754 85.9228 148.273 83.6775 144.003C82.3659 141.401 80.8889 138.885 79.2556 136.471C79.1868 136.403 79.3538 136.3 79.4177 136.408Z" fill="#263238"/>
<path d="M102.353 191.082L100.879 199.332H146.631C147.894 199.291 149.106 198.825 150.071 198.009C151.036 197.193 151.697 196.075 151.947 194.836L152.605 191.082H102.353Z" fill="#DBDBDB"/>
<path d="M97.1987 194.836L97.862 191.082H106.848L106.185 194.836C105.938 196.071 105.282 197.186 104.323 198.002C103.363 198.818 102.157 199.286 100.898 199.332C100.34 199.346 99.7851 199.236 99.275 199.008C98.7648 198.78 98.3122 198.441 97.9505 198.015C97.6005 197.572 97.3518 197.058 97.2219 196.509C97.0921 195.96 97.0841 195.389 97.1987 194.836Z" fill="#EBEBEB"/>
<path d="M117.22 132.251L105.394 199.332H146.665C147.922 199.283 149.127 198.814 150.085 197.999C151.043 197.183 151.699 196.069 151.947 194.836L163.773 127.755H122.502C121.246 127.779 120.038 128.245 119.092 129.072C118.121 129.885 117.46 131.008 117.22 132.251Z" fill="#DBDBDB"/>
<path d="M122.507 127.755L120.119 141.306H170.362L171.959 132.251C172.396 129.77 170.735 127.755 168.259 127.755H122.507Z" fill="#EBEBEB"/>
<path d="M117.22 132.251L115.623 141.306H124.61L126.207 132.251C126.644 129.77 124.988 127.755 122.507 127.755C121.251 127.779 120.043 128.245 119.097 129.072C118.124 129.884 117.462 131.007 117.22 132.251Z" fill="#DBDBDB"/>
<path d="M157.695 153.697C159.376 158.488 164.22 164.723 164.274 168.496C164.319 169.425 164.063 170.343 163.546 171.115C163.028 171.888 162.276 172.473 161.4 172.785C161.4 172.785 164.918 175.031 164.402 178.46C164.137 180.224 161.081 181.349 161.081 181.349C161.081 181.349 163.822 183.27 163.174 186.292C162.658 188.699 159.676 189.466 159.676 189.466C159.676 189.466 161.444 192.536 160.132 194.821C157.469 199.449 136.456 197.219 134.033 189.132C132.903 185.363 138.008 186.184 138.008 186.184C138.008 186.184 130.953 183.236 131.306 178.883C131.66 174.529 138.219 176.008 138.219 176.008C138.219 176.008 131.41 173.085 132.225 168.614C133.08 163.966 139.394 166.56 139.394 166.56C139.394 166.56 135.055 162.9 136.446 159.623C138.77 154.218 146.872 162.187 151.608 161.588L154.964 154.218L157.695 153.697Z" fill="#FFC5BF"/>
<path d="M161.204 160.767C160.01 156.095 166.166 151.138 165.665 146.519C164.992 140.255 157.46 145.536 154.983 154.257L154.251 161.357L161.204 160.767Z" fill="#FFC5BF"/>
<path d="M159.224 189.657C159.238 189.657 159.252 189.663 159.262 189.673C159.272 189.683 159.278 189.697 159.278 189.711C159.278 189.726 159.272 189.739 159.262 189.75C159.252 189.76 159.238 189.765 159.224 189.765C152.129 190.719 144.051 189.589 137.713 186.174C137.502 186.066 137.595 185.683 137.851 185.756C145.069 188.026 151.638 189.461 159.224 189.657Z" fill="#263238"/>
<path d="M161.179 181.403C161.262 181.403 161.258 181.541 161.179 181.55C153.863 182.494 144.798 180.971 137.954 176.175C137.723 176.013 137.674 175.63 137.954 175.797C142.744 178.642 154.35 181.261 161.179 181.403Z" fill="#263238"/>
<path d="M139.006 166.059C145.742 170.402 153.195 172.147 161.115 172.834C161.218 172.834 161.194 172.992 161.115 173.006C157.155 173.724 152.158 172.756 148.341 171.675C144.771 170.741 141.509 168.886 138.883 166.295C138.745 166.192 138.858 165.971 139.006 166.059Z" fill="#263238"/>
<path d="M59.6371 122.076C59.7353 123.353 64.3833 132.251 70.0531 132.855C71.9005 133.047 73.404 123.029 73.404 123.029L73.6889 122.316L77.6195 112.298L66.6384 102.6L65.0367 101.298C65.0367 101.298 64.1474 104.108 63.0714 107.616C63.0223 107.778 62.9682 107.945 62.9191 108.107C62.87 108.269 62.7864 108.491 62.7324 108.677C62.5654 109.198 62.3983 109.734 62.2411 110.269C62.1182 110.677 62.0003 111.07 61.8873 111.502C61.7743 111.935 61.6564 112.357 61.5336 112.785C60.3986 117.054 59.6027 121.56 59.6371 122.076Z" fill="#FFC5BF"/>
<path d="M63.0566 107.601C63.6558 110.676 64.9172 113.584 66.7532 116.123C68.5893 118.661 70.956 120.77 73.6889 122.302L77.6195 112.284L66.6384 102.585L65.0367 101.283C65.0367 101.283 64.1326 104.093 63.0566 107.601Z" fill="#263238"/>
<path d="M95.0909 100.354C92.6048 119.064 81.1177 119.688 77.0839 119.147C73.4235 118.656 61.0127 116.519 61.5531 97.652C62.0936 78.7851 71.5811 74.0242 80.0171 74.7022C88.4531 75.3802 97.5819 81.6397 95.0909 100.354Z" fill="#FFC5BF"/>
<path d="M92.4034 98.3447C91.9948 98.1925 91.5946 98.0187 91.2046 97.8239C90.7582 97.7017 90.3656 97.4336 90.0893 97.0624C90.0236 96.9294 90.0043 96.7783 90.0346 96.6331C90.0649 96.488 90.1429 96.3571 90.2563 96.2615C90.507 96.1034 90.7953 96.015 91.0916 96.0055C91.3878 95.996 91.6812 96.0657 91.9415 96.2075C92.5129 96.4144 92.9873 96.8258 93.273 97.3621C93.331 97.4884 93.351 97.6289 93.3306 97.7664C93.3103 97.9039 93.2504 98.0325 93.1582 98.1366C93.0661 98.2407 92.9457 98.3158 92.8117 98.3528C92.6777 98.3897 92.5358 98.3869 92.4034 98.3447Z" fill="#263238"/>
<path d="M79.7518 95.1315C80.1855 95.1536 80.6201 95.1536 81.0538 95.1315C81.5147 95.1916 81.9826 95.0983 82.3853 94.8662C82.4964 94.7689 82.5725 94.6379 82.6018 94.4931C82.6311 94.3484 82.612 94.1981 82.5474 94.0653C82.3784 93.8209 82.1472 93.6261 81.8777 93.5009C81.6083 93.3757 81.3103 93.3246 81.0145 93.3529C80.4085 93.3199 79.8116 93.5124 79.3391 93.8933C79.2385 93.9871 79.1669 94.1078 79.1329 94.2411C79.099 94.3743 79.104 94.5146 79.1475 94.6451C79.191 94.7755 79.2711 94.8907 79.3782 94.977C79.4854 95.0632 79.615 95.1169 79.7518 95.1315Z" fill="#263238"/>
<path d="M81.7465 99.2488C81.7465 99.1947 81.6385 99.2881 81.6286 99.3421C81.4419 100.615 81.0145 102.039 79.7911 102.251C79.7567 102.251 79.7468 102.324 79.7911 102.324C81.2208 102.398 81.7711 100.482 81.7465 99.2488Z" fill="#263238"/>
<path d="M80.8573 97.7208C78.8527 97.2 77.9536 101.253 79.8157 101.735C81.6778 102.216 82.5377 98.158 80.8573 97.7208Z" fill="#263238"/>
<path d="M80.0123 97.7601C79.6094 97.9124 79.1721 98.2514 78.7397 98.1875C78.2484 98.1285 77.9536 97.6176 77.7227 97.141C77.6981 97.0919 77.6539 97.1164 77.6441 97.1705C77.4574 97.9468 77.5802 98.8066 78.3909 99.1063C79.123 99.3814 79.8206 98.8164 80.1891 98.0794C80.2579 97.9418 80.1793 97.7011 80.0123 97.7601Z" fill="#263238"/>
<path d="M89.2392 100.433C89.2392 100.389 89.3228 100.516 89.308 100.57C88.9788 101.813 88.8167 103.292 89.8534 103.965C89.8878 103.99 89.8534 104.049 89.8288 104.034C88.4875 103.509 88.7283 101.548 89.2392 100.433Z" fill="#263238"/>
<path d="M90.6542 99.3667C92.708 99.6762 91.9366 103.754 90.0401 103.469C88.1436 103.184 88.9395 99.1112 90.6542 99.3667Z" fill="#263238"/>
<path d="M91.4552 99.7991C91.7352 100.074 91.9809 100.526 92.3641 100.624C92.7473 100.723 93.2141 100.359 93.5777 99.9907C93.617 99.9514 93.6416 99.9907 93.6366 100.045C93.5089 100.831 93.0962 101.592 92.3199 101.602C91.5436 101.612 91.239 100.846 91.1997 100.035C91.1898 99.8826 91.3422 99.6861 91.4552 99.7991Z" fill="#263238"/>
<path d="M79.747 110.068C79.9681 110.436 80.1548 110.918 80.5969 111.05C81.0601 111.165 81.542 111.181 82.012 111.1C82.0222 111.096 82.0334 111.096 82.0435 111.1C82.0536 111.104 82.0619 111.112 82.0668 111.121C82.0716 111.131 82.0727 111.142 82.0699 111.153C82.067 111.163 82.0604 111.172 82.0513 111.178C81.8072 111.373 81.515 111.499 81.2055 111.542C80.896 111.586 80.5805 111.545 80.2923 111.424C80.0566 111.291 79.8661 111.092 79.7452 110.85C79.6243 110.608 79.5787 110.336 79.6143 110.068C79.6143 110.014 79.7224 110.014 79.747 110.068Z" fill="#263238"/>
<path d="M85.9572 106.619C85.9572 106.619 85.8246 108.55 85.6379 109.439C85.6379 109.522 85.3971 109.513 85.0925 109.468C85.0875 109.472 85.0815 109.474 85.0753 109.474C85.0691 109.474 85.0631 109.472 85.0581 109.468C84.2687 109.447 83.5003 109.209 82.8367 108.781C82.1731 108.353 81.6396 107.751 81.2946 107.041C81.2848 107.021 81.283 106.997 81.2894 106.975C81.2959 106.953 81.3101 106.934 81.3295 106.922C81.3489 106.91 81.3721 106.906 81.3946 106.909C81.4171 106.913 81.4375 106.925 81.4518 106.943C82.4202 107.954 83.691 108.623 85.0728 108.849C85.1859 108.618 85.1859 105.533 85.3283 105.552C86.0055 105.755 86.6519 106.049 87.2494 106.427C87.6425 102.408 87.387 98.3595 87.839 94.365C87.839 94.3324 87.8519 94.3012 87.875 94.2782C87.898 94.2551 87.9293 94.2422 87.9618 94.2422C87.9944 94.2422 88.0257 94.2551 88.0487 94.2782C88.0717 94.3012 88.0847 94.3324 88.0847 94.365C88.6497 98.5904 88.2959 103.209 87.9962 107.385C87.9667 107.891 86.2815 106.845 85.9572 106.619Z" fill="#263238"/>
<path d="M62.8699 97.8927C67.1935 98.7771 68.4906 91.9428 68.4906 91.9428C68.4906 91.9428 73.4874 92.4341 75.3937 84.5975C75.3937 84.5975 76.8235 89.8448 83.2893 92.1147C84.6601 92.6061 80.646 88.022 80.646 88.022C80.646 88.022 85.3086 94.2471 96.1964 94.3503C96.9628 94.3503 98.4221 82.9073 90.9196 77.5224C83.417 72.1375 74.7059 72.8941 68.5692 77.0999C68.5692 77.0999 62.6733 79.1733 60.8898 84.7596C59.1063 90.346 61.1895 97.5488 62.8699 97.8927Z" fill="#263238"/>
<path d="M77.2658 106.427C76.1369 106.111 75.1192 105.485 74.3284 104.62C73.5376 103.755 73.0055 102.685 72.7924 101.532C72.5794 100.38 72.694 99.1905 73.1233 98.0998C73.5526 97.0091 74.2793 96.0607 75.2208 95.3624C76.1623 94.6641 77.2808 94.244 78.4492 94.1499C79.6176 94.0557 80.7889 94.2912 81.8301 94.8297C82.8713 95.3681 83.7405 96.1879 84.3389 97.1958C84.9374 98.2037 85.241 99.3592 85.2154 100.531C85.1729 102.187 84.4776 103.758 83.2811 104.903C82.0846 106.048 80.4839 106.674 78.8282 106.643C78.3002 106.639 77.7751 106.566 77.2658 106.427ZM80.4151 95.1659C79.331 94.8656 78.1803 94.9111 77.1233 95.2961C76.0663 95.681 75.1557 96.3862 74.5186 97.3132C73.8814 98.2403 73.5494 99.3431 73.5689 100.468C73.5883 101.593 73.9583 102.683 74.6271 103.588C75.2959 104.492 76.2303 105.165 77.3 105.514C78.3697 105.862 79.5213 105.867 80.5944 105.53C81.6674 105.192 82.6085 104.528 83.2862 103.631C83.9639 102.733 84.3446 101.646 84.3752 100.521C84.4004 99.3185 84.0271 98.1411 83.3136 97.1725C82.6 96.2038 81.5861 95.4983 80.4299 95.1659H80.4151Z" fill="#EBEBEB"/>
<path d="M91.5141 108.579C89.2098 107.935 87.7751 104.987 88.2812 101.759C88.4898 100.214 89.177 98.7724 90.2465 97.6372C90.6789 97.1241 91.2365 96.7312 91.8652 96.4965C92.4939 96.2618 93.1725 96.1933 93.8354 96.2975C94.4983 96.4017 95.1232 96.6752 95.6495 97.0915C96.1759 97.5078 96.5859 98.0528 96.84 98.6739C97.5186 100.081 97.7385 101.665 97.4689 103.204C96.9334 106.614 94.4326 109.065 91.8924 108.667C91.7644 108.647 91.638 108.617 91.5141 108.579ZM94.0395 97.1901C93.9381 97.1597 93.8347 97.1367 93.73 97.1213C93.1982 97.0636 92.6603 97.1338 92.1612 97.3261C91.6621 97.5184 91.2162 97.8272 90.8606 98.2268C89.9106 99.2356 89.2976 100.515 89.1066 101.887C88.6448 104.835 89.9566 107.513 92.0545 107.842C94.1525 108.171 96.2111 106.029 96.6779 103.076C96.9179 101.711 96.7274 100.305 96.1325 99.0523C95.9312 98.6099 95.6384 98.2152 95.2734 97.8942C94.9083 97.5732 94.4794 97.3333 94.0149 97.1901H94.0395Z" fill="#EBEBEB"/>
<path d="M84.9108 101.224L84.4784 100.507C85.5397 99.8629 87.8734 99.1456 89.1312 100.998L88.4385 101.489C87.3133 99.8089 85.009 101.165 84.9108 101.224Z" fill="#EBEBEB"/>
<path d="M57.0919 98.4676L56.4188 97.9762C56.6497 97.6618 58.728 94.9005 60.6246 94.8907C62.3933 94.8907 73.3155 97.6667 73.7822 97.7846L73.5709 98.5953C70.4412 97.7944 61.9953 95.7211 60.6295 95.726C59.3766 95.7505 57.652 97.7257 57.0919 98.4676Z" fill="#EBEBEB"/>
<path d="M64.339 99.4846C64.339 99.4846 61.5925 92.837 58.6642 93.6919C55.7359 94.5468 56.9053 103.558 59.7157 105.38C60.0602 105.639 60.4534 105.825 60.8717 105.928C61.29 106.03 61.7248 106.047 62.1498 105.978C62.5748 105.908 62.9813 105.753 63.3449 105.522C63.7085 105.291 64.0215 104.989 64.2653 104.634L64.339 99.4846Z" fill="#FFC5BF"/>
<path d="M59.0868 96.2664C59.077 96.2648 59.067 96.2664 59.0584 96.2711C59.0497 96.2758 59.0428 96.2833 59.0389 96.2923C59.0349 96.3013 59.0341 96.3114 59.0365 96.321C59.039 96.3305 59.0446 96.339 59.0524 96.345C61.0177 97.6962 61.6957 99.9366 62.0249 102.177C61.563 101.244 60.7917 100.615 59.5683 101.135C59.5557 101.143 59.5458 101.154 59.5401 101.168C59.5343 101.181 59.533 101.196 59.5363 101.21C59.5396 101.224 59.5473 101.237 59.5583 101.247C59.5694 101.256 59.5832 101.262 59.5977 101.263C60.003 101.226 60.4098 101.316 60.7618 101.52C61.1138 101.725 61.3938 102.033 61.563 102.403C61.846 103.021 62.0586 103.669 62.1968 104.334C62.2558 104.545 62.6243 104.521 62.5997 104.285C62.5997 104.285 62.5997 104.25 62.5997 104.231C63.2237 101.504 61.9463 97.195 59.0868 96.2664Z" fill="#263238"/>
<path d="M73.2614 123.343L70.6181 131.971L59.3619 122.302L56.7136 125.933C56.7136 125.933 68.2745 141.837 68.2745 141.07L71.0996 133.592L76.5042 138.171L75.0302 125.653L73.2614 123.343Z" fill="#EBEBEB"/>
<path d="M76.1062 131.941C75.7967 129.883 75.5412 127.8 75.1236 125.756C75.1236 125.687 74.9909 125.662 74.9811 125.756C74.7355 127.79 75.9638 135.656 76.121 137.548C75.895 137.346 71.1488 133.538 71.1095 133.617C70.4609 134.821 68.3826 140.269 68.25 140.761C66.4222 138.235 58.7281 128.316 56.6154 125.962C56.6103 125.954 56.6036 125.948 56.5959 125.943C56.5882 125.937 56.5795 125.934 56.5704 125.932C56.5612 125.93 56.5518 125.93 56.5427 125.932C56.5336 125.934 56.5249 125.937 56.5172 125.942C56.5094 125.948 56.5028 125.954 56.4976 125.962C56.4924 125.97 56.4888 125.978 56.487 125.987C56.4851 125.997 56.4851 126.006 56.4869 126.015C56.4888 126.024 56.4923 126.033 56.4975 126.041C58.1533 128.733 68.1222 141.837 68.2401 141.793C69.3593 139.21 70.3433 136.572 71.1881 133.887C72.0086 134.732 76.8432 139.08 76.8334 138.771C76.7127 136.483 76.4699 134.203 76.1062 131.941Z" fill="#263238"/>
<path d="M55.9029 139.739C51.5301 158.576 39.1438 179.649 31.3023 185.845C26.5266 189.613 11.2415 189.648 10.5586 179.757C9.87565 169.867 39.8857 138.869 44.3027 132.841C48.7197 126.812 59.8532 122.744 55.9029 139.739Z" fill="#FFC5BF"/>
<path d="M55.9029 139.739C51.5301 158.576 39.1438 179.649 31.3023 185.845C26.5266 189.613 11.2415 189.648 10.5586 179.757C9.87565 169.867 39.8857 138.869 44.3027 132.841C48.7197 126.812 59.8532 122.744 55.9029 139.739Z" fill="#EE0088"/>
<path d="M21.3579 182.061C20.6568 182.318 19.9953 182.672 19.3926 183.113C20.1426 183.053 20.8803 182.888 21.5839 182.622C22.2964 182.37 22.9684 182.016 23.5787 181.57C22.8184 181.625 22.0702 181.79 21.3579 182.061ZM47.5848 134.403C46.8837 134.66 46.2222 135.014 45.6195 135.454C46.3694 135.395 47.1072 135.23 47.8108 134.963C48.5233 134.711 49.1953 134.357 49.8055 133.912C49.0461 133.966 48.2983 134.128 47.5848 134.393V134.403ZM38.1169 160.935C37.4161 161.19 36.7545 161.542 36.1516 161.981C37.6591 161.84 39.1028 161.304 40.3377 160.428C39.577 160.486 38.8288 160.655 38.1169 160.93V160.935ZM30.6341 152.513C30.3898 151.796 30.044 151.118 29.6072 150.499C29.6666 151.25 29.832 151.99 30.0985 152.695C30.3513 153.407 30.7054 154.079 31.15 154.69C31.0814 153.944 30.9077 153.211 30.6341 152.513ZM18.4198 171.257C18.165 170.546 17.8111 169.874 17.3683 169.262C17.5106 170.771 18.0459 172.216 18.9209 173.453C18.8584 172.701 18.6897 171.962 18.4198 171.257ZM35.5031 179.462C35.5446 180.058 35.6635 180.646 35.8568 181.211L36.245 180.72C36.0446 180.275 35.7958 179.853 35.5031 179.462ZM53.4168 145.595C53.162 144.886 52.808 144.216 52.3653 143.606C52.4224 144.356 52.5879 145.094 52.8567 145.797C53.0718 146.395 53.3536 146.967 53.6968 147.502C53.7361 147.374 53.7804 147.251 53.8197 147.123C53.7268 146.604 53.5903 146.092 53.4119 145.595H53.4168ZM25.5194 161.357C24.8372 161.035 24.1126 160.812 23.3674 160.694C23.9423 161.181 24.5843 161.583 25.2737 161.888C25.9557 162.211 26.6803 162.436 27.4257 162.556C26.8491 162.07 26.2075 161.666 25.5194 161.357ZM39.9545 148.583C39.6285 149.264 39.4034 149.989 39.2863 150.735C39.774 150.158 40.1761 149.514 40.4802 148.823C40.8068 148.144 41.032 147.421 41.1484 146.676C40.6587 147.26 40.2565 147.912 39.9545 148.612V148.583ZM29.7448 172.073C29.4204 172.755 29.1953 173.479 29.0766 174.225C30.0424 173.057 30.6846 171.656 30.9387 170.162C30.4521 170.739 30.0501 171.382 29.7448 172.073ZM10.9074 178.666C10.7797 178.956 10.6568 179.251 10.5537 179.556C10.5487 179.621 10.5487 179.687 10.5537 179.752C10.5537 179.954 10.588 180.155 10.6126 180.347C10.9275 179.893 11.2005 179.411 11.4282 178.907C11.7505 178.225 11.9754 177.5 12.0964 176.755C11.6104 177.332 11.21 177.976 10.9074 178.666Z" fill="white"/>
<path d="M18.0858 187.279C20.1449 187.613 22.2433 187.624 24.3059 187.314C26.326 186.986 28.2691 186.291 30.0397 185.265C33.7836 183.113 36.2893 179.467 38.515 175.881C40.9553 171.95 43.2481 167.924 45.3936 163.804C47.5308 159.691 49.4912 155.486 51.3828 151.255C52.3409 149.123 53.2105 146.961 54.1195 144.809C55.0284 142.657 55.8882 140.53 56.6793 138.353C56.8807 137.803 57.0674 137.253 57.259 136.702C57.2623 136.692 57.2696 136.683 57.2792 136.678C57.2889 136.673 57.3002 136.672 57.3106 136.675C57.321 136.679 57.3298 136.686 57.3348 136.696C57.3399 136.705 57.3409 136.717 57.3376 136.727C56.6301 138.977 55.957 141.252 55.1955 143.483C55.0972 143.773 54.9891 144.062 54.8859 144.352C55.677 142.667 56.4877 140.992 57.3426 139.336C57.3917 139.238 57.5293 139.336 57.49 139.424C56.7333 141.144 55.9472 142.864 55.1414 144.539C54.7418 145.374 54.3406 146.206 53.9377 147.035C53.5545 148.067 53.1565 149.103 52.7487 150.13C50.9897 154.533 49.0343 158.841 46.8823 163.057C44.7303 167.273 42.4112 171.401 39.9251 175.443C37.6503 179.163 35.2084 182.985 31.5284 185.466C28.0035 187.834 23.6826 188.705 19.5155 187.889C19.015 187.782 18.5225 187.641 18.0415 187.466C18.0214 187.456 18.0052 187.44 17.9956 187.42C17.986 187.4 17.9836 187.377 17.9887 187.355C17.9939 187.333 18.0063 187.314 18.024 187.3C18.0416 187.286 18.0634 187.279 18.0858 187.279Z" fill="#263238"/>
<path d="M25.3966 111.674C28.5165 104.083 33.5772 93.6722 36.9771 92.0804C40.554 90.4246 53.3628 85.1183 56.7382 84.8481C60.1136 84.5778 72.0822 88.0761 74.2441 90.1986C75.9686 91.8986 72.9764 95.9471 66.1569 95.3673C59.7696 94.8219 58.2957 94.3847 56.4434 94.6647C54.5911 94.9448 49.1128 99.3667 49.5943 102.069C49.8793 103.656 53.5888 106.393 56.4729 105.896C59.3569 105.4 61.0913 102.58 64.6534 100.934C68.2155 99.2881 73.3253 100.934 73.2614 102.408C73.1975 103.882 71.2961 104.098 67.4343 108.176C64.9384 110.795 63.1401 115.998 57.9075 120.268C55.2789 122.41 50.0758 128.581 50.0758 128.581L25.3966 111.674Z" fill="#FFC5BF"/>
<path d="M36.9772 92.0804C40.4951 88.7934 48.7247 83.3544 55.6966 82.5585C60.4084 82.0131 73.3155 93.004 72.156 95.7112C70.9965 98.4184 68.4809 97.7846 64.8598 96.3794C63.5431 95.8881 56.9986 91.4318 55.4018 92.6257C53.0828 94.3404 48.936 101.175 48.936 101.175L36.9772 92.0804Z" fill="#FFC5BF"/>
<path d="M72.0823 94.537C71.0358 91.0486 67.4442 88.4052 63.7838 86.1059C63.7249 86.0665 63.6659 86.155 63.7249 86.1894C64.6535 86.779 70.3823 91.4416 72.0233 94.5714C72.043 94.6058 72.0921 94.5714 72.0823 94.537Z" fill="#263238"/>
<path d="M36.9772 92.0804C40.4951 88.7934 48.7247 83.3544 55.6966 82.5585C60.4084 82.0131 69.7141 94.2176 68.5595 96.9297C67.4049 99.6418 63.7199 98.9294 60.0792 96.5072C58.9001 95.7211 55.3478 91.5546 53.7362 92.7436C51.4123 94.4584 45.7326 98.7378 45.7326 98.7378L36.9772 92.0804Z" fill="#FFC5BF"/>
<path d="M49.0735 96.0601C49.6337 95.5688 49.8302 95.3624 50.4001 94.8563C50.9701 94.3503 51.5449 93.8737 52.1492 93.3824C52.6439 92.9367 53.2125 92.5809 53.8296 92.3309C54.4449 92.1607 55.099 92.197 55.6917 92.4341C57.0477 92.9254 58.0746 94.1243 59.0769 95.1069C60.1971 96.1977 62.6095 98.1236 64.7566 98.4381C65.3365 98.5609 65.9357 98.5609 66.5156 98.4381C66.9517 98.3611 67.3619 98.1771 67.7095 97.9025C69.0066 96.6005 68.3285 94.5566 67.4933 92.9893C65.9309 90.12 63.4644 87.6977 61.0078 85.6194C60.4035 85.1036 59.7844 84.6024 59.1703 84.1012C58.4958 83.4775 57.6947 83.0066 56.8217 82.7206C55.3723 82.3374 52.616 83.212 51.766 83.4576C51.7021 83.4576 51.6825 83.3741 51.766 83.3544C52.7978 83.0253 55.4755 81.7871 57.7847 82.5094C58.6298 82.7747 59.3177 83.4183 60.0104 83.9539C60.7032 84.4894 61.4451 85.1036 62.1379 85.7079C63.4965 86.8692 64.7615 88.1358 65.9211 89.496C67.0069 90.7882 68.1418 92.2621 68.6823 93.8835C69.1736 95.2887 68.9476 97.0575 67.8618 98.1236C66.9479 99.0228 65.5182 98.9294 64.8696 98.8508C64.2362 98.7705 63.6165 98.6052 63.0272 98.3595C61.7388 97.7151 60.499 96.9778 59.3177 96.1534C58.1778 95.3231 57.2541 94.1881 56.0504 93.4413C55.7698 93.2554 55.4548 93.1275 55.1241 93.0651C54.7933 93.0026 54.4534 93.0069 54.1244 93.0777C53.4978 93.2973 52.9081 93.6104 52.3752 94.0063C51.2807 94.639 50.2477 95.3726 49.2897 96.1977C49.0097 96.4138 48.8377 96.2763 49.0735 96.0601Z" fill="#263238"/>
<path d="M34.2454 95.0283C35.6456 93.3971 39.1586 86.0862 41.2713 84.1062C43.384 82.1261 52.2671 75.7045 55.3477 76.8739C59.2194 78.3478 53.2154 84.4599 50.3657 86.8772C47.516 89.2945 46.5776 94.4191 46.5776 94.4191L34.2454 95.0283Z" fill="#FFC5BF"/>
<path d="M54.5371 82.7452C53.5544 83.492 52.6307 84.3616 51.7267 85.2018C50.8228 85.9577 49.9754 86.7788 49.1915 87.6584C48.4845 88.5887 47.9366 89.6296 47.5701 90.739C47.3736 91.2795 47.2163 91.8298 47.0788 92.385C46.9412 92.9402 46.8134 93.6182 46.6415 94.2176C46.6415 94.2815 46.7201 94.3208 46.7397 94.252C47.099 93.1613 47.5274 92.0947 48.0221 91.0584C48.5135 89.9772 49.1338 88.9593 49.8695 88.0269C51.3435 86.1795 53.181 84.6712 54.6648 82.8336C54.7189 82.7747 54.6108 82.6911 54.5371 82.7452Z" fill="#263238"/>
<path d="M55.0234 105.887C56.3448 105.963 57.6446 105.525 58.6494 104.663C59.5927 103.956 60.4918 103.189 61.4401 102.487C62.3559 101.749 63.3737 101.149 64.4618 100.703C65.7187 100.306 67.0254 100.088 68.3432 100.055C69.614 99.9189 70.8984 100.106 72.0773 100.6C73.0304 101.052 74.0426 102.039 73.5169 103.199C73.2513 103.719 72.8876 104.183 72.4458 104.565C72.0316 104.958 71.5882 105.32 71.1192 105.646C70.1808 106.319 69.1834 106.923 68.3088 107.69C67.1444 108.712 66.3435 110.102 65.4886 111.384C65.1693 111.876 63.1303 115.089 62.354 116.185C61.7028 117.118 60.9712 117.993 60.1676 118.799C59.3721 119.529 58.5337 120.212 57.6569 120.842C56.6997 121.524 55.8214 122.31 55.0381 123.186C55.0038 123.23 54.9448 123.186 54.9694 123.127C55.952 121.319 57.7503 120.105 59.3913 118.907C61.4892 117.354 66.147 109.336 66.9921 108.245C68.3973 106.432 70.5296 105.562 72.1313 103.985C72.4998 103.622 73.0648 103.106 73.055 102.536C73.0095 102.265 72.8952 102.01 72.7232 101.796C72.5512 101.582 72.3271 101.415 72.0724 101.312C70.9718 100.728 69.6157 100.767 68.4169 100.885C67.1563 100.948 65.9069 101.154 64.6927 101.499C63.6335 101.879 62.6317 102.403 61.7153 103.057C60.6638 103.784 59.6566 104.531 58.5511 105.189C57.5019 105.879 56.237 106.162 54.9939 105.985C54.935 105.97 54.9644 105.882 55.0234 105.887Z" fill="#263238"/>
<path d="M72.2493 89.2258C71.4091 88.813 70.5739 88.3659 69.719 87.9778C69.719 87.9778 69.719 87.9287 69.719 87.9385C70.7311 88.3414 71.7727 88.6755 72.7898 89.0685C73.5955 89.3781 74.4259 89.8301 74.7551 90.6752C74.8842 91.0708 74.9067 91.4935 74.8205 91.9006C74.7342 92.3077 74.5422 92.6849 74.2637 92.9942C73.6393 93.6482 72.8821 94.1608 72.043 94.4977C71.9987 94.5222 71.9643 94.4534 72.0086 94.4289C73.232 93.7214 75.1285 92.2965 74.1311 90.6703C73.6511 90.0224 72.9992 89.5219 72.2493 89.2258Z" fill="#263238"/>
<path d="M68.1565 97.3768C69.1146 97.4063 70.1758 97.3768 71.0258 96.8855C71.3111 96.7285 71.5548 96.5058 71.7368 96.2358C71.9188 95.9658 72.0338 95.6563 72.0724 95.3329C72.1236 95.0982 72.0906 94.8529 71.979 94.6402C71.9397 94.591 72.0331 94.5468 72.0478 94.6058C72.0905 94.7334 72.1413 94.8581 72.2001 94.9792C72.2363 95.0876 72.261 95.1996 72.2738 95.3133C72.2979 95.5391 72.2795 95.7673 72.2198 95.9864C72.0786 96.4633 71.7787 96.8776 71.3698 97.1606C70.4117 97.8485 69.2227 97.7846 68.1418 97.4653C68.0975 97.4456 68.1074 97.3768 68.1565 97.3768Z" fill="#263238"/>
<path d="M50.066 128.591C47.973 136.142 32.0639 176.416 27.642 182.101C23.2201 187.785 12.465 189.009 9.46301 178.735C6.46101 168.462 22.09 119.359 25.3917 111.674C27.2342 107.4 50.8178 125.854 50.066 128.591Z" fill="#FFC5BF"/>
<path d="M53.5446 133.681L22.3258 115.575C22.3258 115.575 8.97165 161.382 8.73581 175.507C8.56385 185.643 20.7143 193.219 30.3148 179.516C39.9152 165.813 53.5446 133.681 53.5446 133.681Z" fill="#EE0088"/>
<path d="M23.279 116.155C22.8134 116.719 22.4251 117.341 22.1244 118.008C21.8022 118.69 21.5789 119.414 21.4611 120.16C21.9484 119.585 22.3505 118.943 22.655 118.253C22.9698 117.587 23.1913 116.881 23.3134 116.155H23.279ZM13.2167 159.834C12.8945 160.516 12.6712 161.241 12.5534 161.986C13.0407 161.411 13.4428 160.769 13.7473 160.08C14.072 159.395 14.297 158.667 14.4155 157.918C13.9295 158.498 13.5261 159.143 13.2167 159.834ZM10.9075 178.666C10.583 179.348 10.358 180.073 10.2393 180.818C10.7252 180.242 11.1257 179.598 11.4283 178.907C11.7505 178.225 11.9754 177.5 12.0965 176.755C11.6105 177.332 11.2101 177.976 10.9075 178.666ZM29.7448 172.073C29.4204 172.755 29.1954 173.479 29.0766 174.225C30.0425 173.057 30.6846 171.656 30.9387 170.162C30.4522 170.739 30.0502 171.382 29.7448 172.073ZM40.2395 125.982C40.2395 126.026 40.2395 126.075 40.2395 126.119L40.323 126.016L40.2395 125.982ZM39.9545 148.627C39.6286 149.308 39.4035 150.033 39.2863 150.779C39.774 150.202 40.1761 149.559 40.4803 148.868C40.8069 148.188 41.032 147.465 41.1485 146.721C40.6624 147.291 40.2603 147.928 39.9545 148.612V148.627ZM25.5587 143.497C25.2335 144.174 25.0084 144.894 24.8905 145.635C25.8514 144.464 26.4929 143.064 26.7527 141.571C26.2661 142.149 25.8641 142.792 25.5587 143.483V143.497ZM36.25 138.068C35.568 137.745 34.8434 137.52 34.098 137.4C34.6714 137.891 35.3137 138.295 36.0043 138.599C36.6873 138.916 37.4119 139.134 38.1563 139.247C37.5807 138.761 36.9388 138.359 36.25 138.054V138.068ZM25.5194 161.357C24.8372 161.035 24.1126 160.812 23.3674 160.694C23.9424 161.181 24.5844 161.583 25.2738 161.888C25.9557 162.211 26.6804 162.436 27.4258 162.556C26.8491 162.07 26.2075 161.666 25.5194 161.357ZM20.8519 132.575C20.1703 132.25 19.4456 132.025 18.6999 131.907C19.8678 132.873 21.269 133.515 22.7631 133.769C22.1846 133.29 21.5412 132.894 20.8519 132.595V132.575ZM18.3952 171.238C18.1405 170.526 17.7866 169.855 17.3438 169.243C17.486 170.752 18.0214 172.197 18.8964 173.434C18.84 172.69 18.6796 171.957 18.4198 171.257L18.3952 171.238ZM30.6341 152.513C30.3898 151.796 30.044 151.118 29.6073 150.499C29.6666 151.25 29.8321 151.99 30.0986 152.695C30.3514 153.407 30.7055 154.079 31.15 154.69C31.0814 153.944 30.9077 153.211 30.6341 152.513ZM38.117 160.949C37.4161 161.204 36.7546 161.557 36.1517 161.996C37.6591 161.855 39.1028 161.319 40.3378 160.443C39.5778 160.496 38.8296 160.66 38.117 160.93V160.949ZM17.2652 149.993C16.5633 150.248 15.9015 150.602 15.2999 151.044C16.0511 150.982 16.7902 150.817 17.4961 150.553C18.198 150.298 18.8598 149.944 19.4614 149.501C18.7095 149.558 17.9698 149.724 17.2652 149.993ZM29.4844 127.082C28.7733 127.337 28.1017 127.691 27.4896 128.134C28.2412 128.074 28.9806 127.909 29.6859 127.642C30.3979 127.39 31.0697 127.035 31.6806 126.591C30.929 126.65 30.1895 126.815 29.4844 127.082ZM47.5848 134.393C46.8838 134.65 46.2222 135.004 45.6195 135.445C46.3695 135.385 47.1073 135.22 47.8108 134.953C48.5233 134.702 49.1953 134.347 49.8056 133.902C49.0457 133.959 48.2979 134.124 47.5848 134.393ZM21.3579 182.052C20.6569 182.309 19.9953 182.662 19.3926 183.103C20.1426 183.044 20.8804 182.878 21.5839 182.612C22.2964 182.36 22.9684 182.006 23.5787 181.56C22.818 181.618 22.0698 181.787 21.3579 182.061V182.052Z" fill="white"/>
<path d="M49.2602 139.247C44.5337 136.707 25.5587 125.623 21.6232 122.95C21.3481 122.764 21.4021 122.542 21.7117 122.7C36.078 129.952 44.8383 136.3 49.3683 139.046C49.4813 139.115 49.3978 139.302 49.2602 139.247Z" fill="#263238"/>
<path d="M39.2716 163.529C42.5684 157.338 45.7374 151.083 48.6067 144.672C49.4027 142.877 50.1822 141.075 50.9454 139.267C51.6775 137.528 52.4194 135.784 53.0778 134.015C52.4243 133.558 49.555 131.681 49.2454 131.391C49.1521 131.308 49.2454 131.146 49.3732 131.185C49.7564 131.327 53.0876 133.258 53.7951 133.784C53.8983 133.858 52.4784 137.307 51.8298 138.958C51.1813 140.608 50.5229 142.249 49.835 143.871C48.4724 147.104 47.0312 150.299 45.5114 153.457C43.8753 156.866 42.1655 160.227 40.3525 163.534C38.7704 166.383 35.0118 171.503 39.2716 163.529Z" fill="#263238"/>
<path d="M129.676 65.3916C129.676 68.4312 128.833 71.4111 127.238 73.999C125.644 76.5869 123.362 78.6808 120.647 80.047C117.932 81.4132 114.89 81.9981 111.862 81.7362C108.834 81.4743 105.938 80.3761 103.498 78.564L95.4449 80.6129L98.7909 73.13C97.6123 70.9309 96.9509 68.4921 96.8569 65.9989C96.7629 63.5057 97.2387 61.024 98.2483 58.7424C99.2578 56.4609 100.774 54.4396 102.683 52.8325C104.591 51.2253 106.841 50.0746 109.261 49.4678C111.681 48.8611 114.208 48.8143 116.648 49.3311C119.089 49.8478 121.38 50.9145 123.347 52.4499C125.313 53.9853 126.903 55.949 127.997 58.1916C129.09 60.4342 129.658 62.8967 129.656 65.3916H129.676Z" fill="white"/>
<path d="M129.675 65.3916C129.674 68.4319 128.833 71.4127 127.243 74.0045C126.848 74.648 126.413 75.2666 125.941 75.8568C125.453 76.4341 124.93 76.9805 124.374 77.4929C124.084 77.7386 123.829 78.0236 123.519 78.2397L122.61 78.9227C122.311 79.1487 121.972 79.3305 121.657 79.5319L121.166 79.8316C121.004 79.925 120.827 80.0036 120.674 80.0871L119.652 80.5785L118.586 80.9764C118.233 81.1135 117.87 81.2235 117.5 81.3056C117.132 81.3941 116.768 81.5218 116.395 81.5758C115.649 81.7213 114.894 81.8132 114.135 81.851C113.378 81.9124 112.617 81.9124 111.86 81.851C108.803 81.6104 105.874 80.5195 103.404 78.7016L103.552 78.7311L95.5284 80.8241L95.0961 80.9371L95.2779 80.5244L98.6041 73.0366V73.243C97.3951 71.0198 96.7221 68.5449 96.6388 66.0156C96.5521 63.4912 97.043 60.9804 98.0742 58.6746C99.1053 56.3687 100.649 54.3289 102.589 52.7105C104.525 51.109 106.798 49.9674 109.239 49.3717C111.68 48.776 114.224 48.7416 116.68 49.2713C119.12 49.8167 121.407 50.903 123.372 52.4501C125.333 53.9898 126.92 55.9545 128.011 58.1962C129.103 60.4379 129.672 62.8981 129.675 65.3916ZM129.675 65.3916C129.663 62.9028 129.085 60.4493 127.987 58.216C126.888 55.9828 125.296 54.0281 123.332 52.4993C121.362 50.9909 119.079 49.9418 116.65 49.4285C114.223 48.9394 111.717 49.0083 109.32 49.6299C106.923 50.2367 104.697 51.3865 102.815 52.9906C100.955 54.6012 99.4697 56.5982 98.4616 58.8423C97.4709 61.0921 97.0047 63.5378 97.0983 65.9943C97.1919 68.4509 97.8429 70.854 99.0021 73.0219L99.0561 73.1251L99.0119 73.2282L95.6464 80.7013L95.3958 80.4065L103.444 78.3921H103.522L103.591 78.4412C105.995 80.2541 108.857 81.3616 111.855 81.6397C112.602 81.7101 113.352 81.7216 114.1 81.6741C114.85 81.6455 115.597 81.565 116.336 81.4334C116.709 81.3793 117.068 81.2614 117.437 81.1779C117.804 81.1001 118.166 80.995 118.517 80.8634L119.579 80.4851L120.596 79.9938C120.768 79.9102 120.94 79.8365 121.087 79.7481L121.578 79.4582C121.898 79.2568 122.237 79.0848 122.537 78.8637L123.445 78.1906C123.744 77.9609 124.029 77.7149 124.3 77.4536C124.856 76.9451 125.381 76.4037 125.873 75.8323C126.347 75.2463 126.783 74.6309 127.18 73.9898C128.79 71.4096 129.654 68.4333 129.675 65.3916Z" fill="#263238"/>
<path d="M111.496 74.0487L105.389 67.8728L107.443 65.8485L111.005 69.4549L118.414 57.8449L120.841 59.3925L111.496 74.0487Z" fill="#B6005B"/>
</g>
</svg>
