<svg width="151" height="150" viewBox="0 0 151 150" fill="none" xmlns="http://www.w3.org/2000/svg">
<g clip-path="url(#clip0_677_17230)">
<ellipse opacity="0.05" cx="71.8415" cy="71.3415" rx="71.3415" ry="71.3415" fill="#1A1F2E"/>
<mask id="mask0_677_17230" style="mask-type:alpha" maskUnits="userSpaceOnUse" x="-10" y="-7" width="154" height="150">
<path d="M143.183 71.3414C143.183 110.742 111.242 142.683 71.8415 142.683C32.4407 142.683 -9.08899 112.688 -9.08899 73.2876C-9.08899 33.8868 24.7979 -6.16443 64.1987 -6.16443C103.599 -6.16443 143.183 15.0684 143.183 71.3414Z" fill="#EE0088"/>
</mask>
<g mask="url(#mask0_677_17230)">
<g opacity="0.5">
<path d="M105.966 50.0338L104.879 55.6766C104.784 56.2414 104.575 56.781 104.265 57.2626C103.955 57.7443 103.55 58.158 103.076 58.4788C102.601 58.7996 102.067 59.0208 101.504 59.1289C100.942 59.237 100.363 59.2299 99.8037 59.1079C98.6765 58.889 97.682 58.2323 97.0382 57.2816C96.3944 56.3308 96.1538 55.1636 96.369 54.0358L98.1118 45.0024C98.1288 44.9175 98.2172 44.9345 98.2341 44.8462C98.1628 44.7442 98.1628 44.7442 98.1798 44.6559C98.4262 43.5437 99.0891 42.568 100.032 41.9292C100.976 41.2905 102.128 41.0372 103.252 41.2213C104.538 41.4825 105.864 41.4876 107.152 41.2361C108.441 40.9847 109.667 40.4818 110.761 39.7561C111.855 39.0304 112.795 38.0961 113.527 37.0068C114.26 35.9175 114.771 34.6944 115.03 33.4076C116.087 27.938 112.475 22.8285 107.006 21.772C105.32 21.4408 103.577 21.5595 101.952 22.1159C100.327 22.6723 98.8772 23.6469 97.7483 24.9416C97.3715 25.3813 96.9109 25.7416 96.3933 26.0014C95.8758 26.2612 95.3117 26.4154 94.7339 26.4549C94.1562 26.4945 93.5764 26.4186 93.0283 26.2316C92.4802 26.0447 91.9747 25.7506 91.5415 25.3663C91.115 24.9888 90.7676 24.5304 90.5195 24.0178C90.2713 23.5051 90.1272 22.9483 90.0956 22.3796C90.064 21.8109 90.1455 21.2416 90.3354 20.7046C90.5253 20.1676 90.8198 19.6736 91.2018 19.2512C93.2227 16.9278 95.7892 15.1429 98.6706 14.0569C101.552 12.9709 104.658 12.6179 107.71 13.0294C110.761 13.441 113.663 14.6044 116.154 16.4149C118.645 18.2254 120.647 20.6265 121.98 23.4022C123.313 26.1779 123.936 29.2414 123.792 32.3174C123.648 35.3933 122.742 38.3853 121.156 41.0245C119.569 43.6637 117.352 45.8674 114.703 47.4376C112.054 49.0078 109.057 49.8952 105.98 50.0202L105.966 50.0338ZM102.301 69.0584L101.998 70.6212C101.903 71.1866 101.695 71.7269 101.385 72.2092C101.075 72.6915 100.67 73.1058 100.195 73.427C99.72 73.7482 99.1848 73.9695 98.6217 74.0776C98.0587 74.1857 97.4795 74.1783 96.9194 74.0558C95.7926 73.8354 94.7989 73.1777 94.1559 72.2265C93.5128 71.2753 93.2728 70.1081 93.4882 68.9803L93.7905 67.4176C94.0231 66.2977 94.6829 65.3127 95.6299 64.6714C96.5769 64.0301 97.7365 63.7831 98.8626 63.9829C99.4239 64.0846 99.9592 64.2972 100.437 64.6084C100.915 64.9195 101.326 65.3229 101.647 65.795C101.967 66.267 102.19 66.7982 102.302 67.3574C102.414 67.9166 102.414 68.4926 102.301 69.0516V69.0584Z" fill="#6C7284"/>
<path d="M24.3794 59.0973L23.0205 53.5122C22.8717 52.9586 22.8369 52.3805 22.9183 51.8131C22.9996 51.2456 23.1954 50.7006 23.4937 50.211C23.792 49.7215 24.1866 49.2977 24.6536 48.9652C25.1206 48.6328 25.6503 48.3986 26.2105 48.277C27.3267 48.0086 28.5038 48.1932 29.4842 48.7903C30.4647 49.3875 31.1687 50.3487 31.4423 51.4637L33.6131 60.4019C33.6335 60.4868 33.5452 60.5072 33.569 60.5955C33.6743 60.66 33.6743 60.66 33.6981 60.745C33.9354 61.8595 33.7376 63.0225 33.1451 63.9958C32.5527 64.9692 31.6104 65.6791 30.5114 65.9802C25.0962 67.2983 21.7567 72.6592 23.0375 77.9861C24.3522 83.4013 29.7607 86.5472 35.1759 85.229C36.8463 84.83 38.3821 83.9978 39.6286 82.8163C40.8751 81.6348 41.7883 80.1458 42.2762 78.4991C42.4358 77.9426 42.7047 77.4234 43.0671 76.972C43.4296 76.5205 43.8784 76.1458 44.3872 75.8697C44.8961 75.5936 45.4549 75.4217 46.0309 75.3639C46.607 75.3061 47.1888 75.3637 47.7424 75.5332C48.2857 75.6988 48.7909 75.9702 49.229 76.3316C49.6671 76.6931 50.0295 77.1376 50.2953 77.6395C50.5611 78.1415 50.7251 78.691 50.7779 79.2565C50.8307 79.8221 50.7712 80.3924 50.6028 80.9349C49.7319 83.8894 48.1404 86.5811 45.9713 88.7681C43.8022 90.955 41.1236 92.5686 38.1764 93.4638C35.2291 94.3589 32.1056 94.5075 29.0867 93.8963C26.0677 93.2851 23.248 91.9332 20.8811 89.9621C18.5141 87.991 16.6742 85.4626 15.5266 82.6042C14.379 79.7457 13.9598 76.6469 14.3067 73.5863C14.6536 70.5257 15.7557 67.5993 17.5139 65.0702C19.2721 62.5411 21.6313 60.4886 24.3794 59.0973ZM19.8067 40.2799L19.433 38.7307C19.2837 38.1773 19.2484 37.5994 19.3293 37.0319C19.4102 36.4645 19.6056 35.9194 19.9036 35.4298C20.2017 34.9402 20.5961 34.5162 21.063 34.1837C21.5299 33.8512 22.0595 33.6171 22.6196 33.4955C23.7363 33.2272 24.9137 33.4123 25.8943 34.0101C26.8748 34.608 27.5785 35.57 27.8514 36.6856L28.2285 38.2313C28.4823 39.3466 28.2915 40.5168 27.6965 41.4937C27.1015 42.4705 26.1492 43.177 25.0419 43.4631C24.4891 43.6036 23.9139 43.6324 23.3499 43.5478C22.7859 43.4632 22.2445 43.267 21.7573 42.9705C21.2701 42.6741 20.8469 42.2834 20.5125 41.8214C20.1782 41.3594 19.9394 40.8353 19.8101 40.2799H19.8067Z" fill="#6C7284"/>
</g>
<path d="M94.1436 148.501H60.0765C59.796 147.407 59.5208 146.328 59.251 145.263C58.9298 144.043 58.6343 142.851 58.342 141.688C58.2778 141.431 58.2071 141.171 58.1429 140.917C57.918 140.028 57.6996 139.16 57.4812 138.316C57.3527 137.802 57.2242 137.297 57.099 136.796C56.9737 136.295 56.8388 135.788 56.7135 135.3C56.6782 135.171 56.6493 135.039 56.6139 134.914C56.5786 134.789 56.5465 134.635 56.5112 134.497L56.3827 133.992C56.3334 133.817 56.2885 133.643 56.2478 133.472C56.161 133.151 56.0807 132.83 56.0004 132.508C55.8816 132.039 55.7627 131.583 55.6503 131.14C55.6054 130.944 55.554 130.751 55.5058 130.559C55.4223 130.237 55.3452 129.948 55.2713 129.65C55.2199 129.45 55.1717 129.258 55.1235 129.065C54.9212 128.284 54.7381 127.552 54.5647 126.865C54.5165 126.682 54.4747 126.505 54.4265 126.335C54.3527 126.036 54.2788 125.75 54.2113 125.474C54.1631 125.3 54.1182 125.133 54.0796 124.97C53.9287 124.382 53.7905 123.845 53.6749 123.364C53.6396 123.238 53.6107 123.116 53.5785 123.001C53.5015 122.679 53.4276 122.413 53.3666 122.169C53.3409 122.069 53.3216 121.973 53.2959 121.886C53.2702 121.799 53.2477 121.697 53.2252 121.616C53.2027 121.536 53.1963 121.494 53.1835 121.443C53.1706 121.391 53.1385 121.279 53.1224 121.208L53.0967 121.106L53.0197 120.784H86.1777C86.1777 120.784 87.2698 124.549 89.0203 130.616C89.3737 131.853 89.7591 133.186 90.1671 134.603C91.3298 138.663 92.6853 143.391 94.1436 148.501Z" fill="#37474F"/>
<path d="M65.6558 148.501H64.8174C63.554 143.283 62.3324 138.054 61.1525 132.817C60.8666 131.532 60.5872 130.27 60.3045 128.991L60.2274 128.635C60.2274 128.57 60.3109 128.541 60.327 128.609C60.3431 128.676 60.3495 128.686 60.3623 128.725C60.7446 130.093 61.13 131.464 61.5058 132.839C62.932 138.046 64.3067 143.269 65.6558 148.501Z" fill="#263238"/>
<path d="M85.1049 120.804L83.6402 128.127L82.4388 134.137L80.3992 144.38L80.1872 145.427L79.8371 147.175L79.5737 148.501H60.0733C59.7971 147.4 59.523 146.321 59.251 145.263C58.9298 144.043 58.6343 142.851 58.342 141.688C58.2778 141.431 58.2071 141.171 58.1429 140.917C57.918 140.028 57.6996 139.16 57.4812 138.316C57.3527 137.802 57.2242 137.297 57.099 136.796C56.9737 136.295 56.8388 135.788 56.7135 135.3C56.6782 135.171 56.6493 135.039 56.6139 134.914C56.5786 134.789 56.5465 134.635 56.5112 134.497L56.3827 133.992C56.3334 133.817 56.2885 133.643 56.2478 133.472C56.161 133.151 56.0807 132.83 56.0004 132.508C55.8816 132.039 55.7627 131.583 55.6503 131.14C55.5989 130.941 55.554 130.751 55.5058 130.559C55.4223 130.237 55.3452 129.948 55.2713 129.65C55.2199 129.45 55.1717 129.258 55.1235 129.065C54.9212 128.284 54.7381 127.552 54.5647 126.865C54.5165 126.682 54.4747 126.505 54.4265 126.335C54.3527 126.036 54.2788 125.75 54.2113 125.474C54.1631 125.3 54.1182 125.133 54.0796 124.97C53.9287 124.382 53.7905 123.845 53.6749 123.364C53.6396 123.238 53.6107 123.116 53.5785 123.001C53.5015 122.679 53.4276 122.413 53.3666 122.169C53.3409 122.069 53.3216 121.973 53.2959 121.886C53.2702 121.799 53.2477 121.697 53.2252 121.616C53.2027 121.536 53.1963 121.494 53.1835 121.443C53.1706 121.391 53.1385 121.279 53.1224 121.208L53.0967 121.106L53.0197 120.784L85.1049 120.804Z" fill="#263238"/>
<path d="M85.1081 120.791C85.1081 120.971 84.97 122.949 84.652 125.965C84.5588 126.845 84.4528 127.812 84.3308 128.856C84.1348 130.491 83.8939 132.296 83.5952 134.204C83.0877 137.532 82.4228 141.165 81.5588 144.714C81.2504 145.999 80.9164 147.259 80.5566 148.495L37.7528 148.511C37.7528 148.511 36.5129 146.153 36.6125 144.907C37.0012 139.903 39.9273 120.797 39.9273 120.797H78.7579L85.1081 120.791Z" fill="#37474F"/>
<path d="M81.1796 124.722C81.1314 126.254 81.0672 127.783 80.9676 129.306C80.8648 130.96 80.7139 132.611 80.4954 134.259C80.4954 134.32 80.4955 134.381 80.4762 134.439C80.2706 135.987 80.0425 137.526 79.7792 139.064C79.535 140.497 79.352 142.042 78.7192 143.368C78.4783 143.881 78.1376 144.341 77.717 144.721C77.3308 145.072 76.8589 145.316 76.3487 145.427C76.2643 145.449 76.1784 145.464 76.0917 145.472H76.0211C76.0367 145.481 76.0493 145.494 76.0573 145.51C76.0653 145.526 76.0683 145.544 76.066 145.562C76.066 146.076 76.066 146.6 76.005 147.107C76.005 147.13 76.005 147.152 76.005 147.171C75.9536 147.618 75.8701 148.058 75.7898 148.498H75.0542C75.0529 148.489 75.0529 148.481 75.0542 148.472C75.1827 147.987 75.2919 147.509 75.4108 147.014C75.5296 146.519 75.7063 146.028 75.8219 145.524C75.8219 145.501 75.8444 145.488 75.8572 145.475C75.3915 145.499 74.9298 145.378 74.5345 145.131C74.1393 144.883 73.8296 144.52 73.6473 144.091C73.4 143.433 73.5124 142.752 73.612 142.077C73.7469 141.203 73.8754 140.326 74.0103 139.45C74.2576 137.844 74.5821 136.238 74.8679 134.632C74.9097 134.391 74.9547 134.143 74.9964 133.902C75.5714 130.642 76.172 127.382 76.8915 124.154C76.9172 124.019 76.9493 123.887 76.9782 123.752C76.9837 123.734 76.9956 123.718 77.0118 123.707C77.0281 123.697 77.0476 123.693 77.0667 123.695C77.0858 123.698 77.1033 123.708 77.116 123.722C77.1287 123.737 77.1356 123.755 77.1356 123.775C77.1132 123.99 77.0907 124.208 77.065 124.417C76.9408 125.653 76.793 126.887 76.6217 128.121C76.4129 129.566 76.2716 131.012 76.0692 132.467C75.9986 132.961 75.9311 133.453 75.8572 133.944C75.536 136.324 75.1795 138.701 74.7716 141.072C74.5821 142.173 73.8979 144.146 75.4814 144.486C75.8446 144.567 76.2244 144.52 76.5575 144.354C77.2609 144.004 77.7748 143.201 78.0286 142.491C78.4783 141.232 78.6357 139.841 78.8702 138.528C79.1314 137.078 79.3616 135.626 79.5607 134.172C79.8209 132.354 80.0875 130.539 80.3734 128.728C80.5147 127.803 80.6625 126.881 80.807 125.956C80.8777 125.529 80.9451 125.101 81.0158 124.671C81.0351 124.607 81.1796 124.632 81.1796 124.722Z" fill="#263238"/>
<path d="M47.1512 136.093C48.934 136.076 50.7077 135.837 52.4318 135.383C53.2284 135.178 54.0121 134.924 54.7927 134.667C55.5664 134.452 56.2908 134.089 56.9255 133.597C58.1236 132.563 58.6824 130.931 59.206 129.486C59.7758 127.853 60.2383 126.184 60.5904 124.491C60.5904 124.404 60.7285 124.433 60.7317 124.514C60.771 126.432 60.5242 128.346 59.9994 130.192C59.569 131.757 58.9908 133.504 57.7253 134.603C56.3955 135.756 54.5903 136.16 52.8879 136.372C50.9738 136.595 49.039 136.568 47.1319 136.292C47.1055 136.29 47.0812 136.277 47.0643 136.256C47.0475 136.236 47.0394 136.209 47.042 136.183C47.0445 136.157 47.0575 136.132 47.0779 136.115C47.0984 136.099 47.1248 136.09 47.1512 136.093Z" fill="#263238"/>
<path d="M44.1736 124.549C44.0773 126.945 41.6714 140.863 41.4305 145.604C41.3888 146.449 43.1072 147.653 43.0623 148.495H42.2592C42.3139 147.666 40.605 146.481 40.6532 145.652C40.9744 140.882 43.7689 126.929 43.9552 124.539C43.9565 124.51 43.9692 124.483 43.9906 124.463C44.012 124.444 44.0403 124.434 44.0692 124.435C44.0982 124.436 44.1255 124.449 44.1451 124.47C44.1646 124.492 44.1749 124.52 44.1736 124.549Z" fill="#263238"/>
<path d="M80.2161 71.3155C95.2324 84.9121 105.913 96.6329 105.765 101.958C105.444 113.898 99.1511 116.474 98.0333 116.091C86.1937 112.073 78.6647 89.531 73.6892 75.9151C68.7458 62.402 75.9184 67.4224 80.2161 71.3155Z" fill="#FACAC5"/>
<path d="M101.528 90.6905L82.6123 100.789C82.6123 100.789 74.9034 83.9773 72.2855 73.9268C69.6677 63.8763 73.6892 64.1975 82.4967 72.0638C91.3041 79.9301 101.528 90.6905 101.528 90.6905Z" fill="#6C7284"/>
<path d="M97.6736 87.774C90.3726 92.6338 83.3061 95.7752 81.8896 96.575C81.8221 96.6136 81.7707 96.5012 81.8414 96.469C83.2708 95.7528 91.0407 91.0085 97.619 87.6519C97.6929 87.6134 97.7443 87.7258 97.6736 87.774Z" fill="#263238"/>
<path opacity="0.1" d="M97.3942 93.1125L82.6188 100.789C82.6188 100.789 74.9098 83.9774 72.2856 73.9269C71.322 70.2234 71.2577 67.9268 72.0029 66.8989L97.3942 93.1125Z" fill="black"/>
<path d="M87.0738 123.091L39.3909 124.34C39.3909 124.34 37.0429 121.912 37.3994 119.043C38.7163 108.466 55.5347 71.3829 62.0808 66.9245C65.0102 64.9298 71.2898 63.3688 74.7781 65.9834C80.2032 70.0466 85.5866 99.1029 88.6606 115.497C89.5503 120.2 87.1059 123.046 87.0738 123.091Z" fill="#EBEBEB"/>
<path d="M62.3698 69.3175C63.9635 72.0065 66.2095 74.2502 68.9 75.8412C70.2105 76.58 71.6238 77.126 73.0756 77.126C73.8322 77.1692 74.5815 76.959 75.2052 76.5286C75.7916 76.0173 76.2345 75.3619 76.49 74.6271C76.8061 73.7764 77.0008 72.8854 77.0682 71.9803C77.1582 70.9454 77.1808 69.9057 77.1357 68.8679C77.1357 68.8293 77.187 68.8357 77.1903 68.8679C77.2352 69.8508 77.3509 70.8368 77.3284 71.8197C77.3271 72.6862 77.2192 73.5492 77.0072 74.3894C76.8065 75.1681 76.4443 75.8958 75.944 76.5254C75.431 77.1291 74.7075 77.515 73.9204 77.6046C72.4171 77.8263 70.8593 77.3862 69.4428 76.6667C68.0292 75.9342 66.7377 74.9872 65.614 73.8594C64.2931 72.5383 63.1837 71.0215 62.3249 69.3625C62.316 69.3625 62.3073 69.3599 62.2999 69.3549C62.2925 69.35 62.2867 69.343 62.2833 69.3348C62.2799 69.3265 62.279 69.3175 62.2808 69.3088C62.2825 69.3001 62.2868 69.292 62.2931 69.2857C62.2994 69.2795 62.3074 69.2752 62.3161 69.2734C62.3248 69.2717 62.3339 69.2726 62.3421 69.276C62.3503 69.2794 62.3573 69.2852 62.3623 69.2926C62.3672 69.3 62.3698 69.3087 62.3698 69.3175Z" fill="#263238"/>
<path d="M63.4266 65.1066C63.4266 65.1066 65.4309 82.3649 65.6558 90.3758C65.8806 98.3867 63.4266 143.802 63.4266 143.802C63.4266 143.802 43.9102 140.089 41.4819 139.443C39.0536 138.798 32.4303 132.396 32.4303 132.396C32.4303 132.396 47.7036 77.2224 63.4266 65.1066Z" fill="#6C7284"/>
<path d="M74.7749 65.9834C77.1036 68.8742 80.5566 85.7921 80.8071 87.5042C81.0577 89.2162 88.0632 141.756 88.0632 141.756C88.0632 141.756 92.3673 137.49 92.6982 136.09C93.029 134.689 88.5 109.388 86.4057 99.9702C84.0417 89.335 80.3414 73.5831 77.8681 69.915C76.948 68.5208 75.9134 67.2058 74.7749 65.9834Z" fill="#6C7284"/>
<path d="M97.179 115.468C94.0472 111.106 90.9733 100.834 94.0472 79.7793C94.4712 76.8659 115.661 78.3949 115.369 81.5298C114.999 85.4775 112.712 100.722 112.404 101.814C109.786 111.039 99.3021 118.427 97.179 115.468Z" fill="#FACAC5"/>
<path d="M94.9883 111.82C94.2648 110.366 93.6953 108.84 93.2891 107.268C93.0835 106.481 92.894 105.691 92.7527 104.891C92.608 104.086 92.5136 103.273 92.47 102.456C92.3668 100.839 92.3453 99.2165 92.4058 97.5965C92.4485 95.9823 92.5988 94.3727 92.8555 92.7784C92.7912 94.3845 92.8073 95.9905 92.8362 97.6158C92.8651 99.2411 92.9294 100.828 93.045 102.434C93.1125 103.234 93.1799 104.04 93.3148 104.808C93.4497 105.575 93.6007 106.385 93.7741 107.168C94.1146 108.717 94.4936 110.281 94.9883 111.82Z" fill="#263238"/>
<path d="M98.6148 71.5307C94.8567 73.6731 94.0376 79.776 94.0376 79.776L110.548 87.5556C110.548 87.5556 113.962 82.6925 116.747 81.2054C117.556 80.7717 121.697 78.337 125.866 76.2299C130.597 73.8401 135.255 70.7276 135.48 70.127C135.913 68.9739 134.304 67.6987 130.739 68.5563C127.173 69.4139 120.508 72.2919 120.065 72.3594C119.915 72.3628 119.764 72.3553 119.615 72.3369C119.429 72.263 116.252 68.1387 113.898 68.2094C111.543 68.2801 101.217 70.0531 98.6148 71.5307Z" fill="#FACAC5"/>
<path d="M114.283 76.519C114.283 76.519 123.213 76.3327 124.716 75.2342C126.219 74.1357 136.234 68.9354 136.694 67.7951C137.153 66.6548 135.515 65.3668 131.949 66.2212C128.384 67.0756 121.722 69.9536 121.276 70.021C120.829 70.0885 113.04 68.9707 112.282 69.0831C111.524 69.1955 114.283 76.519 114.283 76.519Z" fill="#FACAC5"/>
<path d="M119.313 77.126C120.261 76.8916 121.202 76.6153 122.143 76.3455C122.612 76.2042 123.078 76.0564 123.543 75.899C123.775 75.8187 124.009 75.7384 124.241 75.6517C124.356 75.61 124.472 75.5586 124.591 75.5104C124.707 75.4554 124.821 75.3943 124.931 75.3273C126.624 74.3637 128.323 73.4001 130.013 72.4075C131.702 71.415 133.379 70.4353 135.049 69.3914C135.472 69.1179 135.86 68.7943 136.205 68.4278C136.383 68.2357 136.532 68.0194 136.649 67.7854C136.78 67.5431 136.829 67.2645 136.787 66.992C136.756 66.8589 136.698 66.7334 136.618 66.623C136.537 66.5126 136.435 66.4196 136.318 66.3496C136.102 66.2139 135.864 66.1172 135.614 66.0637C135.131 65.9592 134.636 65.9214 134.143 65.9513C134.629 65.9767 135.109 66.0586 135.576 66.1954C135.801 66.2663 136.013 66.3749 136.202 66.5166C136.289 66.5784 136.362 66.6572 136.418 66.7484C136.473 66.8395 136.509 66.941 136.523 67.0466C136.575 67.4674 136.276 67.8818 135.955 68.2062C135.614 68.536 135.235 68.823 134.824 69.0606C133.131 70.0242 131.426 70.9878 129.74 71.9675C128.053 72.9472 126.37 73.9461 124.713 74.9997C124.306 75.2432 123.875 75.4455 123.428 75.6035C122.975 75.7802 122.516 75.9472 122.06 76.1175L119.313 77.126Z" fill="#263238"/>
<path d="M112.761 75.1763C112.761 75.1763 122.548 74.9354 124.051 73.8401C125.554 72.7448 135.569 67.5413 136.026 66.3978C136.482 65.2543 134.847 63.9727 131.281 64.8271C127.716 65.6815 121.057 68.5595 120.608 68.6398C120.158 68.7201 112.533 68.4085 111.784 68.5209C111.036 68.6334 112.761 75.1763 112.761 75.1763Z" fill="#FACAC5"/>
<path d="M117.643 76.3744C118.796 76.0339 119.93 75.6485 121.067 75.263C121.632 75.0617 122.197 74.8476 122.76 74.6206C123.04 74.5114 123.32 74.3958 123.598 74.2737C123.879 74.1494 124.152 74.0066 124.414 73.8465C126.48 72.6388 128.545 71.4203 130.607 70.1912L133.684 68.3218L134.448 67.8464C134.714 67.69 134.97 67.5162 135.213 67.326C135.464 67.1286 135.688 66.8997 135.881 66.6451C136.099 66.3696 136.224 66.0323 136.238 65.6815C136.233 65.4927 136.172 65.3095 136.064 65.1547C135.961 65.0112 135.827 64.8927 135.672 64.8078C135.392 64.6483 135.085 64.5396 134.766 64.4866C134.162 64.3948 133.549 64.3701 132.939 64.4127C131.731 64.4918 130.547 64.7798 129.438 65.2639C130.568 64.8768 131.753 64.674 132.948 64.6632C133.537 64.6486 134.126 64.6959 134.705 64.8046C134.98 64.8571 135.244 64.9559 135.486 65.0969C135.592 65.1498 135.682 65.2313 135.745 65.3323C135.808 65.4332 135.842 65.5497 135.842 65.6686C135.813 65.9235 135.707 66.1634 135.537 66.356C135.36 66.5738 135.157 66.77 134.933 66.9406C134.484 67.2618 133.938 67.5637 133.43 67.8753L130.343 69.7576C128.288 70.9942 126.232 72.2244 124.199 73.506C123.957 73.6702 123.703 73.8173 123.441 73.9461C123.174 74.0746 122.904 74.1998 122.631 74.3187C122.085 74.5607 121.534 74.793 120.977 75.0157L117.643 76.3744Z" fill="#263238"/>
<path d="M112.841 75.4815C112.841 75.4815 121.289 73.2813 122.686 72.2695C124.083 71.2577 131.146 68.1259 131.574 67.0627C132.001 65.9996 130.475 64.8143 127.157 65.598C123.839 66.3818 119.901 67.3518 119.483 67.4161C119.066 67.4803 112.481 68.4086 111.775 68.5146C111.068 68.6206 112.841 75.4815 112.841 75.4815Z" fill="#FACAC5"/>
<path d="M115.272 75.5908C116.74 75.109 118.199 74.6014 119.66 74.1004C120.392 73.852 121.122 73.5961 121.848 73.3327L122.394 73.1335C122.579 73.0645 122.761 72.984 122.936 72.8926C123.287 72.7192 123.627 72.5297 123.964 72.3434C125.313 71.5789 126.643 70.7887 127.944 69.9504C128.586 69.5296 129.229 69.1056 129.871 68.6656C130.192 68.4472 130.514 68.2223 130.835 67.991C131.164 67.7582 131.474 67.4982 131.76 67.2137C131.939 67.0261 132.037 66.7758 132.033 66.5167C132.006 66.2593 131.88 66.0223 131.683 65.855C131.356 65.5815 130.974 65.383 130.562 65.2736C129.779 65.0418 128.951 65.0043 128.15 65.1644C126.627 65.4856 125.13 65.8358 123.624 66.1859C122.117 66.536 120.598 66.8925 119.127 67.2619C118.379 67.4097 117.611 67.5349 116.853 67.6666C116.095 67.7983 115.33 67.9429 114.575 68.1099C116.124 68.0199 117.653 67.8786 119.201 67.6923L123.727 66.6516C125.233 66.3304 126.743 65.9739 128.246 65.6719C128.966 65.527 129.711 65.5567 130.417 65.7587C130.756 65.843 131.073 65.9997 131.346 66.218C131.401 66.2535 131.447 66.3015 131.48 66.3581C131.514 66.4147 131.533 66.4784 131.538 66.5439C131.542 66.6095 131.531 66.6752 131.506 66.7357C131.48 66.7963 131.441 66.85 131.391 66.8925C131.129 67.1539 130.846 67.3935 130.546 67.6088C130.241 67.8401 129.929 68.0649 129.614 68.2833C128.972 68.7234 128.329 69.1506 127.687 69.5682C126.402 70.4033 125.117 71.2481 123.778 72.0318C123.457 72.2277 123.113 72.4205 122.776 72.6003C122.437 72.7725 122.089 72.9237 121.732 73.0532L119.573 73.8916L115.272 75.5908Z" fill="#263238"/>
<path d="M73.8112 74.9933C70.8336 76.0051 65.1579 71.8487 62.7328 68.2737C62.5658 68.0295 62.7007 65.264 62.7071 61.8977C62.7071 59.8549 62.6493 57.5807 62.4502 55.5057C62.4084 55.0817 75.7513 57.433 75.7513 57.433C75.7513 57.433 74.8905 61.8977 75.2598 65.5113C75.2899 65.7966 75.3469 66.0783 75.4301 66.3528C75.4301 66.3914 75.4526 66.4364 75.4622 66.491C75.8894 68.0681 76.7021 74.0136 73.8112 74.9933Z" fill="#FACAC5"/>
<path d="M75.7641 57.4201C75.3835 59.5145 75.1879 61.6384 75.1795 63.7671C68.8614 65.9385 63.8763 62.5722 62.7168 61.6857C62.7168 59.6974 62.6525 57.51 62.463 55.5089L75.7641 57.4201Z" fill="#263238"/>
<path d="M82.1047 40.0943C82.7664 44.8898 78.2246 57.7059 74.4986 60.1246C69.0991 63.6354 61.3292 62.8003 58.6021 56.5496C55.9714 50.4917 62.1836 33.895 66.2468 31.8168C72.2309 28.7268 81.1347 33.0085 82.1047 40.0943Z" fill="#FACAC5"/>
<path d="M69.0092 46.2261C69.0285 46.1972 69.0606 46.2903 69.0478 46.3256C68.7266 47.1768 68.4889 48.2079 69.1666 48.7668C69.1891 48.7829 69.1666 48.8278 69.1409 48.8118C68.2383 48.346 68.5628 46.9809 69.0092 46.2261Z" fill="#263238"/>
<path d="M70.0916 45.5966C71.5146 45.9756 70.6505 48.8087 69.3336 48.4393C68.0166 48.0699 68.8999 45.2786 70.0916 45.5966Z" fill="#263238"/>
<path d="M63.7768 44.3599C63.7768 44.3246 63.6965 44.3824 63.6868 44.4177C63.4524 45.301 63.0444 46.2711 62.1579 46.3257C62.1322 46.3257 62.1226 46.3706 62.1579 46.3771C63.1569 46.528 63.6965 45.2336 63.7768 44.3599Z" fill="#263238"/>
<path d="M63.2692 43.2132C61.8977 42.6864 60.9437 45.4616 62.2157 45.9627C63.4877 46.4638 64.4224 43.6564 63.2692 43.2132Z" fill="#263238"/>
<path d="M71.7426 44.3888C71.3884 44.1938 71.0453 43.9793 70.7148 43.7464C70.3229 43.499 69.9856 43.3416 69.7929 42.8984C69.7509 42.767 69.7537 42.6254 69.8007 42.4958C69.8478 42.3662 69.9366 42.2559 70.0531 42.1821C70.567 41.8962 71.1227 42.0825 71.6077 42.362C72.103 42.6298 72.4817 43.0714 72.6709 43.6018C72.7076 43.7255 72.7075 43.8571 72.6707 43.9808C72.6338 44.1044 72.5618 44.2146 72.4634 44.298C72.365 44.3814 72.2445 44.4344 72.1165 44.4505C71.9885 44.4666 71.8586 44.4452 71.7426 44.3888Z" fill="#263238"/>
<path d="M63.1632 40.1199C63.5661 40.1317 63.9693 40.121 64.371 40.0878C64.8335 40.0878 65.2061 40.0878 65.598 39.818C65.6972 39.7239 65.7638 39.6005 65.7881 39.4659C65.8123 39.3313 65.793 39.1925 65.7329 39.0696C65.4309 38.5621 64.8592 38.4272 64.3003 38.4272C63.7366 38.4048 63.1852 38.5951 62.7553 38.9604C62.6556 39.0474 62.5843 39.1624 62.5506 39.2904C62.5169 39.4184 62.5224 39.5535 62.5663 39.6784C62.6102 39.8033 62.6906 39.9121 62.797 39.9908C62.9034 40.0695 63.031 40.1145 63.1632 40.1199Z" fill="#263238"/>
<path d="M66.6227 53.1128C65.659 52.329 64.1911 52.0271 63.2596 51.8569C63.1633 51.8087 63.1344 51.5838 63.1472 51.4843C63.1472 51.4522 63.7896 49.663 63.7896 49.663C63.5102 49.708 62.1033 49.875 62.2286 49.5346C63.3014 46.724 64.477 43.6019 66.1473 41.0322C66.1575 41.0136 66.1744 40.9996 66.1946 40.993C66.2148 40.9864 66.2367 40.9878 66.2559 40.9968C66.2751 41.0058 66.2902 41.0217 66.2981 41.0415C66.3059 41.0612 66.306 41.0832 66.2982 41.1029C65.3764 43.8428 63.9791 46.4028 63.0091 49.133C63.4492 49.1074 64.1783 49.0303 64.522 49.133C64.6087 49.1909 63.7543 51.0282 63.6933 51.3333C63.6933 51.3333 65.6205 51.359 66.7608 52.7209C67.0659 53.0903 67.082 53.4854 66.6227 53.1128Z" fill="#263238"/>
<path d="M66.0532 55.5973C66.2682 55.3815 66.4764 55.0866 66.8043 55.0529C67.1413 55.0525 67.4746 55.124 67.7818 55.2626C67.7881 55.2649 67.7949 55.2651 67.8013 55.2634C67.8077 55.2616 67.8134 55.2578 67.8176 55.2527C67.8218 55.2475 67.8243 55.2412 67.8248 55.2346C67.8252 55.2279 67.8236 55.2213 67.8201 55.2156C67.6877 55.0398 67.51 54.9032 67.3061 54.8203C67.1022 54.7375 66.8796 54.7114 66.662 54.745C66.4784 54.7966 66.3142 54.9015 66.1902 55.0464C66.0663 55.1914 65.9881 55.3699 65.9656 55.5593C65.9528 55.6112 66.0199 55.629 66.0532 55.5973Z" fill="#263238"/>
<path d="M76.7342 47.4177C76.6507 44.5044 79.5223 40.5536 78.5715 38.9636C76.5094 35.5235 69.1602 38.6424 65.1452 37.4315C61.2554 36.2591 60.7254 33.3618 62.3956 30.4292C64.0659 27.4966 67.3872 26.1989 71.9547 26.8831C76.67 27.5994 80.2225 30.6797 82.0149 32.7997C82.0149 32.7997 81.5202 30.927 82.0373 30.5512C82.5545 30.1754 83.9903 32.2729 84.3725 33.0952C84.623 33.7912 84.7449 34.5269 84.7323 35.2665C85.3568 35.2988 85.9735 35.4211 86.5631 35.6295C87.5428 35.9507 88.5482 37.1135 88.5482 37.3672C88.5482 37.621 87.0771 37.3672 86.0717 37.1135C86.0717 37.1135 87.1638 40.136 86.4764 42.2238C85.789 44.3117 79.4516 53.2765 78.6358 53.1448C77.5951 52.9714 76.7696 48.5998 76.7342 47.4177Z" fill="#263238"/>
<path d="M85.7793 36.7409C85.7504 36.7087 85.6893 36.7409 85.7118 36.7826C86.437 37.854 86.8486 39.1067 86.9003 40.3994C86.9228 41.938 86.3607 43.4187 85.6155 44.7389C84.1508 47.3085 82.034 49.3931 80.0779 51.5773C80.0233 51.6416 80.1293 51.7411 80.1903 51.6801C82.4098 49.4991 84.7225 47.0997 86.1615 44.3149C87.3853 41.938 87.6937 38.8672 85.7793 36.7409Z" fill="#263238"/>
<path d="M79.0372 37.9936C77.9033 37.4859 76.684 37.196 75.4429 37.1392C74.2609 37.0782 73.111 37.4604 71.9643 37.7045C69.3946 38.2249 66.6836 38.408 64.1815 37.4668C64.1493 37.4668 64.1333 37.5022 64.1622 37.515C66.4106 38.5268 68.8967 38.5332 71.2833 38.1574C72.4878 37.9583 73.702 37.515 74.9194 37.4668C76.307 37.4058 77.6464 37.8394 78.9633 38.2152C78.9927 38.225 79.0248 38.2228 79.0525 38.2089C79.0802 38.195 79.1013 38.1707 79.1111 38.1414C79.1209 38.112 79.1186 38.0799 79.1047 38.0522C79.0909 38.0245 79.0666 38.0034 79.0372 37.9936Z" fill="#263238"/>
<path d="M79.9591 30.9656C78.627 29.6976 77.1202 28.6268 75.4847 27.7857C73.9406 26.9288 72.2592 26.3473 70.5156 26.0673C67.4931 25.6497 64.2842 26.6679 62.7007 29.4142C61.8651 30.8171 61.5812 32.4807 61.9041 34.0813C61.9084 34.1035 61.9212 34.123 61.9399 34.1357C61.9586 34.1483 61.9815 34.153 62.0037 34.1488C62.0258 34.1445 62.0454 34.1316 62.058 34.113C62.0707 34.0943 62.0754 34.0714 62.0711 34.0492C61.6857 31.0973 63.1151 28.1037 65.8967 26.8735C68.8839 25.5501 72.2469 26.4142 75.0478 27.7921C76.7873 28.6818 78.429 29.7508 79.9462 30.9817C79.9462 30.9817 79.9687 30.9753 79.9591 30.9656Z" fill="#263238"/>
<path d="M77.3445 50.935C77.3445 50.935 81.411 47.5719 83.0138 49.133C84.6166 50.6941 80.7653 56.1321 78.3081 56.3473C77.9959 56.3961 77.677 56.3811 77.3707 56.3034C77.0643 56.2257 76.7769 56.0867 76.5257 55.8949C76.2745 55.7032 76.0647 55.4625 75.909 55.1875C75.7533 54.9125 75.6549 54.6088 75.6196 54.2948L77.3445 50.935Z" fill="#FACAC5"/>
<path d="M81.8703 50.6523C81.8768 50.6545 81.8824 50.6585 81.8863 50.664C81.8903 50.6695 81.8924 50.6761 81.8924 50.6829C81.8924 50.6896 81.8903 50.6962 81.8863 50.7017C81.8824 50.7072 81.8768 50.7113 81.8703 50.7134C80.139 50.9157 78.9217 52.1331 77.9324 53.4693C78.5555 53.0228 79.275 52.8815 79.8949 53.646C79.927 53.6845 79.8692 53.7391 79.8275 53.7166C79.578 53.5543 79.2844 53.4733 78.9869 53.4848C78.6895 53.4963 78.403 53.5998 78.1668 53.7809C77.7714 54.0853 77.4106 54.4321 77.0908 54.8152C76.9816 54.934 76.7503 54.7895 76.8467 54.6449L76.8692 54.6096C77.3735 52.6278 79.6829 50.2765 81.8703 50.6523Z" fill="#263238"/>
<path d="M55.0625 71.3122C40.695 85.593 30.577 97.0793 30.9721 102.392C31.8458 114.302 38.6007 116.358 39.6993 115.928C51.3269 111.36 57.4587 89.441 61.7982 75.6067C66.1024 61.8752 59.1772 67.2232 55.0625 71.3122Z" fill="#FACAC5"/>
<path d="M34.6724 90.9379L54.041 100.147C54.041 100.147 60.9534 83.714 63.1055 73.551C65.2575 63.3881 61.2489 63.9149 52.8269 72.1667C44.4049 80.4184 34.6724 90.9379 34.6724 90.9379Z" fill="#6C7284"/>
<path d="M38.3887 87.8447C45.9081 92.3609 53.1127 95.1714 54.5646 95.907C54.6352 95.9391 54.6834 95.8267 54.6095 95.7946C53.1481 95.1522 45.1661 90.7581 38.4401 87.7227C38.363 87.6874 38.318 87.803 38.3887 87.8447Z" fill="#263238"/>
<path d="M52.7915 99.5077C53.1853 99.6239 53.5715 99.7644 53.9479 99.9284C55.48 96.241 55.2134 97.0826 56.7809 93.4112C57.5496 91.6124 58.3173 89.8137 59.0839 88.0149C59.8773 86.1423 60.5711 84.2022 61.4673 82.3778C61.472 82.3667 61.4808 82.3579 61.492 82.3534C61.5031 82.3489 61.5156 82.349 61.5267 82.3537C61.5378 82.3584 61.5465 82.3673 61.551 82.3784C61.5556 82.3895 61.5555 82.402 61.5508 82.4131C61.0818 84.1637 60.3977 85.8789 59.7585 87.5813C59.9062 87.3147 60.0475 87.0417 60.2146 86.7815C60.5839 86.2001 60.9469 85.6187 61.2713 85.0084C61.3195 84.9153 61.4737 84.9763 61.4223 85.0727C61.1011 85.6541 60.8473 86.2483 60.584 86.8522C60.3206 87.456 60.0218 88.0374 59.7167 88.622C59.4115 89.2066 59.0936 89.7237 58.7531 90.2634L58.631 90.4657C58.2199 91.5321 57.8216 92.6017 57.3847 93.6617C55.8526 97.3652 54.2112 100.311 54.147 100.298C53.662 100.105 53.1927 99.8757 52.7433 99.6104C52.6952 99.5783 52.7401 99.5077 52.7915 99.5077Z" fill="#263238"/>
<path d="M40.8074 115.247C43.9391 110.885 47.013 100.613 43.9391 79.5608C43.5151 76.6474 22.3252 78.1764 22.6175 81.3113C22.9869 85.2589 25.2739 100.503 25.5822 101.595C28.2 110.817 38.6842 118.205 40.8074 115.247Z" fill="#FACAC5"/>
<path d="M42.998 111.598C43.7216 110.144 44.291 108.619 44.6972 107.046C44.9028 106.259 45.0923 105.469 45.2336 104.669C45.3787 103.865 45.4731 103.051 45.5163 102.235C45.6196 100.617 45.641 98.9948 45.5805 97.3748C45.5378 95.7606 45.3876 94.151 45.1309 92.5568C45.1951 94.1628 45.179 95.7688 45.1501 97.3941C45.1212 99.0194 45.057 100.606 44.9413 102.212C44.8739 103.012 44.8064 103.818 44.6715 104.586C44.5366 105.354 44.3857 106.166 44.2122 106.947C43.8717 108.495 43.4927 110.075 42.998 111.598Z" fill="#263238"/>
<path d="M39.3715 71.3122C43.1296 73.4578 43.9391 79.5607 43.9391 79.5607L27.4291 87.3403C27.4291 87.3403 24.0147 82.4773 21.2299 80.9901C20.4204 80.5565 16.2801 78.1217 12.1108 76.0146C7.38912 73.6217 2.73164 70.5092 2.50358 69.9246C2.06996 68.7715 3.6792 67.4963 7.24458 68.3539C10.81 69.2115 17.4782 72.0702 17.9214 72.1377C18.0717 72.1411 18.222 72.1336 18.3711 72.1152C18.5574 72.0413 21.7341 67.917 24.0886 67.9877C26.443 68.0584 36.7698 69.8314 39.3715 71.3122Z" fill="#FACAC5"/>
<path d="M23.7193 76.2973C23.7193 76.2973 14.7898 76.111 13.2866 75.0125C11.7833 73.914 1.76814 68.7169 1.30882 67.5734C0.849496 66.4299 2.48764 65.1451 6.05302 66.0027C9.6184 66.8603 16.2802 69.7319 16.7267 69.7994C17.1732 69.8668 24.9624 68.749 25.7204 68.8614C26.4785 68.9739 23.7193 76.2973 23.7193 76.2973Z" fill="#FACAC5"/>
<path d="M18.6731 76.9044C17.7095 76.6699 16.7844 76.3937 15.8433 76.1238C15.3743 75.9825 14.9086 75.8348 14.4428 75.6774C14.2116 75.5971 13.9771 75.5168 13.7458 75.43C13.6302 75.3883 13.5146 75.3369 13.3957 75.2887C13.2791 75.2338 13.1654 75.1727 13.0552 75.1056C11.3625 74.142 9.66331 73.1784 7.97377 72.1859C6.28423 71.1933 4.60754 70.2137 2.93727 69.1697C2.51449 68.8962 2.12624 68.5726 1.78093 68.2061C1.60352 68.014 1.45427 67.7978 1.33767 67.5637C1.20624 67.3214 1.15773 67.0428 1.19955 66.7703C1.23044 66.6372 1.2879 66.5117 1.36848 66.4013C1.44907 66.2909 1.55112 66.1979 1.66851 66.1279C1.88509 65.9934 2.12296 65.8968 2.37195 65.8421C2.85488 65.7376 3.34986 65.6997 3.84307 65.7296C3.35803 65.7582 2.87761 65.84 2.41049 65.9737C2.17941 66.0429 1.96206 66.1516 1.76808 66.295C1.68146 66.357 1.60832 66.4359 1.55311 66.527C1.4979 66.6181 1.46176 66.7195 1.44688 66.8249C1.39548 67.2457 1.6942 67.6601 2.01541 67.9845C2.35656 68.311 2.73625 68.5947 3.14605 68.8293C4.8388 69.7929 6.54441 70.7565 8.23073 71.7201C9.91706 72.6837 11.6002 73.6987 13.2576 74.7523C13.6647 74.9959 14.0951 75.1982 14.5424 75.3562C14.9953 75.5328 15.4546 75.6999 15.9108 75.8701L18.6731 76.9044Z" fill="#263238"/>
<path d="M25.2257 74.9579C25.2257 74.9579 15.4386 74.7138 13.9354 73.6185C12.4321 72.5232 2.41693 67.3196 1.96081 66.1794C1.5047 65.0391 3.13964 63.751 6.70502 64.6054C10.2704 65.4599 16.929 68.3379 17.3787 68.4053C17.8284 68.4728 25.4538 68.174 26.2022 68.2865C26.9506 68.3989 25.2257 74.9579 25.2257 74.9579Z" fill="#FACAC5"/>
<path d="M20.3434 76.1528C19.1902 75.8123 18.0564 75.4269 16.9193 75.0414C16.354 74.8401 15.7897 74.626 15.2266 74.399C14.946 74.2898 14.6666 74.1742 14.3882 74.0521C14.1072 73.9278 13.8346 73.7851 13.5723 73.6249C11.5081 72.4172 9.44379 71.1987 7.37951 69.9696L4.30236 68.1034L3.53789 67.6248C3.27187 67.4684 3.01649 67.2946 2.77342 67.1045C2.52173 66.9078 2.29709 66.6789 2.10532 66.4235C1.88998 66.1529 1.76525 65.8214 1.74878 65.4759C1.7531 65.286 1.81344 65.1017 1.92223 64.946C2.02529 64.8025 2.1592 64.6839 2.3141 64.599C2.59546 64.441 2.90183 64.3324 3.2199 64.2778C3.82455 64.1861 4.43747 64.1613 5.04756 64.204C6.25505 64.2831 7.43966 64.5711 8.5487 65.0552C7.41819 64.6681 6.23281 64.4653 5.03792 64.4545C4.44892 64.4398 3.86001 64.4872 3.28093 64.5958C3.00607 64.6484 2.74214 64.7472 2.5004 64.8881C2.39386 64.9411 2.30411 65.0226 2.24116 65.1235C2.1782 65.2245 2.14452 65.3409 2.14386 65.4599C2.17294 65.7158 2.2794 65.9567 2.44901 66.1505C2.6268 66.3673 2.82948 66.5624 3.05287 66.7319C3.50256 67.0723 4.04861 67.3582 4.55611 67.6666L7.6429 69.536C9.69861 70.7726 11.7543 72.0028 13.7876 73.2844C14.0296 73.4487 14.2829 73.5957 14.5456 73.7245C14.8122 73.853 15.082 73.9782 15.355 74.0971C15.9011 74.3391 16.4525 74.5714 17.0092 74.7941L20.3434 76.1528Z" fill="#263238"/>
<path d="M25.1454 75.2599C25.1454 75.2599 16.6977 73.0628 15.3005 72.0478C13.9032 71.0328 6.83991 67.9043 6.41271 66.8411C5.9855 65.7779 7.51123 64.5926 10.8293 65.3764C14.1473 66.1601 18.0853 67.1302 18.5029 67.1944C18.9204 67.2586 25.5052 68.1869 26.2118 68.2929C26.9185 68.3989 25.1454 75.2599 25.1454 75.2599Z" fill="#FACAC5"/>
<path d="M22.7139 75.3851C21.246 74.9033 19.7877 74.3958 18.3262 73.8979C17.5939 73.6474 16.8647 73.3904 16.1388 73.127L15.5928 72.9279C15.407 72.8588 15.2257 72.7784 15.0499 72.687C14.6998 72.5135 14.3593 72.3272 14.0221 72.1377C12.673 71.3733 11.3432 70.5831 10.0423 69.7447C9.39993 69.3272 8.75752 68.9032 8.11511 68.4599C7.7939 68.2383 7.4727 68.0167 7.15149 67.7822C6.82126 67.5503 6.51175 67.2902 6.22642 67.0049C6.04703 66.8176 5.9489 66.5671 5.95339 66.3078C5.98121 66.0506 6.1065 65.8138 6.30351 65.6462C6.63012 65.3726 7.0128 65.1742 7.42452 65.0648C8.20778 64.8329 9.03575 64.7954 9.83677 64.9556C11.3593 65.2768 12.8561 65.6269 14.3626 65.977C15.869 66.3271 17.3883 66.6837 18.8594 67.053C19.6078 67.2008 20.3755 67.3261 21.1336 67.4578C21.8916 67.5895 22.6561 67.734 23.4109 67.901C21.8627 67.8111 20.3338 67.6698 18.7856 67.4835L14.2598 66.4299C12.7533 66.1087 11.2436 65.7522 9.74041 65.4502C9.02009 65.3053 8.27552 65.335 7.56906 65.5369C7.23013 65.6213 6.91346 65.778 6.64077 65.9963C6.58546 66.0322 6.53927 66.0805 6.5059 66.1373C6.47252 66.1942 6.45287 66.2581 6.4485 66.3239C6.44413 66.3897 6.45518 66.4556 6.48075 66.5164C6.50632 66.5771 6.54572 66.6311 6.59581 66.674C6.85829 66.9335 7.14075 67.1719 7.44058 67.3871C7.76178 67.6184 8.05729 67.8432 8.37207 68.0616C9.00163 68.5027 9.64404 68.931 10.2993 69.3464C11.5841 70.1816 12.8689 71.0264 14.2084 71.8101C14.5296 72.006 14.8733 72.1988 15.2105 72.3786C15.5489 72.5508 15.8976 72.702 16.2545 72.8315L18.413 73.6699L22.7139 75.3851Z" fill="#263238"/>
<path d="M56.0461 29.0693C56.0455 29.3733 56.135 29.6706 56.3035 29.9237C56.472 30.1767 56.7118 30.3741 56.9925 30.4907C57.2732 30.6073 57.5823 30.638 57.8804 30.5789C58.1786 30.5198 58.4526 30.3734 58.6675 30.1585C58.8825 29.9435 59.0288 29.6696 59.0879 29.3714C59.1471 29.0732 59.1164 28.7642 58.9997 28.4835C58.8831 28.2027 58.6857 27.963 58.4327 27.7945C58.1797 27.626 57.8823 27.5364 57.5783 27.5371C57.172 27.5371 56.7822 27.6985 56.4949 27.9859C56.2076 28.2732 56.0461 28.6629 56.0461 29.0693Z" fill="white"/>
<path d="M56.0461 29.0693C56.0642 29.4415 56.2247 29.7924 56.4944 30.0494C56.7642 30.3064 57.1225 30.4498 57.4951 30.4498C57.8677 30.4498 58.226 30.3064 58.4957 30.0494C58.7655 29.7924 58.926 29.4415 58.944 29.0693C58.926 28.6972 58.7655 28.3462 58.4957 28.0892C58.226 27.8322 57.8677 27.6889 57.4951 27.6889C57.1225 27.6889 56.7642 27.8322 56.4944 28.0892C56.2247 28.3462 56.0642 28.6972 56.0461 29.0693ZM56.0461 29.0693C56.1073 26.9392 59.2124 26.9189 59.2837 29.0693C59.209 31.2198 56.1073 31.1994 56.0461 29.0693Z" fill="#263238"/>
<path d="M54.164 26.6709C55.3817 26.6709 56.3689 25.6837 56.3689 24.4661C56.3689 23.2484 55.3817 22.2612 54.164 22.2612C52.9464 22.2612 51.9592 23.2484 51.9592 24.4661C51.9592 25.6837 52.9464 26.6709 54.164 26.6709Z" fill="white"/>
<path d="M51.9592 24.466C51.932 26.3616 54.3577 27.3163 55.6215 25.9234C55.9912 25.5282 56.1968 25.0072 56.1968 24.466C56.1968 23.9248 55.9912 23.4038 55.6215 23.0086C54.3577 21.6191 51.932 22.5703 51.9592 24.466ZM51.9592 24.466C51.9574 24.0857 52.0502 23.711 52.2291 23.3755C52.4081 23.0401 52.6677 22.7544 52.9846 22.5442C53.3014 22.3339 53.6656 22.2058 54.0443 22.1713C54.4229 22.1368 54.8042 22.197 55.1539 22.3465C55.5035 22.496 55.8104 22.7301 56.0471 23.0277C56.2838 23.3253 56.4428 23.6771 56.5097 24.0514C56.5766 24.4257 56.5494 24.8107 56.4305 25.1719C56.3117 25.5331 56.1048 25.8591 55.8287 26.1204C55.5016 26.4238 55.0934 26.6256 54.6538 26.7014C54.2142 26.7772 53.762 26.7238 53.3522 26.5475C52.9424 26.3712 52.5926 26.0796 52.3453 25.7083C52.098 25.337 51.9639 24.9019 51.9592 24.4558V24.466Z" fill="#263238"/>
<path d="M43.6463 28.3354C50.5202 26.0488 54.2389 18.6227 51.9522 11.7489C49.6656 4.875 42.2395 1.15631 35.3657 3.44294C28.4918 5.72957 24.7731 13.1556 27.0597 20.0295C29.3464 26.9034 36.7724 30.622 43.6463 28.3354Z" fill="white"/>
<path d="M32.6424 4.71776C30.4393 6.0821 28.6902 8.06905 27.6162 10.4274C26.5423 12.7857 26.1917 15.4095 26.6088 17.9671C28.09 27.0548 38.4551 31.7905 46.2858 26.9392C52.3465 23.2872 54.3203 15.076 50.6071 9.06625C46.9414 2.92061 38.7167 0.940008 32.6424 4.71776ZM32.6424 4.71776C38.6963 0.902638 47.0298 2.87645 50.7566 8.98132C54.6328 15.0964 52.6556 23.4503 46.4624 27.211C38.4415 32.1337 27.9236 27.2688 26.5035 17.9671C26.1162 15.4001 26.4916 12.7759 27.5829 10.4204C28.6743 8.06489 30.4336 6.08192 32.6424 4.71776Z" fill="#263238"/>
<path d="M40.1418 16.6082V17.9025C40.145 18.0316 40.1221 18.16 40.0743 18.28C40.0264 18.3999 39.9548 18.5089 39.8637 18.6004C39.7725 18.6919 39.6638 18.7639 39.544 18.8121C39.4242 18.8603 39.2959 18.8837 39.1668 18.8809C38.9082 18.8765 38.6618 18.7701 38.4811 18.585C38.3004 18.3999 38.2001 18.151 38.202 17.8923V15.82C38.202 15.7996 38.2223 15.7996 38.2223 15.7792C38.2223 15.7589 38.202 15.7623 38.202 15.7419C38.212 15.4856 38.3183 15.2425 38.4997 15.0612C38.681 14.8798 38.9241 14.7735 39.1804 14.7635C39.7723 14.7635 40.34 14.5283 40.7586 14.1097C41.1772 13.6911 41.4124 13.1234 41.4124 12.5315C41.4124 11.9395 41.1772 11.3718 40.7586 10.9532C40.34 10.5346 39.7723 10.2995 39.1804 10.2995C38.7931 10.2973 38.4121 10.3977 38.0762 10.5905C37.7403 10.7832 37.4613 11.0614 37.2677 11.3968C37.203 11.5106 37.1162 11.6103 37.0125 11.6901C36.9087 11.7699 36.79 11.8281 36.6634 11.8613C36.5368 11.8946 36.4048 11.9021 36.2752 11.8836C36.1456 11.8651 36.021 11.8209 35.9088 11.7535C35.7986 11.6884 35.7023 11.6021 35.6255 11.4997C35.5487 11.3972 35.493 11.2806 35.4614 11.1566C35.4298 11.0325 35.4231 10.9034 35.4416 10.7767C35.46 10.65 35.5034 10.5283 35.5691 10.4184C35.9187 9.81925 36.4116 9.31634 37.0036 8.95479C37.5956 8.59324 38.2682 8.38437 38.9608 8.34693C39.6535 8.30949 40.3446 8.44464 40.9721 8.74027C41.5996 9.0359 42.1439 9.48274 42.5561 10.0407C42.9683 10.5986 43.2354 11.2502 43.3336 11.9369C43.4317 12.6236 43.3578 13.3239 43.1185 13.9749C42.8792 14.626 42.4819 15.2075 41.9623 15.6671C41.4428 16.1267 40.8172 16.4501 40.1418 16.6082ZM40.1418 20.9737V21.3304C40.145 21.4595 40.1221 21.5879 40.0743 21.7078C40.0264 21.8278 39.9548 21.9368 39.8637 22.0282C39.7725 22.1197 39.6638 22.1917 39.544 22.2399C39.4242 22.2882 39.2959 22.3116 39.1668 22.3088C38.9082 22.3043 38.6618 22.198 38.4811 22.0129C38.3004 21.8278 38.2001 21.5788 38.202 21.3202V20.9635C38.2055 20.7051 38.3097 20.4582 38.4924 20.2755C38.6751 20.0928 38.922 19.9886 39.1804 19.9851C39.3079 19.9855 39.4341 20.0112 39.5517 20.0608C39.6693 20.1103 39.7758 20.1826 39.8652 20.2736C39.9546 20.3646 40.0251 20.4724 40.0726 20.5909C40.1201 20.7093 40.1436 20.8359 40.1418 20.9635V20.9737Z" fill="#6C7284"/>
</g>
</g>
<defs>
<clipPath id="clip0_677_17230">
<rect width="150" height="150" fill="white" transform="translate(0.5)"/>
</clipPath>
</defs>
</svg>
