<svg width="27" height="28" viewBox="0 0 27 28" fill="none" xmlns="http://www.w3.org/2000/svg">
<g id="Accessories" clip-path="url(#clip0_1312_14282)">
<path id="Vector" opacity="0.3" d="M15.7641 17.5328C15.8953 17.1062 15.9609 16.6578 15.9609 16.1875C15.9609 15.7172 15.8953 15.2688 15.7641 14.8422L17.3938 13.6063L16.5953 12.2172L14.7031 13.0156C14.0906 12.3594 13.2813 11.8781 12.3734 11.6703L12.1109 9.625H10.5141L10.2516 11.6594C9.34376 11.8672 8.53439 12.3484 7.92189 13.0047L6.0297 12.2062L5.23126 13.5953L6.86095 14.8313C6.7297 15.2578 6.66407 15.7062 6.66407 16.1766C6.66407 16.6469 6.7297 17.0953 6.86095 17.5219L5.23126 18.7578L6.0297 20.1469L7.92189 19.3484C8.53439 20.0047 9.34376 20.4859 10.2516 20.6938L10.5141 22.75H12.1219L12.3734 20.7156C13.2813 20.5078 14.0906 20.0266 14.7031 19.3703L16.5953 20.1687L17.3938 18.7797L15.7641 17.5328ZM11.3125 19.4688C9.49689 19.4688 8.03126 18.0031 8.03126 16.1875C8.03126 14.3719 9.49689 12.9062 11.3125 12.9062C13.1281 12.9062 14.5938 14.3719 14.5938 16.1875C14.5938 18.0031 13.1281 19.4688 11.3125 19.4688Z" fill="#B6005B"/>
<path id="Vector_2" d="M11.3125 15.0938C11.914 15.0938 12.4062 15.5859 12.4062 16.1875C12.4062 16.7891 11.914 17.2812 11.3125 17.2812C10.7109 17.2812 10.2187 16.7891 10.2187 16.1875C10.2187 15.5859 10.7109 15.0938 11.3125 15.0938ZM11.3125 12.9062C9.49685 12.9062 8.03123 14.3719 8.03123 16.1875C8.03123 18.0031 9.49685 19.4688 11.3125 19.4688C13.1281 19.4688 14.5937 18.0031 14.5937 16.1875C14.5937 14.3719 13.1281 12.9062 11.3125 12.9062ZM20.6094 10.7188L21.8015 8.08281L24.4375 6.89062L21.8015 5.69844L20.6094 3.0625L19.4172 5.69844L16.7812 6.89062L19.4172 8.08281L20.6094 10.7188ZM23.65 14.7875L22.7969 12.9062L21.9437 14.7875L20.0625 15.6406L21.9437 16.4937L22.7969 18.375L23.65 16.4937L25.5312 15.6406L23.65 14.7875ZM18.1484 16.1875C18.1484 16.0562 18.1484 15.9141 18.1375 15.7828L20.2594 14.175L17.525 9.43906L15.075 10.4672C14.8562 10.325 14.6156 10.1828 14.375 10.0625L14.0469 7.4375H8.5781L8.24998 10.0734C8.00935 10.1937 7.77966 10.3359 7.54998 10.4781L5.09998 9.43906L2.3656 14.175L4.48748 15.7828C4.47654 15.9141 4.47654 16.0562 4.47654 16.1875C4.47654 16.3188 4.47654 16.4609 4.48748 16.5922L2.3656 18.2L5.09998 22.9359L7.54998 21.9078C7.76873 22.05 8.00935 22.1922 8.24998 22.3125L8.5781 24.9375H14.0469L14.375 22.3016C14.6156 22.1812 14.8453 22.05 15.075 21.8969L17.525 22.925L20.2594 18.1891L18.1375 16.5812C18.1484 16.4609 18.1484 16.3188 18.1484 16.1875ZM16.5953 20.1687L14.7031 19.3703C14.0906 20.0266 13.2812 20.5078 12.3734 20.7156L12.1109 22.75H10.514L10.2625 20.7156C9.35466 20.5078 8.54529 20.0266 7.93279 19.3703L6.0406 20.1687L5.24216 18.7797L6.87185 17.5437C6.7406 17.1172 6.67498 16.6687 6.67498 16.1984C6.67498 15.7281 6.7406 15.2797 6.87185 14.8531L5.24216 13.6172L6.0406 12.2281L7.93279 13.0266C8.54529 12.3703 9.35466 11.8891 10.2625 11.6813L10.514 9.625H12.1219L12.3734 11.6594C13.2812 11.8672 14.0906 12.3484 14.7031 13.0047L16.5953 12.2062L17.3937 13.5953L15.764 14.8313C15.8953 15.2578 15.9609 15.7063 15.9609 16.1766C15.9609 16.6469 15.8953 17.0953 15.764 17.5219L17.3937 18.7578L16.5953 20.1687Z" fill="#B6005B"/>
</g>
<defs>
<clipPath id="clip0_1312_14282">
<rect width="26.25" height="26.25" fill="white" transform="translate(0.375 0.875)"/>
</clipPath>
</defs>
</svg>
