<svg width="18" height="19" viewBox="0 0 18 19" fill="none" xmlns="http://www.w3.org/2000/svg">
<path d="M9 2C4.86 2 1.5 5.36 1.5 9.5C1.5 13.64 4.86 17 9 17C13.14 17 16.5 13.64 16.5 9.5C16.5 5.36 13.14 2 9 2ZM5.5125 14.375C6.495 13.67 7.695 13.25 9 13.25C10.305 13.25 11.505 13.67 12.4875 14.375C11.505 15.08 10.305 15.5 9 15.5C7.695 15.5 6.495 15.08 5.5125 14.375ZM13.605 13.34C12.3375 12.35 10.74 11.75 9 11.75C7.26 11.75 5.6625 12.35 4.395 13.34C3.525 12.2975 3 10.9625 3 9.5C3 6.185 5.685 3.5 9 3.5C12.315 3.5 15 6.185 15 9.5C15 10.9625 14.475 12.2975 13.605 13.34Z" fill="#0D6EFD"/>
<path d="M9 5C7.5525 5 6.375 6.1775 6.375 7.625C6.375 9.0725 7.5525 10.25 9 10.25C10.4475 10.25 11.625 9.0725 11.625 7.625C11.625 6.1775 10.4475 5 9 5ZM9 8.75C8.3775 8.75 7.875 8.2475 7.875 7.625C7.875 7.0025 8.3775 6.5 9 6.5C9.6225 6.5 10.125 7.0025 10.125 7.625C10.125 8.2475 9.6225 8.75 9 8.75Z" fill="#0D6EFD"/>
</svg>
