<svg width="35" height="35" viewBox="0 0 35 35" fill="none" xmlns="http://www.w3.org/2000/svg">
<g id="Buy Commercial">
<g id="Group">
<path id="Vector" opacity="0.3" d="M15.3125 25.1562H8.75V22.9688H15.3125V25.1562ZM15.3125 20.7812H8.75V18.5938H15.3125V20.7812ZM15.3125 16.4062H8.75V14.2188H15.3125V16.4062ZM15.3125 12.0312H8.75V9.84375H15.3125V12.0312ZM26.25 25.1562H17.5V14.2188H26.25V25.1562ZM24.0625 16.4062H19.6875V18.5938H24.0625V16.4062ZM24.0625 20.7812H19.6875V22.9688H24.0625V20.7812Z" fill="#B6005B"/>
<path id="Vector_2" d="M17.5 12.0312V7.65625H6.5625V27.3438H28.4375V12.0312H17.5ZM15.3125 25.1562H8.75V22.9688H15.3125V25.1562ZM15.3125 20.7812H8.75V18.5938H15.3125V20.7812ZM15.3125 16.4062H8.75V14.2188H15.3125V16.4062ZM15.3125 12.0312H8.75V9.84375H15.3125V12.0312ZM26.25 25.1562H17.5V14.2188H26.25V25.1562ZM24.0625 16.4062H19.6875V18.5938H24.0625V16.4062ZM24.0625 20.7812H19.6875V22.9688H24.0625V20.7812Z" fill="#B6005B"/>
</g>
</g>
</svg>
