<svg width="35" height="35" viewBox="0 0 35 35" fill="none" xmlns="http://www.w3.org/2000/svg">
<g id="Buy Residential">
<g id="Group">
<path id="Vector" opacity="0.3" d="M9.84375 14.6234L19.6875 10.839V17.4999H14.2188V25.1562H9.84375V14.6234ZM25.1562 25.1562H21.875V21.8749H19.6875V25.1562H16.4062V19.6874H25.1562V25.1562Z" fill="#B6005B"/>
<path id="Vector_2" d="M25.1562 15.3125C23.9531 15.3125 22.9688 16.2969 22.9688 17.5H21.875V7.65625L7.65625 13.125V27.3438H27.3438V17.5C27.3438 16.2969 26.3594 15.3125 25.1562 15.3125ZM9.84375 14.6234L19.6875 10.8391V17.5H14.2188V25.1562H9.84375V14.6234ZM25.1562 25.1562H21.875V21.875H19.6875V25.1562H16.4062V19.6875H25.1562V25.1562Z" fill="#B6005B"/>
</g>
</g>
</svg>
