<svg xmlns="http://www.w3.org/2000/svg" width="16" height="16" viewBox="0 0 16 16" fill="none">
<path d="M10.0767 5.23172L10.7667 5.92172L9.93422 6.75422L10.9917 7.81172L12.8817 5.92172L10.0692 3.10922L8.17922 4.99922L9.23672 6.05672L10.0767 5.23172ZM15.0642 3.74672C15.3567 3.45422 15.3567 2.98172 15.0642 2.68922L13.3092 0.934219C13.1592 0.784219 12.9717 0.716719 12.7767 0.716719C12.5817 0.716719 12.3942 0.791719 12.2517 0.934219L10.8792 2.30672L13.6917 5.11922L15.0642 3.74672ZM1.63922 0.574219L0.574219 1.63172L6.06422 7.12172L1.78172 11.4042V14.2167H4.59422L8.87672 9.93422L14.3667 15.4242L15.4242 14.3667L1.63922 0.574219ZM3.97172 12.7167H3.28172V12.0267L7.12922 8.17922L7.81922 8.86922L3.97172 12.7167Z" fill="#6C7284"/>
</svg>