<svg width="35" height="36" viewBox="0 0 35 36" fill="none" xmlns="http://www.w3.org/2000/svg">
<g id="Car">
<g id="Group">
<path id="Vector" opacity="0.3" d="M9.84375 23.4688H25.1562V18H9.84375V23.4688ZM22.4219 19.0938C23.3297 19.0938 24.0625 19.8266 24.0625 20.7344C24.0625 21.6422 23.3297 22.375 22.4219 22.375C21.5141 22.375 20.7812 21.6422 20.7812 20.7344C20.7812 19.8266 21.5141 19.0938 22.4219 19.0938ZM12.5781 19.0938C13.4859 19.0938 14.2188 19.8266 14.2188 20.7344C14.2188 21.6422 13.4859 22.375 12.5781 22.375C11.6703 22.375 10.9375 21.6422 10.9375 20.7344C10.9375 19.8266 11.6703 19.0938 12.5781 19.0938Z" fill="#B6005B"/>
<path id="Vector_2" d="M25.0688 11.4484C24.85 10.8031 24.2375 10.3438 23.5156 10.3438H11.4844C10.7625 10.3438 10.1609 10.8031 9.93125 11.4484L7.65625 18V26.75C7.65625 27.3516 8.14844 27.8438 8.75 27.8438H9.84375C10.4453 27.8438 10.9375 27.3516 10.9375 26.75V25.6562H24.0625V26.75C24.0625 27.3516 24.5547 27.8438 25.1562 27.8438H26.25C26.8516 27.8438 27.3438 27.3516 27.3438 26.75V18L25.0688 11.4484ZM11.8672 12.5312H23.1219L24.3031 15.9328H10.6859L11.8672 12.5312ZM25.1562 23.4688H9.84375V18H25.1562V23.4688Z" fill="#B6005B"/>
<path id="Vector_3" d="M12.5781 22.375C13.4842 22.375 14.2188 21.6405 14.2188 20.7344C14.2188 19.8283 13.4842 19.0938 12.5781 19.0938C11.672 19.0938 10.9375 19.8283 10.9375 20.7344C10.9375 21.6405 11.672 22.375 12.5781 22.375Z" fill="#B6005B"/>
<path id="Vector_4" d="M22.4219 22.375C23.328 22.375 24.0625 21.6405 24.0625 20.7344C24.0625 19.8283 23.328 19.0938 22.4219 19.0938C21.5158 19.0938 20.7812 19.8283 20.7812 20.7344C20.7812 21.6405 21.5158 22.375 22.4219 22.375Z" fill="#B6005B"/>
</g>
</g>
</svg>
