<svg width="21" height="20" viewBox="0 0 21 20" fill="none" xmlns="http://www.w3.org/2000/svg">
<path d="M15.75 4.75834C15.425 4.43334 14.9 4.43334 14.575 4.75834L10.5 8.82501L6.42498 4.75001C6.09998 4.42501 5.57498 4.42501 5.24998 4.75001C4.92498 5.07501 4.92498 5.60001 5.24998 5.92501L9.32498 10L5.24998 14.075C4.92498 14.4 4.92498 14.925 5.24998 15.25C5.57498 15.575 6.09998 15.575 6.42498 15.25L10.5 11.175L14.575 15.25C14.9 15.575 15.425 15.575 15.75 15.25C16.075 14.925 16.075 14.4 15.75 14.075L11.675 10L15.75 5.92501C16.0666 5.60834 16.0666 5.07501 15.75 4.75834Z" fill="#6C7284"/>
</svg>
