<svg xmlns="http://www.w3.org/2000/svg" width="21" height="20" viewBox="0 0 21 20" fill="none">
	<path
		d="M15.7496 4.75831C15.4246 4.43331 14.8996 4.43331 14.5746 4.75831L10.4996 8.82498L6.42461 4.74998C6.09961 4.42498 5.57461 4.42498 5.24961 4.74998C4.92461 5.07498 4.92461 5.59998 5.24961 5.92498L9.32461 9.99998L5.24961 14.075C4.92461 14.4 4.92461 14.925 5.24961 15.25C5.57461 15.575 6.09961 15.575 6.42461 15.25L10.4996 11.175L14.5746 15.25C14.8996 15.575 15.4246 15.575 15.7496 15.25C16.0746 14.925 16.0746 14.4 15.7496 14.075L11.6746 9.99998L15.7496 5.92498C16.0663 5.60831 16.0663 5.07498 15.7496 4.75831Z"
		fill="#ED4258"
	/>
</svg>
