<!-- FIXME: Don't convert the whole button as an icon. -->
<svg width="30" height="30" viewBox="0 0 30 30" fill="none" xmlns="http://www.w3.org/2000/svg">
<rect width="30" height="30" rx="15" fill="#F3F4F6"/>
<path d="M19.5864 11.7901C19.9671 11.4094 19.9671 10.7912 19.5864 10.4105C19.2058 10.0298 18.5875 10.0298 18.2069 10.4105L15 13.6204L11.7901 10.4136C11.4094 10.0329 10.7912 10.0329 10.4105 10.4136C10.0298 10.7942 10.0298 11.4125 10.4105 11.7931L13.6204 15L10.4136 18.2099C10.0329 18.5906 10.0329 19.2088 10.4136 19.5895C10.7942 19.9702 11.4125 19.9702 11.7931 19.5895L15 16.3796L18.2099 19.5864C18.5906 19.9671 19.2088 19.9671 19.5895 19.5864C19.9702 19.2058 19.9702 18.5875 19.5895 18.2069L16.3796 15L19.5864 11.7901Z" fill="#6C7284"/>
</svg>
