<svg xmlns="http://www.w3.org/2000/svg" width="18" height="18" viewBox="0 0 18 18" fill="none">
<path d="M11.625 15H4.125V5.25C4.125 4.8375 3.7875 4.5 3.375 4.5C2.9625 4.5 2.625 4.8375 2.625 5.25V15C2.625 15.825 3.3 16.5 4.125 16.5H11.625C12.0375 16.5 12.375 16.1625 12.375 15.75C12.375 15.3375 12.0375 15 11.625 15ZM15.375 12V3C15.375 2.175 14.7 1.5 13.875 1.5H7.125C6.3 1.5 5.625 2.175 5.625 3V12C5.625 12.825 6.3 13.5 7.125 13.5H13.875C14.7 13.5 15.375 12.825 15.375 12ZM13.875 12H7.125V3H13.875V12Z" fill="#EE0088"/>
</svg>