<svg width="21" height="20" viewBox="0 0 21 20" fill="none" xmlns="http://www.w3.org/2000/svg">
<path d="M16.125 13.75H10.5C9.46582 13.75 8.625 12.9092 8.625 11.875V4.375C8.625 3.34082 9.46582 2.5 10.5 2.5H14.6045C14.9766 2.5 15.334 2.64941 15.5977 2.91309L17.5869 4.90234C17.8506 5.16602 18 5.52344 18 5.89551V11.875C18 12.9092 17.1592 13.75 16.125 13.75ZM4.875 6.25H7.6875V7.65625H4.875C4.61719 7.65625 4.40625 7.86719 4.40625 8.125V15.625C4.40625 15.8828 4.61719 16.0938 4.875 16.0938H10.5C10.7578 16.0938 10.9688 15.8828 10.9688 15.625V14.6875H12.375V15.625C12.375 16.6592 11.5342 17.5 10.5 17.5H4.875C3.84082 17.5 3 16.6592 3 15.625V8.125C3 7.09082 3.84082 6.25 4.875 6.25Z" fill="white"/>
</svg>
