<svg width="34" height="35" viewBox="0 0 34 35" fill="none" xmlns="http://www.w3.org/2000/svg">
<g clip-path="url(#clip0_2118_955)">
<path d="M33.0018 29.2106H30.9923V15.9201C30.9923 15.3697 30.5454 14.9235 29.994 14.9235H24.4823C23.931 14.9235 23.4841 15.3697 23.4841 15.9201V29.2106H20.7541V11.9717C20.7541 11.4213 20.3072 10.9751 19.7559 10.9751H14.2442C13.6929 10.9751 13.2459 11.4213 13.2459 11.9717V29.2106H10.516V14.8654C10.516 14.3151 10.0691 13.8689 9.51775 13.8689H4.00595C3.45464 13.8689 3.0077 14.3151 3.0077 14.8654V29.2106H0.998249C0.446936 29.2106 0 29.6568 0 30.2072C0 30.7576 0.446936 31.2038 0.998249 31.2038H33.0018C33.5531 31.2038 34 30.7576 34 30.2072C34 29.6568 33.5531 29.2106 33.0018 29.2106ZM5.0042 29.2106V15.862H8.5195V29.2106H5.0042ZM15.2424 29.2106V12.9683H18.7577V29.2106H15.2424ZM25.4806 29.2106V16.9167H28.9959V29.2106H25.4806Z" fill="#1A1F2E"/>
<path d="M33.2703 8.40858C33.3033 7.99207 33.0606 7.48062 32.5047 7.35126L29.2847 6.56861C28.7497 6.43819 28.2109 6.76673 28.081 7.30156C27.9509 7.8364 28.2791 8.37536 28.8139 8.50531L29.7247 8.72669L27.143 10.3198L17.3541 4.74691C17.0726 4.58659 16.7306 4.57311 16.4376 4.71083L6.70733 9.278L2.05586 6.37507C1.58899 6.08347 0.974225 6.22591 0.682756 6.69285C0.391354 7.15972 0.533667 7.77448 1.0006 8.06595L6.11217 11.256C6.39899 11.4351 6.75709 11.4565 7.06325 11.3128L16.8169 6.73457L26.6705 12.3444C26.9268 12.4788 27.2842 12.5485 27.6869 12.3264L30.8165 10.395L30.6081 11.3712C30.3788 12.6696 32.2168 13.0383 32.5573 11.7875L33.2481 8.55228C33.256 8.50697 33.2589 8.51335 33.2703 8.40858Z" fill="#EE0088"/>
</g>
<defs>
<clipPath id="clip0_2118_955">
<rect width="34" height="34" fill="white" transform="translate(0 0.909912)"/>
</clipPath>
</defs>
</svg>
