<svg width="34" height="35" viewBox="0 0 34 35" fill="none" xmlns="http://www.w3.org/2000/svg">
<g clip-path="url(#clip0_2118_961)">
<path d="M22.7297 13.8837H31.5604C31.9445 13.8837 32.3141 13.7213 32.5743 13.4382C32.8347 13.1548 32.9655 12.7725 32.9329 12.3891C32.8102 10.94 32.1542 9.59671 31.0858 8.60666C30.7636 8.30817 30.4125 8.04985 30.0391 7.83436C30.7599 7.09917 31.2052 6.09146 31.2052 4.98141C31.2052 2.73642 29.3838 0.909912 27.145 0.909912C24.9062 0.909912 23.0848 2.73642 23.0848 4.98148C23.0848 6.09153 23.5301 7.09924 24.2509 7.83442C23.8776 8.04991 23.5264 8.30823 23.2043 8.60673C22.1358 9.59671 21.4798 10.94 21.3572 12.3892C21.3247 12.7725 21.4554 13.1549 21.7158 13.4382C21.976 13.7213 22.3455 13.8837 22.7297 13.8837ZM25.077 4.98148C25.077 3.83491 26.0047 2.9021 27.145 2.9021C28.2853 2.9021 29.213 3.83491 29.213 4.98148C29.213 6.12812 28.2853 7.06086 27.145 7.06086C26.0047 7.06086 25.077 6.12805 25.077 4.98148ZM24.5583 10.068C25.2647 9.4135 26.1833 9.05305 27.145 9.05305C28.1067 9.05305 29.0253 9.4135 29.7317 10.068C30.268 10.5649 30.6465 11.1968 30.8318 11.8915H23.4582C23.6435 11.1968 24.022 10.565 24.5583 10.068Z" fill="#1A1F2E"/>
<path d="M6.28581 13.8837H15.1164C15.5006 13.8837 15.8702 13.7213 16.1304 13.4382C16.3908 13.1548 16.5215 12.7725 16.489 12.3891C16.3663 10.94 15.7103 9.59671 14.6419 8.60666C14.3198 8.30817 13.9686 8.04985 13.5953 7.83436C14.3161 7.09911 14.7614 6.09146 14.7614 4.98141C14.7614 2.73642 12.94 0.909912 10.7012 0.909912C8.46234 0.909912 6.64095 2.73642 6.64095 4.98148C6.64095 6.09153 7.08621 7.09924 7.80705 7.83442C7.43378 8.04991 7.08255 8.30823 6.76042 8.60673C5.69194 9.59678 5.03598 10.94 4.91333 12.3892C4.88086 12.7725 5.01154 13.1548 5.27192 13.4382C5.5321 13.7213 5.90165 13.8837 6.28581 13.8837ZM8.63314 4.98148C8.63314 3.83491 9.56084 2.9021 10.7012 2.9021C11.8415 2.9021 12.7692 3.83491 12.7692 4.98148C12.7692 6.12812 11.8415 7.06086 10.7012 7.06086C9.56084 7.06086 8.63314 6.12805 8.63314 4.98148ZM8.11451 10.068C8.82087 9.4135 9.73947 9.05305 10.7012 9.05305C11.6629 9.05305 12.5815 9.4135 13.2878 10.068C13.8242 10.5649 14.2026 11.1968 14.388 11.8915H7.01429C7.19963 11.1968 7.57808 10.565 8.11451 10.068Z" fill="#1A1F2E"/>
<path d="M31.0858 25.1853C30.7636 24.8868 30.4125 24.6285 30.0391 24.413C30.7599 23.6778 31.2052 22.6701 31.2052 21.5601C31.2052 19.315 29.3838 17.4885 27.145 17.4885C24.9062 17.4885 23.0848 19.315 23.0848 21.5601C23.0848 22.6701 23.5301 23.6778 24.2509 24.413C23.8776 24.6285 23.5264 24.8868 23.2043 25.1853C22.1358 26.1753 21.4798 27.5186 21.3572 28.9677C21.3247 29.3511 21.4554 29.7335 21.7158 30.0169C21.9759 30.3 22.3454 30.4624 22.7297 30.4624H31.5604C31.9445 30.4624 32.3141 30.3 32.5743 30.0169C32.8347 29.7335 32.9655 29.3511 32.9329 28.9677C32.8103 27.5185 32.1543 26.1753 31.0858 25.1853ZM25.0771 21.5601C25.0771 20.4135 26.0047 19.4807 27.1451 19.4807C28.2853 19.4807 29.213 20.4135 29.213 21.5601C29.213 22.7067 28.2853 23.6395 27.1451 23.6395C26.0047 23.6394 25.0771 22.7066 25.0771 21.5601ZM23.4583 28.4701C23.6436 27.7754 24.0221 27.1435 24.5584 26.6465C25.2647 25.992 26.1834 25.6316 27.1451 25.6316C28.1068 25.6316 29.0254 25.992 29.7317 26.6465C30.2681 27.1435 30.6465 27.7754 30.8319 28.4701H23.4583Z" fill="#1A1F2E"/>
<path d="M10.701 15.8831C5.87522 15.8831 1.94922 19.8095 1.94922 24.6357C1.94922 26.8523 2.77744 28.8792 4.14069 30.423L1.35442 33.2096C0.965476 33.5986 0.965542 34.2293 1.35448 34.6183C1.54899 34.8127 1.80385 34.9099 2.05879 34.9099C2.31372 34.9099 2.56872 34.8126 2.76316 34.6181L5.62155 31.7594C7.05473 32.7844 8.80865 33.3881 10.701 33.3881C15.5267 33.3881 19.4527 29.4617 19.4527 24.6355C19.4527 19.8093 15.5267 15.8831 10.701 15.8831ZM10.701 31.396C6.97372 31.396 3.94141 28.3633 3.94141 24.6356C3.94141 20.9079 6.97372 17.8752 10.701 17.8752C14.4282 17.8752 17.4605 20.9079 17.4605 24.6356C17.4605 28.3633 14.4282 31.396 10.701 31.396Z" fill="#EE0088"/>
<path d="M13.4794 21.9397L9.51292 25.9066L7.92216 24.3156C7.53315 23.9267 6.90249 23.9268 6.51342 24.3156C6.12448 24.7045 6.12441 25.3352 6.51335 25.7243L8.80855 28.0197C9.00312 28.2142 9.25806 28.3115 9.51292 28.3115C9.76779 28.3115 10.0228 28.2142 10.2172 28.0198L10.2173 28.0197L14.8881 23.3484C15.2771 22.9593 15.277 22.3286 14.888 21.9396C14.499 21.5507 13.8683 21.5507 13.4794 21.9397Z" fill="#EE0088"/>
</g>
<defs>
<clipPath id="clip0_2118_961">
<rect width="34" height="34" fill="white" transform="translate(0 0.909912)"/>
</clipPath>
</defs>
</svg>
