<svg width="36" height="35" viewBox="0 0 36 35" fill="none" xmlns="http://www.w3.org/2000/svg">
<g clip-path="url(#clip0_2118_944)">
<path d="M2.1837 13.0793C2.21667 5.70801 9.10807 0.432743 16.0984 1.90844C12.1303 5.97152 11.4925 12.2455 14.5304 17.0013L13.7942 17.4532L12.1203 16.4258L12.1201 16.4256C11.2997 15.9225 10.2202 16.1697 9.70722 16.9885L9.70713 16.9886C9.19142 17.8122 9.45066 18.8909 10.2754 19.3972L10.2754 19.3972L12.0381 20.4792V23.6023H8.66028C8.41609 23.3444 8.13375 23.1176 7.81868 22.932C4.394 20.9137 2.16547 17.2247 2.1837 13.0793ZM2.1837 13.0793L1.43371 13.0759L2.1837 13.0793Z" stroke="#1A1F2E" stroke-width="1.5"/>
<path d="M9.69556 27.0944H17.7196V27.852H9.69556V27.0944Z" stroke="#1A1F2E" stroke-width="1.5"/>
<path d="M19.5495 22.9598L19.5493 22.9599C19.2462 23.1366 18.9751 23.3541 18.7403 23.6023H15.5503V20.4792C15.7994 20.3264 16.0153 20.1939 16.2021 20.0793C16.4753 19.9116 16.6864 19.7821 16.8484 19.6826C18.0263 20.7038 19.4015 21.5077 20.9096 22.0298C20.4799 22.3713 20.0254 22.6825 19.5495 22.9598Z" stroke="#1A1F2E" stroke-width="1.5"/>
<rect x="16.4382" y="1.40991" width="18.2323" height="18.04" rx="9.02" fill="#EE0088"/>
<rect x="16.4382" y="1.40991" width="18.2323" height="18.04" rx="9.02" stroke="#EE0088"/>
<path d="M27.4504 13.9508C26.0908 13.9508 24.9154 13.1816 24.3304 12.0549H27.4504L27.992 10.9716H23.9729C23.9458 10.7928 23.9295 10.6141 23.9295 10.4299C23.9295 10.2458 23.9458 10.067 23.9729 9.88827H27.4504L27.992 8.80493H24.3304C24.9154 7.67827 26.0962 6.9091 27.4504 6.9091C28.3224 6.9091 29.1241 7.22868 29.7416 7.75952L30.7004 6.80077C29.8391 6.02618 28.6962 5.55493 27.4504 5.55493C25.327 5.55493 23.5287 6.91452 22.857 8.80493H20.9504L20.4087 9.88827H22.6079C22.5862 10.067 22.5754 10.2458 22.5754 10.4299C22.5754 10.6141 22.5862 10.7928 22.6079 10.9716H20.9504L20.4087 12.0549H22.857C23.5287 13.9453 25.327 15.3049 27.4504 15.3049C28.7016 15.3049 29.8391 14.8337 30.7004 14.0591L29.7362 13.1003C29.1241 13.6312 28.3279 13.9508 27.4504 13.9508Z" fill="white"/>
<path d="M13.7075 34.1599C12.3764 34.1599 11.3052 33.0886 11.3052 31.7891V31.3439H16.1098V31.7891C16.1098 33.0886 15.0386 34.1599 13.7075 34.1599Z" stroke="#1A1F2E" stroke-width="1.5"/>
</g>
<defs>
<clipPath id="clip0_2118_944">
<rect width="34.3434" height="34" fill="white" transform="translate(0.828369 0.909912)"/>
</clipPath>
</defs>
</svg>
