<svg width="18" height="18" viewBox="0 0 18 18" fill="none" xmlns="http://www.w3.org/2000/svg">
<path d="M13.3192 15.374C13.0267 15.6665 12.5542 15.6665 12.2617 15.374L10.6717 13.784C10.3792 13.4915 10.3792 13.019 10.6717 12.7265C10.9642 12.434 11.4367 12.434 11.7292 12.7265L12.7867 13.784L15.4417 11.129C15.7342 10.8365 16.2067 10.8365 16.4992 11.129C16.7917 11.4215 16.7917 11.894 16.4992 12.1865L13.3192 15.374ZM8.84174 14.4065H2.78174C1.95674 14.4065 1.28174 13.7315 1.28174 12.9065V3.90649C1.28174 3.08149 1.95674 2.40649 2.78174 2.40649H14.7817C15.6067 2.40649 16.2817 3.08149 16.2817 3.90649V8.91649C15.5992 8.59399 14.8417 8.40649 14.0317 8.40649C11.1292 8.40649 8.78174 10.754 8.78174 13.6565C8.78174 13.9115 8.80424 14.159 8.84174 14.4065ZM8.38424 8.90899C8.62424 9.05899 8.93924 9.05899 9.17924 8.90899L14.4817 5.59399C14.6692 5.47399 14.7817 5.27149 14.7817 5.05399C14.7817 4.55149 14.2342 4.25149 13.8067 4.51399L8.78174 7.65649L3.75674 4.51399C3.32924 4.25149 2.78174 4.55149 2.78174 5.05399C2.78174 5.27149 2.89424 5.47399 3.08174 5.59399L8.38424 8.90899Z" fill="#A4A4A4"/>
</svg>
