<svg width="21" height="20" viewBox="0 0 21 20" fill="none" xmlns="http://www.w3.org/2000/svg">
<g id="Whatsapp">
<path id="&#60;i class=&#34;fa-brands fa-whatsapp&#34;&#62;&#60;/i&#62;" d="M15.8262 4.67969C14.4233 3.27344 12.555 2.5 10.5695 2.5C6.47131 2.5 3.13649 5.83482 3.13649 9.93304C3.13649 11.2422 3.47801 12.5212 4.12756 13.6496L3.07288 17.5L7.01372 16.4654C8.09855 17.058 9.32064 17.3694 10.5662 17.3694H10.5695C14.6644 17.3694 18.0729 14.0346 18.0729 9.93638C18.0729 7.95089 17.2291 6.08594 15.8262 4.67969ZM10.5695 16.1172C9.45792 16.1172 8.36975 15.8192 7.42221 15.2567L7.19788 15.1228L4.86082 15.7355L5.48359 13.4554L5.33627 13.221C4.71685 12.2366 4.39207 11.1016 4.39207 9.93304C4.39207 6.5279 7.16439 3.75558 10.5729 3.75558C12.2235 3.75558 13.7738 4.39844 14.9389 5.56696C16.1041 6.73549 16.8206 8.28571 16.8173 9.93638C16.8173 13.3449 13.9747 16.1172 10.5695 16.1172ZM13.9579 11.49C13.7738 11.3962 12.8597 10.9475 12.6889 10.8873C12.5182 10.8237 12.3943 10.7935 12.2704 10.981C12.1465 11.1685 11.7916 11.5837 11.6811 11.7109C11.574 11.8348 11.4635 11.8516 11.2793 11.7578C10.1878 11.2121 9.47131 10.7835 8.75145 9.54799C8.5606 9.21987 8.9423 9.2433 9.29721 8.53348C9.35747 8.4096 9.32734 8.30245 9.28046 8.2087C9.23359 8.11495 8.86194 7.20089 8.70792 6.82924C8.55725 6.46763 8.40323 6.51786 8.28939 6.51116C8.18225 6.50446 8.05837 6.50446 7.93448 6.50446C7.8106 6.50446 7.60971 6.55134 7.43895 6.73549C7.26819 6.92299 6.78939 7.37165 6.78939 8.28571C6.78939 9.19978 7.45569 10.0837 7.54609 10.2076C7.63984 10.3315 8.85524 12.2065 10.7202 13.0134C11.8988 13.5223 12.3608 13.5658 12.9501 13.4788C13.3084 13.4252 14.0483 13.0301 14.2023 12.5949C14.3564 12.1596 14.3564 11.7879 14.3095 11.7109C14.266 11.6272 14.1421 11.5804 13.9579 11.49Z" fill="#A6AAB3"/>
</g>
</svg>
