<svg width="35" height="36" viewBox="0 0 35 36" fill="none" xmlns="http://www.w3.org/2000/svg">
<g id="Heavy Vehicles">
<g id="Group">
<path id="Vector" opacity="0.3" d="M7.65625 20.1875H8.50937C9.11094 19.5203 9.975 19.0938 10.9375 19.0938C11.9 19.0938 12.7641 19.5203 13.3656 20.1875H21.6344C22.2359 19.5203 23.1 19.0938 24.0625 19.0938C25.025 19.0938 25.8891 19.5203 26.4906 20.1875H27.3438V18H7.65625V20.1875Z" fill="#B6005B"/>
<path id="Vector_2" d="M22.9683 10.3435H7.65576C6.45264 10.3435 5.46826 11.3169 5.46826 12.531V22.3748H7.65576C7.65576 24.1904 9.12139 25.656 10.937 25.656C12.7526 25.656 14.2183 24.1904 14.2183 22.3748H20.7808C20.7808 24.1904 22.2464 25.656 24.062 25.656C25.8776 25.656 27.3433 24.1904 27.3433 22.3748H29.5308V16.906L22.9683 10.3435ZM20.7808 12.531H21.8745L25.1558 15.8123H20.7808V12.531ZM14.2183 12.531H18.5933V15.8123H14.2183V12.531ZM7.65576 12.531H12.0308V15.8123H7.65576V12.531ZM10.937 23.7419C10.1823 23.7419 9.56982 23.1294 9.56982 22.3748C9.56982 21.6201 10.1823 21.0076 10.937 21.0076C11.6917 21.0076 12.3042 21.6201 12.3042 22.3748C12.3042 23.1294 11.6917 23.7419 10.937 23.7419ZM24.062 23.7419C23.3073 23.7419 22.6948 23.1294 22.6948 22.3748C22.6948 21.6201 23.3073 21.0076 24.062 21.0076C24.8167 21.0076 25.4292 21.6201 25.4292 22.3748C25.4292 23.1294 24.8167 23.7419 24.062 23.7419ZM27.3433 20.1873H26.4901C25.8886 19.5201 25.0245 19.0935 24.062 19.0935C23.0995 19.0935 22.2354 19.5201 21.6339 20.1873H13.3651C12.7636 19.5201 11.9104 19.0935 10.937 19.0935C9.96357 19.0935 9.11045 19.5201 8.50889 20.1873H7.65576V17.9998H27.3433V20.1873Z" fill="#B6005B"/>
</g>
</g>
</svg>
