<svg xmlns="http://www.w3.org/2000/svg" width="21" height="20" viewBox="0 0 21 20" fill="none">
<path d="M9.66602 5.83366H11.3327V7.50033H9.66602V5.83366ZM9.66602 9.16699H11.3327V14.167H9.66602V9.16699ZM10.4993 1.66699C5.89935 1.66699 2.16602 5.40033 2.16602 10.0003C2.16602 14.6003 5.89935 18.3337 10.4993 18.3337C15.0993 18.3337 18.8327 14.6003 18.8327 10.0003C18.8327 5.40033 15.0993 1.66699 10.4993 1.66699ZM10.4993 16.667C6.82435 16.667 3.83268 13.6753 3.83268 10.0003C3.83268 6.32533 6.82435 3.33366 10.4993 3.33366C14.1743 3.33366 17.166 6.32533 17.166 10.0003C17.166 13.6753 14.1743 16.667 10.4993 16.667Z" fill="#0D6EFD"/>
</svg>