<svg width="18" height="19" viewBox="0 0 18 19" fill="none" xmlns="http://www.w3.org/2000/svg">
<g id="Info">
<path id="&#60;i class=&#34;fa-solid fa-circle-info&#34;&#62;&#60;/i&#62;" d="M9 16.25C10.7902 16.25 12.5071 15.5388 13.773 14.273C15.0388 13.0071 15.75 11.2902 15.75 9.5C15.75 7.70979 15.0388 5.9929 13.773 4.72703C12.5071 3.46116 10.7902 2.75 9 2.75C7.20979 2.75 5.4929 3.46116 4.22703 4.72703C2.96116 5.9929 2.25 7.70979 2.25 9.5C2.25 11.2902 2.96116 13.0071 4.22703 14.273C5.4929 15.5388 7.20979 16.25 9 16.25ZM7.94531 11.6094H8.57812V9.92188H7.94531C7.59463 9.92188 7.3125 9.63975 7.3125 9.28906C7.3125 8.93838 7.59463 8.65625 7.94531 8.65625H9.21094C9.56162 8.65625 9.84375 8.93838 9.84375 9.28906V11.6094H10.0547C10.4054 11.6094 10.6875 11.8915 10.6875 12.2422C10.6875 12.5929 10.4054 12.875 10.0547 12.875H7.94531C7.59463 12.875 7.3125 12.5929 7.3125 12.2422C7.3125 11.8915 7.59463 11.6094 7.94531 11.6094ZM9 6.125C9.22378 6.125 9.43839 6.2139 9.59662 6.37213C9.75486 6.53036 9.84375 6.74497 9.84375 6.96875C9.84375 7.19253 9.75486 7.40714 9.59662 7.56537C9.43839 7.72361 9.22378 7.8125 9 7.8125C8.77622 7.8125 8.56161 7.72361 8.40338 7.56537C8.24514 7.40714 8.15625 7.19253 8.15625 6.96875C8.15625 6.74497 8.24514 6.53036 8.40338 6.37213C8.56161 6.2139 8.77622 6.125 9 6.125Z" fill="#D1D5DB"/>
</g>
</svg>
