<svg xmlns="http://www.w3.org/2000/svg" width="18" height="18" viewBox="0 0 18 18" fill="none">
<path d="M3.35352 4.5H4.85352V5.25C4.85352 6.075 5.52852 6.75 6.35352 6.75H10.8535C11.6785 6.75 12.3535 6.075 12.3535 5.25V4.5H13.8535V8.25H15.3535V4.5C15.3535 3.675 14.6785 3 13.8535 3H10.7185C10.4035 2.13 9.57852 1.5 8.60352 1.5C7.62852 1.5 6.80352 2.13 6.48852 3H3.35352C2.52852 3 1.85352 3.675 1.85352 4.5V15C1.85352 15.825 2.52852 16.5 3.35352 16.5H7.85352V15H3.35352V4.5ZM8.60352 3C9.01602 3 9.35352 3.3375 9.35352 3.75C9.35352 4.1625 9.01602 4.5 8.60352 4.5C8.19102 4.5 7.85352 4.1625 7.85352 3.75C7.85352 3.3375 8.19102 3 8.60352 3Z" fill="#6C7284"/>
<path d="M15.916 9.9375C15.6085 9.63 15.0985 9.63 14.791 9.9375L11.236 13.5L9.54102 11.8125C9.23352 11.505 8.73102 11.505 8.41602 11.8125C8.10852 12.12 8.10852 12.63 8.41602 12.9375L10.7035 15.2175C10.996 15.51 11.4685 15.51 11.761 15.2175L15.9085 11.0625C16.2235 10.755 16.2235 10.245 15.916 9.9375Z" fill="#6C7284"/>
</svg>