<svg width="18" height="19" viewBox="0 0 18 19" fill="none" xmlns="http://www.w3.org/2000/svg">
<g id="Language">
<path id="&#60;i class=&#34;fa-solid fa-language&#34;&#62;&#60;/i&#62;" d="M0 6.05C0 5.05719 0.807187 4.25 1.8 4.25H7.2H8.55H9H16.2C17.1928 4.25 18 5.05719 18 6.05V13.25C18 14.2428 17.1928 15.05 16.2 15.05H9H8.55H7.2H1.8C0.807187 15.05 0 14.2428 0 13.25V6.05ZM9 6.05V13.25H16.2V6.05H9ZM5.01469 7.39719C4.92469 7.19469 4.72219 7.0625 4.5 7.0625C4.27781 7.0625 4.07531 7.19469 3.98531 7.39719L2.18531 11.4472C2.05875 11.7313 2.18812 12.0631 2.47219 12.1897C2.75625 12.3162 3.08812 12.1869 3.21469 11.9028L3.465 11.3375H5.535L5.78531 11.9028C5.91187 12.1869 6.24375 12.3134 6.52781 12.1897C6.81187 12.0659 6.93844 11.7313 6.81469 11.4472L5.01469 7.39719ZM4.5 9.00875L5.03437 10.2125H3.96562L4.5 9.00875ZM12.6 7.0625C12.9094 7.0625 13.1625 7.31563 13.1625 7.625V7.7375H14.4H14.85C15.1594 7.7375 15.4125 7.99063 15.4125 8.3C15.4125 8.60938 15.1594 8.8625 14.85 8.8625H14.7937L14.7488 8.98906C14.4984 9.67531 14.1187 10.2997 13.635 10.8284C13.6603 10.8453 13.6856 10.8594 13.7109 10.8734L14.2425 11.1912C14.5097 11.3516 14.5941 11.6975 14.4366 11.9619C14.2791 12.2263 13.9303 12.3134 13.6659 12.1559L13.1344 11.8381C13.0078 11.7622 12.8869 11.6834 12.7659 11.5991C12.4678 11.81 12.15 11.9928 11.8097 12.1447L11.7084 12.1897C11.4244 12.3162 11.0925 12.1869 10.9659 11.9028C10.8394 11.6188 10.9688 11.2869 11.2528 11.1603L11.3541 11.1153C11.5341 11.0338 11.7084 10.9437 11.8744 10.8397L11.5312 10.4966C11.3119 10.2772 11.3119 9.92 11.5312 9.70062C11.7506 9.48125 12.1078 9.48125 12.3272 9.70062L12.7378 10.1112L12.7519 10.1253C13.1006 9.75688 13.3847 9.32938 13.59 8.85969H12.6H10.575C10.2656 8.85969 10.0125 8.60656 10.0125 8.29719C10.0125 7.98781 10.2656 7.73469 10.575 7.73469H12.0375V7.62219C12.0375 7.31281 12.2906 7.05969 12.6 7.05969V7.0625Z" fill="#A6AAB3"/>
</g>
</svg>
