<svg xmlns="http://www.w3.org/2000/svg" width="19" height="18" viewBox="0 0 19 18" fill="none">
<path d="M7.625 15.75C7.625 16.1625 7.9625 16.5 8.375 16.5H11.375C11.7875 16.5 12.125 16.1625 12.125 15.75V15H7.625V15.75ZM9.875 1.5C6.98 1.5 4.625 3.855 4.625 6.75C4.625 8.535 5.5175 10.1025 6.875 11.055V12.75C6.875 13.1625 7.2125 13.5 7.625 13.5H12.125C12.5375 13.5 12.875 13.1625 12.875 12.75V11.055C14.2325 10.1025 15.125 8.535 15.125 6.75C15.125 3.855 12.77 1.5 9.875 1.5ZM12.0125 9.825L11.375 10.275V12H8.375V10.275L7.7375 9.825C6.725 9.12 6.125 7.9725 6.125 6.75C6.125 4.68 7.805 3 9.875 3C11.945 3 13.625 4.68 13.625 6.75C13.625 7.9725 13.025 9.12 12.0125 9.825Z" fill="#6C7284"/>
</svg>