<svg width="18" height="19" viewBox="0 0 18 19" fill="none" xmlns="http://www.w3.org/2000/svg">
<g id="List check">
<path id="&#60;i class=&#34;fa-solid fa-list-check&#34;&#62;&#60;/i&#62;" d="M6.22427 3.60292C6.48528 3.83757 6.50637 4.23567 6.27172 4.49668L4.37347 6.60585C4.25747 6.73504 4.09401 6.8115 3.92 6.81413C3.74599 6.81677 3.5799 6.75086 3.45598 6.62958L2.39876 5.575C2.15357 5.32717 2.15357 4.92643 2.39876 4.6786C2.64395 4.43077 3.04733 4.43077 3.29252 4.6786L3.87518 5.26126L5.32787 3.64774C5.56251 3.38673 5.96062 3.36564 6.22163 3.60029L6.22427 3.60292ZM6.22427 7.82126C6.48528 8.05591 6.50637 8.45401 6.27172 8.71502L4.37347 10.8242C4.25747 10.9534 4.09401 11.0298 3.92 11.0325C3.74599 11.0351 3.5799 10.9692 3.45598 10.8479L2.39876 9.79333C2.15093 9.54551 2.15093 9.14476 2.39876 8.89957C2.64659 8.65438 3.04733 8.65175 3.29252 8.89957L3.87518 9.48223L5.32787 7.86872C5.56251 7.60771 5.96062 7.58662 6.22163 7.82126H6.22427ZM8.11988 5.1268C8.11988 4.66014 8.4969 4.28313 8.96355 4.28313H14.8692C15.3359 4.28313 15.7129 4.66014 15.7129 5.1268C15.7129 5.59345 15.3359 5.97047 14.8692 5.97047H8.96355C8.4969 5.97047 8.11988 5.59345 8.11988 5.1268ZM8.11988 9.34514C8.11988 8.87848 8.4969 8.50147 8.96355 8.50147H14.8692C15.3359 8.50147 15.7129 8.87848 15.7129 9.34514C15.7129 9.81179 15.3359 10.1888 14.8692 10.1888H8.96355C8.4969 10.1888 8.11988 9.81179 8.11988 9.34514ZM6.43255 13.5635C6.43255 13.0968 6.80956 12.7198 7.27621 12.7198H14.8692C15.3359 12.7198 15.7129 13.0968 15.7129 13.5635C15.7129 14.0301 15.3359 14.4071 14.8692 14.4071H7.27621C6.80956 14.4071 6.43255 14.0301 6.43255 13.5635ZM3.47971 12.298C3.81534 12.298 4.13723 12.4313 4.37455 12.6686C4.61188 12.906 4.74521 13.2278 4.74521 13.5635C4.74521 13.8991 4.61188 14.221 4.37455 14.4583C4.13723 14.6956 3.81534 14.829 3.47971 14.829C3.14408 14.829 2.82219 14.6956 2.58487 14.4583C2.34754 14.221 2.21421 13.8991 2.21421 13.5635C2.21421 13.2278 2.34754 12.906 2.58487 12.6686C2.82219 12.4313 3.14408 12.298 3.47971 12.298Z" fill="#D1D5DB"/>
</g>
</svg>
