<svg width="20" height="20" viewBox="0 0 20 20" fill="none" xmlns="http://www.w3.org/2000/svg">
<path d="M9.42191 17.1974C5.16514 11.0263 4.375 10.393 4.375 8.125C4.375 5.01839 6.89339 2.5 10 2.5C13.1066 2.5 15.625 5.01839 15.625 8.125C15.625 10.393 14.8349 11.0263 10.5781 17.1974C10.2987 17.6009 9.70123 17.6009 9.42191 17.1974ZM10 10.4687C11.2944 10.4687 12.3437 9.41942 12.3437 8.125C12.3437 6.83057 11.2944 5.78125 10 5.78125C8.70558 5.78125 7.65625 6.83057 7.65625 8.125C7.65625 9.41942 8.70558 10.4687 10 10.4687Z" fill="#EE0088"/>
</svg>
