<svg width="35" height="35" viewBox="0 0 35 35" fill="none" xmlns="http://www.w3.org/2000/svg">
<g id="New Project">
<g id="Group">
<g id="Group_2">
<path id="Vector" opacity="0.3" d="M10.9375 15.3125V25.1562H24.0625V15.3125L17.5 10.3906L10.9375 15.3125ZM17.5 23.5156C16.8984 23.5156 16.4062 23.0234 16.4062 22.4219H18.5938C18.5938 23.0234 18.1016 23.5156 17.5 23.5156ZM18.3203 14.4922V14.7656C19.8953 15.1375 20.7812 16.5375 20.7812 18.2219V20.7812H21.875V21.875H13.125V20.7812H14.2188V18.2219C14.2188 16.5375 15.1156 15.1375 16.6797 14.7656V14.4922C16.6797 14.0438 17.0516 13.6719 17.5 13.6719C17.9484 13.6719 18.3203 14.0438 18.3203 14.4922Z" fill="#B6005B"/>
<path id="Vector_2" d="M17.5 7.65625L8.75 14.2188V27.3438H26.25V14.2188L17.5 7.65625ZM24.0625 25.1562H10.9375V15.3125L17.5 10.3906L24.0625 15.3125V25.1562Z" fill="#B6005B"/>
<path id="Vector_3" d="M16.6797 14.4922V14.7656C15.1156 15.1375 14.2188 16.5375 14.2188 18.2219V20.7812H13.125V21.875H21.875V20.7812H20.7812V18.2219C20.7812 16.5375 19.8953 15.1375 18.3203 14.7656V14.4922C18.3203 14.0438 17.9484 13.6719 17.5 13.6719C17.0516 13.6719 16.6797 14.0438 16.6797 14.4922Z" fill="#B6005B"/>
<path id="Vector_4" d="M17.5 23.5156C18.1016 23.5156 18.5938 23.0234 18.5938 22.4219H16.4062C16.4062 23.0234 16.8984 23.5156 17.5 23.5156Z" fill="#B6005B"/>
</g>
</g>
</g>
</svg>
