<svg width="35" height="36" viewBox="0 0 35 36" fill="none" xmlns="http://www.w3.org/2000/svg">
<g id="Number Plate">
<g id="Group">
<g id="Group_2">
<path id="Vector" opacity="0.3" d="M8.16638 25.5834H26.833V11.5834H8.16638V25.5834ZM23.1464 19.0267H22.563V17.86H23.0997C23.4847 17.86 24.1264 17.6967 24.1264 17.02C24.1264 16.565 23.7647 16.2617 23.2514 16.2617C22.668 16.2617 22.388 16.635 22.2597 17.0084L21.1047 16.53C21.233 16.1334 21.793 15.0834 23.263 15.0834C24.5347 15.0834 25.0597 15.83 25.153 15.9584C25.538 16.5417 25.4797 17.3117 25.1764 17.79C25.0014 18.0467 24.803 18.2334 24.5697 18.35V18.4317C24.8964 18.56 25.1647 18.7584 25.363 19.0384C25.7947 19.645 25.748 20.52 25.3747 21.0917C25.2814 21.2434 24.7214 22.0834 23.3214 22.0834C23.2747 22.0834 21.4547 22.1767 20.9297 20.3217L22.1314 19.8434C22.1547 19.96 22.353 20.8467 23.3214 20.8467C23.7997 20.8467 24.3597 20.52 24.3597 19.9484C24.3597 19.3067 23.7997 19.0267 23.1464 19.0267ZM15.8197 15.3167C16.6247 14.9317 17.5464 15.0834 18.0947 15.3517C19.098 15.865 19.1564 16.7984 19.1564 17.0784C19.1564 17.825 18.7947 18.5484 18.083 19.2484C17.7914 19.54 17.243 20.0767 16.4497 20.87L16.4847 20.9284H19.2497V22.0834H14.7114V20.8934C15.9597 19.645 16.7764 18.8284 17.1964 18.385C17.663 17.895 17.8264 17.58 17.8264 17.1484C17.8264 16.6817 17.4647 16.3084 16.8814 16.3084C16.2747 16.3084 15.948 16.7634 15.8314 17.1484L14.653 16.6584C14.6647 16.635 14.863 15.7717 15.8197 15.3167ZM11.398 15.0834H12.413V22.0834H11.0714V16.8334L10.0214 17.6034L9.34472 16.565L11.398 15.0834Z" fill="#EE0088"/>
<path id="Vector_2" d="M26.8333 9.25H8.16665C6.88331 9.25 5.83331 10.3 5.83331 11.5833V25.5833C5.83331 26.8667 6.88331 27.9167 8.16665 27.9167H26.8333C28.1166 27.9167 29.1666 26.8667 29.1666 25.5833V11.5833C29.1666 10.3 28.1166 9.25 26.8333 9.25ZM26.8333 25.5833H8.16665V11.5833H26.8333V25.5833Z" fill="#B6005B"/>
<path id="Vector_3" d="M11.0716 16.8334V22.0834H12.4133V15.0834H11.3983L9.34497 16.565L10.0216 17.6034L11.0716 16.8334Z" fill="#B6005B"/>
<path id="Vector_4" d="M16.8819 16.3083C17.4652 16.3083 17.8269 16.6816 17.8269 17.1483C17.8269 17.5799 17.6636 17.8949 17.1969 18.3849C16.7769 18.8283 15.9602 19.6449 14.7119 20.8933V22.0833H19.2502V20.9283H16.4852L16.4502 20.8699C17.2436 20.0766 17.7919 19.5399 18.0836 19.2483C18.7952 18.5483 19.1569 17.8249 19.1569 17.0783C19.1569 16.7983 19.0986 15.8649 18.0952 15.3516C17.5469 15.0833 16.6252 14.9316 15.8202 15.3166C14.8636 15.7716 14.6652 16.6349 14.6536 16.6583L15.8319 17.1483C15.9486 16.7633 16.2752 16.3083 16.8819 16.3083Z" fill="#B6005B"/>
<path id="Vector_5" d="M23.3217 20.8467C22.3533 20.8467 22.1667 19.96 22.1317 19.8434L20.93 20.3217C21.455 22.1767 23.275 22.0834 23.3217 22.0834C24.7217 22.0834 25.2817 21.2434 25.375 21.0917C25.7483 20.52 25.795 19.645 25.3633 19.0384C25.165 18.7584 24.8967 18.56 24.57 18.4317V18.35C24.8033 18.2334 25.0017 18.0467 25.1767 17.79C25.48 17.3117 25.5383 16.5417 25.1533 15.9584C25.06 15.83 24.535 15.0834 23.2633 15.0834C21.7933 15.0834 21.2333 16.1334 21.105 16.53L22.26 17.0084C22.3883 16.635 22.6683 16.2617 23.2517 16.2617C23.765 16.2617 24.1267 16.565 24.1267 17.02C24.1267 17.6967 23.485 17.86 23.1 17.86H22.5633V19.0267H23.1467C23.8 19.0267 24.36 19.3067 24.36 19.9484C24.36 20.52 23.8 20.8467 23.3217 20.8467Z" fill="#B6005B"/>
</g>
</g>
</g>
</svg>
