<svg width="20" height="20" viewBox="0 0 20 20" fill="none" xmlns="http://www.w3.org/2000/svg">
<path d="M7.33084 3.22133C7.10527 2.67643 6.51057 2.38641 5.94223 2.54167L3.36422 3.24477C2.85448 3.38539 2.5 3.84826 2.5 4.37558C2.5 11.6233 8.3767 17.5 15.6244 17.5C16.1517 17.5 16.6146 17.1455 16.7552 16.6358L17.4583 14.0578C17.6136 13.4894 17.3236 12.8947 16.7787 12.6692L13.9663 11.4973C13.4888 11.2981 12.9351 11.4358 12.6099 11.8372L11.4264 13.2814C9.36396 12.3059 7.69411 10.636 6.71856 8.57364L8.16284 7.39302C8.56419 7.06491 8.70188 6.51416 8.50267 6.03664L7.33084 3.22426V3.22133Z" fill="#EE0088"/>
</svg>
