<svg width="35" height="35" viewBox="0 0 35 35" fill="none" xmlns="http://www.w3.org/2000/svg">
<g id="Rent Commercial">
<g id="Group">
<path id="Vector" opacity="0.3" d="M17.5 16.4062H19.6875V18.5938H17.5V20.7812H19.6875V22.9688H17.5V25.1562H26.25V14.2188H17.5V16.4062ZM21.875 16.4062H24.0625V18.5938H21.875V16.4062ZM21.875 20.7812H24.0625V22.9688H21.875V20.7812Z" fill="#B6005B"/>
<path id="Vector_2" d="M21.875 20.7812H24.0625V22.9688H21.875V20.7812ZM21.875 16.4062H24.0625V18.5938H21.875V16.4062ZM28.4375 12.0312H17.5V7.65625H6.5625V27.3438H28.4375V12.0312ZM10.9375 25.1562H8.75V22.9688H10.9375V25.1562ZM10.9375 20.7812H8.75V18.5938H10.9375V20.7812ZM10.9375 16.4062H8.75V14.2188H10.9375V16.4062ZM10.9375 12.0312H8.75V9.84375H10.9375V12.0312ZM15.3125 25.1562H13.125V22.9688H15.3125V25.1562ZM15.3125 20.7812H13.125V18.5938H15.3125V20.7812ZM15.3125 16.4062H13.125V14.2188H15.3125V16.4062ZM15.3125 12.0312H13.125V9.84375H15.3125V12.0312ZM26.25 25.1562H17.5V22.9688H19.6875V20.7812H17.5V18.5938H19.6875V16.4062H17.5V14.2188H26.25V25.1562Z" fill="#B6005B"/>
</g>
</g>
</svg>
