<svg width="35" height="35" viewBox="0 0 35 35" fill="none" xmlns="http://www.w3.org/2000/svg">
<g id="Rent Residential">
<g id="Group">
<g id="Group_2">
<path id="Vector" opacity="0.3" d="M22.9688 16.4062H25.1562V18.5938H22.9688V20.7812H25.1562V22.9688H22.9688V25.1562H27.3438V9.84375H17.5V11.375L22.9688 15.2797V16.4062ZM22.9688 12.0312H25.1562V14.2188H22.9688V12.0312Z" fill="#B6005B"/>
<path id="Vector_2" d="M15.3125 7.65625V9.81094L16.3625 10.5656L17.5 11.375V9.84375H27.3438V25.1562H22.9688V27.3438H29.5312V7.65625H15.3125Z" fill="#B6005B"/>
<path id="Vector_3" opacity="0.3" d="M7.65625 17.5V25.1562H9.84375V19.6875H16.4062V25.1562H18.5938V17.5L13.125 13.6719L7.65625 17.5Z" fill="#B6005B"/>
<path id="Vector_4" d="M25.1562 12.0312H22.9688V14.2188H25.1562V12.0312Z" fill="#B6005B"/>
<path id="Vector_5" d="M25.1562 16.4062H22.9688V18.5938H25.1562V16.4062Z" fill="#B6005B"/>
<path id="Vector_6" d="M25.1562 20.7812H22.9688V22.9688H25.1562V20.7812Z" fill="#B6005B"/>
<path id="Vector_7" d="M5.46875 16.4062V27.3438H12.0312V21.875H14.2188V27.3438H20.7812V16.4062L13.125 10.9375L5.46875 16.4062ZM18.5938 25.1562H16.4062V19.6875H9.84375V25.1562H7.65625V17.5L13.125 13.6719L18.5938 17.5V25.1562Z" fill="#B6005B"/>
</g>
</g>
</g>
</svg>
