<svg width="21" height="20" viewBox="0 0 21 20" fill="none" xmlns="http://www.w3.org/2000/svg">
<path d="M15.1857 8.59286C15.1857 9.93739 14.7493 11.1794 14.014 12.1871L17.7225 15.8984C18.0886 16.2646 18.0886 16.8592 17.7225 17.2254C17.3563 17.5915 16.7617 17.5915 16.3955 17.2254L12.6871 13.514C11.6794 14.2522 10.4374 14.6857 9.09286 14.6857C5.72714 14.6857 3 11.9586 3 8.59286C3 5.22714 5.72714 2.5 9.09286 2.5C12.4586 2.5 15.1857 5.22714 15.1857 8.59286ZM9.09286 12.811C11.4216 12.811 13.311 10.9216 13.311 8.59286C13.311 6.2641 11.4216 4.37473 9.09286 4.37473C6.7641 4.37473 4.87473 6.2641 4.87473 8.59286C4.87473 10.9216 6.7641 12.811 9.09286 12.811Z" fill="#0D6EFD"/>
</svg>
