<svg width="18" height="18" viewBox="0 0 18 18" fill="none" xmlns="http://www.w3.org/2000/svg">
<path d="M13.5 12.0898C12.93 12.0898 12.42 12.3148 12.03 12.6673L6.6825 9.55478C6.72 9.38229 6.75 9.20978 6.75 9.02979C6.75 8.84979 6.72 8.67729 6.6825 8.50479L11.97 5.42229C12.375 5.79729 12.9075 6.02979 13.5 6.02979C14.745 6.02979 15.75 5.02479 15.75 3.77979C15.75 2.53479 14.745 1.52979 13.5 1.52979C12.255 1.52979 11.25 2.53479 11.25 3.77979C11.25 3.95979 11.28 4.13229 11.3175 4.30479L6.03 7.38729C5.625 7.01229 5.0925 6.77979 4.5 6.77979C3.255 6.77979 2.25 7.78479 2.25 9.02979C2.25 10.2748 3.255 11.2798 4.5 11.2798C5.0925 11.2798 5.625 11.0473 6.03 10.6723L11.37 13.7923C11.3325 13.9498 11.31 14.1148 11.31 14.2798C11.31 15.4873 12.2925 16.4698 13.5 16.4698C14.7075 16.4698 15.69 15.4873 15.69 14.2798C15.69 13.0723 14.7075 12.0898 13.5 12.0898Z" fill="#6C7284"/>
</svg>
