<svg width="18" height="19" viewBox="0 0 18 19" fill="none" xmlns="http://www.w3.org/2000/svg">
<g id="Shield">
<path id="&#60;i class=&#34;fa-solid fa-shield-halved&#34;&#62;&#60;/i&#62;" d="M9.36293 2.75C9.48489 2.75 9.60685 2.77651 9.7182 2.82689L14.7104 4.94521C15.2937 5.19177 15.7285 5.76709 15.7259 6.4617C15.7126 9.09171 14.6309 13.9037 10.0602 16.0909C9.61745 16.303 9.10312 16.303 8.66036 16.0909C4.09497 13.9037 3.01327 9.09171 3.00001 6.4617C2.99736 5.76709 3.43216 5.19177 4.01543 4.94521L9.01032 2.82689C9.11902 2.77651 9.24098 2.75 9.36293 2.75ZM9.36293 4.52101V14.5426C13.0216 12.7716 14.0052 8.85045 14.0291 6.49882L9.36293 4.52101Z" fill="#D1D5DB"/>
</g>
</svg>
