<svg width="21" height="20" viewBox="0 0 21 20" fill="none" xmlns="http://www.w3.org/2000/svg">
<g id="Snapchat">
<path id="&#60;i class=&#34;fa-brands fa-snapchat&#34;&#62;&#60;/i&#62;" d="M17.5922 13.4707C17.488 13.1828 17.2894 13.0287 17.0634 12.9011C17.0208 12.8758 16.9817 12.8555 16.9484 12.84C16.8809 12.8046 16.812 12.7703 16.7433 12.7341C16.0387 12.3547 15.4882 11.8761 15.1065 11.3088C14.9981 11.1491 14.9041 10.9798 14.8256 10.8029C14.793 10.7084 14.7947 10.6547 14.8179 10.6056C14.8411 10.5679 14.8718 10.5354 14.908 10.5103C15.0291 10.429 15.154 10.3465 15.2387 10.2909C15.3897 10.1916 15.5093 10.113 15.5863 10.0574C15.8757 9.85195 16.078 9.63376 16.2044 9.38968C16.2927 9.22112 16.3442 9.03525 16.3554 8.8447C16.3666 8.65414 16.3372 8.46337 16.2694 8.28536C16.0777 7.77328 15.6014 7.45537 15.0242 7.45537C14.9024 7.45526 14.781 7.46831 14.662 7.49428C14.6302 7.50131 14.5984 7.50868 14.5673 7.51687C14.5727 7.16666 14.5651 6.797 14.5344 6.43317C14.4255 5.15415 13.9844 4.4837 13.5245 3.94907C13.2301 3.61403 12.8832 3.33059 12.4979 3.11014C11.7999 2.70545 11.0085 2.5 10.1459 2.5C9.28325 2.5 8.49542 2.70545 7.79691 3.11014C7.41065 3.33066 7.06307 3.61466 6.76829 3.95061C6.30839 4.48527 5.86728 5.15688 5.75845 6.43474C5.72779 6.79857 5.72013 7.17015 5.7251 7.51841C5.6942 7.51025 5.66264 7.50272 5.63081 7.49585C5.51179 7.46986 5.3904 7.45681 5.26866 7.45694C4.6911 7.45694 4.21395 7.77485 4.0231 8.28692C3.95489 8.465 3.92523 8.65591 3.93614 8.84666C3.94705 9.03741 3.99828 9.22354 4.08634 9.39241C4.21321 9.63636 4.41556 9.85468 4.70491 10.0601C4.78156 10.1146 4.90152 10.1932 5.0525 10.2936C5.13412 10.3473 5.2534 10.4259 5.37023 10.5045C5.41113 10.5313 5.44591 10.5668 5.47222 10.6084C5.49676 10.6593 5.4975 10.7142 5.46109 10.8155C5.38366 10.9886 5.29119 11.1544 5.18478 11.3108C4.81151 11.8653 4.27725 12.3354 3.59509 12.7116C3.2336 12.9061 2.85792 13.0361 2.69934 13.4739C2.57979 13.8042 2.65795 14.1801 2.96187 14.4969C3.0734 14.6151 3.20277 14.7145 3.34512 14.7914C3.64128 14.9567 3.95621 15.0846 4.28291 15.1724C4.35034 15.19 4.41435 15.2191 4.47224 15.2584C4.58299 15.3568 4.56728 15.5051 4.71484 15.7222C4.78889 15.8344 4.883 15.9316 4.99229 16.0086C5.30195 16.2257 5.64994 16.2393 6.01863 16.2537C6.35169 16.2666 6.72916 16.2814 7.16032 16.4257C7.3389 16.4856 7.5244 16.6016 7.7394 16.737C8.25564 17.0591 8.96234 17.5 10.145 17.5C11.3277 17.5 12.0394 17.0568 12.5595 16.7334C12.7729 16.6004 12.9573 16.4855 13.1309 16.4272C13.562 16.2825 13.9395 16.2681 14.2726 16.2552C14.6412 16.2408 14.9892 16.2272 15.2989 16.0101C15.4283 15.9184 15.5362 15.7988 15.6147 15.6599C15.7208 15.4766 15.7182 15.3486 15.8178 15.2591C15.8721 15.2217 15.9322 15.1938 15.9956 15.1766C16.3268 15.0886 16.646 14.9594 16.9461 14.7922C17.0973 14.7098 17.2334 14.6016 17.3485 14.4723L17.3523 14.4676C17.6375 14.158 17.7091 13.7929 17.5922 13.4707ZM16.541 14.0443C15.8998 14.4038 15.4737 14.3653 15.1422 14.582C14.8605 14.7661 15.0272 15.163 14.8225 15.3062C14.5711 15.4824 13.828 15.2936 12.868 15.6155C12.0762 15.8813 11.5711 16.6455 10.147 16.6455C8.72284 16.6455 8.22959 15.8829 7.42476 15.6136C6.46663 15.2918 5.72201 15.4805 5.47021 15.3042C5.26594 15.161 5.43189 14.7641 5.1506 14.5801C4.81868 14.3633 4.39253 14.4019 3.75173 14.0443C3.34357 13.8155 3.57507 13.674 3.71112 13.6069C6.03359 12.4652 6.40417 10.7026 6.42064 10.5718C6.44058 10.4134 6.4628 10.2889 6.29111 10.1278C6.12517 9.97217 5.38896 9.50961 5.18463 9.36476C4.84659 9.12507 4.6979 8.88576 4.80756 8.5916C4.88421 8.3881 5.07123 8.31143 5.26743 8.31143C5.32945 8.31163 5.39127 8.31868 5.45179 8.33246C5.82268 8.41405 6.18303 8.60287 6.39113 8.65386C6.41619 8.66038 6.44191 8.66391 6.46778 8.66437C6.57904 8.66437 6.61799 8.60754 6.61032 8.47838C6.58658 8.06629 6.5291 7.26316 6.59307 6.51256C6.68085 5.47985 7.00853 4.96816 7.3979 4.51562C7.58492 4.29809 8.46371 3.35528 10.1442 3.35528C11.8248 3.35528 12.7058 4.29419 12.8929 4.51094C13.2826 4.96348 13.6107 5.47518 13.6977 6.50789C13.7617 7.25848 13.7065 8.06202 13.6804 8.4737C13.6716 8.60949 13.7119 8.6597 13.823 8.6597C13.8489 8.65926 13.8746 8.65574 13.8997 8.64918C14.1081 8.59822 14.4684 8.4095 14.8392 8.32778C14.8998 8.314 14.9616 8.30695 15.0236 8.30676C15.2209 8.30676 15.4068 8.38458 15.4835 8.58693C15.5931 8.88109 15.4451 9.1204 15.1067 9.36012C14.9025 9.50484 14.1663 9.96711 14.0003 10.1231C13.8282 10.2842 13.8508 10.4087 13.8707 10.5671C13.8872 10.6998 14.2574 12.4625 16.5803 13.6022C16.7177 13.6719 16.9492 13.8135 16.541 14.0443Z" fill="#A6AAB3"/>
</g>
</svg>
