<svg width="20" height="20" viewBox="0 0 20 20" fill="none" xmlns="http://www.w3.org/2000/svg">
<path d="M9.2937 2.81386C9.68416 2.39538 10.3183 2.39538 10.7087 2.81386L14.7071 7.0991C14.9944 7.4071 15.0788 7.86575 14.9226 8.26749C14.7664 8.66923 14.4041 8.93037 13.998 8.93037H6.00132C5.59837 8.93037 5.23289 8.66923 5.07671 8.26749C4.92052 7.86575 5.00799 7.4071 5.29224 7.0991L9.29058 2.81386H9.2937ZM9.2937 17.1861L5.29537 12.9009C5.00799 12.5929 4.92365 12.1342 5.07983 11.7325C5.23602 11.3308 5.59837 11.0696 6.00445 11.0696H13.998C14.4009 11.0696 14.7664 11.3308 14.9226 11.7325C15.0788 12.1342 14.9913 12.5929 14.7071 12.9009L10.7087 17.1861C10.3183 17.6046 9.68416 17.6046 9.2937 17.1861Z" fill="#EE0088"/>
</svg>
