<svg width="34" height="34" viewBox="0 0 34 34" fill="none" xmlns="http://www.w3.org/2000/svg">
<circle cx="16.7605" cy="17.1704" r="16.2605" fill="#EE0088"/>
<path d="M13.9165 14.4847C13.9725 13.6167 14.3038 12.94 14.9105 12.4547C15.5265 11.9693 16.3105 11.7267 17.2625 11.7267C17.9158 11.7267 18.4805 11.8433 18.9565 12.0767C19.4325 12.31 19.7918 12.6273 20.0345 13.0287C20.2772 13.43 20.3985 13.8827 20.3985 14.3867C20.3985 14.9653 20.2445 15.46 19.9365 15.8707C19.6285 16.2813 19.2598 16.5567 18.8305 16.6967V16.7527C19.3812 16.9207 19.8105 17.2287 20.1185 17.6767C20.4265 18.1153 20.5805 18.68 20.5805 19.3707C20.5805 19.9213 20.4545 20.4113 20.2025 20.8407C19.9505 21.27 19.5772 21.6107 19.0825 21.8627C18.5878 22.1053 17.9952 22.2267 17.3045 22.2267C16.2965 22.2267 15.4658 21.97 14.8125 21.4567C14.1685 20.934 13.8232 20.1873 13.7765 19.2167H15.3165C15.3538 19.7113 15.5452 20.1173 15.8905 20.4347C16.2358 20.7427 16.7025 20.8967 17.2905 20.8967C17.8598 20.8967 18.2985 20.7427 18.6065 20.4347C18.9145 20.1173 19.0685 19.7113 19.0685 19.2167C19.0685 18.5633 18.8585 18.1013 18.4385 17.8307C18.0278 17.5507 17.3932 17.4107 16.5345 17.4107H16.1705V16.0947H16.5485C17.3045 16.0853 17.8785 15.9593 18.2705 15.7167C18.6718 15.474 18.8725 15.0913 18.8725 14.5687C18.8725 14.1207 18.7278 13.766 18.4385 13.5047C18.1492 13.234 17.7385 13.0987 17.2065 13.0987C16.6838 13.0987 16.2778 13.234 15.9885 13.5047C15.6992 13.766 15.5265 14.0927 15.4705 14.4847H13.9165Z" fill="white"/>
</svg>
