<svg width="34" height="34" viewBox="0 0 34 34" fill="none" xmlns="http://www.w3.org/2000/svg">
<circle cx="16.7605" cy="17.1704" r="16.2605" fill="#EE0088"/>
<path d="M14.9427 20.0007C15.8387 19.226 16.5434 18.5913 17.0567 18.0967C17.5794 17.5927 18.0134 17.07 18.3587 16.5287C18.704 15.9873 18.8767 15.446 18.8767 14.9047C18.8767 14.3447 18.7414 13.906 18.4707 13.5887C18.2094 13.2713 17.794 13.1127 17.2247 13.1127C16.674 13.1127 16.2447 13.29 15.9367 13.6447C15.638 13.99 15.4794 14.4567 15.4607 15.0447H13.9207C13.9487 13.9807 14.266 13.1687 14.8727 12.6087C15.4887 12.0393 16.268 11.7547 17.2107 11.7547C18.228 11.7547 19.0214 12.0347 19.5907 12.5947C20.1694 13.1547 20.4587 13.9013 20.4587 14.8347C20.4587 15.5067 20.286 16.1553 19.9407 16.7807C19.6047 17.3967 19.1987 17.952 18.7227 18.4467C18.256 18.932 17.6587 19.4967 16.9307 20.1407L16.3007 20.7007H20.7387V22.0307H13.9347V20.8687L14.9427 20.0007Z" fill="white"/>
</svg>
