<svg width="21" height="20" viewBox="0 0 21 20" fill="none" xmlns="http://www.w3.org/2000/svg">
<g id="Telegram">
<path id="&#60;i class=&#34;fa-brands fa-telegram&#34;&#62;&#60;/i&#62;" d="M10.1459 2.5C6.00373 2.5 2.64587 5.85785 2.64587 10C2.64587 14.1421 6.00373 17.5 10.1459 17.5C14.288 17.5 17.6459 14.1421 17.6459 10C17.6459 5.85785 14.288 2.5 10.1459 2.5ZM13.6222 7.60061C13.5094 8.78654 13.021 11.6645 12.7724 12.9927C12.6673 13.5548 12.4603 13.7432 12.2599 13.7616C11.8244 13.8017 11.4936 13.4738 11.0718 13.1973C10.4117 12.7646 10.0388 12.4952 9.39802 12.073C8.65755 11.585 9.13758 11.3169 9.55957 10.8784C9.67002 10.7637 11.589 9.01826 11.6262 8.85991C11.6308 8.8401 11.6352 8.76616 11.5913 8.72733C11.5473 8.6885 11.4827 8.70165 11.436 8.71221C11.3698 8.72725 10.3153 9.42424 8.27242 10.8032C7.97312 11.0087 7.70201 11.1089 7.45909 11.1036C7.1913 11.0978 6.67619 10.9522 6.29323 10.8277C5.82355 10.6751 5.45024 10.5943 5.48275 10.3351C5.49968 10.2 5.68567 10.0619 6.04071 9.92074C8.22712 8.96815 9.68507 8.34013 10.4145 8.03666C12.4974 7.17032 12.9302 7.01984 13.2123 7.01482C13.2743 7.01379 13.413 7.02915 13.5029 7.10207C13.5626 7.15401 13.6007 7.22649 13.6096 7.30517C13.6249 7.40287 13.6291 7.50197 13.6222 7.60061Z" fill="#A6AAB3"/>
</g>
</svg>
