<svg width="21" height="20" viewBox="0 0 21 20" fill="none" xmlns="http://www.w3.org/2000/svg">
<g id="Tiktok">
<path id="&#60;i class=&#34;fa-brands fa-tiktok&#34;&#62;&#60;/i&#62;" d="M16.6038 8.65127C15.3136 8.65435 14.0551 8.25201 13.0061 7.50107V12.7383C13.0057 13.7083 12.7092 14.6551 12.1563 15.4521C11.6033 16.249 10.8202 16.8581 9.91172 17.198C9.00321 17.5379 8.0126 17.5923 7.07233 17.354C6.13207 17.1157 5.28697 16.596 4.65004 15.8644C4.01311 15.1328 3.61471 14.2242 3.5081 13.2601C3.4015 12.296 3.59179 11.3223 4.0535 10.4692C4.51522 9.61614 5.22637 8.92437 6.09186 8.48639C6.95735 8.04841 7.93593 7.8851 8.89674 8.01829V10.6525C8.45707 10.5142 7.98494 10.5183 7.54778 10.6644C7.11062 10.8104 6.73079 11.0908 6.46251 11.4656C6.19424 11.8404 6.05125 12.2904 6.05397 12.7513C6.05668 13.2122 6.20496 13.6604 6.47763 14.032C6.7503 14.4036 7.13341 14.6796 7.57226 14.8204C8.01111 14.9613 8.48325 14.9599 8.92126 14.8164C9.35927 14.673 9.74075 14.3948 10.0112 14.0216C10.2817 13.6484 10.4273 13.1992 10.4273 12.7383V2.5H13.0061C13.0043 2.71777 13.0225 2.93525 13.0606 3.14968C13.1502 3.62836 13.3365 4.08372 13.6082 4.48793C13.8798 4.89213 14.231 5.23667 14.6404 5.50047C15.2228 5.88555 15.9056 6.0908 16.6038 6.09066V8.65127Z" fill="#A6AAB3"/>
</g>
</svg>
