<svg xmlns="http://www.w3.org/2000/svg" width="15" height="15" viewBox="0 0 15 15" fill="none">
<path d="M9.375 0.9375H5.625V2.1875H9.375V0.9375ZM6.875 9.0625H8.125V5.3125H6.875V9.0625ZM11.8938 4.93125L12.7812 4.04375C12.5125 3.725 12.2188 3.425 11.9 3.1625L11.0125 4.05C10.0438 3.275 8.825 2.8125 7.5 2.8125C4.39375 2.8125 1.875 5.33125 1.875 8.4375C1.875 11.5437 4.3875 14.0625 7.5 14.0625C10.6125 14.0625 13.125 11.5437 13.125 8.4375C13.125 7.1125 12.6625 5.89375 11.8938 4.93125ZM7.5 12.8125C5.08125 12.8125 3.125 10.8562 3.125 8.4375C3.125 6.01875 5.08125 4.0625 7.5 4.0625C9.91875 4.0625 11.875 6.01875 11.875 8.4375C11.875 10.8562 9.91875 12.8125 7.5 12.8125Z" fill="#EE0088"/>
</svg>