<svg xmlns="http://www.w3.org/2000/svg" width="20" height="20" viewBox="0 0 20 20" fill="none">
<path d="M3.72445 17.0865H16.2745C17.5578 17.0865 18.3578 15.6948 17.7161 14.5865L11.4411 3.74482C10.7994 2.63649 9.19945 2.63649 8.55778 3.74482L2.28278 14.5865C1.64112 15.6948 2.44112 17.0865 3.72445 17.0865ZM9.99945 11.2532C9.54112 11.2532 9.16612 10.8782 9.16612 10.4198V8.75316C9.16612 8.29482 9.54112 7.91982 9.99945 7.91982C10.4578 7.91982 10.8328 8.29482 10.8328 8.75316V10.4198C10.8328 10.8782 10.4578 11.2532 9.99945 11.2532ZM10.8328 14.5865H9.16612V12.9198H10.8328V14.5865Z" fill="#ED4258"/>
</svg>