<svg xmlns="http://www.w3.org/2000/svg" width="21" height="20" viewBox="0 0 21 20" fill="none">
<path d="M10.4994 4.57767L16.7745 15.4193H4.22445L10.4994 4.57767ZM2.78278 14.586C2.14112 15.6943 2.94112 17.086 4.22445 17.086H16.7745C18.0578 17.086 18.8578 15.6943 18.2161 14.586L11.9411 3.74434C11.2994 2.636 9.69945 2.636 9.05778 3.74434L2.78278 14.586ZM9.66612 8.75267V10.4193C9.66612 10.8777 10.0411 11.2527 10.4994 11.2527C10.9578 11.2527 11.3328 10.8777 11.3328 10.4193V8.75267C11.3328 8.29434 10.9578 7.91934 10.4994 7.91934C10.0411 7.91934 9.66612 8.29434 9.66612 8.75267ZM9.66612 12.9193H11.3328V14.586H9.66612V12.9193Z" fill="#ED4258"/>
</svg>