<svg width="18" height="18" viewBox="0 0 18 18" fill="none" xmlns="http://www.w3.org/2000/svg">
<path d="M15.3505 4.55552C15.8776 4.02842 15.8776 3.17242 15.3505 2.64532C14.8234 2.11823 13.9674 2.11823 13.4403 2.64532L9 7.0898L4.55552 2.64954C4.02842 2.12244 3.17242 2.12244 2.64532 2.64954C2.11823 3.17664 2.11823 4.03264 2.64532 4.55974L7.0898 9L2.64954 13.4445C2.12244 13.9716 2.12244 14.8276 2.64954 15.3547C3.17664 15.8818 4.03264 15.8818 4.55974 15.3547L9 10.9102L13.4445 15.3505C13.9716 15.8776 14.8276 15.8776 15.3547 15.3505C15.8818 14.8234 15.8818 13.9674 15.3547 13.4403L10.9102 9L15.3505 4.55552Z" fill="#D1D5DB"/>
</svg>
